<svg xmlns="http://www.w3.org/2000/svg" version="1.1" viewBox="0 0 900 512">
<g stroke-width="2.0" fill="none" stroke-linecap="butt">
<path stroke="#be7266" vector-effect="non-scaling-stroke" d="
  M 541.00 185.71
  L 534.54 199.75"
/>
<path stroke="#ffb0a4" vector-effect="non-scaling-stroke" d="
  M 534.54 199.75
  Q 516.75 236.27 492.56 277.56
  Q 470.13 315.86 445.24 353.30
  C 445.08 353.53 444.74 353.53 444.58 353.29
  Q 437.63 342.50 430.77 331.97
  Q 389.71 268.92 356.19 201.56
  Q 355.62 200.42 355.00 199.96"
/>
<path stroke="#be7266" vector-effect="non-scaling-stroke" d="
  M 355.00 199.96
  Q 352.93 192.58 348.96 186.00"
/>
<path stroke="#bec1c1" vector-effect="non-scaling-stroke" d="
  M 355.00 199.96
  Q 334.63 200.02 314.26 200.01
  Q 304.30 200.00 300.36 201.18
  Q 293.01 203.39 288.49 209.49
  Q 285.81 213.10 282.90 222.62
  Q 246.35 342.12 210.49 461.82
  Q 208.41 468.76 208.50 476.00
  Q 208.58 481.64 211.00 487.50
  Q 213.35 493.18 218.20 495.62
  Q 220.95 497.00 226.54 497.00
  Q 449.04 497.00 671.53 497.00
  Q 671.59 497.00 674.46 497.10
  Q 680.88 497.33 685.06 493.44
  Q 688.20 490.52 690.06 484.70
  Q 691.76 479.43 691.50 474.50
  Q 691.06 465.98 689.19 459.81
  Q 653.28 341.49 617.35 223.18
  Q 616.92 221.76 615.25 217.00
  Q 611.25 205.62 600.92 201.58
  Q 597.54 200.26 591.88 200.18
  Q 561.32 199.76 538.75 200.00
  Q 536.03 200.03 534.54 199.75"
/>
<path stroke="#96ddcc" vector-effect="non-scaling-stroke" d="
  M 345.42 266.91
  L 369.19 271.83
  C 369.47 271.89 369.75 271.72 369.81 271.46
  L 374.62 252.05
  C 374.73 251.63 374.43 251.20 373.99 251.15
  L 335.50 246.32
  C 335.21 246.28 334.94 246.46 334.87 246.73
  Q 334.03 250.20 335.75 253.00
  Q 338.78 257.94 344.65 266.40
  C 344.83 266.66 345.10 266.84 345.42 266.91"
/>
<path stroke="#96ddcc" vector-effect="non-scaling-stroke" d="
  M 540.90 313.38
  L 569.59 337.82
  C 570.05 338.21 570.65 338.39 571.26 338.31
  L 609.10 333.62
  Q 610.20 333.48 609.37 332.75
  Q 600.50 325.05 596.31 313.94
  Q 591.71 301.75 589.42 288.92
  Q 586.31 271.49 585.41 253.30
  Q 585.31 251.23 583.44 250.32
  Q 578.34 247.84 572.58 247.20
  Q 568.28 246.72 561.41 247.11
  Q 550.70 247.71 540.53 251.39
  C 540.25 251.49 540.06 251.76 540.06 252.06
  L 540.00 311.41
  C 540.00 312.17 540.33 312.89 540.90 313.38"
/>
<path stroke="#faf8f9" vector-effect="non-scaling-stroke" d="
  M 289.14 288.96
  Q 288.08 304.50 286.21 320.75
  Q 285.31 328.60 284.96 337.65
  C 284.94 337.99 285.22 338.27 285.56 338.26
  Q 298.65 338.08 310.76 337.20
  Q 339.49 335.11 368.22 333.75
  C 369.02 333.71 369.63 333.02 369.54 332.24
  L 364.73 288.14
  C 364.66 287.53 364.13 287.06 363.50 287.06
  L 291.23 287.00
  Q 289.27 287.00 289.14 288.96"
/>
<path stroke="#faf8f9" vector-effect="non-scaling-stroke" d="
  M 512.03 315.53
  Q 505.84 321.87 499.97 328.50
  Q 499.91 328.56 497.51 330.99
  Q 495.31 333.21 494.16 336.18
  Q 491.94 341.91 490.32 347.83
  C 490.25 348.07 490.44 348.30 490.69 348.29
  Q 492.85 348.14 497.06 347.31
  Q 518.01 343.18 539.32 338.86
  C 539.75 338.77 539.99 338.32 539.82 337.92
  L 525.62 303.66
  C 525.39 303.10 524.67 302.96 524.24 303.38
  Q 518.20 309.21 512.03 315.53"
/>
<path stroke="#faf8f9" vector-effect="non-scaling-stroke" d="
  M 295.93 349.05
  Q 305.33 355.71 315.41 361.27
  Q 319.15 363.33 319.81 364.94
  Q 324.75 376.79 326.50 389.50
  Q 326.68 390.81 326.16 393.46
  C 326.11 393.72 326.30 393.96 326.56 393.97
  Q 328.89 394.09 331.13 393.51
  Q 333.97 392.78 334.04 392.76
  Q 375.98 384.14 417.71 374.76
  Q 419.85 374.28 418.22 372.81
  L 380.01 338.62
  C 379.76 338.41 379.43 338.32 379.11 338.38
  Q 373.04 339.58 367.52 340.18
  Q 337.23 343.49 307.02 347.42
  Q 301.32 348.16 296.25 348.07
  Q 294.50 348.05 295.93 349.05"
/>
<path stroke="#faf8f9" vector-effect="non-scaling-stroke" d="
  M 570.07 388.06
  Q 573.81 389.08 576.94 391.06
  Q 593.73 401.72 610.57 412.31
  Q 614.39 414.71 616.94 415.20
  Q 620.20 415.83 624.10 415.37
  C 624.65 415.31 625.02 414.78 624.88 414.25
  L 610.60 359.90
  C 610.43 359.26 609.91 358.77 609.25 358.63
  Q 582.50 352.85 557.00 351.06
  Q 547.08 350.36 533.00 350.75
  Q 517.75 351.17 504.65 356.58
  Q 488.06 363.43 470.95 369.02
  C 470.46 369.18 470.24 369.74 470.49 370.18
  L 489.81 404.25
  C 489.96 404.52 490.26 404.65 490.55 404.58
  Q 492.53 404.12 495.69 402.94
  Q 517.85 394.66 542.75 389.25
  Q 551.85 387.27 562.72 387.26
  Q 567.13 387.25 570.07 388.06"
/>
<path stroke="#96ddcc" vector-effect="non-scaling-stroke" d="
  M 292.95 374.88
  Q 284.21 369.22 275.11 364.21
  C 274.77 364.03 274.36 364.25 274.33 364.62
  L 269.68 414.72
  Q 269.47 417.02 271.53 415.98
  Q 277.22 413.13 282.72 410.73
  Q 285.63 409.46 287.06 408.36
  Q 288.88 406.95 290.69 404.94
  Q 296.95 397.97 305.86 394.18
  Q 307.70 393.41 307.09 391.51
  Q 305.36 386.05 301.57 381.74
  Q 299.00 378.81 292.95 374.88"
/>
<path stroke="#faf8f9" vector-effect="non-scaling-stroke" d="
  M 298.66 476.72
  Q 300.66 476.71 302.41 477.09
  Q 304.77 477.60 304.16 475.47
  C 304.06 475.15 304.09 474.82 304.24 474.57
  Q 307.15 469.53 312.94 466.19
  Q 327.32 457.88 339.19 452.94
  Q 383.20 434.63 429.55 423.46
  Q 442.37 420.37 449.25 419.50
  Q 456.45 418.59 463.52 419.17
  Q 464.10 419.22 463.76 418.76
  L 435.08 379.83
  C 434.61 379.19 433.81 378.89 433.03 379.05
  Q 423.62 380.99 414.28 384.08
  Q 383.27 394.33 352.91 406.37
  Q 313.30 422.08 274.56 439.81
  Q 269.42 442.16 264.73 445.28
  C 264.47 445.45 264.29 445.73 264.25 446.05
  L 259.64 475.61
  C 259.53 476.34 260.08 477.00 260.80 476.99
  L 298.66 476.72"
/>
<path stroke="#aedce5" vector-effect="non-scaling-stroke" d="
  M 545.94 476.82
  L 639.58 477.00
  C 640.06 477.00 640.44 476.57 640.38 476.08
  L 635.74 436.70
  C 635.68 436.17 635.25 435.75 634.72 435.71
  Q 614.60 434.20 595.63 426.02
  Q 586.07 421.90 580.69 415.81
  Q 577.60 412.32 575.17 405.72
  C 575.07 405.44 574.81 405.25 574.51 405.24
  L 511.11 405.01
  C 510.50 405.00 509.95 405.41 509.75 406.01
  L 505.22 419.55
  C 505.08 419.98 505.15 420.44 505.40 420.80
  L 545.14 476.41
  C 545.32 476.66 545.62 476.81 545.94 476.82"
/>
<path stroke="#96ddcc" vector-effect="non-scaling-stroke" d="
  M 341.19 476.79
  Q 419.47 476.71 499.35 476.75
  C 499.66 476.75 499.86 476.42 499.71 476.15
  L 480.56 441.74
  C 480.31 441.30 479.73 441.18 479.33 441.50
  Q 463.15 454.45 443.01 447.46
  Q 436.63 445.24 430.71 441.31
  C 430.25 441.00 429.68 440.94 429.17 441.15
  L 341.09 476.20
  C 340.87 476.29 340.73 476.47 340.78 476.61
  Q 340.84 476.79 341.19 476.79"
/>
</g>
<path fill="#ff6148" d="
  M 541.00 185.71
  L 534.54 199.75
  Q 516.75 236.27 492.56 277.56
  Q 470.13 315.86 445.24 353.30
  C 445.08 353.53 444.74 353.53 444.58 353.29
  Q 437.63 342.50 430.77 331.97
  Q 389.71 268.92 356.19 201.56
  Q 355.62 200.42 355.00 199.96
  Q 352.93 192.58 348.96 186.00
  Q 349.07 185.40 349.00 185.25
  Q 344.86 175.79 339.19 160.81
  Q 333.06 144.65 330.78 128.20
  Q 329.39 118.18 330.13 108.25
  Q 333.26 66.54 362.06 36.31
  Q 388.37 8.70 425.50 2.25
  Q 450.17 -2.04 474.38 4.36
  Q 483.99 6.90 493.14 11.20
  Q 524.01 25.69 542.31 54.94
  Q 559.01 81.62 560.06 113.01
  Q 560.38 122.66 558.51 132.89
  Q 556.11 145.96 551.54 158.51
  Q 546.55 172.22 541.00 185.71
  Z
  M 446.0301 177.2507
  C 479.09 176.67 505.42 149.02 504.8309 115.4751
  C 504.25 81.93 476.97 55.21 443.9099 55.7893
  C 410.85 56.37 384.52 84.02 385.1091 117.5649
  C 385.69 151.11 412.97 177.83 446.0301 177.2507
  Z"
/>
<path fill="#7d8383" d="
  M 348.96 186.00
  Q 352.93 192.58 355.00 199.96
  Q 334.63 200.02 314.26 200.01
  Q 304.30 200.00 300.36 201.18
  Q 293.01 203.39 288.49 209.49
  Q 285.81 213.10 282.90 222.62
  Q 246.35 342.12 210.49 461.82
  Q 208.41 468.76 208.50 476.00
  Q 208.58 481.64 211.00 487.50
  Q 213.35 493.18 218.20 495.62
  Q 220.95 497.00 226.54 497.00
  Q 449.04 497.00 671.53 497.00
  Q 671.59 497.00 674.46 497.10
  Q 680.88 497.33 685.06 493.44
  Q 688.20 490.52 690.06 484.70
  Q 691.76 479.43 691.50 474.50
  Q 691.06 465.98 689.19 459.81
  Q 653.28 341.49 617.35 223.18
  Q 616.92 221.76 615.25 217.00
  Q 611.25 205.62 600.92 201.58
  Q 597.54 200.26 591.88 200.18
  Q 561.32 199.76 538.75 200.00
  Q 536.03 200.03 534.54 199.75
  L 541.00 185.71
  Q 542.79 186.11 545.50 186.00
  Q 561.27 185.39 580.09 185.67
  Q 580.18 185.67 588.90 185.46
  Q 595.83 185.29 602.49 186.97
  Q 609.35 188.71 614.70 192.65
  Q 620.80 197.15 624.82 203.55
  Q 627.50 207.80 630.32 217.09
  Q 665.45 333.07 700.68 449.02
  Q 702.66 455.53 704.21 462.15
  Q 707.57 476.59 703.23 489.88
  Q 699.83 500.27 692.96 505.73
  Q 685.05 512.03 673.75 511.75
  Q 672.01 511.71 671.19 512.00
  Q 448.31 512.00 225.44 512.00
  Q 208.08 510.97 200.11 497.75
  Q 196.39 491.58 194.93 482.70
  Q 193.57 474.39 194.81 466.56
  Q 196.02 458.98 199.56 447.40
  Q 234.47 333.35 269.03 219.19
  Q 272.49 207.74 275.47 203.00
  Q 281.35 193.61 291.19 188.94
  Q 297.16 186.10 306.75 185.86
  Q 325.62 185.38 344.50 185.75
  Q 348.29 185.82 348.96 186.00
  Z"
/>
<path fill="#ffffff" d="
  M 534.54 199.75
  Q 536.03 200.03 538.75 200.00
  Q 561.32 199.76 591.88 200.18
  Q 597.54 200.26 600.92 201.58
  Q 611.25 205.62 615.25 217.00
  Q 616.92 221.76 617.35 223.18
  Q 653.28 341.49 689.19 459.81
  Q 691.06 465.98 691.50 474.50
  Q 691.76 479.43 690.06 484.70
  Q 688.20 490.52 685.06 493.44
  Q 680.88 497.33 674.46 497.10
  Q 671.59 497.00 671.53 497.00
  Q 449.04 497.00 226.54 497.00
  Q 220.95 497.00 218.20 495.62
  Q 213.35 493.18 211.00 487.50
  Q 208.58 481.64 208.50 476.00
  Q 208.41 468.76 210.49 461.82
  Q 246.35 342.12 282.90 222.62
  Q 285.81 213.10 288.49 209.49
  Q 293.01 203.39 300.36 201.18
  Q 304.30 200.00 314.26 200.01
  Q 334.63 200.02 355.00 199.96
  Q 355.62 200.42 356.19 201.56
  Q 389.71 268.92 430.77 331.97
  Q 437.63 342.50 444.58 353.29
  C 444.74 353.53 445.08 353.53 445.24 353.30
  Q 470.13 315.86 492.56 277.56
  Q 516.75 236.27 534.54 199.75
  Z
  M 345.42 266.91
  L 369.19 271.83
  C 369.47 271.89 369.75 271.72 369.81 271.46
  L 374.62 252.05
  C 374.73 251.63 374.43 251.20 373.99 251.15
  L 335.50 246.32
  C 335.21 246.28 334.94 246.46 334.87 246.73
  Q 334.03 250.20 335.75 253.00
  Q 338.78 257.94 344.65 266.40
  C 344.83 266.66 345.10 266.84 345.42 266.91
  Z
  M 540.90 313.38
  L 569.59 337.82
  C 570.05 338.21 570.65 338.39 571.26 338.31
  L 609.10 333.62
  Q 610.20 333.48 609.37 332.75
  Q 600.50 325.05 596.31 313.94
  Q 591.71 301.75 589.42 288.92
  Q 586.31 271.49 585.41 253.30
  Q 585.31 251.23 583.44 250.32
  Q 578.34 247.84 572.58 247.20
  Q 568.28 246.72 561.41 247.11
  Q 550.70 247.71 540.53 251.39
  C 540.25 251.49 540.06 251.76 540.06 252.06
  L 540.00 311.41
  C 540.00 312.17 540.33 312.89 540.90 313.38
  Z
  M 289.14 288.96
  Q 288.08 304.50 286.21 320.75
  Q 285.31 328.60 284.96 337.65
  C 284.94 337.99 285.22 338.27 285.56 338.26
  Q 298.65 338.08 310.76 337.20
  Q 339.49 335.11 368.22 333.75
  C 369.02 333.71 369.63 333.02 369.54 332.24
  L 364.73 288.14
  C 364.66 287.53 364.13 287.06 363.50 287.06
  L 291.23 287.00
  Q 289.27 287.00 289.14 288.96
  Z
  M 512.03 315.53
  Q 505.84 321.87 499.97 328.50
  Q 499.91 328.56 497.51 330.99
  Q 495.31 333.21 494.16 336.18
  Q 491.94 341.91 490.32 347.83
  C 490.25 348.07 490.44 348.30 490.69 348.29
  Q 492.85 348.14 497.06 347.31
  Q 518.01 343.18 539.32 338.86
  C 539.75 338.77 539.99 338.32 539.82 337.92
  L 525.62 303.66
  C 525.39 303.10 524.67 302.96 524.24 303.38
  Q 518.20 309.21 512.03 315.53
  Z
  M 295.93 349.05
  Q 305.33 355.71 315.41 361.27
  Q 319.15 363.33 319.81 364.94
  Q 324.75 376.79 326.50 389.50
  Q 326.68 390.81 326.16 393.46
  C 326.11 393.72 326.30 393.96 326.56 393.97
  Q 328.89 394.09 331.13 393.51
  Q 333.97 392.78 334.04 392.76
  Q 375.98 384.14 417.71 374.76
  Q 419.85 374.28 418.22 372.81
  L 380.01 338.62
  C 379.76 338.41 379.43 338.32 379.11 338.38
  Q 373.04 339.58 367.52 340.18
  Q 337.23 343.49 307.02 347.42
  Q 301.32 348.16 296.25 348.07
  Q 294.50 348.05 295.93 349.05
  Z
  M 570.07 388.06
  Q 573.81 389.08 576.94 391.06
  Q 593.73 401.72 610.57 412.31
  Q 614.39 414.71 616.94 415.20
  Q 620.20 415.83 624.10 415.37
  C 624.65 415.31 625.02 414.78 624.88 414.25
  L 610.60 359.90
  C 610.43 359.26 609.91 358.77 609.25 358.63
  Q 582.50 352.85 557.00 351.06
  Q 547.08 350.36 533.00 350.75
  Q 517.75 351.17 504.65 356.58
  Q 488.06 363.43 470.95 369.02
  C 470.46 369.18 470.24 369.74 470.49 370.18
  L 489.81 404.25
  C 489.96 404.52 490.26 404.65 490.55 404.58
  Q 492.53 404.12 495.69 402.94
  Q 517.85 394.66 542.75 389.25
  Q 551.85 387.27 562.72 387.26
  Q 567.13 387.25 570.07 388.06
  Z
  M 292.95 374.88
  Q 284.21 369.22 275.11 364.21
  C 274.77 364.03 274.36 364.25 274.33 364.62
  L 269.68 414.72
  Q 269.47 417.02 271.53 415.98
  Q 277.22 413.13 282.72 410.73
  Q 285.63 409.46 287.06 408.36
  Q 288.88 406.95 290.69 404.94
  Q 296.95 397.97 305.86 394.18
  Q 307.70 393.41 307.09 391.51
  Q 305.36 386.05 301.57 381.74
  Q 299.00 378.81 292.95 374.88
  Z
  M 298.66 476.72
  Q 300.66 476.71 302.41 477.09
  Q 304.77 477.60 304.16 475.47
  C 304.06 475.15 304.09 474.82 304.24 474.57
  Q 307.15 469.53 312.94 466.19
  Q 327.32 457.88 339.19 452.94
  Q 383.20 434.63 429.55 423.46
  Q 442.37 420.37 449.25 419.50
  Q 456.45 418.59 463.52 419.17
  Q 464.10 419.22 463.76 418.76
  L 435.08 379.83
  C 434.61 379.19 433.81 378.89 433.03 379.05
  Q 423.62 380.99 414.28 384.08
  Q 383.27 394.33 352.91 406.37
  Q 313.30 422.08 274.56 439.81
  Q 269.42 442.16 264.73 445.28
  C 264.47 445.45 264.29 445.73 264.25 446.05
  L 259.64 475.61
  C 259.53 476.34 260.08 477.00 260.80 476.99
  L 298.66 476.72
  Z
  M 545.94 476.82
  L 639.58 477.00
  C 640.06 477.00 640.44 476.57 640.38 476.08
  L 635.74 436.70
  C 635.68 436.17 635.25 435.75 634.72 435.71
  Q 614.60 434.20 595.63 426.02
  Q 586.07 421.90 580.69 415.81
  Q 577.60 412.32 575.17 405.72
  C 575.07 405.44 574.81 405.25 574.51 405.24
  L 511.11 405.01
  C 510.50 405.00 509.95 405.41 509.75 406.01
  L 505.22 419.55
  C 505.08 419.98 505.15 420.44 505.40 420.80
  L 545.14 476.41
  C 545.32 476.66 545.62 476.81 545.94 476.82
  Z
  M 341.19 476.79
  Q 419.47 476.71 499.35 476.75
  C 499.66 476.75 499.86 476.42 499.71 476.15
  L 480.56 441.74
  C 480.31 441.30 479.73 441.18 479.33 441.50
  Q 463.15 454.45 443.01 447.46
  Q 436.63 445.24 430.71 441.31
  C 430.25 441.00 429.68 440.94 429.17 441.15
  L 341.09 476.20
  C 340.87 476.29 340.73 476.47 340.78 476.61
  Q 340.84 476.79 341.19 476.79
  Z"
/>
<path fill="#2dbb98" d="
  M 344.65 266.40
  Q 338.78 257.94 335.75 253.00
  Q 334.03 250.20 334.87 246.73
  C 334.94 246.46 335.21 246.28 335.50 246.32
  L 373.99 251.15
  C 374.43 251.20 374.73 251.63 374.62 252.05
  L 369.81 271.46
  C 369.75 271.72 369.47 271.89 369.19 271.83
  L 345.42 266.91
  C 345.10 266.84 344.83 266.66 344.65 266.40
  Z"
/>
<path fill="#2dbb98" d="
  M 540.90 313.38
  C 540.33 312.89 540.00 312.17 540.00 311.41
  L 540.06 252.06
  C 540.06 251.76 540.25 251.49 540.53 251.39
  Q 550.70 247.71 561.41 247.11
  Q 568.28 246.72 572.58 247.20
  Q 578.34 247.84 583.44 250.32
  Q 585.31 251.23 585.41 253.30
  Q 586.31 271.49 589.42 288.92
  Q 591.71 301.75 596.31 313.94
  Q 600.50 325.05 609.37 332.75
  Q 610.20 333.48 609.10 333.62
  L 571.26 338.31
  C 570.65 338.39 570.05 338.21 569.59 337.82
  L 540.90 313.38
  Z"
/>
<path fill="#f5f0f3" d="
  M 289.14 288.96
  Q 289.27 287.00 291.23 287.00
  L 363.50 287.06
  C 364.13 287.06 364.66 287.53 364.73 288.14
  L 369.54 332.24
  C 369.63 333.02 369.02 333.71 368.22 333.75
  Q 339.49 335.11 310.76 337.20
  Q 298.65 338.08 285.56 338.26
  C 285.22 338.27 284.94 337.99 284.96 337.65
  Q 285.31 328.60 286.21 320.75
  Q 288.08 304.50 289.14 288.96
  Z"
/>
<path fill="#f5f0f3" d="
  M 512.03 315.53
  Q 518.20 309.21 524.24 303.38
  C 524.67 302.96 525.39 303.10 525.62 303.66
  L 539.82 337.92
  C 539.99 338.32 539.75 338.77 539.32 338.86
  Q 518.01 343.18 497.06 347.31
  Q 492.85 348.14 490.69 348.29
  C 490.44 348.30 490.25 348.07 490.32 347.83
  Q 491.94 341.91 494.16 336.18
  Q 495.31 333.21 497.51 330.99
  Q 499.91 328.56 499.97 328.50
  Q 505.84 321.87 512.03 315.53
  Z"
/>
<path fill="#f5f0f3" d="
  M 295.93 349.05
  Q 294.50 348.05 296.25 348.07
  Q 301.32 348.16 307.02 347.42
  Q 337.23 343.49 367.52 340.18
  Q 373.04 339.58 379.11 338.38
  C 379.43 338.32 379.76 338.41 380.01 338.62
  L 418.22 372.81
  Q 419.85 374.28 417.71 374.76
  Q 375.98 384.14 334.04 392.76
  Q 333.97 392.78 331.13 393.51
  Q 328.89 394.09 326.56 393.97
  C 326.30 393.96 326.11 393.72 326.16 393.46
  Q 326.68 390.81 326.50 389.50
  Q 324.75 376.79 319.81 364.94
  Q 319.15 363.33 315.41 361.27
  Q 305.33 355.71 295.93 349.05
  Z"
/>
<path fill="#f5f0f3" d="
  M 562.72 387.26
  Q 551.85 387.27 542.75 389.25
  Q 517.85 394.66 495.69 402.94
  Q 492.53 404.12 490.55 404.58
  C 490.26 404.65 489.96 404.52 489.81 404.25
  L 470.49 370.18
  C 470.24 369.74 470.46 369.18 470.95 369.02
  Q 488.06 363.43 504.65 356.58
  Q 517.75 351.17 533.00 350.75
  Q 547.08 350.36 557.00 351.06
  Q 582.50 352.85 609.25 358.63
  C 609.91 358.77 610.43 359.26 610.60 359.90
  L 624.88 414.25
  C 625.02 414.78 624.65 415.31 624.10 415.37
  Q 620.20 415.83 616.94 415.20
  Q 614.39 414.71 610.57 412.31
  Q 593.73 401.72 576.94 391.06
  Q 573.81 389.08 570.07 388.06
  Q 567.13 387.25 562.72 387.26
  Z"
/>
<path fill="#2dbb98" d="
  M 301.57 381.74
  Q 305.36 386.05 307.09 391.51
  Q 307.70 393.41 305.86 394.18
  Q 296.95 397.97 290.69 404.94
  Q 288.88 406.95 287.06 408.36
  Q 285.63 409.46 282.72 410.73
  Q 277.22 413.13 271.53 415.98
  Q 269.47 417.02 269.68 414.72
  L 274.33 364.62
  C 274.36 364.25 274.77 364.03 275.11 364.21
  Q 284.21 369.22 292.95 374.88
  Q 299.00 378.81 301.57 381.74
  Z"
/>
<path fill="#f5f0f3" d="
  M 298.66 476.72
  L 260.80 476.99
  C 260.08 477.00 259.53 476.34 259.64 475.61
  L 264.25 446.05
  C 264.29 445.73 264.47 445.45 264.73 445.28
  Q 269.42 442.16 274.56 439.81
  Q 313.30 422.08 352.91 406.37
  Q 383.27 394.33 414.28 384.08
  Q 423.62 380.99 433.03 379.05
  C 433.81 378.89 434.61 379.19 435.08 379.83
  L 463.76 418.76
  Q 464.10 419.22 463.52 419.17
  Q 456.45 418.59 449.25 419.50
  Q 442.37 420.37 429.55 423.46
  Q 383.20 434.63 339.19 452.94
  Q 327.32 457.88 312.94 466.19
  Q 307.15 469.53 304.24 474.57
  C 304.09 474.82 304.06 475.15 304.16 475.47
  Q 304.77 477.60 302.41 477.09
  Q 300.66 476.71 298.66 476.72
  Z"
/>
<path fill="#5db9ca" d="
  M 545.14 476.41
  L 505.40 420.80
  C 505.15 420.44 505.08 419.98 505.22 419.55
  L 509.75 406.01
  C 509.95 405.41 510.50 405.00 511.11 405.01
  L 574.51 405.24
  C 574.81 405.25 575.07 405.44 575.17 405.72
  Q 577.60 412.32 580.69 415.81
  Q 586.07 421.90 595.63 426.02
  Q 614.60 434.20 634.72 435.71
  C 635.25 435.75 635.68 436.17 635.74 436.70
  L 640.38 476.08
  C 640.44 476.57 640.06 477.00 639.58 477.00
  L 545.94 476.82
  C 545.62 476.81 545.32 476.66 545.14 476.41
  Z"
/>
<path fill="#2dbb98" d="
  M 341.19 476.79
  Q 340.84 476.79 340.78 476.61
  C 340.73 476.47 340.87 476.29 341.09 476.20
  L 429.17 441.15
  C 429.68 440.94 430.25 441.00 430.71 441.31
  Q 436.63 445.24 443.01 447.46
  Q 463.15 454.45 479.33 441.50
  C 479.73 441.18 480.31 441.30 480.56 441.74
  L 499.71 476.15
  C 499.86 476.42 499.66 476.75 499.35 476.75
  Q 419.47 476.71 341.19 476.79
  Z"
/>
</svg>
