<svg xmlns="http://www.w3.org/2000/svg" version="1.1" viewBox="0 0 80 72">
<g stroke-width="2.0" fill="none" stroke-linecap="butt">
<path stroke="#ff8080" vector-effect="non-scaling-stroke" d="
  M 43.96 27.32
  Q 44.09 24.19 44.17 21.06
  C 44.18 20.77 43.98 20.51 43.70 20.46
  Q 40.29 19.80 36.92 20.57
  C 36.64 20.63 36.44 20.89 36.45 21.18
  L 37.49 45.91
  C 37.51 46.38 37.90 46.75 38.38 46.75
  L 42.74 46.75
  C 43.00 46.75 43.22 46.54 43.23 46.28
  Q 43.59 36.53 43.96 27.32"
/>
<path stroke="#f40000" vector-effect="non-scaling-stroke" d="
  M 68.21 57.54
  Q 62.90 60.84 56.19 63.94
  Q 53.02 65.40 48.09 65.44
  Q 41.09 65.49 39.92 65.46
  Q 36.02 65.38 32.30 64.17
  Q 30.15 63.47 28.23 63.06
  Q 26.15 62.62 24.14 61.93
  Q 20.42 60.64 19.35 60.10
  Q 16.77 58.81 15.56 56.44
  Q 14.37 54.10 13.59 53.13
  C 13.38 52.87 13.29 52.54 13.36 52.26
  Q 14.09 49.30 15.67 46.67
  Q 15.83 46.41 15.75 46.23
  Q 15.60 45.84 15.32 46.29
  Q 9.72 55.25 7.50 60.50
  Q 6.30 63.35 8.06 64.98
  Q 9.17 65.99 11.74 66.03
  Q 39.54 66.42 67.34 66.44
  Q 70.48 66.44 71.89 65.64
  Q 74.72 64.04 73.19 60.31
  Q 71.07 55.16 65.34 46.72
  Q 64.87 46.03 65.24 46.79
  L 68.97 54.37
  Q 69.99 56.44 68.21 57.54"
/>
<path stroke="#ff8080" vector-effect="non-scaling-stroke" d="
  M 44.84 54.88
  C 44.84 52.40 42.83 50.39 40.35 50.39
  C 37.87 50.39 35.86 52.40 35.86 54.88
  C 35.86 57.36 37.87 59.37 40.35 59.37
  C 42.83 59.37 44.84 57.36 44.84 54.88"
/>
</g>
<path fill="#fe0000" d="
  M 31.08 6.56
  Q 32.30 4.46 34.18 2.92
  Q 40.08 -1.89 45.94 2.81
  Q 47.75 4.27 49.35 7.09
  Q 62.76 30.70 75.91 54.45
  Q 79.21 60.40 79.42 63.07
  Q 79.78 67.70 75.50 70.14
  Q 73.23 71.43 69.11 71.45
  Q 41.48 71.54 13.85 71.50
  Q 8.33 71.50 7.67 71.38
  Q 4.20 70.79 2.13 67.99
  Q 0.35 65.56 0.75 62.66
  Q 1.10 60.11 2.69 57.19
  Q 16.68 31.35 31.08 6.56
  Z
  M 43.96 27.32
  Q 44.09 24.19 44.17 21.06
  C 44.18 20.77 43.98 20.51 43.70 20.46
  Q 40.29 19.80 36.92 20.57
  C 36.64 20.63 36.44 20.89 36.45 21.18
  L 37.49 45.91
  C 37.51 46.38 37.90 46.75 38.38 46.75
  L 42.74 46.75
  C 43.00 46.75 43.22 46.54 43.23 46.28
  Q 43.59 36.53 43.96 27.32
  Z
  M 68.21 57.54
  Q 62.90 60.84 56.19 63.94
  Q 53.02 65.40 48.09 65.44
  Q 41.09 65.49 39.92 65.46
  Q 36.02 65.38 32.30 64.17
  Q 30.15 63.47 28.23 63.06
  Q 26.15 62.62 24.14 61.93
  Q 20.42 60.64 19.35 60.10
  Q 16.77 58.81 15.56 56.44
  Q 14.37 54.10 13.59 53.13
  C 13.38 52.87 13.29 52.54 13.36 52.26
  Q 14.09 49.30 15.67 46.67
  Q 15.83 46.41 15.75 46.23
  Q 15.60 45.84 15.32 46.29
  Q 9.72 55.25 7.50 60.50
  Q 6.30 63.35 8.06 64.98
  Q 9.17 65.99 11.74 66.03
  Q 39.54 66.42 67.34 66.44
  Q 70.48 66.44 71.89 65.64
  Q 74.72 64.04 73.19 60.31
  Q 71.07 55.16 65.34 46.72
  Q 64.87 46.03 65.24 46.79
  L 68.97 54.37
  Q 69.99 56.44 68.21 57.54
  Z
  M 44.84 54.88
  C 44.84 52.40 42.83 50.39 40.35 50.39
  C 37.87 50.39 35.86 52.40 35.86 54.88
  C 35.86 57.36 37.87 59.37 40.35 59.37
  C 42.83 59.37 44.84 57.36 44.84 54.88
  Z"
/>
<path fill="#ffffff" d="
  M 43.96 27.32
  Q 43.59 36.53 43.23 46.28
  C 43.22 46.54 43.00 46.75 42.74 46.75
  L 38.38 46.75
  C 37.90 46.75 37.51 46.38 37.49 45.91
  L 36.45 21.18
  C 36.44 20.89 36.64 20.63 36.92 20.57
  Q 40.29 19.80 43.70 20.46
  C 43.98 20.51 44.18 20.77 44.17 21.06
  Q 44.09 24.19 43.96 27.32
  Z"
/>
<path fill="#ea0000" d="
  M 68.21 57.54
  Q 69.99 56.44 68.97 54.37
  L 65.24 46.79
  Q 64.87 46.03 65.34 46.72
  Q 71.07 55.16 73.19 60.31
  Q 74.72 64.04 71.89 65.64
  Q 70.48 66.44 67.34 66.44
  Q 39.54 66.42 11.74 66.03
  Q 9.17 65.99 8.06 64.98
  Q 6.30 63.35 7.50 60.50
  Q 9.72 55.25 15.32 46.29
  Q 15.60 45.84 15.75 46.23
  Q 15.83 46.41 15.67 46.67
  Q 14.09 49.30 13.36 52.26
  C 13.29 52.54 13.38 52.87 13.59 53.13
  Q 14.37 54.10 15.56 56.44
  Q 16.77 58.81 19.35 60.10
  Q 20.42 60.64 24.14 61.93
  Q 26.15 62.62 28.23 63.06
  Q 30.15 63.47 32.30 64.17
  Q 36.02 65.38 39.92 65.46
  Q 41.09 65.49 48.09 65.44
  Q 53.02 65.40 56.19 63.94
  Q 62.90 60.84 68.21 57.54
  Z"
/>
<circle fill="#ffffff" cx="40.35" cy="54.88" r="4.49"/>
</svg>
