<svg xmlns="http://www.w3.org/2000/svg" version="1.1" viewBox="0 0 820 715">
<g stroke-width="2.0" fill="none" stroke-linecap="butt">
<path stroke="#679d7e" vector-effect="non-scaling-stroke" d="
  M 666.54 436.75
  Q 663.54 438.09 660.25 437.21"
/>
<path stroke="#e5e2e3" vector-effect="non-scaling-stroke" d="
  M 660.25 437.21
  Q 659.75 434.22 659.75 429.50
  Q 659.75 286.37 659.75 142.37
  C 659.75 141.64 659.16 141.06 658.44 141.07
  Q 630.34 141.38 601.75 141.40
  Q 591.29 141.40 584.06 137.69
  Q 568.56 129.72 568.36 111.00
  Q 568.04 81.91 568.33 51.33
  C 568.33 50.78 567.94 50.31 567.40 50.22
  Q 564.87 49.80 561.75 49.81
  Q 394.41 50.17 227.07 49.76
  Q 226.98 49.76 219.94 49.43
  Q 212.75 49.09 206.69 51.44
  Q 196.04 55.56 194.50 67.50
  Q 194.05 70.99 194.23 75.34
  Q 194.50 81.83 194.49 83.17
  Q 194.46 112.43 194.56 141.68
  C 194.56 141.98 194.75 142.25 195.04 142.34
  Q 199.30 143.62 203.75 143.79"
/>
<path stroke="#679d7e" vector-effect="non-scaling-stroke" d="
  M 203.75 143.79
  Q 196.76 144.16 189.75 144.00
  Q 187.46 143.95 186.71 143.50"
/>
<path stroke="#7fb898" vector-effect="non-scaling-stroke" d="
  M 660.25 437.21
  Q 622.42 437.10 584.59 437.47
  Q 580.34 437.51 578.06 438.50
  Q 574.92 439.86 572.58 442.55
  C 572.29 442.88 571.77 442.86 571.51 442.51
  L 479.76 322.34
  C 479.52 322.03 479.52 321.61 479.76 321.30
  L 581.02 189.72
  Q 582.54 187.74 580.06 187.74
  L 482.09 187.75
  C 481.71 187.75 481.35 187.94 481.14 188.26
  L 432.78 259.99
  C 432.63 260.20 432.32 260.20 432.18 259.98
  L 408.26 221.92
  C 408.09 221.65 408.00 221.33 407.99 221.00
  Q 407.74 207.13 408.00 193.25
  Q 408.13 186.16 407.63 165.50
  Q 407.47 158.68 405.99 155.23
  Q 403.31 149.02 397.24 145.77
  Q 394.35 144.23 389.94 144.01
  Q 384.64 143.75 377.50 143.75
  Q 290.62 143.72 203.75 143.79"
/>
<path stroke="#7fb898" vector-effect="non-scaling-stroke" d="
  M 556.00 597.29
  Q 556.37 596.70 555.92 596.37
  Q 555.30 595.91 555.29 595.90
  Q 546.75 586.95 538.55 577.69
  Q 534.51 573.12 532.67 567.32
  Q 530.92 561.76 534.19 557.94
  Q 536.58 555.14 540.29 553.96
  Q 542.52 553.25 547.30 553.20
  Q 557.18 553.08 567.86 553.27
  C 568.45 553.28 568.94 552.80 568.94 552.21
  L 568.79 481.00"
/>
<path stroke="#269462" vector-effect="non-scaling-stroke" d="
  M 568.79 481.00
  Q 569.30 478.22 568.79 475.33
  C 568.68 474.69 568.13 474.22 567.48 474.23
  Q 553.87 474.42 541.51 474.72
  Q 539.75 474.76 538.00 475.04"
/>
<path stroke="#7fb898" vector-effect="non-scaling-stroke" d="
  M 538.00 475.04
  L 499.62 475.28
  C 499.04 475.29 498.51 475.01 498.18 474.55
  L 432.64 381.99
  C 432.29 381.50 431.56 381.49 431.21 381.97
  L 363.00 474.04"
/>
<path stroke="#269462" vector-effect="non-scaling-stroke" d="
  M 363.00 474.04
  L 343.04 475.00"
/>
<path stroke="#679d7e" vector-effect="non-scaling-stroke" d="
  M 343.04 475.00
  L 319.00 475.21"
/>
<path stroke="#7fb898" vector-effect="non-scaling-stroke" d="
  M 319.00 475.21
  L 264.85 475.00
  Q 263.91 475.00 264.49 474.26
  L 385.20 322.29
  C 385.39 322.05 385.39 321.72 385.21 321.48
  L 360.72 288.07
  Q 359.75 286.75 358.12 286.75
  L 214.50 286.71"
/>
<path stroke="#679d7e" vector-effect="non-scaling-stroke" d="
  M 214.50 286.71
  Q 200.63 286.34 186.75 286.50
  Q 185.59 286.51 185.46 287.00"
/>
<path stroke="#e5e2e3" vector-effect="non-scaling-stroke" d="
  M 214.50 286.71
  Q 210.50 286.78 206.51 286.95
  Q 204.98 287.02 207.25 286.95
  Q 209.85 286.87 212.44 287.13
  Q 213.02 287.19 212.44 287.19
  L 195.44 287.24
  C 194.92 287.24 194.50 287.66 194.50 288.18
  Q 194.50 416.44 194.50 543.18
  Q 194.50 545.11 194.38 553.31
  Q 194.30 558.37 194.41 563.44
  Q 194.42 563.50 194.25 569.56
  Q 194.02 577.96 199.08 584.06
  Q 202.49 588.17 207.45 590.06
  Q 212.41 591.95 218.00 591.52
  Q 221.51 591.25 228.00 591.25
  Q 383.30 591.25 538.59 591.25
  Q 539.53 591.25 543.40 590.97
  Q 546.17 590.78 548.25 591.25
  Q 553.53 592.45 552.75 597.96"
/>
<path stroke="#e5e2e3" vector-effect="non-scaling-stroke" d="
  M 319.00 475.21
  Q 333.12 476.07 347.25 475.46"
/>
<path stroke="#a5d9c7" vector-effect="non-scaling-stroke" d="
  M 347.25 475.46
  Q 354.37 475.69 361.48 475.28
  Q 362.10 475.25 362.43 474.94
  Q 362.82 474.58 363.00 474.04"
/>
<path stroke="#a5d9c7" vector-effect="non-scaling-stroke" d="
  M 538.00 475.04
  Q 539.85 475.49 541.75 475.51
  Q 554.38 475.66 568.00 475.76
  C 568.41 475.76 568.74 476.10 568.75 476.52
  L 568.79 481.00"
/>
<path stroke="#8dbead" vector-effect="non-scaling-stroke" d="
  M 347.25 475.46
  L 343.04 475.00"
/>
<path stroke="#7fb999" vector-effect="non-scaling-stroke" d="
  M 250.57 236.61
  Q 247.11 234.72 245.31 230.94
  Q 243.55 227.23 243.00 223.07
  Q 242.59 219.97 242.40 214.94
  Q 242.14 208.22 244.07 201.83
  Q 245.36 197.57 247.38 195.22
  Q 250.06 192.11 254.00 191.25
  Q 260.04 189.93 264.69 194.81
  Q 266.84 197.08 268.13 202.01
  C 268.20 202.29 268.48 202.46 268.74 202.38
  L 279.02 199.41
  C 279.30 199.33 279.47 199.05 279.42 198.76
  Q 277.50 187.59 267.83 181.75
  Q 264.18 179.54 258.25 179.25
  Q 245.78 178.64 238.56 187.55
  Q 234.64 192.38 232.94 197.94
  Q 227.91 214.32 232.84 231.02
  Q 234.49 236.61 238.05 241.21
  Q 245.95 251.40 259.01 250.13
  Q 268.61 249.20 274.06 241.56
  Q 278.17 235.81 279.59 228.56
  C 279.65 228.25 279.51 227.94 279.24 227.84
  L 269.18 223.90
  C 268.77 223.74 268.32 224.02 268.25 224.48
  Q 267.61 228.69 265.18 232.68
  Q 262.45 237.19 257.78 237.92
  Q 254.04 238.50 250.57 236.61"
/>
<path stroke="#7fb999" vector-effect="non-scaling-stroke" d="
  M 131.56 236.70
  L 131.50 219.25
  C 131.50 218.97 131.72 218.75 132.00 218.75
  L 159.22 218.75
  C 159.51 218.75 159.75 218.51 159.76 218.21
  L 159.82 207.59
  C 159.83 207.29 159.58 207.04 159.28 207.05
  Q 145.56 207.59 132.06 206.96
  C 131.77 206.95 131.54 206.73 131.52 206.45
  Q 130.97 200.06 131.59 192.70
  C 131.62 192.30 131.96 192.00 132.36 192.00
  L 161.20 191.94
  C 161.48 191.94 161.70 191.72 161.70 191.44
  L 161.70 180.56
  C 161.70 180.28 161.47 180.06 161.18 180.06
  L 120.56 180.00
  C 120.11 180.00 119.75 180.36 119.75 180.81
  L 119.75 248.21
  C 119.75 248.54 120.02 248.81 120.36 248.81
  L 162.18 248.69
  C 162.47 248.69 162.70 248.47 162.70 248.19
  L 162.75 237.91
  C 162.75 237.55 162.45 237.25 162.08 237.25
  L 132.06 237.19
  C 131.78 237.19 131.56 236.97 131.56 236.70"
/>
<path stroke="#7fb999" vector-effect="non-scaling-stroke" d="
  M 196.68 199.76
  L 186.12 180.68
  C 185.89 180.26 185.46 180.00 185.02 180.00
  L 173.12 180.00
  C 172.55 180.00 172.18 180.62 172.46 181.13
  L 189.52 212.80
  C 189.66 213.08 189.66 213.41 189.51 213.69
  L 170.90 248.01
  C 170.72 248.34 170.95 248.74 171.32 248.74
  L 184.00 248.53
  C 184.30 248.53 184.59 248.35 184.74 248.06
  L 196.43 226.60
  Q 196.76 225.99 197.09 226.61
  L 208.50 247.81
  C 208.74 248.27 209.21 248.58 209.75 248.64
  Q 215.57 249.29 220.50 248.80
  Q 220.95 248.76 221.46 248.94
  Q 222.72 249.39 222.68 248.51
  Q 222.66 248.12 222.28 247.42
  Q 213.35 230.98 203.98 213.72
  C 203.78 213.36 203.78 212.92 203.98 212.55
  L 221.17 180.48
  C 221.28 180.26 221.13 180.00 220.88 180.00
  L 208.48 180.00
  C 208.16 180.00 207.86 180.17 207.71 180.45
  L 197.17 199.75
  Q 196.92 200.20 196.68 199.76"
/>
<path stroke="#7fb999" vector-effect="non-scaling-stroke" d="
  M 304.81 206.45
  L 304.75 192.51
  C 304.75 192.23 304.98 192.00 305.27 192.00
  L 334.75 192.00
  C 335.03 192.00 335.25 191.78 335.25 191.50
  L 335.25 180.50
  C 335.25 180.22 335.03 180.00 334.75 180.00
  L 293.82 180.00
  C 293.37 180.00 293.00 180.36 293.01 180.81
  L 293.43 248.31
  C 293.43 248.59 293.66 248.81 293.94 248.81
  L 335.72 248.75
  C 336.01 248.75 336.25 248.51 336.25 248.22
  L 336.25 237.91
  C 336.25 237.55 335.95 237.25 335.59 237.25
  L 305.42 237.25
  C 305.05 237.25 304.75 236.95 304.75 236.58
  L 304.75 219.63
  C 304.75 219.14 305.15 218.75 305.65 218.74
  L 332.31 218.58
  C 332.61 218.57 332.85 218.35 332.85 218.07
  L 332.85 207.68
  C 332.85 207.41 332.61 207.20 332.32 207.20
  L 305.31 206.96
  C 305.03 206.95 304.81 206.73 304.81 206.45"
/>
<path stroke="#7fb999" vector-effect="non-scaling-stroke" d="
  M 389.31 248.55
  L 389.35 237.94
  C 389.36 237.66 389.11 237.43 388.81 237.43
  L 362.45 237.26
  C 361.92 237.26 361.50 236.85 361.49 236.33
  L 361.26 181.60
  C 361.25 181.16 360.91 180.81 360.48 180.80
  L 350.27 180.76
  C 349.98 180.75 349.75 180.99 349.75 181.28
  L 349.75 248.06
  C 349.75 248.44 350.06 248.75 350.44 248.75
  L 389.02 248.81
  C 389.18 248.82 389.31 248.70 389.31 248.55"
/>
</g>
<path fill="#cdc6c9" d="
  M 666.54 436.75
  Q 663.54 438.09 660.25 437.21
  Q 659.75 434.22 659.75 429.50
  Q 659.75 286.37 659.75 142.37
  C 659.75 141.64 659.16 141.06 658.44 141.07
  Q 630.34 141.38 601.75 141.40
  Q 591.29 141.40 584.06 137.69
  Q 568.56 129.72 568.36 111.00
  Q 568.04 81.91 568.33 51.33
  C 568.33 50.78 567.94 50.31 567.40 50.22
  Q 564.87 49.80 561.75 49.81
  Q 394.41 50.17 227.07 49.76
  Q 226.98 49.76 219.94 49.43
  Q 212.75 49.09 206.69 51.44
  Q 196.04 55.56 194.50 67.50
  Q 194.05 70.99 194.23 75.34
  Q 194.50 81.83 194.49 83.17
  Q 194.46 112.43 194.56 141.68
  C 194.56 141.98 194.75 142.25 195.04 142.34
  Q 199.30 143.62 203.75 143.79
  Q 196.76 144.16 189.75 144.00
  Q 187.46 143.95 186.71 143.50
  Q 188.54 142.03 187.91 139.73
  Q 187.77 139.24 187.83 138.76
  Q 187.96 137.72 187.94 135.69
  Q 187.77 120.72 187.75 80.88
  Q 187.75 67.32 189.34 62.28
  Q 193.52 49.07 208.25 44.00
  Q 211.52 42.87 218.75 42.87
  Q 393.37 42.75 567.98 42.75
  Q 568.08 42.75 571.01 42.68
  Q 577.12 42.53 581.19 44.81
  Q 583.73 46.24 588.48 51.02
  Q 616.82 79.55 645.41 107.84
  Q 656.31 118.63 664.44 128.06
  Q 666.11 130.00 666.81 132.55
  Q 667.25 134.15 667.25 137.49
  Q 667.25 284.01 667.25 432.16
  C 667.25 432.92 666.95 433.66 666.42 434.21
  Q 665.38 435.30 666.54 436.75
  Z"
/>
<path fill="#fdfdfd" d="
  M 660.25 437.21
  Q 622.42 437.10 584.59 437.47
  Q 580.34 437.51 578.06 438.50
  Q 574.92 439.86 572.58 442.55
  C 572.29 442.88 571.77 442.86 571.51 442.51
  L 479.76 322.34
  C 479.52 322.03 479.52 321.61 479.76 321.30
  L 581.02 189.72
  Q 582.54 187.74 580.06 187.74
  L 482.09 187.75
  C 481.71 187.75 481.35 187.94 481.14 188.26
  L 432.78 259.99
  C 432.63 260.20 432.32 260.20 432.18 259.98
  L 408.26 221.92
  C 408.09 221.65 408.00 221.33 407.99 221.00
  Q 407.74 207.13 408.00 193.25
  Q 408.13 186.16 407.63 165.50
  Q 407.47 158.68 405.99 155.23
  Q 403.31 149.02 397.24 145.77
  Q 394.35 144.23 389.94 144.01
  Q 384.64 143.75 377.50 143.75
  Q 290.62 143.72 203.75 143.79
  Q 199.30 143.62 195.04 142.34
  C 194.75 142.25 194.56 141.98 194.56 141.68
  Q 194.46 112.43 194.49 83.17
  Q 194.50 81.83 194.23 75.34
  Q 194.05 70.99 194.50 67.50
  Q 196.04 55.56 206.69 51.44
  Q 212.75 49.09 219.94 49.43
  Q 226.98 49.76 227.07 49.76
  Q 394.41 50.17 561.75 49.81
  Q 564.87 49.80 567.40 50.22
  C 567.94 50.31 568.33 50.78 568.33 51.33
  Q 568.04 81.91 568.36 111.00
  Q 568.56 129.72 584.06 137.69
  Q 591.29 141.40 601.75 141.40
  Q 630.34 141.38 658.44 141.07
  C 659.16 141.06 659.75 141.64 659.75 142.37
  Q 659.75 286.37 659.75 429.50
  Q 659.75 434.22 660.25 437.21
  Z"
/>
<path fill="#007333" d="
  M 186.71 143.50
  Q 187.46 143.95 189.75 144.00
  Q 196.76 144.16 203.75 143.79
  Q 290.62 143.72 377.50 143.75
  Q 384.64 143.75 389.94 144.01
  Q 394.35 144.23 397.24 145.77
  Q 403.31 149.02 405.99 155.23
  Q 407.47 158.68 407.63 165.50
  Q 408.13 186.16 408.00 193.25
  Q 407.74 207.13 407.99 221.00
  C 408.00 221.33 408.09 221.65 408.26 221.92
  L 432.18 259.98
  C 432.32 260.20 432.63 260.20 432.78 259.99
  L 481.14 188.26
  C 481.35 187.94 481.71 187.75 482.09 187.75
  L 580.06 187.74
  Q 582.54 187.74 581.02 189.72
  L 479.76 321.30
  C 479.52 321.61 479.52 322.03 479.76 322.34
  L 571.51 442.51
  C 571.77 442.86 572.29 442.88 572.58 442.55
  Q 574.92 439.86 578.06 438.50
  Q 580.34 437.51 584.59 437.47
  Q 622.42 437.10 660.25 437.21
  Q 663.54 438.09 666.54 436.75
  Q 672.83 437.85 679.19 437.83
  Q 682.96 437.81 685.13 438.78
  Q 693.71 442.59 693.78 453.06
  Q 694.14 501.91 694.00 552.36
  C 693.99 552.82 694.36 553.19 694.81 553.19
  Q 704.41 553.30 714.50 553.25
  Q 718.52 553.23 721.56 553.83
  Q 725.62 554.64 727.75 556.90
  Q 730.62 559.96 730.25 565.25
  Q 729.87 570.67 727.34 574.05
  Q 724.25 578.20 720.67 581.93
  Q 717.04 585.72 717.01 585.76
  Q 682.73 622.73 648.59 659.84
  Q 644.76 664.00 640.76 668.00
  Q 640.69 668.07 638.86 670.09
  Q 635.27 674.04 630.25 673.25
  Q 625.62 672.52 622.28 668.43
  Q 619.43 664.93 619.37 664.86
  Q 598.84 642.67 578.23 620.55
  Q 578.14 620.46 569.45 610.80
  Q 563.07 603.71 556.00 597.29
  Q 556.37 596.70 555.92 596.37
  Q 555.30 595.91 555.29 595.90
  Q 546.75 586.95 538.55 577.69
  Q 534.51 573.12 532.67 567.32
  Q 530.92 561.76 534.19 557.94
  Q 536.58 555.14 540.29 553.96
  Q 542.52 553.25 547.30 553.20
  Q 557.18 553.08 567.86 553.27
  C 568.45 553.28 568.94 552.80 568.94 552.21
  L 568.79 481.00
  Q 569.30 478.22 568.79 475.33
  C 568.68 474.69 568.13 474.22 567.48 474.23
  Q 553.87 474.42 541.51 474.72
  Q 539.75 474.76 538.00 475.04
  L 499.62 475.28
  C 499.04 475.29 498.51 475.01 498.18 474.55
  L 432.64 381.99
  C 432.29 381.50 431.56 381.49 431.21 381.97
  L 363.00 474.04
  L 343.04 475.00
  L 319.00 475.21
  L 264.85 475.00
  Q 263.91 475.00 264.49 474.26
  L 385.20 322.29
  C 385.39 322.05 385.39 321.72 385.21 321.48
  L 360.72 288.07
  Q 359.75 286.75 358.12 286.75
  L 214.50 286.71
  Q 200.63 286.34 186.75 286.50
  Q 185.59 286.51 185.46 287.00
  Q 184.49 286.25 182.00 286.25
  Q 145.00 286.25 108.00 286.22
  Q 99.54 286.22 94.25 279.50
  Q 90.97 275.34 90.18 270.53
  Q 90.00 269.41 90.00 260.95
  Q 90.00 217.45 90.00 173.95
  Q 90.00 160.92 90.24 159.57
  Q 91.71 151.43 98.96 147.07
  Q 102.68 144.82 107.95 144.17
  Q 111.40 143.75 114.89 143.85
  Q 120.00 144.00 120.12 144.00
  Q 151.68 144.00 183.25 144.00
  Q 185.57 144.00 186.71 143.50
  Z
  M 250.57 236.61
  Q 247.11 234.72 245.31 230.94
  Q 243.55 227.23 243.00 223.07
  Q 242.59 219.97 242.40 214.94
  Q 242.14 208.22 244.07 201.83
  Q 245.36 197.57 247.38 195.22
  Q 250.06 192.11 254.00 191.25
  Q 260.04 189.93 264.69 194.81
  Q 266.84 197.08 268.13 202.01
  C 268.20 202.29 268.48 202.46 268.74 202.38
  L 279.02 199.41
  C 279.30 199.33 279.47 199.05 279.42 198.76
  Q 277.50 187.59 267.83 181.75
  Q 264.18 179.54 258.25 179.25
  Q 245.78 178.64 238.56 187.55
  Q 234.64 192.38 232.94 197.94
  Q 227.91 214.32 232.84 231.02
  Q 234.49 236.61 238.05 241.21
  Q 245.95 251.40 259.01 250.13
  Q 268.61 249.20 274.06 241.56
  Q 278.17 235.81 279.59 228.56
  C 279.65 228.25 279.51 227.94 279.24 227.84
  L 269.18 223.90
  C 268.77 223.74 268.32 224.02 268.25 224.48
  Q 267.61 228.69 265.18 232.68
  Q 262.45 237.19 257.78 237.92
  Q 254.04 238.50 250.57 236.61
  Z
  M 131.56 236.70
  L 131.50 219.25
  C 131.50 218.97 131.72 218.75 132.00 218.75
  L 159.22 218.75
  C 159.51 218.75 159.75 218.51 159.76 218.21
  L 159.82 207.59
  C 159.83 207.29 159.58 207.04 159.28 207.05
  Q 145.56 207.59 132.06 206.96
  C 131.77 206.95 131.54 206.73 131.52 206.45
  Q 130.97 200.06 131.59 192.70
  C 131.62 192.30 131.96 192.00 132.36 192.00
  L 161.20 191.94
  C 161.48 191.94 161.70 191.72 161.70 191.44
  L 161.70 180.56
  C 161.70 180.28 161.47 180.06 161.18 180.06
  L 120.56 180.00
  C 120.11 180.00 119.75 180.36 119.75 180.81
  L 119.75 248.21
  C 119.75 248.54 120.02 248.81 120.36 248.81
  L 162.18 248.69
  C 162.47 248.69 162.70 248.47 162.70 248.19
  L 162.75 237.91
  C 162.75 237.55 162.45 237.25 162.08 237.25
  L 132.06 237.19
  C 131.78 237.19 131.56 236.97 131.56 236.70
  Z
  M 196.68 199.76
  L 186.12 180.68
  C 185.89 180.26 185.46 180.00 185.02 180.00
  L 173.12 180.00
  C 172.55 180.00 172.18 180.62 172.46 181.13
  L 189.52 212.80
  C 189.66 213.08 189.66 213.41 189.51 213.69
  L 170.90 248.01
  C 170.72 248.34 170.95 248.74 171.32 248.74
  L 184.00 248.53
  C 184.30 248.53 184.59 248.35 184.74 248.06
  L 196.43 226.60
  Q 196.76 225.99 197.09 226.61
  L 208.50 247.81
  C 208.74 248.27 209.21 248.58 209.75 248.64
  Q 215.57 249.29 220.50 248.80
  Q 220.95 248.76 221.46 248.94
  Q 222.72 249.39 222.68 248.51
  Q 222.66 248.12 222.28 247.42
  Q 213.35 230.98 203.98 213.72
  C 203.78 213.36 203.78 212.92 203.98 212.55
  L 221.17 180.48
  C 221.28 180.26 221.13 180.00 220.88 180.00
  L 208.48 180.00
  C 208.16 180.00 207.86 180.17 207.71 180.45
  L 197.17 199.75
  Q 196.92 200.20 196.68 199.76
  Z
  M 304.81 206.45
  L 304.75 192.51
  C 304.75 192.23 304.98 192.00 305.27 192.00
  L 334.75 192.00
  C 335.03 192.00 335.25 191.78 335.25 191.50
  L 335.25 180.50
  C 335.25 180.22 335.03 180.00 334.75 180.00
  L 293.82 180.00
  C 293.37 180.00 293.00 180.36 293.01 180.81
  L 293.43 248.31
  C 293.43 248.59 293.66 248.81 293.94 248.81
  L 335.72 248.75
  C 336.01 248.75 336.25 248.51 336.25 248.22
  L 336.25 237.91
  C 336.25 237.55 335.95 237.25 335.59 237.25
  L 305.42 237.25
  C 305.05 237.25 304.75 236.95 304.75 236.58
  L 304.75 219.63
  C 304.75 219.14 305.15 218.75 305.65 218.74
  L 332.31 218.58
  C 332.61 218.57 332.85 218.35 332.85 218.07
  L 332.85 207.68
  C 332.85 207.41 332.61 207.20 332.32 207.20
  L 305.31 206.96
  C 305.03 206.95 304.81 206.73 304.81 206.45
  Z
  M 389.31 248.55
  L 389.35 237.94
  C 389.36 237.66 389.11 237.43 388.81 237.43
  L 362.45 237.26
  C 361.92 237.26 361.50 236.85 361.49 236.33
  L 361.26 181.60
  C 361.25 181.16 360.91 180.81 360.48 180.80
  L 350.27 180.76
  C 349.98 180.75 349.75 180.99 349.75 181.28
  L 349.75 248.06
  C 349.75 248.44 350.06 248.75 350.44 248.75
  L 389.02 248.81
  C 389.18 248.82 389.31 248.70 389.31 248.55
  Z"
/>
<path fill="#fefefe" d="
  M 257.78 237.92
  Q 262.45 237.19 265.18 232.68
  Q 267.61 228.69 268.25 224.48
  C 268.32 224.02 268.77 223.74 269.18 223.90
  L 279.24 227.84
  C 279.51 227.94 279.65 228.25 279.59 228.56
  Q 278.17 235.81 274.06 241.56
  Q 268.61 249.20 259.01 250.13
  Q 245.95 251.40 238.05 241.21
  Q 234.49 236.61 232.84 231.02
  Q 227.91 214.32 232.94 197.94
  Q 234.64 192.38 238.56 187.55
  Q 245.78 178.64 258.25 179.25
  Q 264.18 179.54 267.83 181.75
  Q 277.50 187.59 279.42 198.76
  C 279.47 199.05 279.30 199.33 279.02 199.41
  L 268.74 202.38
  C 268.48 202.46 268.20 202.29 268.13 202.01
  Q 266.84 197.08 264.69 194.81
  Q 260.04 189.93 254.00 191.25
  Q 250.06 192.11 247.38 195.22
  Q 245.36 197.57 244.07 201.83
  Q 242.14 208.22 242.40 214.94
  Q 242.59 219.97 243.00 223.07
  Q 243.55 227.23 245.31 230.94
  Q 247.11 234.72 250.57 236.61
  Q 254.04 238.50 257.78 237.92
  Z"
/>
<path fill="#fefefe" d="
  M 132.06 237.19
  L 162.08 237.25
  C 162.45 237.25 162.75 237.55 162.75 237.91
  L 162.70 248.19
  C 162.70 248.47 162.47 248.69 162.18 248.69
  L 120.36 248.81
  C 120.02 248.81 119.75 248.54 119.75 248.21
  L 119.75 180.81
  C 119.75 180.36 120.11 180.00 120.56 180.00
  L 161.18 180.06
  C 161.47 180.06 161.70 180.28 161.70 180.56
  L 161.70 191.44
  C 161.70 191.72 161.48 191.94 161.20 191.94
  L 132.36 192.00
  C 131.96 192.00 131.62 192.30 131.59 192.70
  Q 130.97 200.06 131.52 206.45
  C 131.54 206.73 131.77 206.95 132.06 206.96
  Q 145.56 207.59 159.28 207.05
  C 159.58 207.04 159.83 207.29 159.82 207.59
  L 159.76 218.21
  C 159.75 218.51 159.51 218.75 159.22 218.75
  L 132.00 218.75
  C 131.72 218.75 131.50 218.97 131.50 219.25
  L 131.56 236.70
  C 131.56 236.97 131.78 237.19 132.06 237.19
  Z"
/>
<path fill="#fefefe" d="
  M 197.17 199.75
  L 207.71 180.45
  C 207.86 180.17 208.16 180.00 208.48 180.00
  L 220.88 180.00
  C 221.13 180.00 221.28 180.26 221.17 180.48
  L 203.98 212.55
  C 203.78 212.92 203.78 213.36 203.98 213.72
  Q 213.35 230.98 222.28 247.42
  Q 222.66 248.12 222.68 248.51
  Q 222.72 249.39 221.46 248.94
  Q 220.95 248.76 220.50 248.80
  Q 215.57 249.29 209.75 248.64
  C 209.21 248.58 208.74 248.27 208.50 247.81
  L 197.09 226.61
  Q 196.76 225.99 196.43 226.60
  L 184.74 248.06
  C 184.59 248.35 184.30 248.53 184.00 248.53
  L 171.32 248.74
  C 170.95 248.74 170.72 248.34 170.90 248.01
  L 189.51 213.69
  C 189.66 213.41 189.66 213.08 189.52 212.80
  L 172.46 181.13
  C 172.18 180.62 172.55 180.00 173.12 180.00
  L 185.02 180.00
  C 185.46 180.00 185.89 180.26 186.12 180.68
  L 196.68 199.76
  Q 196.92 200.20 197.17 199.75
  Z"
/>
<path fill="#fefefe" d="
  M 305.31 206.96
  L 332.32 207.20
  C 332.61 207.20 332.85 207.41 332.85 207.68
  L 332.85 218.07
  C 332.85 218.35 332.61 218.57 332.31 218.58
  L 305.65 218.74
  C 305.15 218.75 304.75 219.14 304.75 219.63
  L 304.75 236.58
  C 304.75 236.95 305.05 237.25 305.42 237.25
  L 335.59 237.25
  C 335.95 237.25 336.25 237.55 336.25 237.91
  L 336.25 248.22
  C 336.25 248.51 336.01 248.75 335.72 248.75
  L 293.94 248.81
  C 293.66 248.81 293.43 248.59 293.43 248.31
  L 293.01 180.81
  C 293.00 180.36 293.37 180.00 293.82 180.00
  L 334.75 180.00
  C 335.03 180.00 335.25 180.22 335.25 180.50
  L 335.25 191.50
  C 335.25 191.78 335.03 192.00 334.75 192.00
  L 305.27 192.00
  C 304.98 192.00 304.75 192.23 304.75 192.51
  L 304.81 206.45
  C 304.81 206.73 305.03 206.95 305.31 206.96
  Z"
/>
<path fill="#fefefe" d="
  M 389.31 248.55
  C 389.31 248.70 389.18 248.82 389.02 248.81
  L 350.44 248.75
  C 350.06 248.75 349.75 248.44 349.75 248.06
  L 349.75 181.28
  C 349.75 180.99 349.98 180.75 350.27 180.76
  L 360.48 180.80
  C 360.91 180.81 361.25 181.16 361.26 181.60
  L 361.49 236.33
  C 361.50 236.85 361.92 237.26 362.45 237.26
  L 388.81 237.43
  C 389.11 237.43 389.36 237.66 389.35 237.94
  L 389.31 248.55
  Z"
/>
<path fill="#cdc6c9" d="
  M 214.50 286.71
  Q 210.50 286.78 206.51 286.95
  Q 204.98 287.02 207.25 286.95
  Q 209.85 286.87 212.44 287.13
  Q 213.02 287.19 212.44 287.19
  L 195.44 287.24
  C 194.92 287.24 194.50 287.66 194.50 288.18
  Q 194.50 416.44 194.50 543.18
  Q 194.50 545.11 194.38 553.31
  Q 194.30 558.37 194.41 563.44
  Q 194.42 563.50 194.25 569.56
  Q 194.02 577.96 199.08 584.06
  Q 202.49 588.17 207.45 590.06
  Q 212.41 591.95 218.00 591.52
  Q 221.51 591.25 228.00 591.25
  Q 383.30 591.25 538.59 591.25
  Q 539.53 591.25 543.40 590.97
  Q 546.17 590.78 548.25 591.25
  Q 553.53 592.45 552.75 597.96
  Q 549.51 598.33 546.25 598.32
  Q 382.13 598.25 218.00 598.22
  Q 211.81 598.22 206.18 596.18
  Q 200.37 594.06 196.15 590.05
  Q 187.75 582.06 187.75 569.00
  Q 187.75 433.13 187.80 297.25
  Q 187.80 291.40 188.00 289.75
  Q 188.34 286.88 185.46 287.00
  Q 185.59 286.51 186.75 286.50
  Q 200.63 286.34 214.50 286.71
  Z"
/>
<path fill="#fdfdfd" d="
  M 214.50 286.71
  L 358.12 286.75
  Q 359.75 286.75 360.72 288.07
  L 385.21 321.48
  C 385.39 321.72 385.39 322.05 385.20 322.29
  L 264.49 474.26
  Q 263.91 475.00 264.85 475.00
  L 319.00 475.21
  Q 333.12 476.07 347.25 475.46
  Q 354.37 475.69 361.48 475.28
  Q 362.10 475.25 362.43 474.94
  Q 362.82 474.58 363.00 474.04
  L 431.21 381.97
  C 431.56 381.49 432.29 381.50 432.64 381.99
  L 498.18 474.55
  C 498.51 475.01 499.04 475.29 499.62 475.28
  L 538.00 475.04
  Q 539.85 475.49 541.75 475.51
  Q 554.38 475.66 568.00 475.76
  C 568.41 475.76 568.74 476.10 568.75 476.52
  L 568.79 481.00
  L 568.94 552.21
  C 568.94 552.80 568.45 553.28 567.86 553.27
  Q 557.18 553.08 547.30 553.20
  Q 542.52 553.25 540.29 553.96
  Q 536.58 555.14 534.19 557.94
  Q 530.92 561.76 532.67 567.32
  Q 534.51 573.12 538.55 577.69
  Q 546.75 586.95 555.29 595.90
  Q 555.30 595.91 555.92 596.37
  Q 556.37 596.70 556.00 597.29
  Q 554.89 596.58 554.19 597.44
  Q 553.58 598.18 552.75 597.96
  Q 553.53 592.45 548.25 591.25
  Q 546.17 590.78 543.40 590.97
  Q 539.53 591.25 538.59 591.25
  Q 383.30 591.25 228.00 591.25
  Q 221.51 591.25 218.00 591.52
  Q 212.41 591.95 207.45 590.06
  Q 202.49 588.17 199.08 584.06
  Q 194.02 577.96 194.25 569.56
  Q 194.42 563.50 194.41 563.44
  Q 194.30 558.37 194.38 553.31
  Q 194.50 545.11 194.50 543.18
  Q 194.50 416.44 194.50 288.18
  C 194.50 287.66 194.92 287.24 195.44 287.24
  L 212.44 287.19
  Q 213.02 287.19 212.44 287.13
  Q 209.85 286.87 207.25 286.95
  Q 204.98 287.02 206.51 286.95
  Q 210.50 286.78 214.50 286.71
  Z"
/>
<path fill="#4cb590" d="
  M 363.00 474.04
  Q 362.82 474.58 362.43 474.94
  Q 362.10 475.25 361.48 475.28
  Q 354.37 475.69 347.25 475.46
  L 343.04 475.00
  L 363.00 474.04
  Z"
/>
<path fill="#4cb590" d="
  M 568.79 481.00
  L 568.75 476.52
  C 568.74 476.10 568.41 475.76 568.00 475.76
  Q 554.38 475.66 541.75 475.51
  Q 539.85 475.49 538.00 475.04
  Q 539.75 474.76 541.51 474.72
  Q 553.87 474.42 567.48 474.23
  C 568.13 474.22 568.68 474.69 568.79 475.33
  Q 569.30 478.22 568.79 481.00
  Z"
/>
<path fill="#cdc6c9" d="
  M 343.04 475.00
  L 347.25 475.46
  Q 333.12 476.07 319.00 475.21
  L 343.04 475.00
  Z"
/>
</svg>
