<svg xmlns="http://www.w3.org/2000/svg" version="1.1" viewBox="0 0 72 72">
<g stroke-width="2.0" fill="none" stroke-linecap="butt">
<path stroke="#005f71" vector-effect="non-scaling-stroke" d="
  M 35.81 0.00
  Q 36.40 1.95 36.20 3.99
  Q 35.69 9.11 36.25 14.21"
/>
<path stroke="#80a247" vector-effect="non-scaling-stroke" d="
  M 36.25 14.21
  L 32.00 14.21"
/>
<path stroke="#00859a" vector-effect="non-scaling-stroke" d="
  M 32.00 14.21
  Q 34.33 11.28 31.75 8.54"
/>
<path stroke="#4da9b9" vector-effect="non-scaling-stroke" d="
  M 31.75 8.54
  Q 32.97 8.45 32.89 7.41
  Q 32.82 6.32 32.84 6.08
  Q 33.00 4.22 32.25 2.54"
/>
<path stroke="#4d8e9d" vector-effect="non-scaling-stroke" d="
  M 39.75 2.46
  Q 39.33 2.43 39.21 2.75"
/>
<path stroke="#003645" vector-effect="non-scaling-stroke" d="
  M 39.21 2.75
  Q 38.10 2.71 38.15 3.93
  Q 38.29 7.19 38.42 10.44
  C 38.43 10.73 38.31 11.03 38.07 11.29
  Q 36.74 12.71 38.25 14.04"
/>
<path stroke="#80872b" vector-effect="non-scaling-stroke" d="
  M 38.25 14.04
  Q 37.29 14.44 36.25 14.21"
/>
<path stroke="#4db3c6" vector-effect="non-scaling-stroke" d="
  M 31.75 8.54
  L 3.75 8.79"
/>
<path stroke="#4d7f8d" vector-effect="non-scaling-stroke" d="
  M 39.21 2.75
  L 39.29 8.25"
/>
<path stroke="#005b6e" vector-effect="non-scaling-stroke" d="
  M 39.29 8.25
  L 39.50 13.96"
/>
<path stroke="#80791b" vector-effect="non-scaling-stroke" d="
  M 39.50 13.96
  L 38.25 14.04"
/>
<path stroke="#85cad8" vector-effect="non-scaling-stroke" d="
  M 66.71 2.75
  Q 66.18 5.57 67.25 8.21"
/>
<path stroke="#4db3c6" vector-effect="non-scaling-stroke" d="
  M 67.25 8.21
  Q 53.27 9.06 39.29 8.25"
/>
<path stroke="#38a6b9" vector-effect="non-scaling-stroke" d="
  M 68.75 8.54
  L 67.25 8.21"
/>
<path stroke="#7f9e5d" vector-effect="non-scaling-stroke" d="
  M 52.25 14.29
  L 45.75 14.29"
/>
<path stroke="#80ad54" vector-effect="non-scaling-stroke" d="
  M 45.75 14.29
  L 39.50 13.96"
/>
<path stroke="#80ad54" vector-effect="non-scaling-stroke" d="
  M 32.00 14.21
  Q 26.41 14.16 20.81 14.01
  Q 20.41 14.00 20.22 14.14
  Q 19.95 14.35 19.96 14.75"
/>
<path stroke="#ffbb0a" vector-effect="non-scaling-stroke" d="
  M 45.75 14.29
  L 47.68 14.57
  C 47.96 14.61 48.16 14.82 48.16 15.06
  L 48.16 20.94
  C 48.16 21.26 47.97 21.52 47.71 21.57
  L 45.50 21.96"
/>
<path stroke="#80872b" vector-effect="non-scaling-stroke" d="
  M 44.75 22.04
  Q 43.36 21.55 42.00 22.04"
/>
<path stroke="#80a247" vector-effect="non-scaling-stroke" d="
  M 42.00 22.04
  L 27.50 22.04"
/>
<path stroke="#005f71" vector-effect="non-scaling-stroke" d="
  M 42.00 22.04
  L 41.75 34.46"
/>
<path stroke="#4da9b9" vector-effect="non-scaling-stroke" d="
  M 41.04 35.00
  Q 35.89 34.33 30.71 34.75"
/>
<path stroke="#005f71" vector-effect="non-scaling-stroke" d="
  M 40.2621 28.1385
  C 40.27 27.69 39.92 27.32 39.4706 27.3103
  L 32.4125 27.1502
  C 31.97 27.14 31.59 27.49 31.5843 27.9416
  L 31.5779 28.2215
  C 31.57 28.67 31.92 29.04 32.3694 29.0497
  L 39.4275 29.2098
  C 39.87 29.22 40.25 28.87 40.2557 28.4184
  L 40.2621 28.1385"
/>
<path stroke="#cb9989" vector-effect="non-scaling-stroke" d="
  M 37.25 41.54
  Q 36.09 41.06 35.00 41.54"
/>
<path stroke="#7e6a5d" vector-effect="non-scaling-stroke" d="
  M 37.50 67.54
  Q 36.01 68.00 34.54 67.50"
/>
<path stroke="#005f71" vector-effect="non-scaling-stroke" d="
  M 67.00 67.79
  Q 68.20 69.70 67.69 72.00"
/>
</g>
<path fill="#007a8d" d="
  M 33.31 0.00
  Q 34.56 0.00 35.81 0.00
  Q 36.40 1.95 36.20 3.99
  Q 35.69 9.11 36.25 14.21
  L 32.00 14.21
  Q 34.33 11.28 31.75 8.54
  Q 32.97 8.45 32.89 7.41
  Q 32.82 6.32 32.84 6.08
  Q 33.00 4.22 32.25 2.54
  Q 33.45 2.34 33.00 1.25
  Q 32.66 0.43 33.31 0.00
  Z"
/>
<path fill="#004455" d="
  M 35.81 0.00
  Q 37.44 0.00 39.06 0.00
  Q 39.49 1.20 39.75 2.46
  Q 39.33 2.43 39.21 2.75
  Q 38.10 2.71 38.15 3.93
  Q 38.29 7.19 38.42 10.44
  C 38.43 10.73 38.31 11.03 38.07 11.29
  Q 36.74 12.71 38.25 14.04
  Q 37.29 14.44 36.25 14.21
  Q 35.69 9.11 36.20 3.99
  Q 36.40 1.95 35.81 0.00
  Z"
/>
<path fill="#9ad7e5" d="
  M 32.25 2.54
  Q 33.00 4.22 32.84 6.08
  Q 32.82 6.32 32.89 7.41
  Q 32.97 8.45 31.75 8.54
  L 3.75 8.79
  Q 1.92 8.24 0.00 7.94
  Q 0.00 5.44 0.00 2.94
  Q 16.13 2.76 32.25 2.54
  Z"
/>
<path fill="#002735" d="
  M 39.21 2.75
  L 39.29 8.25
  L 39.50 13.96
  L 38.25 14.04
  Q 36.74 12.71 38.07 11.29
  C 38.31 11.03 38.43 10.73 38.42 10.44
  Q 38.29 7.19 38.15 3.93
  Q 38.10 2.71 39.21 2.75
  Z"
/>
<path fill="#9ad7e5" d="
  M 39.75 2.46
  L 66.71 2.75
  Q 66.18 5.57 67.25 8.21
  Q 53.27 9.06 39.29 8.25
  L 39.21 2.75
  Q 39.33 2.43 39.75 2.46
  Z"
/>
<path fill="#70bdca" d="
  M 72.00 3.06
  Q 72.00 5.56 72.00 8.06
  Q 70.47 8.75 68.75 8.54
  L 67.25 8.21
  Q 66.18 5.57 66.71 2.75
  Q 69.43 1.95 72.00 3.06
  Z"
/>
<path fill="#008fa7" d="
  M 39.29 8.25
  Q 53.27 9.06 67.25 8.21
  L 68.75 8.54
  L 68.84 12.31
  Q 68.89 14.25 67.10 14.25
  L 52.25 14.29
  L 45.75 14.29
  L 39.50 13.96
  L 39.29 8.25
  Z"
/>
<path fill="#008fa7" d="
  M 31.75 8.54
  Q 34.33 11.28 32.00 14.21
  Q 26.41 14.16 20.81 14.01
  Q 20.41 14.00 20.22 14.14
  Q 19.95 14.35 19.96 14.75
  Q 19.38 14.25 17.75 14.25
  Q 11.75 14.25 4.48 14.25
  C 3.94 14.25 3.51 13.83 3.54 13.34
  L 3.75 8.79
  L 31.75 8.54
  Z"
/>
<path fill="#ffca00" d="
  M 32.00 14.21
  L 36.25 14.21
  Q 37.29 14.44 38.25 14.04
  L 39.50 13.96
  L 45.75 14.29
  L 47.68 14.57
  C 47.96 14.61 48.16 14.82 48.16 15.06
  L 48.16 20.94
  C 48.16 21.26 47.97 21.52 47.71 21.57
  L 45.50 21.96
  L 44.75 22.04
  Q 43.36 21.55 42.00 22.04
  L 27.50 22.04
  L 20.76 21.77
  C 20.18 21.75 19.73 21.31 19.75 20.80
  L 19.96 14.75
  Q 19.95 14.35 20.22 14.14
  Q 20.41 14.00 20.81 14.01
  Q 26.41 14.16 32.00 14.21
  Z"
/>
<path fill="#feac13" d="
  M 52.25 14.29
  L 52.27 20.66
  C 52.27 21.38 51.72 21.97 51.04 21.97
  L 45.50 21.96
  L 47.71 21.57
  C 47.97 21.52 48.16 21.26 48.16 20.94
  L 48.16 15.06
  C 48.16 14.82 47.96 14.61 47.68 14.57
  L 45.75 14.29
  L 52.25 14.29
  Z"
/>
<path fill="#007a8d" d="
  M 42.00 22.04
  L 41.75 34.46
  L 41.04 35.00
  Q 35.89 34.33 30.71 34.75
  Q 30.18 34.37 28.75 34.64
  C 28.21 34.74 27.72 34.31 27.71 33.74
  L 27.50 22.04
  L 42.00 22.04
  Z
  M 40.2621 28.1385
  C 40.27 27.69 39.92 27.32 39.4706 27.3103
  L 32.4125 27.1502
  C 31.97 27.14 31.59 27.49 31.5843 27.9416
  L 31.5779 28.2215
  C 31.57 28.67 31.92 29.04 32.3694 29.0497
  L 39.4275 29.2098
  C 39.87 29.22 40.25 28.87 40.2557 28.4184
  L 40.2621 28.1385
  Z"
/>
<path fill="#004455" d="
  M 44.75 22.04
  L 44.48 33.51
  C 44.47 33.85 44.32 34.14 44.09 34.27
  Q 43.06 34.82 41.75 34.46
  L 42.00 22.04
  Q 43.36 21.55 44.75 22.04
  Z"
/>
<rect fill="#004455" x="-4.34" y="-0.95" transform="translate(35.92,28.18) rotate(1.3)" width="8.68" height="1.90" rx="0.81"/>
<path fill="#9ad7e5" d="
  M 41.04 35.00
  L 39.37 40.71
  C 39.29 40.97 39.02 41.16 38.68 41.18
  Q 37.93 41.21 37.25 41.54
  Q 36.09 41.06 35.00 41.54
  L 33.27 41.14
  C 33.00 41.08 32.76 40.82 32.64 40.47
  L 30.71 34.75
  Q 35.89 34.33 41.04 35.00
  Z"
/>
<path fill="#fc5a2c" fill-opacity="0.996" d="
  M 37.25 41.54
  L 37.04 61.16
  Q 37.02 62.89 37.92 61.39
  Q 39.69 58.41 40.91 55.74
  Q 41.59 54.24 42.79 54.25
  C 43.47 54.25 43.90 54.98 43.57 55.55
  L 38.68 63.97
  Q 37.87 65.37 39.43 64.94
  L 54.27 60.86
  C 54.59 60.77 54.92 60.83 55.18 61.01
  Q 56.30 61.77 55.27 62.47
  Q 54.91 62.71 54.17 62.90
  Q 45.79 65.07 37.50 67.54
  Q 36.01 68.00 34.54 67.50
  Q 26.57 65.17 18.52 63.12
  Q 17.67 62.90 17.16 62.59
  Q 15.49 61.54 17.52 60.89
  C 17.81 60.80 18.14 60.80 18.49 60.89
  L 32.77 64.75
  Q 34.14 65.13 33.40 63.87
  L 28.55 55.63
  C 28.38 55.35 28.38 55.00 28.55 54.74
  Q 29.33 53.49 30.39 55.07
  Q 32.42 58.14 33.91 61.13
  Q 35.07 63.47 35.06 60.85
  L 35.00 41.54
  Q 36.09 41.06 37.25 41.54
  Z"
/>
<rect fill="#fc5a2c" fill-opacity="0.996" x="-7.29" y="-1.03" transform="translate(20.85,55.73) rotate(36.1)" width="14.58" height="2.06" rx="0.94"/>
<rect fill="#fc5a2c" fill-opacity="0.996" x="-7.39" y="-1.04" transform="translate(51.23,55.77) rotate(-35.9)" width="14.78" height="2.08" rx="1.00"/>
<rect fill="#fc5a2c" fill-opacity="0.996" x="-2.40" y="-1.04" transform="translate(11.91,60.25) rotate(14.6)" width="4.80" height="2.08" rx="0.98"/>
<ellipse fill="#fc5a2c" fill-opacity="0.996" cx="0.00" cy="0.00" transform="translate(60.18,60.27) rotate(-13.2)" rx="2.52" ry="1.11"/>
<path fill="#007a8d" d="
  M 34.54 67.50
  Q 36.01 68.00 37.50 67.54
  Q 37.58 68.04 38.50 68.00
  Q 48.81 67.52 67.00 67.79
  Q 68.20 69.70 67.69 72.00
  Q 34.69 72.00 1.69 72.00
  Q 0.76 71.46 0.00 70.69
  Q 0.00 69.94 0.00 69.19
  Q 1.31 67.78 4.50 67.75
  Q 19.38 67.60 34.25 67.94
  Q 34.57 67.95 34.54 67.50
  Z"
/>
<path fill="#004455" d="
  M 67.00 67.79
  Q 70.17 66.96 72.00 69.31
  Q 72.00 70.66 72.00 72.00
  Q 69.84 72.00 67.69 72.00
  Q 68.20 69.70 67.00 67.79
  Z"
/>
</svg>
