<svg xmlns="http://www.w3.org/2000/svg" version="1.1" viewBox="0 0 72 72">
<g stroke-width="2.0" fill="none" stroke-linecap="butt">
<path stroke="#3dc049" vector-effect="non-scaling-stroke" d="
  M 45.25 4.21
  Q 43.91 5.43 43.77 7.04
  Q 43.59 9.05 42.09 7.69
  Q 40.41 6.17 38.50 6.16
  Q 35.13 6.15 37.56 6.62
  Q 37.69 6.64 37.56 6.66
  L 32.04 7.25"
/>
<path stroke="#bce5a0" vector-effect="non-scaling-stroke" d="
  M 32.04 7.25
  Q 29.92 7.98 30.39 11.21
  Q 30.66 13.03 28.91 13.77
  L 25.25 15.31
  Q 23.41 16.09 22.08 14.72
  Q 19.89 12.49 18.44 12.90
  Q 18.17 12.98 15.87 14.93
  Q 13.73 16.75 12.47 19.29
  C 12.32 19.58 12.36 19.92 12.55 20.16
  L 15.42 23.63
  C 15.61 23.86 15.66 24.18 15.54 24.46
  L 13.52 29.13
  Q 12.69 31.04 10.75 30.61
  Q 7.69 29.93 7.34 32.26
  Q 6.88 35.36 7.00 38.50
  Q 7.15 42.24 11.27 41.45
  Q 12.79 41.16 13.57 43.01
  L 14.75 45.79"
/>
<path stroke="#3dc049" vector-effect="non-scaling-stroke" d="
  M 14.75 45.79
  Q 13.05 47.66 11.63 49.74
  Q 10.41 51.53 10.47 53.58
  Q 10.53 55.67 10.96 57.75"
/>
<path stroke="#80daa9" vector-effect="non-scaling-stroke" d="
  M 14.75 45.79
  Q 18.18 43.31 20.79 40.00"
/>
<path stroke="#1fbd4e" vector-effect="non-scaling-stroke" d="
  M 20.79 40.00
  Q 21.89 39.88 22.61 39.14
  Q 23.58 38.15 23.64 38.10
  Q 29.87 33.11 35.64 27.59
  C 35.90 27.35 36.04 27.04 36.02 26.75
  L 35.76 22.55
  C 35.74 22.26 35.52 22.01 35.21 21.94
  Q 32.42 21.29 29.79 22.51
  Q 23.13 25.61 21.25 32.75
  Q 20.93 33.98 20.29 34.25"
/>
<path stroke="#80daa9" vector-effect="non-scaling-stroke" d="
  M 20.29 34.25
  Q 22.05 22.72 33.50 20.50
  Q 36.29 19.96 36.94 18.44
  Q 38.02 15.91 40.14 13.73
  C 40.81 13.04 41.19 12.13 41.22 11.17
  Q 41.35 6.87 37.99 7.07
  Q 35.02 7.25 32.04 7.25"
/>
<path stroke="#9ee2a4" vector-effect="non-scaling-stroke" d="
  M 20.29 34.25
  Q 19.49 37.23 20.79 40.00"
/>
<path stroke="#80daa9" vector-effect="non-scaling-stroke" d="
  M 13.94 58.31
  Q 16.70 60.85 19.79 60.02
  Q 21.71 59.50 24.16 56.72
  Q 34.20 45.33 44.23 33.94
  C 44.43 33.71 44.75 33.62 45.04 33.71
  Q 50.31 35.23 54.19 32.69
  Q 60.97 28.24 59.43 20.04
  Q 59.14 18.48 58.02 19.61
  L 51.91 25.72
  C 51.55 26.08 50.95 26.08 50.59 25.72
  L 45.82 20.95
  C 45.58 20.70 45.57 20.31 45.80 20.07
  L 52.67 13.08
  Q 53.10 12.64 52.52 12.50
  Q 41.55 9.93 37.75 20.25
  Q 36.66 23.21 37.99 26.47
  C 38.10 26.75 38.03 27.07 37.81 27.27
  Q 26.97 36.76 16.20 46.33
  Q 12.62 49.50 11.86 51.15
  Q 10.17 54.85 13.94 58.31"
/>
<path stroke="#80daa9" vector-effect="non-scaling-stroke" d="
  M 46.94 47.19
  Q 40.87 52.91 31.87 51.39
  C 31.27 51.29 30.68 51.49 30.31 51.91
  L 26.75 55.94
  C 26.30 56.45 26.57 57.28 27.27 57.51
  Q 31.27 58.83 30.44 61.20
  Q 29.46 63.97 32.36 64.48
  Q 35.75 65.06 38.99 64.45
  Q 41.69 63.93 40.89 60.55
  C 40.70 59.73 41.06 58.91 41.76 58.59
  L 47.46 55.96
  C 47.75 55.83 48.09 55.90 48.33 56.12
  L 51.13 58.75
  C 51.58 59.17 52.22 59.25 52.68 58.94
  Q 56.27 56.52 58.73 52.87
  C 59.02 52.44 58.94 51.85 58.55 51.43
  L 55.87 48.59
  C 55.65 48.35 55.60 48.01 55.73 47.72
  L 58.33 41.75
  C 58.42 41.55 58.70 41.39 59.07 41.35
  L 63.21 40.84
  C 63.49 40.81 63.73 40.56 63.81 40.21
  Q 64.79 36.00 63.81 31.80
  C 63.73 31.44 63.48 31.18 63.21 31.15
  L 59.49 30.71
  C 59.25 30.68 58.93 30.83 58.65 31.11
  Q 55.88 33.85 52.28 35.37
  C 52.00 35.49 51.80 35.76 51.77 36.06
  Q 51.17 43.19 46.94 47.19"
/>
<path stroke="#80dd95" vector-effect="non-scaling-stroke" d="
  M 21.93 53.46
  C 21.93 51.45 20.30 49.82 18.29 49.82
  C 16.28 49.82 14.65 51.45 14.65 53.46
  C 14.65 55.47 16.28 57.10 18.29 57.10
  C 20.30 57.10 21.93 55.47 21.93 53.46"
/>
<path stroke="#1fc03a" vector-effect="non-scaling-stroke" d="
  M 18.81 55.06
  Q 21.40 53.72 19.69 52.31
  Q 16.74 49.89 16.13 53.00
  Q 15.90 54.15 16.53 54.84
  Q 17.40 55.80 18.81 55.06"
/>
</g>
<path fill="#78cb40" d="
  M 45.25 4.21
  Q 43.91 5.43 43.77 7.04
  Q 43.59 9.05 42.09 7.69
  Q 40.41 6.17 38.50 6.16
  Q 35.13 6.15 37.56 6.62
  Q 37.69 6.64 37.56 6.66
  L 32.04 7.25
  Q 29.92 7.98 30.39 11.21
  Q 30.66 13.03 28.91 13.77
  L 25.25 15.31
  Q 23.41 16.09 22.08 14.72
  Q 19.89 12.49 18.44 12.90
  Q 18.17 12.98 15.87 14.93
  Q 13.73 16.75 12.47 19.29
  C 12.32 19.58 12.36 19.92 12.55 20.16
  L 15.42 23.63
  C 15.61 23.86 15.66 24.18 15.54 24.46
  L 13.52 29.13
  Q 12.69 31.04 10.75 30.61
  Q 7.69 29.93 7.34 32.26
  Q 6.88 35.36 7.00 38.50
  Q 7.15 42.24 11.27 41.45
  Q 12.79 41.16 13.57 43.01
  L 14.75 45.79
  Q 13.05 47.66 11.63 49.74
  Q 10.41 51.53 10.47 53.58
  Q 10.53 55.67 10.96 57.75
  Q 2.02 47.06 2.84 34.34
  Q 3.49 24.16 9.63 15.83
  Q 18.00 4.49 33.50 2.75
  Q 39.00 2.13 45.25 4.21
  Z"
/>
<path fill="#01b552" d="
  M 45.25 4.21
  Q 58.89 8.19 64.94 19.56
  Q 73.34 35.37 66.16 49.91
  Q 61.68 58.99 53.70 64.18
  Q 45.22 69.70 34.50 69.25
  Q 20.63 68.67 10.96 57.75
  Q 10.53 55.67 10.47 53.58
  Q 10.41 51.53 11.63 49.74
  Q 13.05 47.66 14.75 45.79
  Q 18.18 43.31 20.79 40.00
  Q 21.89 39.88 22.61 39.14
  Q 23.58 38.15 23.64 38.10
  Q 29.87 33.11 35.64 27.59
  C 35.90 27.35 36.04 27.04 36.02 26.75
  L 35.76 22.55
  C 35.74 22.26 35.52 22.01 35.21 21.94
  Q 32.42 21.29 29.79 22.51
  Q 23.13 25.61 21.25 32.75
  Q 20.93 33.98 20.29 34.25
  Q 22.05 22.72 33.50 20.50
  Q 36.29 19.96 36.94 18.44
  Q 38.02 15.91 40.14 13.73
  C 40.81 13.04 41.19 12.13 41.22 11.17
  Q 41.35 6.87 37.99 7.07
  Q 35.02 7.25 32.04 7.25
  L 37.56 6.66
  Q 37.69 6.64 37.56 6.62
  Q 35.13 6.15 38.50 6.16
  Q 40.41 6.17 42.09 7.69
  Q 43.59 9.05 43.77 7.04
  Q 43.91 5.43 45.25 4.21
  Z
  M 13.94 58.31
  Q 16.70 60.85 19.79 60.02
  Q 21.71 59.50 24.16 56.72
  Q 34.20 45.33 44.23 33.94
  C 44.43 33.71 44.75 33.62 45.04 33.71
  Q 50.31 35.23 54.19 32.69
  Q 60.97 28.24 59.43 20.04
  Q 59.14 18.48 58.02 19.61
  L 51.91 25.72
  C 51.55 26.08 50.95 26.08 50.59 25.72
  L 45.82 20.95
  C 45.58 20.70 45.57 20.31 45.80 20.07
  L 52.67 13.08
  Q 53.10 12.64 52.52 12.50
  Q 41.55 9.93 37.75 20.25
  Q 36.66 23.21 37.99 26.47
  C 38.10 26.75 38.03 27.07 37.81 27.27
  Q 26.97 36.76 16.20 46.33
  Q 12.62 49.50 11.86 51.15
  Q 10.17 54.85 13.94 58.31
  Z
  M 46.94 47.19
  Q 40.87 52.91 31.87 51.39
  C 31.27 51.29 30.68 51.49 30.31 51.91
  L 26.75 55.94
  C 26.30 56.45 26.57 57.28 27.27 57.51
  Q 31.27 58.83 30.44 61.20
  Q 29.46 63.97 32.36 64.48
  Q 35.75 65.06 38.99 64.45
  Q 41.69 63.93 40.89 60.55
  C 40.70 59.73 41.06 58.91 41.76 58.59
  L 47.46 55.96
  C 47.75 55.83 48.09 55.90 48.33 56.12
  L 51.13 58.75
  C 51.58 59.17 52.22 59.25 52.68 58.94
  Q 56.27 56.52 58.73 52.87
  C 59.02 52.44 58.94 51.85 58.55 51.43
  L 55.87 48.59
  C 55.65 48.35 55.60 48.01 55.73 47.72
  L 58.33 41.75
  C 58.42 41.55 58.70 41.39 59.07 41.35
  L 63.21 40.84
  C 63.49 40.81 63.73 40.56 63.81 40.21
  Q 64.79 36.00 63.81 31.80
  C 63.73 31.44 63.48 31.18 63.21 31.15
  L 59.49 30.71
  C 59.25 30.68 58.93 30.83 58.65 31.11
  Q 55.88 33.85 52.28 35.37
  C 52.00 35.49 51.80 35.76 51.77 36.06
  Q 51.17 43.19 46.94 47.19
  Z"
/>
<path fill="#ffffff" d="
  M 32.04 7.25
  Q 35.02 7.25 37.99 7.07
  Q 41.35 6.87 41.22 11.17
  C 41.19 12.13 40.81 13.04 40.14 13.73
  Q 38.02 15.91 36.94 18.44
  Q 36.29 19.96 33.50 20.50
  Q 22.05 22.72 20.29 34.25
  Q 19.49 37.23 20.79 40.00
  Q 18.18 43.31 14.75 45.79
  L 13.57 43.01
  Q 12.79 41.16 11.27 41.45
  Q 7.15 42.24 7.00 38.50
  Q 6.88 35.36 7.34 32.26
  Q 7.69 29.93 10.75 30.61
  Q 12.69 31.04 13.52 29.13
  L 15.54 24.46
  C 15.66 24.18 15.61 23.86 15.42 23.63
  L 12.55 20.16
  C 12.36 19.92 12.32 19.58 12.47 19.29
  Q 13.73 16.75 15.87 14.93
  Q 18.17 12.98 18.44 12.90
  Q 19.89 12.49 22.08 14.72
  Q 23.41 16.09 25.25 15.31
  L 28.91 13.77
  Q 30.66 13.03 30.39 11.21
  Q 29.92 7.98 32.04 7.25
  Z"
/>
<path fill="#ffffff" d="
  M 13.94 58.31
  Q 10.17 54.85 11.86 51.15
  Q 12.62 49.50 16.20 46.33
  Q 26.97 36.76 37.81 27.27
  C 38.03 27.07 38.10 26.75 37.99 26.47
  Q 36.66 23.21 37.75 20.25
  Q 41.55 9.93 52.52 12.50
  Q 53.10 12.64 52.67 13.08
  L 45.80 20.07
  C 45.57 20.31 45.58 20.70 45.82 20.95
  L 50.59 25.72
  C 50.95 26.08 51.55 26.08 51.91 25.72
  L 58.02 19.61
  Q 59.14 18.48 59.43 20.04
  Q 60.97 28.24 54.19 32.69
  Q 50.31 35.23 45.04 33.71
  C 44.75 33.62 44.43 33.71 44.23 33.94
  Q 34.20 45.33 24.16 56.72
  Q 21.71 59.50 19.79 60.02
  Q 16.70 60.85 13.94 58.31
  Z
  M 21.93 53.46
  C 21.93 51.45 20.30 49.82 18.29 49.82
  C 16.28 49.82 14.65 51.45 14.65 53.46
  C 14.65 55.47 16.28 57.10 18.29 57.10
  C 20.30 57.10 21.93 55.47 21.93 53.46
  Z"
/>
<path fill="#3cc549" d="
  M 20.79 40.00
  Q 19.49 37.23 20.29 34.25
  Q 20.93 33.98 21.25 32.75
  Q 23.13 25.61 29.79 22.51
  Q 32.42 21.29 35.21 21.94
  C 35.52 22.01 35.74 22.26 35.76 22.55
  L 36.02 26.75
  C 36.04 27.04 35.90 27.35 35.64 27.59
  Q 29.87 33.11 23.64 38.10
  Q 23.58 38.15 22.61 39.14
  Q 21.89 39.88 20.79 40.00
  Z"
/>
<path fill="#ffffff" d="
  M 46.94 47.19
  Q 51.17 43.19 51.77 36.06
  C 51.80 35.76 52.00 35.49 52.28 35.37
  Q 55.88 33.85 58.65 31.11
  C 58.93 30.83 59.25 30.68 59.49 30.71
  L 63.21 31.15
  C 63.48 31.18 63.73 31.44 63.81 31.80
  Q 64.79 36.00 63.81 40.21
  C 63.73 40.56 63.49 40.81 63.21 40.84
  L 59.07 41.35
  C 58.70 41.39 58.42 41.55 58.33 41.75
  L 55.73 47.72
  C 55.60 48.01 55.65 48.35 55.87 48.59
  L 58.55 51.43
  C 58.94 51.85 59.02 52.44 58.73 52.87
  Q 56.27 56.52 52.68 58.94
  C 52.22 59.25 51.58 59.17 51.13 58.75
  L 48.33 56.12
  C 48.09 55.90 47.75 55.83 47.46 55.96
  L 41.76 58.59
  C 41.06 58.91 40.70 59.73 40.89 60.55
  Q 41.69 63.93 38.99 64.45
  Q 35.75 65.06 32.36 64.48
  Q 29.46 63.97 30.44 61.20
  Q 31.27 58.83 27.27 57.51
  C 26.57 57.28 26.30 56.45 26.75 55.94
  L 30.31 51.91
  C 30.68 51.49 31.27 51.29 31.87 51.39
  Q 40.87 52.91 46.94 47.19
  Z"
/>
<path fill="#01ba2b" d="
  M 21.93 53.46
  C 21.93 55.47 20.30 57.10 18.29 57.10
  C 16.28 57.10 14.65 55.47 14.65 53.46
  C 14.65 51.45 16.28 49.82 18.29 49.82
  C 20.30 49.82 21.93 51.45 21.93 53.46
  Z
  M 18.81 55.06
  Q 21.40 53.72 19.69 52.31
  Q 16.74 49.89 16.13 53.00
  Q 15.90 54.15 16.53 54.84
  Q 17.40 55.80 18.81 55.06
  Z"
/>
<path fill="#3cc549" d="
  M 18.81 55.06
  Q 17.40 55.80 16.53 54.84
  Q 15.90 54.15 16.13 53.00
  Q 16.74 49.89 19.69 52.31
  Q 21.40 53.72 18.81 55.06
  Z"
/>
</svg>
