<?xml version="1.0" encoding="utf-8"?>
<svg version="1.1" viewBox="0 0 72 72" xmlns="http://www.w3.org/2000/svg">
  <g stroke-width="2.0" fill="none" stroke-linecap="butt">
    <path stroke="#353535" vector-effect="non-scaling-stroke" d=" M 39.29 7.00 Q 36.72 10.52 32.55 11.35 C 32.25 11.41 31.93 11.33 31.66 11.13 Q 26.42 7.21 19.75 8.75 Q 17.53 9.26 12.77 8.85 C 12.56 8.84 12.32 8.98 12.14 9.23 Q 12.00 9.43 11.75 9.54"/>
    <path stroke="#8c715f" vector-effect="non-scaling-stroke" d=" M 32.54 16.25 Q 32.29 11.32 27.75 9.79"/>
    <path stroke="#8c7a6e" vector-effect="non-scaling-stroke" d=" M 27.75 9.79 L 12.79 10.50"/>
    <path stroke="#816653" vector-effect="non-scaling-stroke" d=" M 32.54 16.25 Q 31.92 19.14 32.46 22.00"/>
    <path stroke="#fbbd93" vector-effect="non-scaling-stroke" d="M 32.46 22 C 31.72 22.127 31.1 22.44 30.6 22.94 C 29.82 23.733 29.34 24.187 29.16 24.3 C 24.667 27.047 19.443 27.383 13.49 25.31"/>
    <path stroke="#e99f6f" vector-effect="non-scaling-stroke" d=" M 34.29 30.00 Q 28.86 38.85 18.71 41.00"/>
    <path stroke="#f7d5be" vector-effect="non-scaling-stroke" d=" M 18.71 41.00 L 18.29 41.00"/>
    <path stroke="#b49179" vector-effect="non-scaling-stroke" d=" M 18.29 41.00 Q 17.97 40.21 17.29 39.75"/>
    <path stroke="#94705a" vector-effect="non-scaling-stroke" d=" M 17.29 39.75 L 16.29 38.25"/>
    <path stroke="#e9c3ab" vector-effect="non-scaling-stroke" d=" M 36.54 34.00 Q 35.07 34.47 34.06 36.56 Q 32.08 40.65 27.19 43.19 Q 25.95 43.83 25.96 44.75"/>
    <path stroke="#b75039" vector-effect="non-scaling-stroke" d=" M 25.96 44.75 Q 23.14 43.38 20.00 43.46"/>
    <path stroke="#e9c3ab" vector-effect="non-scaling-stroke" d=" M 20.00 43.46 Q 19.79 42.00 18.71 41.00"/>
    <path stroke="#515051" vector-effect="non-scaling-stroke" d=" M 17.29 39.75 Q 15.70 46.28 16.21 53.00"/>
    <path stroke="#b4b5b5" vector-effect="non-scaling-stroke" d=" M 18.29 41.00 L 17.33 51.37 C 17.31 51.58 17.45 51.76 17.63 51.76 L 17.96 51.75"/>
    <path stroke="#9d5052" vector-effect="non-scaling-stroke" d=" M 17.96 51.75 L 17.96 52.75"/>
    <path stroke="#454545" vector-effect="non-scaling-stroke" d=" M 17.96 52.75 Q 16.87 54.05 16.21 53.00"/>
    <path stroke="#c68788" vector-effect="non-scaling-stroke" d=" M 20.00 43.46 Q 17.88 45.00 19.50 47.25 Q 20.33 48.41 19.50 49.71"/>
    <path stroke="#e09497" vector-effect="non-scaling-stroke" d=" M 19.50 49.71 L 17.96 51.75"/>
    <path stroke="#af2125" vector-effect="non-scaling-stroke" d=" M 18.29 54.75 Q 19.62 54.63 20.44 53.75 Q 20.95 53.20 21.74 51.93 Q 23.11 49.73 19.50 49.71"/>
    <path stroke="#88898a" vector-effect="non-scaling-stroke" d=" M 36.79 34.25 L 34.71 37.75"/>
    <path stroke="#949496" vector-effect="non-scaling-stroke" d=" M 34.71 37.75 Q 28.74 44.69 24.50 52.79"/>
    <path stroke="#c68788" vector-effect="non-scaling-stroke" d=" M 24.50 52.79 Q 22.92 49.00 26.13 47.06 C 26.43 46.87 26.62 46.60 26.63 46.33 Q 26.65 45.48 25.96 44.75"/>
    <path stroke="#712427" vector-effect="non-scaling-stroke" d=" M 17.96 52.75 Q 17.91 53.80 18.29 54.75"/>
    <path stroke="#571718" vector-effect="non-scaling-stroke" d=" M 18.29 54.75 Q 18.56 57.81 20.00 60.70 Q 20.52 61.73 21.04 60.60 L 22.46 57.50"/>
    <path stroke="#414041" vector-effect="non-scaling-stroke" d=" M 42.46 40.25 Q 43.38 42.77 45.75 44.21"/>
    <path stroke="#1a191a" vector-effect="non-scaling-stroke" d=" M 45.75 44.21 Q 44.73 44.53 44.00 45.29"/>
    <path stroke="#252425" vector-effect="non-scaling-stroke" d=" M 44.00 45.29 L 40.70 46.53 C 39.87 46.84 39.01 46.68 38.57 46.14 Q 36.42 43.51 35.39 46.73 Q 35.20 47.31 34.87 48.09 Q 34.07 49.97 36.02 49.48 Q 37.35 49.14 36.25 49.96 Q 30.56 54.15 26.25 59.25 Q 25.06 60.66 22.95 59.72 C 22.69 59.60 22.52 59.32 22.51 59.00 L 22.46 57.50"/>
    <path stroke="#632224" vector-effect="non-scaling-stroke" d=" M 22.46 57.50 L 24.50 52.79"/>
    <path stroke="#0e0e0e" vector-effect="non-scaling-stroke" d=" M 42.50 38.79 Q 41.98 39.44 42.54 40.00"/>
    <path stroke="#353535" vector-effect="non-scaling-stroke" d=" M 42.54 40.00 L 42.46 40.25"/>
    <path stroke="#252425" vector-effect="non-scaling-stroke" d=" M 42.46 40.25 Q 41.00 40.85 41.12 42.44 C 41.14 42.74 40.95 43.00 40.70 43.02 L 36.81 43.42 C 36.56 43.45 36.34 43.23 36.31 42.94 L 36.15 40.93 C 36.12 40.68 35.96 40.38 35.70 40.09 Q 34.78 39.13 34.71 37.75"/>
    <path stroke="#2a2a2a" vector-effect="non-scaling-stroke" d=" M 45.75 44.21 Q 47.60 45.13 46.25 46.75 Q 42.85 50.81 41.54 56.70 Q 41.44 57.16 41.25 57.64 Q 40.57 59.32 41.44 58.64 C 41.67 58.46 41.85 58.18 41.95 57.84 Q 43.66 51.98 47.15 46.97 Q 47.49 46.48 47.67 47.00 L 49.79 53.00"/>
    <path stroke="#0e0e0e" vector-effect="non-scaling-stroke" d=" M 49.79 53.00 Q 50.81 59.43 50.81 65.94 C 50.81 66.19 51.07 66.36 51.28 66.24 Q 52.38 65.64 52.50 64.00 Q 53.11 55.70 51.04 49.00"/>
    <path stroke="#2a2a2a" vector-effect="non-scaling-stroke" d=" M 51.04 49.00 Q 50.55 46.57 48.82 45.04 Q 46.93 43.37 46.84 43.28 Q 44.92 41.36 42.54 40.00"/>
    <path stroke="#353535" vector-effect="non-scaling-stroke" d=" M 51.04 49.00 Q 51.12 50.74 50.81 52.43 Q 50.74 52.83 50.49 52.96 Q 50.19 53.12 49.79 53.00"/>
    <path stroke="#af2125" vector-effect="non-scaling-stroke" d=" M 22.82 44.98 Q 19.62 45.30 22.96 46.08 C 23.29 46.16 23.62 46.04 23.74 45.80 Q 23.89 45.50 23.71 45.25 C 23.56 45.05 23.22 44.94 22.82 44.98"/>
  </g>
  <path fill="#717170" d="M 30.25 0.79 C 31.043 2.363 30.243 4.367 27.85 6.8 C 27.123 7.547 26.25 8.033 25.23 8.26 C 22.243 8.933 20.44 7.343 19.82 3.49 C 19.78 3.23 19.86 2.91 20.05 2.6 C 20.35 2.093 20.015 1.919 19.182 1.999 C 22.729 0.586 26.463 0.157 30.25 0.79 Z"/>
  <path fill="#515151" d="M 30.25 0.79 C 34.357 1.323 37.37 3.393 39.29 7 C 37.577 9.347 35.33 10.797 32.55 11.35 C 32.25 11.41 31.93 11.33 31.66 11.13 C 28.167 8.517 24.197 7.723 19.75 8.75 C 18.27 9.09 15.943 9.123 12.77 8.85 C 12.56 8.84 12.32 8.98 12.14 9.23 C 12.047 9.363 11.917 9.467 11.75 9.54 C 10.29 8.847 10.27 7.897 11.69 6.69 C 14.583 4.223 17.142 2.646 19.289 1.96 C 20.122 1.88 20.35 2.093 20.05 2.6 C 19.86 2.91 19.78 3.23 19.82 3.49 C 20.44 7.343 22.243 8.933 25.23 8.26 C 26.25 8.033 27.123 7.547 27.85 6.8 C 30.243 4.367 31.043 2.363 30.25 0.79 Z"/>
  <path fill="#191919" d="M 39.29 7 L 40.729 12.332 L 40.377 15.615 C 40.367 15.815 40.19 16.01 40.02 15.9 C 38.547 14.987 37.213 15.127 36.02 16.32 C 35.76 16.58 35.45 16.71 35.19 16.67 L 32.54 16.25 C 32.373 12.963 30.777 10.81 27.75 9.79 L 12.79 10.5 C 12.583 10.047 12.237 9.727 11.75 9.54 C 11.917 9.467 12.047 9.363 12.14 9.23 C 12.32 8.98 12.56 8.84 12.77 8.85 C 15.943 9.123 18.27 9.09 19.75 8.75 C 24.197 7.723 28.167 8.517 31.66 11.13 C 31.93 11.33 32.25 11.41 32.55 11.35 C 35.33 10.797 37.274 9.165 39.29 7 Z"/>
  <path fill="#ffdbc3" d="M 27.75 9.79 C 28.063 11.73 27.589 13.409 26.249 14.749 C 25.102 15.889 23.823 16.857 22.49 17.73 C 20.583 18.983 19.287 19.878 18.4 20.111 C 16.853 20.518 14.993 20.303 13.02 19.57 C 12.72 19.46 12.472 19.18 12.422 18.93 L 11.948 15.975 L 12.79 10.5 L 27.75 9.79 Z"/>
  <path fill="#ffc9a4" d="M 27.594 9.79 C 30.621 10.81 32.373 12.963 32.54 16.25 C 32.127 18.177 32.1 20.093 32.46 22 C 31.72 22.127 31.1 22.44 30.6 22.94 C 29.82 23.733 29.34 24.187 29.16 24.3 C 24.667 27.047 19.443 27.383 13.49 25.31 C 12.98 25.13 12.58 24.73 12.4 24.21 C 12.187 23.583 11.943 23.806 11.697 24.626 C 11.33 21.779 11.44 18.657 11.973 15.837 L 12.523 18.817 C 12.573 19.067 12.795 19.297 13.095 19.407 C 15.068 20.14 16.753 20.317 18.3 19.91 C 19.187 19.677 20.558 18.71 22.465 17.457 C 23.798 16.584 24.946 15.654 26.093 14.514 C 27.433 13.174 27.907 11.73 27.594 9.79 Z"/>
  <path fill="#020202" d="M 40.636 12.117 C 41.098 12.321 41.173 19.98 39.94 23.44 C 39.013 26.033 37.189 27.968 34.489 29.221 C 34.81 28.32 35.673 26.983 36.94 25.19 C 38.24 23.343 38.203 21.573 36.83 19.88 C 36.62 19.63 36.32 19.48 36 19.48 C 34.373 19.48 33.193 20.32 32.46 22 C 32.1 20.093 32.127 18.177 32.54 16.25 L 35.19 16.67 C 35.45 16.71 35.76 16.58 36.02 16.32 C 37.213 15.127 38.515 14.944 39.988 15.857 C 40.158 15.967 40.249 15.901 40.334 15.69 L 40.636 12.117 Z"/>
  <path fill="#f7b182" d="M 34.531 29.169 C 34.45 29.26 34.308 29.453 34.318 29.469 C 30.649 35.222 25.477 39.567 18.71 41 L 18.29 41 C 18.009 40.798 17.637 40.466 17.29 39.75 L 16.29 38.25 C 13.65 34.03 12.11 29.547 11.697 24.6 C 11.944 23.78 12.15 23.432 12.363 24.059 C 12.543 24.579 12.98 25.13 13.49 25.31 C 19.443 27.383 24.667 27.047 29.16 24.3 C 29.34 24.187 29.82 23.733 30.6 22.94 C 31.1 22.44 31.72 22.127 32.46 22 C 33.193 20.32 34.373 19.48 36 19.48 C 36.32 19.48 36.62 19.63 36.83 19.88 C 38.203 21.573 38.24 23.343 36.94 25.19 C 35.673 26.983 34.681 29.046 34.531 29.169 Z"/>
  <path fill="#da8c5c" d="M 34.495 29.173 C 34.547 29.049 36.571 33.979 36.57 33.984 C 36.562 33.997 34.733 35.167 34.06 36.56 C 32.74 39.287 30.45 41.497 27.19 43.19 C 26.363 43.617 25.953 44.137 25.96 44.75 C 24.08 43.837 22.093 43.407 20 43.46 C 19.86 42.487 19.43 41.667 18.71 41 C 25.477 39.567 34.372 29.277 34.495 29.173 Z"/>
  <path fill="#f7f9fa" d="M 36.556 33.979 C 36.573 33.978 36.734 34.213 36.733 34.212 L 34.707 37.753 C 30.728 42.379 27.326 47.391 24.5 52.79 C 23.447 50.264 23.99 48.354 26.129 47.061 C 26.429 46.871 26.619 46.601 26.629 46.331 C 26.642 45.764 26.419 45.239 25.959 44.752 C 25.952 44.139 26.362 43.619 27.189 43.192 C 30.448 41.499 32.737 39.29 34.057 36.563 C 34.73 35.171 36.374 34.045 36.556 33.979 Z" style="" transform="matrix(0.999999, 0.001051, -0.001051, 0.999999, 0.045645, -0.031921)"/>
  <path fill="#191919" d="M 36.74 34.152 L 42.5 38.79 C 42.153 39.223 42.167 39.627 42.54 40 L 42.46 40.25 C 41.487 40.65 41.04 41.38 41.12 42.44 C 41.14 42.74 40.95 43 40.7 43.02 L 36.81 43.42 C 36.56 43.45 36.34 43.23 36.31 42.94 L 36.15 40.93 C 36.12 40.68 35.96 40.38 35.7 40.09 C 35.087 39.45 34.757 38.67 34.71 37.75 L 36.74 34.152 Z"/>
  <path fill="#312f31" d=" M 34.71 37.75 Q 34.78 39.13 35.70 40.09 C 35.96 40.38 36.12 40.68 36.15 40.93 L 36.31 42.94 C 36.34 43.23 36.56 43.45 36.81 43.42 L 40.70 43.02 C 40.95 43.00 41.14 42.74 41.12 42.44 Q 41.00 40.85 42.46 40.25 Q 43.38 42.77 45.75 44.21 Q 44.73 44.53 44.00 45.29 L 40.70 46.53 C 39.87 46.84 39.01 46.68 38.57 46.14 Q 36.42 43.51 35.39 46.73 Q 35.20 47.31 34.87 48.09 Q 34.07 49.97 36.02 49.48 Q 37.35 49.14 36.25 49.96 Q 30.56 54.15 26.25 59.25 Q 25.06 60.66 22.95 59.72 C 22.69 59.60 22.52 59.32 22.51 59.00 L 22.46 57.50 L 24.50 52.79 Q 28.74 44.69 34.71 37.75 Z"/>
  <path fill="#312f31" d="M 16.264 38.211 L 17.29 39.75 C 16.23 44.103 15.87 48.52 16.21 53 C 15.983 52.04 15.433 51.52 14.56 51.44 C 14.15 51.4 13.83 51.29 13.66 51.14 C 13.28 50.773 13.15 50.32 13.27 49.78 C 13.34 49.48 13.29 49.17 13.12 48.92 C 12.64 48.2 12.713 47.503 13.34 46.83 C 14.32 45.77 14.06 45.057 12.56 44.69 C 11.307 44.383 11.287 43.653 12.5 42.5 C 12.933 42.087 13.15 41.399 13.023 40.812 L 16.264 38.211 Z"/>
  <path fill="#020202" d="M 42.5 38.79 C 51.333 42.343 55.86 48.737 56.08 57.97 C 56.16 61.397 56.143 63.413 56.03 64.02 C 55.603 66.313 54.03 67.91 51.31 68.81 C 36.923 73.577 22.946 72.031 10.292 64.584 C 8.444 63.121 13.69 65.423 15.19 66.31 C 15.697 66.61 16.23 66.66 16.79 66.46 C 17.04 66.37 17.14 66.06 17 65.81 C 16.313 64.55 15.71 63.257 15.19 61.93 C 14.55 60.303 14.753 59.977 15.8 60.95 C 16.807 61.883 17.977 62.443 19.31 62.63 C 19.59 62.67 19.82 62.89 19.89 63.18 C 20.103 64.147 20.637 64.52 21.49 64.3 C 22.07 64.15 22.58 63.82 22.95 63.36 C 24.91 60.913 25.84 60.113 25.74 60.96 C 25.67 61.61 25.42 62.23 25.02 62.75 C 22.533 66.03 22.687 67.533 25.48 67.26 C 29.287 66.88 32.923 65.5 36.39 63.12 C 37.2 62.57 37.8 61.75 38.08 60.81 C 39.433 56.297 41.073 52.11 43 48.25 C 43.68 46.883 44.013 45.897 44 45.29 C 44.487 44.783 45.07 44.423 45.75 44.21 C 46.983 44.823 47.15 45.67 46.25 46.75 C 43.983 49.457 42.413 52.773 41.54 56.7 C 41.473 57.007 41.377 57.32 41.25 57.64 C 40.797 58.76 40.86 59.093 41.44 58.64 C 41.67 58.46 41.85 58.18 41.95 57.84 C 43.09 53.933 44.823 50.31 47.15 46.97 C 47.377 46.643 47.55 46.653 47.67 47 L 49.79 53 C 50.47 57.287 50.81 61.6 50.81 65.94 C 50.81 66.19 51.07 66.36 51.28 66.24 C 52.013 65.84 52.42 65.093 52.5 64 C 52.907 58.467 52.42 53.467 51.04 49 C 50.713 47.38 49.973 46.06 48.82 45.04 C 47.56 43.927 46.9 43.34 46.84 43.28 C 45.56 42 44.127 40.907 42.54 40 C 42.167 39.627 42.153 39.223 42.5 38.79 Z"/>
  <path fill="#717170" d="M 17.29 39.75 C 17.626 40.377 18.093 40.871 18.29 40.999 L 17.33 51.37 C 17.31 51.58 17.45 51.76 17.63 51.76 L 17.96 51.75 L 17.96 52.75 C 17.233 53.617 16.65 53.7 16.21 53 C 15.87 48.52 16.23 44.104 17.29 39.75 Z"/>
  <path fill="#515151" d=" M 42.54 40.00 Q 44.92 41.36 46.84 43.28 Q 46.93 43.37 48.82 45.04 Q 50.55 46.57 51.04 49.00 Q 51.12 50.74 50.81 52.43 Q 50.74 52.83 50.49 52.96 Q 50.19 53.12 49.79 53.00 L 47.67 47.00 Q 47.49 46.48 47.15 46.97 Q 43.66 51.98 41.95 57.84 C 41.85 58.18 41.67 58.46 41.44 58.64 Q 40.57 59.32 41.25 57.64 Q 41.44 57.16 41.54 56.70 Q 42.85 50.81 46.25 46.75 Q 47.60 45.13 45.75 44.21 Q 43.38 42.77 42.46 40.25 L 42.54 40.00 Z"/>
  <path fill="#191919" d="M 13.084 40.771 C 13.211 41.358 12.933 42.087 12.5 42.5 C 11.287 43.653 11.307 44.383 12.56 44.69 C 14.06 45.057 14.32 45.77 13.34 46.83 C 12.713 47.503 12.64 48.2 13.12 48.92 C 13.29 49.17 13.34 49.48 13.27 49.78 C 13.15 50.32 13.28 50.773 13.66 51.14 C 13.83 51.29 14.15 51.4 14.56 51.44 C 15.433 51.52 15.983 52.04 16.21 53 C 16.65 53.7 17.233 53.617 17.96 52.75 C 17.927 53.45 18.037 54.117 18.29 54.75 C 18.47 56.79 19.04 58.773 20 60.7 C 20.347 61.387 20.693 61.353 21.04 60.6 L 22.46 57.5 L 22.51 59 C 22.52 59.32 22.69 59.6 22.95 59.72 C 24.357 60.347 25.457 60.19 26.25 59.25 C 29.123 55.85 32.457 52.753 36.25 49.96 C 36.983 49.413 36.907 49.253 36.02 49.48 C 34.72 49.807 34.337 49.343 34.87 48.09 C 35.09 47.57 35.263 47.117 35.39 46.73 C 36.077 44.583 37.137 44.387 38.57 46.14 C 39.01 46.68 39.87 46.84 40.7 46.53 L 44 45.29 C 44.013 45.897 43.68 46.883 43 48.25 C 41.073 52.11 39.433 56.297 38.08 60.81 C 37.8 61.75 37.2 62.57 36.39 63.12 C 32.923 65.5 29.287 66.88 25.48 67.26 C 22.687 67.533 22.533 66.03 25.02 62.75 C 25.42 62.23 25.67 61.61 25.74 60.96 C 25.84 60.113 24.91 60.913 22.95 63.36 C 22.58 63.82 22.07 64.15 21.49 64.3 C 20.637 64.52 20.103 64.147 19.89 63.18 C 19.82 62.89 19.59 62.67 19.31 62.63 C 17.977 62.443 16.807 61.883 15.8 60.95 C 14.753 59.977 14.55 60.303 15.19 61.93 C 15.71 63.257 16.313 64.55 17 65.81 C 17.14 66.06 17.082 66.433 16.832 66.523 C 16.272 66.723 15.697 66.61 15.19 66.31 C 13.69 65.423 10.298 64.576 10.292 64.568 L 5.67 60.8 C 5.16 60.4 4.88 59.66 4.92 58.82 C 5.053 55.867 5.237 53.527 5.47 51.8 C 6.123 46.9 8.744 43.071 13.084 40.771 Z"/>
  <path fill="#f7f9fa" d=" M 18.29 41.00 L 18.71 41.00 Q 19.79 42.00 20.00 43.46 Q 17.88 45.00 19.50 47.25 Q 20.33 48.41 19.50 49.71 L 17.96 51.75 L 17.63 51.76 C 17.45 51.76 17.31 51.58 17.33 51.37 L 18.29 41.00 Z"/>
  <path fill="#941416" d=" M 25.96 44.75 Q 26.65 45.48 26.63 46.33 C 26.62 46.60 26.43 46.87 26.13 47.06 Q 22.92 49.00 24.50 52.79 L 22.46 57.50 L 21.04 60.60 Q 20.52 61.73 20.00 60.70 Q 18.56 57.81 18.29 54.75 Q 19.62 54.63 20.44 53.75 Q 20.95 53.20 21.74 51.93 Q 23.11 49.73 19.50 49.71 Q 20.33 48.41 19.50 47.25 Q 17.88 45.00 20.00 43.46 Q 23.14 43.38 25.96 44.75 Z M 22.82 44.98 Q 19.62 45.30 22.96 46.08 C 23.29 46.16 23.62 46.04 23.74 45.80 Q 23.89 45.50 23.71 45.25 C 23.56 45.05 23.22 44.94 22.82 44.98 Z"/>
  <path fill="#c92e34" d=" M 23.71 45.25 Q 23.89 45.50 23.74 45.80 C 23.62 46.04 23.29 46.16 22.96 46.08 Q 19.62 45.30 22.82 44.98 C 23.22 44.94 23.56 45.05 23.71 45.25 Z"/>
  <path fill="#191919" d=" M 51.04 49.00 Q 53.11 55.70 52.50 64.00 Q 52.38 65.64 51.28 66.24 C 51.07 66.36 50.81 66.19 50.81 65.94 Q 50.81 59.43 49.79 53.00 Q 50.19 53.12 50.49 52.96 Q 50.74 52.83 50.81 52.43 Q 51.12 50.74 51.04 49.00 Z"/>
  <path fill="#c92e34" d=" M 19.50 49.71 Q 23.11 49.73 21.74 51.93 Q 20.95 53.20 20.44 53.75 Q 19.62 54.63 18.29 54.75 Q 17.91 53.80 17.96 52.75 L 17.96 51.75 L 19.50 49.71 Z"/>
</svg>