<?xml version="1.0" encoding="utf-8"?>
<svg version="1.1" viewBox="0 0 72 72" xmlns="http://www.w3.org/2000/svg">
  <g stroke-width="2.0" fill="none" stroke-linecap="butt">
    <path stroke="#bce5a0" vector-effect="non-scaling-stroke" d=" M 32.04 7.25 Q 29.92 7.98 30.39 11.21 Q 30.66 13.03 28.91 13.77 L 25.25 15.31 Q 23.41 16.09 22.08 14.72 Q 19.89 12.49 18.44 12.90 Q 18.17 12.98 15.87 14.93 Q 13.73 16.75 12.47 19.29 C 12.32 19.58 12.36 19.92 12.55 20.16 L 15.42 23.63 C 15.61 23.86 15.66 24.18 15.54 24.46 L 13.52 29.13 Q 12.69 31.04 10.75 30.61 Q 7.69 29.93 7.34 32.26 Q 6.88 35.36 7.00 38.50 Q 7.15 42.24 11.27 41.45 Q 12.79 41.16 13.57 43.01 L 14.75 45.79"/>
    <path stroke="#3dc049" vector-effect="non-scaling-stroke" d="M 14.75 45.79 C 13.617 47.037 12.577 48.353 11.63 49.74"/>
    <path stroke="#80daa9" vector-effect="non-scaling-stroke" d=" M 14.75 45.79 Q 18.18 43.31 20.79 40.00"/>
    <path stroke="#1fbd4e" vector-effect="non-scaling-stroke" d=" M 20.79 40.00 Q 21.89 39.88 22.61 39.14 Q 23.58 38.15 23.64 38.10 Q 29.87 33.11 35.64 27.59 C 35.90 27.35 36.04 27.04 36.02 26.75 L 35.76 22.55 C 35.74 22.26 35.52 22.01 35.21 21.94 Q 32.42 21.29 29.79 22.51 Q 23.13 25.61 21.25 32.75 Q 20.93 33.98 20.29 34.25"/>
    <path stroke="#80daa9" vector-effect="non-scaling-stroke" d=" M 20.29 34.25 Q 22.05 22.72 33.50 20.50 Q 36.29 19.96 36.94 18.44 Q 38.02 15.91 40.14 13.73 C 40.81 13.04 41.19 12.13 41.22 11.17 Q 41.35 6.87 37.99 7.07 Q 35.02 7.25 32.04 7.25"/>
    <path stroke="#9ee2a4" vector-effect="non-scaling-stroke" d=" M 20.29 34.25 Q 19.49 37.23 20.79 40.00"/>
    <path stroke="#80daa9" vector-effect="non-scaling-stroke" d=" M 13.94 58.31 Q 16.70 60.85 19.79 60.02 Q 21.71 59.50 24.16 56.72 Q 34.20 45.33 44.23 33.94 C 44.43 33.71 44.75 33.62 45.04 33.71 Q 50.31 35.23 54.19 32.69 Q 60.97 28.24 59.43 20.04 Q 59.14 18.48 58.02 19.61 L 51.91 25.72 C 51.55 26.08 50.95 26.08 50.59 25.72 L 45.82 20.95 C 45.58 20.70 45.57 20.31 45.80 20.07 L 52.67 13.08 Q 53.10 12.64 52.52 12.50 Q 41.55 9.93 37.75 20.25 Q 36.66 23.21 37.99 26.47 C 38.10 26.75 38.03 27.07 37.81 27.27 Q 26.97 36.76 16.20 46.33 Q 12.62 49.50 11.86 51.15 Q 10.17 54.85 13.94 58.31"/>
    <path stroke="#80daa9" vector-effect="non-scaling-stroke" d=" M 46.94 47.19 Q 40.87 52.91 31.87 51.39 C 31.27 51.29 30.68 51.49 30.31 51.91 L 26.75 55.94 C 26.30 56.45 26.57 57.28 27.27 57.51 Q 31.27 58.83 30.44 61.20 Q 29.46 63.97 32.36 64.48 Q 35.75 65.06 38.99 64.45 Q 41.69 63.93 40.89 60.55 C 40.70 59.73 41.06 58.91 41.76 58.59 L 47.46 55.96 C 47.75 55.83 48.09 55.90 48.33 56.12 L 51.13 58.75 C 51.58 59.17 52.22 59.25 52.68 58.94 Q 56.27 56.52 58.73 52.87 C 59.02 52.44 58.94 51.85 58.55 51.43 L 55.87 48.59 C 55.65 48.35 55.60 48.01 55.73 47.72 L 58.33 41.75 C 58.42 41.55 58.70 41.39 59.07 41.35 L 63.21 40.84 C 63.49 40.81 63.73 40.56 63.81 40.21 Q 64.79 36.00 63.81 31.80 C 63.73 31.44 63.48 31.18 63.21 31.15 L 59.49 30.71 C 59.25 30.68 58.93 30.83 58.65 31.11 Q 55.88 33.85 52.28 35.37 C 52.00 35.49 51.80 35.76 51.77 36.06 Q 51.17 43.19 46.94 47.19"/>
    <path stroke="#80dd95" vector-effect="non-scaling-stroke" d=" M 21.93 53.46 C 21.93 51.45 20.30 49.82 18.29 49.82 C 16.28 49.82 14.65 51.45 14.65 53.46 C 14.65 55.47 16.28 57.10 18.29 57.10 C 20.30 57.10 21.93 55.47 21.93 53.46"/>
    <path stroke="#1fc03a" vector-effect="non-scaling-stroke" d=" M 18.81 55.06 Q 21.40 53.72 19.69 52.31 Q 16.74 49.89 16.13 53.00 Q 15.90 54.15 16.53 54.84 Q 17.40 55.80 18.81 55.06"/>
  </g>
  <path fill="#78cb40" d="M 45.268 4.325 C 44.375 5.138 43.863 5.967 43.77 7.04 C 43.65 8.38 43.09 8.597 42.09 7.69 C 40.97 6.677 39.773 6.167 38.5 6.16 C 36.253 6.153 35.94 6.307 37.56 6.62 C 37.647 6.633 37.647 6.647 37.56 6.66 L 32.04 7.25 C 30.627 7.737 30.077 9.057 30.39 11.21 C 30.57 12.423 30.077 13.277 28.91 13.77 L 25.25 15.31 C 24.023 15.83 22.967 15.633 22.08 14.72 C 20.62 13.233 19.407 12.627 18.44 12.9 C 18.26 12.953 17.403 13.63 15.87 14.93 C 14.443 16.143 13.31 17.597 12.47 19.29 C 12.32 19.58 12.36 19.92 12.55 20.16 L 15.42 23.63 C 15.61 23.86 15.66 24.18 15.54 24.46 L 13.52 29.13 C 12.967 30.403 12.043 30.897 10.75 30.61 C 8.71 30.157 7.573 30.707 7.34 32.26 C 7.033 34.327 6.92 36.407 7 38.5 C 7.1 40.993 8.523 41.977 11.27 41.45 C 12.283 41.257 13.05 41.777 13.57 43.01 L 14.75 45.79 C 13.617 47.037 12.577 48.353 11.63 49.74 C 10.817 50.933 10.43 52.213 10.47 53.58 C 10.51 54.973 10.642 56.363 10.929 57.75 C 4.969 50.623 2.293 42.82 2.84 34.34 C 3.273 27.553 5.537 21.383 9.63 15.83 C 15.21 8.27 23.167 3.91 33.5 2.75 C 37.167 2.337 41.101 2.938 45.268 4.325 Z"/>
  <path fill="#01b552" d="M 45.192 4.297 C 54.286 6.95 60.907 11.98 64.94 19.56 C 70.54 30.1 70.947 40.217 66.16 49.91 C 63.173 55.963 59.02 60.72 53.7 64.18 C 48.047 67.86 41.647 69.55 34.5 69.25 C 25.253 68.863 17.375 65.03 10.928 57.75 C 10.641 56.363 10.51 54.973 10.47 53.58 C 10.43 52.213 10.817 50.933 11.63 49.74 C 12.577 48.353 13.617 47.037 14.75 45.79 C 17.037 44.137 19.05 42.207 20.79 40 C 21.523 39.92 22.13 39.633 22.61 39.14 C 23.257 38.48 23.6 38.133 23.64 38.1 C 27.793 34.773 31.793 31.27 35.64 27.59 C 35.9 27.35 36.04 27.04 36.02 26.75 L 35.76 22.55 C 35.74 22.26 35.52 22.01 35.21 21.94 C 33.35 21.507 31.543 21.697 29.79 22.51 C 25.35 24.577 22.503 27.99 21.25 32.75 C 21.037 33.57 20.717 34.07 20.29 34.25 C 21.463 26.563 25.867 21.98 33.5 20.5 C 35.36 20.14 36.507 19.453 36.94 18.44 C 37.66 16.753 38.727 15.183 40.14 13.73 C 40.81 13.04 41.19 12.13 41.22 11.17 C 41.307 8.303 40.23 6.937 37.99 7.07 C 36.01 7.19 34.027 7.25 32.04 7.25 L 37.56 6.66 C 37.647 6.647 37.647 6.633 37.56 6.62 C 35.94 6.307 36.253 6.153 38.5 6.16 C 39.773 6.167 40.97 6.677 42.09 7.69 C 43.09 8.597 43.65 8.38 43.77 7.04 C 43.863 5.967 44.299 5.11 45.192 4.297 Z M 13.94 58.31 C 15.78 60.003 17.73 60.573 19.79 60.02 C 21.07 59.673 22.527 58.573 24.16 56.72 C 30.853 49.127 37.543 41.533 44.23 33.94 C 44.43 33.71 44.75 33.62 45.04 33.71 C 48.553 34.723 51.603 34.383 54.19 32.69 C 58.71 29.723 60.457 25.507 59.43 20.04 C 59.237 19 58.767 18.857 58.02 19.61 L 51.91 25.72 C 51.55 26.08 50.95 26.08 50.59 25.72 L 45.82 20.95 C 45.58 20.7 45.57 20.31 45.8 20.07 L 52.67 13.08 C 52.957 12.787 52.907 12.593 52.52 12.5 C 45.207 10.787 40.283 13.37 37.75 20.25 C 37.023 22.223 37.103 24.297 37.99 26.47 C 38.1 26.75 38.03 27.07 37.81 27.27 C 30.583 33.597 23.38 39.95 16.2 46.33 C 13.813 48.443 12.367 50.05 11.86 51.15 C 10.733 53.617 11.427 56.003 13.94 58.31 Z M 46.94 47.19 C 42.893 51.003 37.87 52.403 31.87 51.39 C 31.27 51.29 30.68 51.49 30.31 51.91 L 26.75 55.94 C 26.3 56.45 26.57 57.28 27.27 57.51 C 29.937 58.39 30.993 59.62 30.44 61.2 C 29.787 63.047 30.427 64.14 32.36 64.48 C 34.62 64.867 36.83 64.857 38.99 64.45 C 40.79 64.103 41.423 62.803 40.89 60.55 C 40.7 59.73 41.06 58.91 41.76 58.59 L 47.46 55.96 C 47.75 55.83 48.09 55.9 48.33 56.12 L 51.13 58.75 C 51.58 59.17 52.22 59.25 52.68 58.94 C 55.073 57.327 57.09 55.303 58.73 52.87 C 59.02 52.44 58.94 51.85 58.55 51.43 L 55.87 48.59 C 55.65 48.35 55.6 48.01 55.73 47.72 L 58.33 41.75 C 58.42 41.55 58.7 41.39 59.07 41.35 L 63.21 40.84 C 63.49 40.81 63.73 40.56 63.81 40.21 C 64.463 37.403 64.463 34.6 63.81 31.8 C 63.73 31.44 63.48 31.18 63.21 31.15 L 59.49 30.71 C 59.25 30.68 58.93 30.83 58.65 31.11 C 56.803 32.937 54.68 34.357 52.28 35.37 C 52 35.49 51.8 35.76 51.77 36.06 C 51.37 40.813 49.76 44.523 46.94 47.19 Z"/>
  <path fill="#ffffff" d=" M 32.04 7.25 Q 35.02 7.25 37.99 7.07 Q 41.35 6.87 41.22 11.17 C 41.19 12.13 40.81 13.04 40.14 13.73 Q 38.02 15.91 36.94 18.44 Q 36.29 19.96 33.50 20.50 Q 22.05 22.72 20.29 34.25 Q 19.49 37.23 20.79 40.00 Q 18.18 43.31 14.75 45.79 L 13.57 43.01 Q 12.79 41.16 11.27 41.45 Q 7.15 42.24 7.00 38.50 Q 6.88 35.36 7.34 32.26 Q 7.69 29.93 10.75 30.61 Q 12.69 31.04 13.52 29.13 L 15.54 24.46 C 15.66 24.18 15.61 23.86 15.42 23.63 L 12.55 20.16 C 12.36 19.92 12.32 19.58 12.47 19.29 Q 13.73 16.75 15.87 14.93 Q 18.17 12.98 18.44 12.90 Q 19.89 12.49 22.08 14.72 Q 23.41 16.09 25.25 15.31 L 28.91 13.77 Q 30.66 13.03 30.39 11.21 Q 29.92 7.98 32.04 7.25 Z"/>
  <path fill="#ffffff" d=" M 13.94 58.31 Q 10.17 54.85 11.86 51.15 Q 12.62 49.50 16.20 46.33 Q 26.97 36.76 37.81 27.27 C 38.03 27.07 38.10 26.75 37.99 26.47 Q 36.66 23.21 37.75 20.25 Q 41.55 9.93 52.52 12.50 Q 53.10 12.64 52.67 13.08 L 45.80 20.07 C 45.57 20.31 45.58 20.70 45.82 20.95 L 50.59 25.72 C 50.95 26.08 51.55 26.08 51.91 25.72 L 58.02 19.61 Q 59.14 18.48 59.43 20.04 Q 60.97 28.24 54.19 32.69 Q 50.31 35.23 45.04 33.71 C 44.75 33.62 44.43 33.71 44.23 33.94 Q 34.20 45.33 24.16 56.72 Q 21.71 59.50 19.79 60.02 Q 16.70 60.85 13.94 58.31 Z M 21.93 53.46 C 21.93 51.45 20.30 49.82 18.29 49.82 C 16.28 49.82 14.65 51.45 14.65 53.46 C 14.65 55.47 16.28 57.10 18.29 57.10 C 20.30 57.10 21.93 55.47 21.93 53.46 Z"/>
  <path fill="#3cc549" d=" M 20.79 40.00 Q 19.49 37.23 20.29 34.25 Q 20.93 33.98 21.25 32.75 Q 23.13 25.61 29.79 22.51 Q 32.42 21.29 35.21 21.94 C 35.52 22.01 35.74 22.26 35.76 22.55 L 36.02 26.75 C 36.04 27.04 35.90 27.35 35.64 27.59 Q 29.87 33.11 23.64 38.10 Q 23.58 38.15 22.61 39.14 Q 21.89 39.88 20.79 40.00 Z"/>
  <path fill="#ffffff" d=" M 46.94 47.19 Q 51.17 43.19 51.77 36.06 C 51.80 35.76 52.00 35.49 52.28 35.37 Q 55.88 33.85 58.65 31.11 C 58.93 30.83 59.25 30.68 59.49 30.71 L 63.21 31.15 C 63.48 31.18 63.73 31.44 63.81 31.80 Q 64.79 36.00 63.81 40.21 C 63.73 40.56 63.49 40.81 63.21 40.84 L 59.07 41.35 C 58.70 41.39 58.42 41.55 58.33 41.75 L 55.73 47.72 C 55.60 48.01 55.65 48.35 55.87 48.59 L 58.55 51.43 C 58.94 51.85 59.02 52.44 58.73 52.87 Q 56.27 56.52 52.68 58.94 C 52.22 59.25 51.58 59.17 51.13 58.75 L 48.33 56.12 C 48.09 55.90 47.75 55.83 47.46 55.96 L 41.76 58.59 C 41.06 58.91 40.70 59.73 40.89 60.55 Q 41.69 63.93 38.99 64.45 Q 35.75 65.06 32.36 64.48 Q 29.46 63.97 30.44 61.20 Q 31.27 58.83 27.27 57.51 C 26.57 57.28 26.30 56.45 26.75 55.94 L 30.31 51.91 C 30.68 51.49 31.27 51.29 31.87 51.39 Q 40.87 52.91 46.94 47.19 Z"/>
  <path fill="#01ba2b" d=" M 21.93 53.46 C 21.93 55.47 20.30 57.10 18.29 57.10 C 16.28 57.10 14.65 55.47 14.65 53.46 C 14.65 51.45 16.28 49.82 18.29 49.82 C 20.30 49.82 21.93 51.45 21.93 53.46 Z M 18.81 55.06 Q 21.40 53.72 19.69 52.31 Q 16.74 49.89 16.13 53.00 Q 15.90 54.15 16.53 54.84 Q 17.40 55.80 18.81 55.06 Z"/>
  <path fill="#3cc549" d=" M 18.81 55.06 Q 17.40 55.80 16.53 54.84 Q 15.90 54.15 16.13 53.00 Q 16.74 49.89 19.69 52.31 Q 21.40 53.72 18.81 55.06 Z"/>
</svg>