<svg xmlns="http://www.w3.org/2000/svg" version="1.1" viewBox="0 0 72 72">
<g stroke-width="2.0" fill="none" stroke-linecap="butt">
<path stroke="#616161" vector-effect="non-scaling-stroke" d="
  M 30.25 0.79
  Q 31.44 3.15 27.85 6.80
  Q 26.76 7.92 25.23 8.26
  Q 20.75 9.27 19.82 3.49
  C 19.78 3.23 19.86 2.91 20.05 2.60
  Q 20.50 1.84 19.25 1.96"
/>
<path stroke="#353535" vector-effect="non-scaling-stroke" d="
  M 39.29 7.00
  Q 36.72 10.52 32.55 11.35
  C 32.25 11.41 31.93 11.33 31.66 11.13
  Q 26.42 7.21 19.75 8.75
  Q 17.53 9.26 12.77 8.85
  C 12.56 8.84 12.32 8.98 12.14 9.23
  Q 12.00 9.43 11.75 9.54"
/>
<path stroke="#0e0e0e" vector-effect="non-scaling-stroke" d="
  M 40.71 12.25
  L 40.43 15.69
  C 40.42 15.89 40.19 16.01 40.02 15.90
  Q 37.81 14.53 36.02 16.32
  C 35.76 16.58 35.45 16.71 35.19 16.67
  L 32.54 16.25"
/>
<path stroke="#8c715f" vector-effect="non-scaling-stroke" d="
  M 32.54 16.25
  Q 32.29 11.32 27.75 9.79"
/>
<path stroke="#8c7a6e" vector-effect="non-scaling-stroke" d="
  M 27.75 9.79
  L 12.79 10.50"
/>
<path stroke="#7d5a42" vector-effect="non-scaling-stroke" d="
  M 34.50 29.21
  Q 35.04 27.88 36.94 25.19
  Q 38.89 22.42 36.83 19.88
  C 36.62 19.63 36.32 19.48 36.00 19.48
  Q 33.56 19.48 32.46 22.00"
/>
<path stroke="#ffd2b4" vector-effect="non-scaling-stroke" d="
  M 27.75 9.79
  Q 28.22 12.70 26.21 14.71
  Q 24.49 16.42 22.49 17.73
  Q 19.63 19.61 18.30 19.96
  Q 15.98 20.57 13.02 19.47
  C 12.72 19.36 12.51 19.13 12.46 18.88
  L 11.96 16.00"
/>
<path stroke="#816653" vector-effect="non-scaling-stroke" d="
  M 32.54 16.25
  Q 31.92 19.14 32.46 22.00"
/>
<path stroke="#fbbd93" vector-effect="non-scaling-stroke" d="
  M 32.46 22.00
  Q 31.35 22.19 30.60 22.94
  Q 29.43 24.13 29.16 24.30
  Q 22.42 28.42 13.49 25.31
  C 12.98 25.13 12.58 24.73 12.40 24.21
  Q 12.08 23.27 11.71 24.50"
/>
<path stroke="#e99f6f" vector-effect="non-scaling-stroke" d="
  M 34.29 30.00
  Q 28.86 38.85 18.71 41.00"
/>
<path stroke="#f7d5be" vector-effect="non-scaling-stroke" d="
  M 18.71 41.00
  L 18.29 41.00"
/>
<path stroke="#b49179" vector-effect="non-scaling-stroke" d="
  M 18.29 41.00
  Q 17.97 40.21 17.29 39.75"
/>
<path stroke="#94705a" vector-effect="non-scaling-stroke" d="
  M 17.29 39.75
  L 16.29 38.25"
/>
<path stroke="#e9c3ab" vector-effect="non-scaling-stroke" d="
  M 36.54 34.00
  Q 35.07 34.47 34.06 36.56
  Q 32.08 40.65 27.19 43.19
  Q 25.95 43.83 25.96 44.75"
/>
<path stroke="#b75039" vector-effect="non-scaling-stroke" d="
  M 25.96 44.75
  Q 23.14 43.38 20.00 43.46"
/>
<path stroke="#e9c3ab" vector-effect="non-scaling-stroke" d="
  M 20.00 43.46
  Q 19.79 42.00 18.71 41.00"
/>
<path stroke="#515051" vector-effect="non-scaling-stroke" d="
  M 17.29 39.75
  Q 15.70 46.28 16.21 53.00"
/>
<path stroke="#252425" vector-effect="non-scaling-stroke" d="
  M 16.21 53.00
  Q 15.87 51.56 14.56 51.44
  C 14.15 51.40 13.83 51.29 13.66 51.14
  Q 13.09 50.59 13.27 49.78
  C 13.34 49.48 13.29 49.17 13.12 48.92
  Q 12.40 47.84 13.34 46.83
  Q 14.81 45.24 12.56 44.69
  Q 10.68 44.23 12.50 42.50
  Q 13.15 41.88 12.96 41.00"
/>
<path stroke="#b4b5b5" vector-effect="non-scaling-stroke" d="
  M 18.29 41.00
  L 17.33 51.37
  C 17.31 51.58 17.45 51.76 17.63 51.76
  L 17.96 51.75"
/>
<path stroke="#9d5052" vector-effect="non-scaling-stroke" d="
  M 17.96 51.75
  L 17.96 52.75"
/>
<path stroke="#454545" vector-effect="non-scaling-stroke" d="
  M 17.96 52.75
  Q 16.87 54.05 16.21 53.00"
/>
<path stroke="#c68788" vector-effect="non-scaling-stroke" d="
  M 20.00 43.46
  Q 17.88 45.00 19.50 47.25
  Q 20.33 48.41 19.50 49.71"
/>
<path stroke="#e09497" vector-effect="non-scaling-stroke" d="
  M 19.50 49.71
  L 17.96 51.75"
/>
<path stroke="#af2125" vector-effect="non-scaling-stroke" d="
  M 18.29 54.75
  Q 19.62 54.63 20.44 53.75
  Q 20.95 53.20 21.74 51.93
  Q 23.11 49.73 19.50 49.71"
/>
<path stroke="#88898a" vector-effect="non-scaling-stroke" d="
  M 36.79 34.25
  L 34.71 37.75"
/>
<path stroke="#949496" vector-effect="non-scaling-stroke" d="
  M 34.71 37.75
  Q 28.74 44.69 24.50 52.79"
/>
<path stroke="#c68788" vector-effect="non-scaling-stroke" d="
  M 24.50 52.79
  Q 22.92 49.00 26.13 47.06
  C 26.43 46.87 26.62 46.60 26.63 46.33
  Q 26.65 45.48 25.96 44.75"
/>
<path stroke="#712427" vector-effect="non-scaling-stroke" d="
  M 17.96 52.75
  Q 17.91 53.80 18.29 54.75"
/>
<path stroke="#571718" vector-effect="non-scaling-stroke" d="
  M 18.29 54.75
  Q 18.56 57.81 20.00 60.70
  Q 20.52 61.73 21.04 60.60
  L 22.46 57.50"
/>
<path stroke="#414041" vector-effect="non-scaling-stroke" d="
  M 42.46 40.25
  Q 43.38 42.77 45.75 44.21"
/>
<path stroke="#1a191a" vector-effect="non-scaling-stroke" d="
  M 45.75 44.21
  Q 44.73 44.53 44.00 45.29"
/>
<path stroke="#252425" vector-effect="non-scaling-stroke" d="
  M 44.00 45.29
  L 40.70 46.53
  C 39.87 46.84 39.01 46.68 38.57 46.14
  Q 36.42 43.51 35.39 46.73
  Q 35.20 47.31 34.87 48.09
  Q 34.07 49.97 36.02 49.48
  Q 37.35 49.14 36.25 49.96
  Q 30.56 54.15 26.25 59.25
  Q 25.06 60.66 22.95 59.72
  C 22.69 59.60 22.52 59.32 22.51 59.00
  L 22.46 57.50"
/>
<path stroke="#632224" vector-effect="non-scaling-stroke" d="
  M 22.46 57.50
  L 24.50 52.79"
/>
<path stroke="#0e0e0e" vector-effect="non-scaling-stroke" d="
  M 42.50 38.79
  Q 41.98 39.44 42.54 40.00"
/>
<path stroke="#353535" vector-effect="non-scaling-stroke" d="
  M 42.54 40.00
  L 42.46 40.25"
/>
<path stroke="#252425" vector-effect="non-scaling-stroke" d="
  M 42.46 40.25
  Q 41.00 40.85 41.12 42.44
  C 41.14 42.74 40.95 43.00 40.70 43.02
  L 36.81 43.42
  C 36.56 43.45 36.34 43.23 36.31 42.94
  L 36.15 40.93
  C 36.12 40.68 35.96 40.38 35.70 40.09
  Q 34.78 39.13 34.71 37.75"
/>
<path stroke="#0e0e0e" vector-effect="non-scaling-stroke" d="
  M 10.75 64.79
  Q 12.94 64.98 15.19 66.31
  Q 15.95 66.76 16.79 66.46
  C 17.04 66.37 17.14 66.06 17.00 65.81
  Q 15.97 63.92 15.19 61.93
  Q 14.23 59.49 15.80 60.95
  Q 17.31 62.35 19.31 62.63
  C 19.59 62.67 19.82 62.89 19.89 63.18
  Q 20.21 64.63 21.49 64.30
  C 22.07 64.15 22.58 63.82 22.95 63.36
  Q 25.89 59.69 25.74 60.96
  C 25.67 61.61 25.42 62.23 25.02 62.75
  Q 21.29 67.67 25.48 67.26
  Q 31.19 66.69 36.39 63.12
  C 37.20 62.57 37.80 61.75 38.08 60.81
  Q 40.11 54.04 43.00 48.25
  Q 44.02 46.20 44.00 45.29"
/>
<path stroke="#2a2a2a" vector-effect="non-scaling-stroke" d="
  M 45.75 44.21
  Q 47.60 45.13 46.25 46.75
  Q 42.85 50.81 41.54 56.70
  Q 41.44 57.16 41.25 57.64
  Q 40.57 59.32 41.44 58.64
  C 41.67 58.46 41.85 58.18 41.95 57.84
  Q 43.66 51.98 47.15 46.97
  Q 47.49 46.48 47.67 47.00
  L 49.79 53.00"
/>
<path stroke="#0e0e0e" vector-effect="non-scaling-stroke" d="
  M 49.79 53.00
  Q 50.81 59.43 50.81 65.94
  C 50.81 66.19 51.07 66.36 51.28 66.24
  Q 52.38 65.64 52.50 64.00
  Q 53.11 55.70 51.04 49.00"
/>
<path stroke="#2a2a2a" vector-effect="non-scaling-stroke" d="
  M 51.04 49.00
  Q 50.55 46.57 48.82 45.04
  Q 46.93 43.37 46.84 43.28
  Q 44.92 41.36 42.54 40.00"
/>
<path stroke="#353535" vector-effect="non-scaling-stroke" d="
  M 51.04 49.00
  Q 51.12 50.74 50.81 52.43
  Q 50.74 52.83 50.49 52.96
  Q 50.19 53.12 49.79 53.00"
/>
<path stroke="#af2125" vector-effect="non-scaling-stroke" d="
  M 22.82 44.98
  Q 19.62 45.30 22.96 46.08
  C 23.29 46.16 23.62 46.04 23.74 45.80
  Q 23.89 45.50 23.71 45.25
  C 23.56 45.05 23.22 44.94 22.82 44.98"
/>
</g>
<path fill="#717170" d="
  M 30.25 0.79
  Q 31.44 3.15 27.85 6.80
  Q 26.76 7.92 25.23 8.26
  Q 20.75 9.27 19.82 3.49
  C 19.78 3.23 19.86 2.91 20.05 2.60
  Q 20.50 1.84 19.25 1.96
  Q 24.57 -0.16 30.25 0.79
  Z"
/>
<path fill="#515151" d="
  M 30.25 0.79
  Q 36.41 1.59 39.29 7.00
  Q 36.72 10.52 32.55 11.35
  C 32.25 11.41 31.93 11.33 31.66 11.13
  Q 26.42 7.21 19.75 8.75
  Q 17.53 9.26 12.77 8.85
  C 12.56 8.84 12.32 8.98 12.14 9.23
  Q 12.00 9.43 11.75 9.54
  Q 9.56 8.50 11.69 6.69
  Q 16.03 2.99 19.25 1.96
  Q 20.50 1.84 20.05 2.60
  C 19.86 2.91 19.78 3.23 19.82 3.49
  Q 20.75 9.27 25.23 8.26
  Q 26.76 7.92 27.85 6.80
  Q 31.44 3.15 30.25 0.79
  Z"
/>
<path fill="#191919" d="
  M 39.29 7.00
  L 40.71 12.25
  L 40.43 15.69
  C 40.42 15.89 40.19 16.01 40.02 15.90
  Q 37.81 14.53 36.02 16.32
  C 35.76 16.58 35.45 16.71 35.19 16.67
  L 32.54 16.25
  Q 32.29 11.32 27.75 9.79
  L 12.79 10.50
  Q 12.48 9.82 11.75 9.54
  Q 12.00 9.43 12.14 9.23
  C 12.32 8.98 12.56 8.84 12.77 8.85
  Q 17.53 9.26 19.75 8.75
  Q 26.42 7.21 31.66 11.13
  C 31.93 11.33 32.25 11.41 32.55 11.35
  Q 36.72 10.52 39.29 7.00
  Z"
/>
<path fill="#ffdbc3" d="
  M 27.75 9.79
  Q 28.22 12.70 26.21 14.71
  Q 24.49 16.42 22.49 17.73
  Q 19.63 19.61 18.30 19.96
  Q 15.98 20.57 13.02 19.47
  C 12.72 19.36 12.51 19.13 12.46 18.88
  L 11.96 16.00
  L 12.79 10.50
  L 27.75 9.79
  Z"
/>
<path fill="#ffc9a4" d="
  M 27.75 9.79
  Q 32.29 11.32 32.54 16.25
  Q 31.92 19.14 32.46 22.00
  Q 31.35 22.19 30.60 22.94
  Q 29.43 24.13 29.16 24.30
  Q 22.42 28.42 13.49 25.31
  C 12.98 25.13 12.58 24.73 12.40 24.21
  Q 12.08 23.27 11.71 24.50
  Q 11.16 20.23 11.96 16.00
  L 12.46 18.88
  C 12.51 19.13 12.72 19.36 13.02 19.47
  Q 15.98 20.57 18.30 19.96
  Q 19.63 19.61 22.49 17.73
  Q 24.49 16.42 26.21 14.71
  Q 28.22 12.70 27.75 9.79
  Z"
/>
<path fill="#020202" d="
  M 40.71 12.25
  Q 41.79 18.25 39.94 23.44
  Q 38.55 27.33 34.50 29.21
  Q 35.04 27.88 36.94 25.19
  Q 38.89 22.42 36.83 19.88
  C 36.62 19.63 36.32 19.48 36.00 19.48
  Q 33.56 19.48 32.46 22.00
  Q 31.92 19.14 32.54 16.25
  L 35.19 16.67
  C 35.45 16.71 35.76 16.58 36.02 16.32
  Q 37.81 14.53 40.02 15.90
  C 40.19 16.01 40.42 15.89 40.43 15.69
  L 40.71 12.25
  Z"
/>
<path fill="#f7b182" d="
  M 34.50 29.21
  Q 34.07 29.48 34.29 30.00
  Q 28.86 38.85 18.71 41.00
  L 18.29 41.00
  Q 17.97 40.21 17.29 39.75
  L 16.29 38.25
  Q 12.33 31.92 11.71 24.50
  Q 12.08 23.27 12.40 24.21
  C 12.58 24.73 12.98 25.13 13.49 25.31
  Q 22.42 28.42 29.16 24.30
  Q 29.43 24.13 30.60 22.94
  Q 31.35 22.19 32.46 22.00
  Q 33.56 19.48 36.00 19.48
  C 36.32 19.48 36.62 19.63 36.83 19.88
  Q 38.89 22.42 36.94 25.19
  Q 35.04 27.88 34.50 29.21
  Z"
/>
<path fill="#da8c5c" d="
  M 34.29 30.00
  Q 34.90 32.26 36.54 34.00
  Q 35.07 34.47 34.06 36.56
  Q 32.08 40.65 27.19 43.19
  Q 25.95 43.83 25.96 44.75
  Q 23.14 43.38 20.00 43.46
  Q 19.79 42.00 18.71 41.00
  Q 28.86 38.85 34.29 30.00
  Z"
/>
<path fill="#f7f9fa" d="
  M 36.54 34.00
  Q 36.75 34.03 36.79 34.25
  L 34.71 37.75
  Q 28.74 44.69 24.50 52.79
  Q 22.92 49.00 26.13 47.06
  C 26.43 46.87 26.62 46.60 26.63 46.33
  Q 26.65 45.48 25.96 44.75
  Q 25.95 43.83 27.19 43.19
  Q 32.08 40.65 34.06 36.56
  Q 35.07 34.47 36.54 34.00
  Z"
/>
<path fill="#191919" d="
  M 36.79 34.25
  L 42.50 38.79
  Q 41.98 39.44 42.54 40.00
  L 42.46 40.25
  Q 41.00 40.85 41.12 42.44
  C 41.14 42.74 40.95 43.00 40.70 43.02
  L 36.81 43.42
  C 36.56 43.45 36.34 43.23 36.31 42.94
  L 36.15 40.93
  C 36.12 40.68 35.96 40.38 35.70 40.09
  Q 34.78 39.13 34.71 37.75
  L 36.79 34.25
  Z"
/>
<path fill="#312f31" d="
  M 34.71 37.75
  Q 34.78 39.13 35.70 40.09
  C 35.96 40.38 36.12 40.68 36.15 40.93
  L 36.31 42.94
  C 36.34 43.23 36.56 43.45 36.81 43.42
  L 40.70 43.02
  C 40.95 43.00 41.14 42.74 41.12 42.44
  Q 41.00 40.85 42.46 40.25
  Q 43.38 42.77 45.75 44.21
  Q 44.73 44.53 44.00 45.29
  L 40.70 46.53
  C 39.87 46.84 39.01 46.68 38.57 46.14
  Q 36.42 43.51 35.39 46.73
  Q 35.20 47.31 34.87 48.09
  Q 34.07 49.97 36.02 49.48
  Q 37.35 49.14 36.25 49.96
  Q 30.56 54.15 26.25 59.25
  Q 25.06 60.66 22.95 59.72
  C 22.69 59.60 22.52 59.32 22.51 59.00
  L 22.46 57.50
  L 24.50 52.79
  Q 28.74 44.69 34.71 37.75
  Z"
/>
<path fill="#312f31" d="
  M 16.29 38.25
  L 17.29 39.75
  Q 15.70 46.28 16.21 53.00
  Q 15.87 51.56 14.56 51.44
  C 14.15 51.40 13.83 51.29 13.66 51.14
  Q 13.09 50.59 13.27 49.78
  C 13.34 49.48 13.29 49.17 13.12 48.92
  Q 12.40 47.84 13.34 46.83
  Q 14.81 45.24 12.56 44.69
  Q 10.68 44.23 12.50 42.50
  Q 13.15 41.88 12.96 41.00
  L 16.29 38.25
  Z"
/>
<path fill="#020202" d="
  M 42.50 38.79
  Q 55.75 44.12 56.08 57.97
  Q 56.20 63.11 56.03 64.02
  Q 55.39 67.46 51.31 68.81
  Q 29.73 75.96 10.75 64.79
  Q 12.94 64.98 15.19 66.31
  Q 15.95 66.76 16.79 66.46
  C 17.04 66.37 17.14 66.06 17.00 65.81
  Q 15.97 63.92 15.19 61.93
  Q 14.23 59.49 15.80 60.95
  Q 17.31 62.35 19.31 62.63
  C 19.59 62.67 19.82 62.89 19.89 63.18
  Q 20.21 64.63 21.49 64.30
  C 22.07 64.15 22.58 63.82 22.95 63.36
  Q 25.89 59.69 25.74 60.96
  C 25.67 61.61 25.42 62.23 25.02 62.75
  Q 21.29 67.67 25.48 67.26
  Q 31.19 66.69 36.39 63.12
  C 37.20 62.57 37.80 61.75 38.08 60.81
  Q 40.11 54.04 43.00 48.25
  Q 44.02 46.20 44.00 45.29
  Q 44.73 44.53 45.75 44.21
  Q 47.60 45.13 46.25 46.75
  Q 42.85 50.81 41.54 56.70
  Q 41.44 57.16 41.25 57.64
  Q 40.57 59.32 41.44 58.64
  C 41.67 58.46 41.85 58.18 41.95 57.84
  Q 43.66 51.98 47.15 46.97
  Q 47.49 46.48 47.67 47.00
  L 49.79 53.00
  Q 50.81 59.43 50.81 65.94
  C 50.81 66.19 51.07 66.36 51.28 66.24
  Q 52.38 65.64 52.50 64.00
  Q 53.11 55.70 51.04 49.00
  Q 50.55 46.57 48.82 45.04
  Q 46.93 43.37 46.84 43.28
  Q 44.92 41.36 42.54 40.00
  Q 41.98 39.44 42.50 38.79
  Z"
/>
<path fill="#717170" d="
  M 17.29 39.75
  Q 17.97 40.21 18.29 41.00
  L 17.33 51.37
  C 17.31 51.58 17.45 51.76 17.63 51.76
  L 17.96 51.75
  L 17.96 52.75
  Q 16.87 54.05 16.21 53.00
  Q 15.70 46.28 17.29 39.75
  Z"
/>
<path fill="#515151" d="
  M 42.54 40.00
  Q 44.92 41.36 46.84 43.28
  Q 46.93 43.37 48.82 45.04
  Q 50.55 46.57 51.04 49.00
  Q 51.12 50.74 50.81 52.43
  Q 50.74 52.83 50.49 52.96
  Q 50.19 53.12 49.79 53.00
  L 47.67 47.00
  Q 47.49 46.48 47.15 46.97
  Q 43.66 51.98 41.95 57.84
  C 41.85 58.18 41.67 58.46 41.44 58.64
  Q 40.57 59.32 41.25 57.64
  Q 41.44 57.16 41.54 56.70
  Q 42.85 50.81 46.25 46.75
  Q 47.60 45.13 45.75 44.21
  Q 43.38 42.77 42.46 40.25
  L 42.54 40.00
  Z"
/>
<path fill="#191919" d="
  M 12.96 41.00
  Q 13.15 41.88 12.50 42.50
  Q 10.68 44.23 12.56 44.69
  Q 14.81 45.24 13.34 46.83
  Q 12.40 47.84 13.12 48.92
  C 13.29 49.17 13.34 49.48 13.27 49.78
  Q 13.09 50.59 13.66 51.14
  C 13.83 51.29 14.15 51.40 14.56 51.44
  Q 15.87 51.56 16.21 53.00
  Q 16.87 54.05 17.96 52.75
  Q 17.91 53.80 18.29 54.75
  Q 18.56 57.81 20.00 60.70
  Q 20.52 61.73 21.04 60.60
  L 22.46 57.50
  L 22.51 59.00
  C 22.52 59.32 22.69 59.60 22.95 59.72
  Q 25.06 60.66 26.25 59.25
  Q 30.56 54.15 36.25 49.96
  Q 37.35 49.14 36.02 49.48
  Q 34.07 49.97 34.87 48.09
  Q 35.20 47.31 35.39 46.73
  Q 36.42 43.51 38.57 46.14
  C 39.01 46.68 39.87 46.84 40.70 46.53
  L 44.00 45.29
  Q 44.02 46.20 43.00 48.25
  Q 40.11 54.04 38.08 60.81
  C 37.80 61.75 37.20 62.57 36.39 63.12
  Q 31.19 66.69 25.48 67.26
  Q 21.29 67.67 25.02 62.75
  C 25.42 62.23 25.67 61.61 25.74 60.96
  Q 25.89 59.69 22.95 63.36
  C 22.58 63.82 22.07 64.15 21.49 64.30
  Q 20.21 64.63 19.89 63.18
  C 19.82 62.89 19.59 62.67 19.31 62.63
  Q 17.31 62.35 15.80 60.95
  Q 14.23 59.49 15.19 61.93
  Q 15.97 63.92 17.00 65.81
  C 17.14 66.06 17.04 66.37 16.79 66.46
  Q 15.95 66.76 15.19 66.31
  Q 12.94 64.98 10.75 64.79
  L 5.67 60.80
  C 5.16 60.40 4.88 59.66 4.92 58.82
  Q 5.12 54.39 5.47 51.80
  Q 6.45 44.45 12.96 41.00
  Z"
/>
<path fill="#f7f9fa" d="
  M 18.29 41.00
  L 18.71 41.00
  Q 19.79 42.00 20.00 43.46
  Q 17.88 45.00 19.50 47.25
  Q 20.33 48.41 19.50 49.71
  L 17.96 51.75
  L 17.63 51.76
  C 17.45 51.76 17.31 51.58 17.33 51.37
  L 18.29 41.00
  Z"
/>
<path fill="#941416" d="
  M 25.96 44.75
  Q 26.65 45.48 26.63 46.33
  C 26.62 46.60 26.43 46.87 26.13 47.06
  Q 22.92 49.00 24.50 52.79
  L 22.46 57.50
  L 21.04 60.60
  Q 20.52 61.73 20.00 60.70
  Q 18.56 57.81 18.29 54.75
  Q 19.62 54.63 20.44 53.75
  Q 20.95 53.20 21.74 51.93
  Q 23.11 49.73 19.50 49.71
  Q 20.33 48.41 19.50 47.25
  Q 17.88 45.00 20.00 43.46
  Q 23.14 43.38 25.96 44.75
  Z
  M 22.82 44.98
  Q 19.62 45.30 22.96 46.08
  C 23.29 46.16 23.62 46.04 23.74 45.80
  Q 23.89 45.50 23.71 45.25
  C 23.56 45.05 23.22 44.94 22.82 44.98
  Z"
/>
<path fill="#c92e34" d="
  M 23.71 45.25
  Q 23.89 45.50 23.74 45.80
  C 23.62 46.04 23.29 46.16 22.96 46.08
  Q 19.62 45.30 22.82 44.98
  C 23.22 44.94 23.56 45.05 23.71 45.25
  Z"
/>
<path fill="#191919" d="
  M 51.04 49.00
  Q 53.11 55.70 52.50 64.00
  Q 52.38 65.64 51.28 66.24
  C 51.07 66.36 50.81 66.19 50.81 65.94
  Q 50.81 59.43 49.79 53.00
  Q 50.19 53.12 50.49 52.96
  Q 50.74 52.83 50.81 52.43
  Q 51.12 50.74 51.04 49.00
  Z"
/>
<path fill="#c92e34" d="
  M 19.50 49.71
  Q 23.11 49.73 21.74 51.93
  Q 20.95 53.20 20.44 53.75
  Q 19.62 54.63 18.29 54.75
  Q 17.91 53.80 17.96 52.75
  L 17.96 51.75
  L 19.50 49.71
  Z"
/>
</svg>
