<svg xmlns="http://www.w3.org/2000/svg" version="1.1" viewBox="0 0 64 64">
<g stroke-width="2.0" fill="none" stroke-linecap="butt">
<path stroke="#b1e057" vector-effect="non-scaling-stroke" d="
  M 50.79 13.75
  Q 49.64 14.49 49.00 12.96"
/>
<path stroke="#bde963" vector-effect="non-scaling-stroke" d="
  M 49.00 12.96
  Q 45.28 5.61 37.29 3.50"
/>
<path stroke="#c3ed71" vector-effect="non-scaling-stroke" d="
  M 37.29 3.50
  Q 27.29 0.75 19.50 7.21"
/>
<path stroke="#bbe860" vector-effect="non-scaling-stroke" d="
  M 19.50 7.21
  Q 16.21 9.93 15.19 12.69
  Q 14.53 14.47 13.04 13.75"
/>
<path stroke="#aee344" vector-effect="non-scaling-stroke" d="
  M 37.29 3.50
  Q 36.92 4.66 37.46 5.51
  Q 38.01 6.36 38.04 6.45
  Q 39.59 10.11 38.77 14.05
  C 38.74 14.22 38.58 14.42 38.33 14.58
  L 38.00 14.79"
/>
<path stroke="#6f863c" vector-effect="non-scaling-stroke" d="
  M 38.00 14.79
  L 34.00 12.79"
/>
<path stroke="#b9ea5e" vector-effect="non-scaling-stroke" d="
  M 34.00 12.79
  Q 35.08 12.81 34.75 11.75
  Q 35.49 9.02 32.40 7.32
  Q 30.32 6.19 28.57 7.78
  Q 25.96 10.16 28.29 13.25"
/>
<path stroke="#6f863c" vector-effect="non-scaling-stroke" d="
  M 28.29 13.25
  Q 25.37 14.84 23.79 17.75"
/>
<path stroke="#ace140" vector-effect="non-scaling-stroke" d="
  M 23.79 17.75
  Q 19.92 14.20 20.50 8.50
  Q 20.61 7.46 19.50 7.21"
/>
<path stroke="#9cd62a" vector-effect="non-scaling-stroke" d="
  M 49.00 12.96
  Q 47.45 15.97 46.00 19.04
  Q 44.34 22.55 40.75 23.71"
/>
<path stroke="#69832f" vector-effect="non-scaling-stroke" d="
  M 40.75 23.71
  Q 41.45 18.52 38.00 14.79"
/>
<path stroke="#67812b" vector-effect="non-scaling-stroke" d="
  M 23.79 17.75
  Q 21.65 23.22 25.29 27.75"
/>
<path stroke="#bbe860" vector-effect="non-scaling-stroke" d="
  M 25.29 27.75
  L 25.21 28.50"
/>
<path stroke="#9ad427" vector-effect="non-scaling-stroke" d="
  M 25.21 28.50
  Q 18.64 27.46 15.13 22.03
  Q 14.70 21.37 14.00 20.84
  Q 13.32 20.33 12.76 19.69
  C 12.61 19.53 12.35 19.58 12.26 19.78
  Q 11.81 20.86 11.96 18.25"
/>
<path stroke="#83c114" vector-effect="non-scaling-stroke" d="
  M 48.96 33.00
  Q 46.91 32.12 44.96 33.45
  Q 37.97 38.22 29.52 37.29
  Q 23.27 36.61 17.15 34.72
  C 16.81 34.61 16.54 34.35 16.42 34.02
  Q 16.09 33.08 15.96 34.00"
/>
<path stroke="#b1e057" vector-effect="non-scaling-stroke" d="
  M 25.21 28.50
  Q 30.98 34.12 37.54 29.24
  Q 38.21 28.75 37.00 28.96"
/>
<path stroke="#5d7923" vector-effect="non-scaling-stroke" d="
  M 40.75 23.71
  Q 39.70 26.96 37.00 28.96"
/>
<path stroke="#7d8d5c" vector-effect="non-scaling-stroke" d="
  M 37.00 28.96
  Q 30.64 32.63 25.29 27.75"
/>
<path stroke="#748a49" vector-effect="non-scaling-stroke" d="
  M 34.00 12.79
  Q 31.09 12.33 28.29 13.25"
/>
</g>
<path fill="#d1f390" d="
  M 50.79 13.75
  Q 49.64 14.49 49.00 12.96
  Q 45.28 5.61 37.29 3.50
  Q 27.29 0.75 19.50 7.21
  Q 16.21 9.93 15.19 12.69
  Q 14.53 14.47 13.04 13.75
  Q 16.84 4.62 25.11 1.78
  Q 32.59 -0.80 39.80 2.18
  Q 47.30 5.28 50.79 13.75
  Z"
/>
<path fill="#b4e651" d="
  M 37.29 3.50
  Q 36.92 4.66 37.46 5.51
  Q 38.01 6.36 38.04 6.45
  Q 39.59 10.11 38.77 14.05
  C 38.74 14.22 38.58 14.42 38.33 14.58
  L 38.00 14.79
  L 34.00 12.79
  Q 35.08 12.81 34.75 11.75
  Q 35.49 9.02 32.40 7.32
  Q 30.32 6.19 28.57 7.78
  Q 25.96 10.16 28.29 13.25
  Q 25.37 14.84 23.79 17.75
  Q 19.92 14.20 20.50 8.50
  Q 20.61 7.46 19.50 7.21
  Q 27.29 0.75 37.29 3.50
  Z"
/>
<path fill="#a8df36" d="
  M 37.29 3.50
  Q 45.28 5.61 49.00 12.96
  Q 47.45 15.97 46.00 19.04
  Q 44.34 22.55 40.75 23.71
  Q 41.45 18.52 38.00 14.79
  L 38.33 14.58
  C 38.58 14.42 38.74 14.22 38.77 14.05
  Q 39.59 10.11 38.04 6.45
  Q 38.01 6.36 37.46 5.51
  Q 36.92 4.66 37.29 3.50
  Z"
/>
<path fill="#beed6a" d="
  M 34.00 12.79
  Q 31.09 12.33 28.29 13.25
  Q 25.96 10.16 28.57 7.78
  Q 30.32 6.19 32.40 7.32
  Q 35.49 9.02 34.75 11.75
  Q 35.08 12.81 34.00 12.79
  Z"
/>
<path fill="#a4dc2f" d="
  M 19.50 7.21
  Q 20.61 7.46 20.50 8.50
  Q 19.92 14.20 23.79 17.75
  Q 21.65 23.22 25.29 27.75
  L 25.21 28.50
  Q 18.64 27.46 15.13 22.03
  Q 14.70 21.37 14.00 20.84
  Q 13.32 20.33 12.76 19.69
  C 12.61 19.53 12.35 19.58 12.26 19.78
  Q 11.81 20.86 11.96 18.25
  L 13.04 13.75
  Q 14.53 14.47 15.19 12.69
  Q 16.21 9.93 19.50 7.21
  Z"
/>
<path fill="#292627" d="
  M 34.00 12.79
  L 38.00 14.79
  Q 41.45 18.52 40.75 23.71
  Q 39.70 26.96 37.00 28.96
  Q 30.64 32.63 25.29 27.75
  Q 21.65 23.22 23.79 17.75
  Q 25.37 14.84 28.29 13.25
  Q 31.09 12.33 34.00 12.79
  Z"
/>
<path fill="#90cc1e" d="
  M 49.00 12.96
  Q 49.64 14.49 50.79 13.75
  Q 54.17 23.84 48.96 33.00
  Q 46.91 32.12 44.96 33.45
  Q 37.97 38.22 29.52 37.29
  Q 23.27 36.61 17.15 34.72
  C 16.81 34.61 16.54 34.35 16.42 34.02
  Q 16.09 33.08 15.96 34.00
  Q 11.06 26.90 11.96 18.25
  Q 11.81 20.86 12.26 19.78
  C 12.35 19.58 12.61 19.53 12.76 19.69
  Q 13.32 20.33 14.00 20.84
  Q 14.70 21.37 15.13 22.03
  Q 18.64 27.46 25.21 28.50
  Q 30.98 34.12 37.54 29.24
  Q 38.21 28.75 37.00 28.96
  Q 39.70 26.96 40.75 23.71
  Q 44.34 22.55 46.00 19.04
  Q 47.45 15.97 49.00 12.96
  Z"
/>
<path fill="#d1f390" d="
  M 25.29 27.75
  Q 30.64 32.63 37.00 28.96
  Q 38.21 28.75 37.54 29.24
  Q 30.98 34.12 25.21 28.50
  L 25.29 27.75
  Z"
/>
<path fill="#75b509" d="
  M 48.96 33.00
  Q 39.05 46.66 32.02 61.98
  Q 31.81 62.44 31.58 61.98
  Q 24.35 47.67 15.96 34.00
  Q 16.09 33.08 16.42 34.02
  C 16.54 34.35 16.81 34.61 17.15 34.72
  Q 23.27 36.61 29.52 37.29
  Q 37.97 38.22 44.96 33.45
  Q 46.91 32.12 48.96 33.00
  Z"
/>
</svg>
