<?xml version="1.0" encoding="utf-8"?>
<svg version="1.1" viewBox="0 0 64 64" xmlns="http://www.w3.org/2000/svg">
  <g stroke-width="2.0" fill="none" stroke-linecap="butt">
    <path stroke="#bde963" vector-effect="non-scaling-stroke" d=" M 49.00 12.96 Q 45.28 5.61 37.29 3.50"/>
    <path stroke="#c3ed71" vector-effect="non-scaling-stroke" d=" M 37.29 3.50 Q 27.29 0.75 19.50 7.21"/>
    <path stroke="#aee344" vector-effect="non-scaling-stroke" d=" M 37.29 3.50 Q 36.92 4.66 37.46 5.51 Q 38.01 6.36 38.04 6.45 Q 39.59 10.11 38.77 14.05 C 38.74 14.22 38.58 14.42 38.33 14.58 L 38.00 14.79"/>
    <path stroke="#6f863c" vector-effect="non-scaling-stroke" d=" M 38.00 14.79 L 34.00 12.79"/>
    <path stroke="#b9ea5e" vector-effect="non-scaling-stroke" d=" M 34.00 12.79 Q 35.08 12.81 34.75 11.75 Q 35.49 9.02 32.40 7.32 Q 30.32 6.19 28.57 7.78 Q 25.96 10.16 28.29 13.25"/>
    <path stroke="#6f863c" vector-effect="non-scaling-stroke" d=" M 28.29 13.25 Q 25.37 14.84 23.79 17.75"/>
    <path stroke="#ace140" vector-effect="non-scaling-stroke" d=" M 23.79 17.75 Q 19.92 14.20 20.50 8.50 Q 20.61 7.46 19.50 7.21"/>
    <path stroke="#9cd62a" vector-effect="non-scaling-stroke" d=" M 49.00 12.96 Q 47.45 15.97 46.00 19.04 Q 44.34 22.55 40.75 23.71"/>
    <path stroke="#69832f" vector-effect="non-scaling-stroke" d=" M 40.75 23.71 Q 41.45 18.52 38.00 14.79"/>
    <path stroke="#67812b" vector-effect="non-scaling-stroke" d=" M 23.79 17.75 Q 21.65 23.22 25.29 27.75"/>
    <path stroke="#bbe860" vector-effect="non-scaling-stroke" d=" M 25.29 27.75 L 25.21 28.50"/>
    <path stroke="#b1e057" vector-effect="non-scaling-stroke" d=" M 25.21 28.50 Q 30.98 34.12 37.54 29.24 Q 38.21 28.75 37.00 28.96"/>
    <path stroke="#5d7923" vector-effect="non-scaling-stroke" d=" M 40.75 23.71 Q 39.70 26.96 37.00 28.96"/>
    <path stroke="#7d8d5c" vector-effect="non-scaling-stroke" d=" M 37.00 28.96 Q 30.64 32.63 25.29 27.75"/>
    <path stroke="#748a49" vector-effect="non-scaling-stroke" d=" M 34.00 12.79 Q 31.09 12.33 28.29 13.25"/>
  </g>
  <path fill="#d1f390" d="M 50.661 13.606 C 50.143 13.26 49.271 13.933 48.844 12.913 C 46.364 8.013 42.617 4.907 37.29 3.5 C 30.623 1.667 24.693 2.903 19.5 7.21 C 17.307 9.023 15.737 12.364 14.858 13.192 C 14.219 13.794 12.753 14.085 13.015 13.689 C 15.548 7.602 19.597 3.673 25.11 1.78 C 30.097 0.06 34.993 0.193 39.8 2.18 C 44.8 4.247 50.943 13.795 50.661 13.606 Z"/>
  <path fill="#b4e651" d=" M 37.29 3.50 Q 36.92 4.66 37.46 5.51 Q 38.01 6.36 38.04 6.45 Q 39.59 10.11 38.77 14.05 C 38.74 14.22 38.58 14.42 38.33 14.58 L 38.00 14.79 L 34.00 12.79 Q 35.08 12.81 34.75 11.75 Q 35.49 9.02 32.40 7.32 Q 30.32 6.19 28.57 7.78 Q 25.96 10.16 28.29 13.25 Q 25.37 14.84 23.79 17.75 Q 19.92 14.20 20.50 8.50 Q 20.61 7.46 19.50 7.21 Q 27.29 0.75 37.29 3.50 Z"/>
  <path fill="#a8df36" d=" M 37.29 3.50 Q 45.28 5.61 49.00 12.96 Q 47.45 15.97 46.00 19.04 Q 44.34 22.55 40.75 23.71 Q 41.45 18.52 38.00 14.79 L 38.33 14.58 C 38.58 14.42 38.74 14.22 38.77 14.05 Q 39.59 10.11 38.04 6.45 Q 38.01 6.36 37.46 5.51 Q 36.92 4.66 37.29 3.50 Z"/>
  <path fill="#beed6a" d="M 34 12.79 C 32.06 12.483 30.157 12.637 28.29 13.25 C 26.737 11.19 26.83 9.367 28.57 7.78 C 29.737 6.72 31.013 6.567 32.4 7.32 C 34.46 8.453 35.839 10.177 35.346 11.997 C 35.566 12.704 34.72 12.803 34 12.79 Z"/>
  <path fill="#a4dc2f" d="M 19.5 7.21 C 20.24 7.377 20.573 7.807 20.5 8.5 C 20.113 12.3 21.21 15.383 23.79 17.75 C 22.363 21.397 22.917 24.73 25.344 27.75 L 25.609 28.901 C 23.459 28.004 17.406 26.131 15.066 22.511 C 14.779 22.071 13.263 20.138 12.752 19.82 C 12.166 19.456 11.502 19.821 11.535 19.679 C 11.674 19.084 11.634 19.29 11.697 19.052 C 11.716 18.978 11.895 18.33 11.903 18.242 L 12.985 13.746 C 13.067 13.535 14.671 13.786 15.169 12.682 C 15.976 10.894 17.307 9.023 19.5 7.21 Z"/>
  <path fill="#292627" d="M 34 12.79 C 34.42 12.835 36.908 13.456 37.956 14.702 C 40.038 16.646 41.217 20.25 40.75 23.71 C 40.05 25.877 38.8 27.627 37 28.96 C 32.76 31.407 28.901 31.18 25.334 27.927 C 22.907 24.907 22.363 21.397 23.79 17.75 C 24.843 15.81 26.343 14.31 28.29 13.25 C 30.157 12.637 32.06 12.483 34 12.79 Z"/>
  <path fill="#90cc1e" d="M 48.957 12.875 C 49.384 13.895 50.399 12.916 50.801 13.765 C 50.911 13.996 52.433 26.893 48.96 33 C 47.593 32.413 45.414 33.298 45.142 33.693 C 42.612 37.374 30.708 37.936 29.597 37.887 C 28.728 37.849 18.185 35.598 18.122 35.605 C 18.06 35.612 16.388 34.91 16.385 34.901 C 16.38 34.883 15.994 34.355 16.003 34.358 C 12.736 29.625 11.488 20.73 11.493 20.26 C 11.498 19.784 11.535 19.621 11.6 19.591 C 11.765 19.516 12.348 19.382 12.929 19.941 C 13.529 20.382 13.543 20.447 14.087 20.927 C 14.82 21.575 14.971 21.622 15.258 22.062 C 17.598 25.682 21.434 27.319 25.878 28.653 C 30.007 31.899 32.767 30.984 37.451 28.885 C 37.956 28.659 37.807 28.82 37 28.96 C 38.8 27.627 40.05 25.877 40.75 23.71 C 43.143 22.937 44.893 21.38 46 19.04 C 46.967 16.993 47.924 14.882 48.957 12.875 Z"/>
  <path fill="#d1f390" d="M 24.662 27.028 C 27.196 30.733 32.999 31.301 37.239 28.854 C 38.404 27.789 38.188 28.488 37.749 28.825 C 33.199 32.315 31.29 32.501 25.719 28.861 L 24.662 27.028 Z"/>
  <path fill="#75b509" d="M 49.055 32.811 C 42.448 41.918 36.707 51.767 32.02 61.98 C 31.88 62.287 31.733 62.287 31.58 61.98 C 26.76 52.44 21.773 43.707 16.18 34.594 C 15.979 34.068 17.616 34.884 17.721 34.913 C 17.765 34.925 18.919 35.195 19.267 35.276 C 21.464 35.786 29.015 37.417 29.894 37.485 C 30.908 37.563 40.316 36.473 44.976 33.293 C 46.276 32.406 47.688 32.224 49.055 32.811 Z"/>
</svg>