<svg xmlns="http://www.w3.org/2000/svg" version="1.1" viewBox="0 0 128 128">
<path fill="#000000" d="
  M 106.57 72.34
  L 106.75 111.05
  C 106.75 111.57 106.32 112.00 105.79 112.00
  L 22.19 112.00
  C 21.67 112.00 21.25 111.58 21.25 111.06
  L 21.25 72.68
  Q 21.25 71.15 20.27 72.33
  Q 16.42 76.95 12.43 73.03
  Q 10.70 71.32 10.70 69.39
  Q 10.71 67.17 12.56 65.31
  Q 35.96 41.91 59.36 18.51
  Q 61.28 16.60 62.66 16.23
  Q 64.11 15.84 65.60 16.27
  Q 66.71 16.59 67.96 17.83
  Q 91.47 41.30 114.94 64.81
  Q 118.48 68.36 116.56 71.72
  Q 115.17 74.14 112.53 74.50
  Q 109.59 74.90 107.43 72.05
  Q 106.56 70.91 106.57 72.34
  Z
  M 79.72 80.56
  L 79.93 100.03
  C 79.94 100.62 80.38 101.09 80.92 101.10
  L 95.30 101.23
  C 95.68 101.24 96.00 100.91 96.00 100.51
  L 96.00 62.17
  C 96.00 61.34 95.67 60.55 95.09 59.96
  L 64.65 29.53
  C 64.29 29.17 63.71 29.17 63.35 29.53
  L 32.94 59.93
  C 32.34 60.54 32.00 61.36 32.00 62.21
  L 32.00 100.40
  C 32.00 100.87 32.38 101.25 32.85 101.25
  L 47.13 101.25
  C 47.61 101.25 48.00 100.86 48.00 100.38
  L 48.00 80.67
  C 48.00 80.30 48.30 80.00 48.67 80.00
  L 79.18 80.06
  C 79.47 80.06 79.71 80.28 79.72 80.56
  Z
  M 69.2520 91.4308
  C 69.25 91.06 68.95 90.76 68.5808 90.7619
  L 59.3409 90.7781
  C 58.97 90.78 58.67 91.08 58.6720 91.4492
  L 58.6880 100.5892
  C 58.69 100.96 58.99 101.26 59.3592 101.2581
  L 68.5991 101.2419
  C 68.97 101.24 69.27 100.94 69.2680 100.5708
  L 69.2520 91.4308
  Z"
/>
</svg>
