<svg xmlns="http://www.w3.org/2000/svg" version="1.1" viewBox="0 0 220 50">
<path stroke="#e87d7b" stroke-width="2.0" fill="none" stroke-linecap="butt" vector-effect="non-scaling-stroke" d="
  M 29.25 16.04
  C 29.33 15.44 29.84 15.00 30.45 14.99
  L 44.94 14.94
  C 45.28 14.94 45.58 14.79 45.75 14.55
  L 50.23 7.97
  Q 51.03 6.79 49.52 6.78
  Q 34.13 6.62 20.99 6.90
  Q 18.95 6.95 17.96 7.39
  Q 16.20 8.17 15.83 9.88
  Q 15.49 11.41 16.86 13.71
  Q 23.62 25.06 31.21 36.16
  C 31.35 36.37 31.66 36.37 31.80 36.16
  L 36.46 29.31
  C 36.66 29.01 36.66 28.62 36.45 28.30
  Q 33.27 23.47 30.56 18.72
  Q 30.50 18.61 29.69 17.50
  Q 29.15 16.76 29.25 16.04"
/>
<path fill="#ed1613" d="
  M 0.00 5.19
  Q 0.00 4.56 0.00 3.94
  Q 1.72 -0.09 6.02 0.15
  Q 7.91 0.25 7.99 0.25
  Q 30.75 0.25 53.51 0.25
  Q 57.16 0.25 57.47 0.30
  Q 59.75 0.71 60.86 2.81
  Q 61.97 4.91 60.69 6.91
  Q 48.45 25.95 36.63 44.31
  Q 34.36 47.84 32.42 48.76
  Q 29.48 50.16 27.12 47.59
  Q 26.77 47.21 24.32 43.50
  Q 11.80 24.57 0.00 5.19
  Z
  M 29.25 16.04
  C 29.33 15.44 29.84 15.00 30.45 14.99
  L 44.94 14.94
  C 45.28 14.94 45.58 14.79 45.75 14.55
  L 50.23 7.97
  Q 51.03 6.79 49.52 6.78
  Q 34.13 6.62 20.99 6.90
  Q 18.95 6.95 17.96 7.39
  Q 16.20 8.17 15.83 9.88
  Q 15.49 11.41 16.86 13.71
  Q 23.62 25.06 31.21 36.16
  C 31.35 36.37 31.66 36.37 31.80 36.16
  L 36.46 29.31
  C 36.66 29.01 36.66 28.62 36.45 28.30
  Q 33.27 23.47 30.56 18.72
  Q 30.50 18.61 29.69 17.50
  Q 29.15 16.76 29.25 16.04
  Z"
/>
<path fill="#e7e7e7" d="
  M 42.23 48.75
  Q 38.91 46.60 41.35 44.27
  C 41.86 43.78 42.55 43.50 43.26 43.50
  Q 119.12 43.50 193.25 43.44
  Q 207.32 43.43 212.69 31.44
  Q 214.63 27.10 213.86 22.18
  Q 213.17 17.76 210.36 13.92
  Q 204.43 5.81 193.25 5.81
  Q 130.88 5.75 68.50 5.75
  C 68.16 5.75 67.84 5.66 67.57 5.48
  Q 64.41 3.34 66.65 1.30
  Q 67.74 0.31 69.79 0.31
  Q 128.07 0.21 186.34 0.24
  Q 198.33 0.25 203.00 1.82
  Q 213.85 5.47 218.44 17.06
  Q 220.13 21.33 219.72 26.21
  Q 219.36 30.52 217.13 34.84
  Q 212.18 44.43 202.34 47.68
  Q 197.56 49.25 184.99 49.25
  Q 115.04 49.25 43.91 49.25
  C 43.32 49.25 42.73 49.08 42.23 48.75
  Z"
/>
<path fill="#e3e3e3" d="
  M 29.25 16.04
  Q 29.15 16.76 29.69 17.50
  Q 30.50 18.61 30.56 18.72
  Q 33.27 23.47 36.45 28.30
  C 36.66 28.62 36.66 29.01 36.46 29.31
  L 31.80 36.16
  C 31.66 36.37 31.35 36.37 31.21 36.16
  Q 23.62 25.06 16.86 13.71
  Q 15.49 11.41 15.83 9.88
  Q 16.20 8.17 17.96 7.39
  Q 18.95 6.95 20.99 6.90
  Q 34.13 6.62 49.52 6.78
  Q 51.03 6.79 50.23 7.97
  L 45.75 14.55
  C 45.58 14.79 45.28 14.94 44.94 14.94
  L 30.45 14.99
  C 29.84 15.00 29.33 15.44 29.25 16.04
  Z"
/>
<path fill="#e7e7e7" d="
  M 72.83 30.13
  Q 73.41 30.79 72.65 31.46
  C 72.43 31.65 72.11 31.75 71.75 31.75
  Q 68.72 31.75 65.68 31.75
  Q 65.61 31.75 63.82 31.83
  Q 60.64 31.97 58.46 30.18
  Q 56.08 28.21 55.76 25.10
  Q 55.41 21.78 58.25 19.25
  Q 60.45 17.29 63.57 17.42
  Q 65.36 17.49 65.43 17.49
  Q 68.69 17.47 71.94 17.55
  C 72.28 17.56 72.58 17.71 72.75 17.96
  Q 73.54 19.10 72.41 19.56
  Q 71.96 19.75 71.06 19.75
  Q 67.66 19.74 64.25 19.62
  Q 60.06 19.46 58.61 22.60
  Q 57.58 24.85 58.63 26.89
  Q 59.44 28.47 61.17 29.12
  Q 62.16 29.49 64.38 29.47
  Q 68.01 29.42 71.62 29.64
  Q 72.46 29.70 72.83 30.13
  Z"
/>
<path fill="#e7e7e7" d="
  M 80.07 29.44
  L 93.19 29.56
  C 93.52 29.56 93.82 29.71 93.99 29.95
  Q 95.32 31.80 92.25 31.84
  Q 84.87 31.94 77.82 31.52
  C 77.36 31.49 77.00 31.11 77.00 30.65
  L 77.00 18.90
  C 77.00 18.13 77.63 17.50 78.40 17.50
  Q 85.72 17.50 92.50 17.50
  Q 93.43 17.50 93.92 17.82
  Q 94.83 18.43 94.04 19.34
  C 93.85 19.56 93.54 19.69 93.19 19.69
  Q 87.67 19.79 82.14 19.76
  Q 80.06 19.75 79.88 19.84
  Q 78.94 20.37 79.50 22.84
  C 79.58 23.22 79.92 23.49 80.32 23.50
  L 93.18 23.55
  C 93.53 23.56 93.85 23.68 94.05 23.90
  Q 94.99 24.89 93.88 25.49
  Q 93.40 25.75 92.57 25.75
  Q 88.07 25.75 83.57 25.75
  Q 83.51 25.75 81.44 25.60
  Q 78.15 25.35 79.39 28.97
  C 79.49 29.25 79.76 29.44 80.07 29.44
  Z"
/>
<path fill="#e3e3e3" d="
  M 115.20 30.01
  Q 116.05 30.83 115.06 31.47
  Q 114.62 31.75 113.88 31.77
  Q 109.98 31.87 106.10 31.68
  Q 102.49 31.50 100.78 30.05
  Q 99.15 28.66 98.56 26.50
  Q 98.04 24.57 98.69 22.51
  Q 100.39 17.08 107.01 17.31
  Q 110.72 17.45 114.44 17.55
  C 114.78 17.56 115.08 17.71 115.25 17.96
  Q 116.04 19.10 114.91 19.56
  Q 114.46 19.75 113.56 19.75
  Q 109.91 19.75 106.25 19.70
  Q 104.00 19.67 102.39 20.92
  Q 100.85 22.11 100.63 24.19
  Q 100.32 27.01 102.59 28.52
  Q 103.94 29.42 106.76 29.44
  Q 110.54 29.46 114.31 29.66
  C 114.67 29.68 114.99 29.80 115.20 30.01
  Z"
/>
<path fill="#e7e7e7" d="
  M 121.54 20.31
  Q 121.49 22.66 121.69 30.06
  Q 121.75 32.57 119.73 31.45
  C 119.47 31.30 119.31 31.01 119.30 30.69
  L 119.25 18.68
  C 119.25 18.06 119.75 17.56 120.37 17.56
  L 135.42 17.50
  C 136.01 17.49 136.50 17.98 136.50 18.59
  L 136.50 30.75
  C 136.50 31.10 136.36 31.41 136.12 31.56
  Q 135.42 31.98 134.70 31.51
  C 134.46 31.35 134.31 31.04 134.30 30.69
  L 134.26 20.31
  C 134.25 20.00 134.01 19.75 133.71 19.75
  L 122.05 19.80
  C 121.77 19.81 121.55 20.03 121.54 20.31
  Z"
/>
<path fill="#e7e7e7" d="
  M 143.49 26.31
  L 143.67 28.96
  C 143.69 29.23 143.97 29.44 144.32 29.45
  Q 150.53 29.54 156.75 29.50
  Q 157.68 29.50 158.17 29.82
  Q 159.08 30.43 158.29 31.34
  C 158.09 31.56 157.78 31.69 157.43 31.69
  L 142.46 31.75
  C 141.79 31.75 141.25 31.20 141.25 30.53
  L 141.25 18.51
  C 141.25 17.99 141.67 17.56 142.19 17.56
  L 157.25 17.50
  C 157.60 17.49 157.92 17.61 158.13 17.83
  Q 159.04 18.74 158.09 19.42
  Q 157.63 19.75 156.83 19.75
  Q 150.54 19.75 144.25 19.75
  C 143.94 19.75 143.68 19.95 143.60 20.23
  Q 143.23 21.60 143.65 22.96
  C 143.73 23.25 144.00 23.44 144.31 23.45
  L 157.25 23.50
  C 157.62 23.51 157.94 23.61 158.15 23.80
  Q 159.00 24.58 158.13 25.43
  C 157.93 25.63 157.61 25.74 157.24 25.75
  L 144.06 25.81
  C 143.73 25.81 143.47 26.04 143.49 26.31
  Z"
/>
<path fill="#e7e7e7" d="
  M 163.36 31.52
  C 162.98 31.32 162.75 30.93 162.75 30.51
  Q 162.75 28.48 162.75 26.33
  Q 162.75 23.72 163.32 22.24
  Q 164.99 17.93 169.64 17.49
  Q 169.71 17.48 174.38 17.49
  Q 176.82 17.49 179.10 17.55
  C 179.74 17.57 180.25 18.09 180.25 18.73
  Q 180.25 24.07 180.25 29.40
  Q 180.25 30.45 179.98 31.05
  Q 179.29 32.53 178.06 31.14
  C 177.86 30.91 177.75 30.59 177.75 30.25
  L 177.75 20.63
  C 177.75 20.15 177.36 19.76 176.88 19.75
  Q 174.00 19.71 170.90 19.77
  Q 168.51 19.82 167.39 20.55
  Q 166.26 21.29 165.67 22.55
  Q 165.26 23.41 165.29 25.04
  Q 165.35 27.90 165.05 30.75
  C 165.01 31.14 164.86 31.45 164.64 31.59
  Q 164.11 31.92 163.36 31.52
  Z"
/>
<path fill="#e3e3e3" d="
  M 185.10 31.59
  C 184.48 31.54 184.00 31.03 184.00 30.40
  Q 184.00 24.51 184.00 19.18
  Q 184.00 18.37 184.33 17.91
  Q 185.01 16.96 185.92 17.87
  C 186.02 17.97 186.13 18.31 186.19 18.74
  L 186.36 19.98
  C 186.39 20.24 186.70 20.44 187.07 20.45
  Q 192.60 20.60 194.50 20.50
  Q 199.09 20.27 200.71 23.62
  Q 201.88 26.02 200.76 28.53
  Q 199.50 31.38 196.29 31.80
  Q 196.28 31.80 190.70 31.80
  Q 187.80 31.80 185.10 31.59
  Z
  M 198.36 24.07
  Q 196.35 22.67 194.49 22.79
  Q 191.13 23.00 187.40 23.00
  C 187.06 23.00 186.79 23.26 186.80 23.57
  L 186.88 29.06
  C 186.88 29.34 187.12 29.58 187.44 29.60
  Q 190.13 29.81 192.83 29.79
  Q 196.19 29.77 196.65 29.67
  Q 199.09 29.17 199.40 26.37
  C 199.50 25.47 199.10 24.59 198.36 24.07
  Z"
/>
</svg>
