<svg xmlns="http://www.w3.org/2000/svg" version="1.1" viewBox="0 0 220 49">
<g stroke-width="2.0" fill="none" stroke-linecap="butt">
<path stroke="#d91616" vector-effect="non-scaling-stroke" d="
  M 54.50 0.29
  Q 53.92 4.74 50.00 6.79"
/>
<path stroke="#ea8383" vector-effect="non-scaling-stroke" d="
  M 50.00 6.79
  Q 35.83 6.20 21.66 6.61
  Q 18.34 6.70 16.92 7.65
  Q 14.15 9.49 16.21 13.50"
/>
<path stroke="#d91616" vector-effect="non-scaling-stroke" d="
  M 16.21 13.50
  Q 14.03 14.17 15.57 15.50
  Q 16.39 16.21 16.73 16.68
  Q 17.73 18.08 18.75 19.46"
/>
<path stroke="#d70c0d" vector-effect="non-scaling-stroke" d="
  M 18.75 19.46
  Q 17.42 19.72 16.54 20.79
  Q 14.53 23.22 13.04 26.00"
/>
<path stroke="#d71212" vector-effect="non-scaling-stroke" d="
  M 59.75 1.96
  Q 59.00 2.36 58.06 3.81
  Q 44.31 25.06 30.56 46.31
  Q 29.13 48.53 31.50 48.54"
/>
<path stroke="#d71212" vector-effect="non-scaling-stroke" d="
  M 22.46 40.50
  Q 25.37 37.68 27.32 34.13
  C 27.48 33.84 27.48 33.49 27.31 33.25
  L 21.25 24.46"
/>
<path stroke="#db1b1b" vector-effect="non-scaling-stroke" d="
  M 21.25 24.46
  Q 20.93 21.57 18.75 19.46"
/>
<path stroke="#ee9292" vector-effect="non-scaling-stroke" d="
  M 16.21 13.50
  L 30.52 35.43
  C 30.82 35.90 31.51 35.90 31.82 35.43
  L 36.25 28.71"
/>
<path stroke="#db1b1b" vector-effect="non-scaling-stroke" d="
  M 36.25 28.71
  Q 37.79 28.20 38.57 26.92
  Q 39.58 25.26 39.63 25.20
  Q 41.92 22.21 43.66 18.86
  Q 43.70 18.78 44.68 17.44
  Q 45.50 16.32 44.50 14.96"
/>
<path stroke="#ee9292" vector-effect="non-scaling-stroke" d="
  M 44.50 14.96
  Q 48.29 11.59 50.00 6.79"
/>
<path stroke="#ec8889" vector-effect="non-scaling-stroke" d="
  M 44.50 14.96
  L 30.42 15.00
  Q 27.89 15.01 29.21 17.18
  L 36.25 28.71"
/>
<path stroke="#d50909" vector-effect="non-scaling-stroke" d="
  M 21.25 24.46
  L 16.29 31.00"
/>
</g>
<path fill="#d50707" d="
  M 54.50 0.29
  Q 53.92 4.74 50.00 6.79
  Q 35.83 6.20 21.66 6.61
  Q 18.34 6.70 16.92 7.65
  Q 14.15 9.49 16.21 13.50
  Q 14.03 14.17 15.57 15.50
  Q 16.39 16.21 16.73 16.68
  Q 17.73 18.08 18.75 19.46
  Q 17.42 19.72 16.54 20.79
  Q 14.53 23.22 13.04 26.00
  Q 6.13 15.84 0.00 5.19
  Q 0.00 4.56 0.00 3.94
  Q 1.71 -0.09 6.03 0.15
  Q 7.86 0.25 7.97 0.25
  Q 31.24 0.22 54.50 0.29
  Z"
/>
<path fill="#dd2424" d="
  M 54.50 0.29
  Q 57.70 -0.35 59.75 1.96
  Q 59.00 2.36 58.06 3.81
  Q 44.31 25.06 30.56 46.31
  Q 29.13 48.53 31.50 48.54
  Q 28.18 49.28 26.25 46.50
  Q 24.23 43.58 22.46 40.50
  Q 25.37 37.68 27.32 34.13
  C 27.48 33.84 27.48 33.49 27.31 33.25
  L 21.25 24.46
  Q 20.93 21.57 18.75 19.46
  Q 17.73 18.08 16.73 16.68
  Q 16.39 16.21 15.57 15.50
  Q 14.03 14.17 16.21 13.50
  L 30.52 35.43
  C 30.82 35.90 31.51 35.90 31.82 35.43
  L 36.25 28.71
  Q 37.79 28.20 38.57 26.92
  Q 39.58 25.26 39.63 25.20
  Q 41.92 22.21 43.66 18.86
  Q 43.70 18.78 44.68 17.44
  Q 45.50 16.32 44.50 14.96
  Q 48.29 11.59 50.00 6.79
  Q 53.92 4.74 54.50 0.29
  Z"
/>
<path fill="#212121" fill-opacity="0.988" d="
  M 220.00 22.81
  Q 220.00 24.69 220.00 26.56
  Q 217.01 41.62 203.75 46.15
  Q 199.80 47.49 192.58 47.53
  Q 141.91 47.76 91.25 47.55
  Q 84.89 47.52 71.25 47.63
  Q 58.54 47.74 45.84 47.52
  Q 44.52 47.50 43.89 46.86
  Q 42.76 45.74 44.34 44.53
  C 44.58 44.35 44.90 44.25 45.24 44.25
  Q 117.37 44.25 189.50 44.25
  Q 194.96 44.25 197.97 43.81
  Q 208.55 42.29 213.40 34.11
  Q 216.57 28.76 216.14 22.91
  Q 215.69 16.69 211.25 11.75
  Q 204.81 4.58 194.75 4.61
  Q 133.23 4.79 71.70 4.69
  Q 70.31 4.69 69.53 4.22
  Q 67.81 3.18 69.66 1.63
  C 69.90 1.42 70.22 1.31 70.56 1.31
  Q 130.37 1.21 190.18 1.25
  Q 199.31 1.25 203.67 2.68
  Q 217.19 7.11 220.00 22.81
  Z"
/>
<path fill="#d10000" d="
  M 59.75 1.96
  Q 62.00 4.30 60.06 7.31
  Q 47.92 26.17 35.75 45.00
  Q 33.80 48.02 31.50 48.54
  Q 29.13 48.53 30.56 46.31
  Q 44.31 25.06 58.06 3.81
  Q 59.00 2.36 59.75 1.96
  Z"
/>
<path fill="#ffffff" d="
  M 50.00 6.79
  Q 48.29 11.59 44.50 14.96
  L 30.42 15.00
  Q 27.89 15.01 29.21 17.18
  L 36.25 28.71
  L 31.82 35.43
  C 31.51 35.90 30.82 35.90 30.52 35.43
  L 16.21 13.50
  Q 14.15 9.49 16.92 7.65
  Q 18.34 6.70 21.66 6.61
  Q 35.83 6.20 50.00 6.79
  Z"
/>
<path fill="#d81112" d="
  M 44.50 14.96
  Q 45.50 16.32 44.68 17.44
  Q 43.70 18.78 43.66 18.86
  Q 41.92 22.21 39.63 25.20
  Q 39.58 25.26 38.57 26.92
  Q 37.79 28.20 36.25 28.71
  L 29.21 17.18
  Q 27.89 15.01 30.42 15.00
  L 44.50 14.96
  Z"
/>
<path fill="#212121" fill-opacity="0.988" d="
  M 60.47 22.72
  Q 59.21 25.94 61.54 27.89
  Q 63.17 29.25 66.82 29.25
  Q 69.78 29.25 72.74 29.25
  Q 73.70 29.25 74.21 29.50
  Q 75.35 30.04 74.53 31.06
  C 74.35 31.30 74.04 31.44 73.69 31.45
  Q 71.21 31.51 68.72 31.51
  Q 64.01 31.52 63.78 31.48
  Q 60.35 30.99 58.56 27.69
  Q 56.83 24.48 58.75 21.17
  Q 61.09 17.16 66.50 17.25
  Q 72.03 17.35 73.75 17.46
  C 74.09 17.48 74.40 17.63 74.58 17.88
  Q 75.43 18.99 74.12 19.50
  Q 73.63 19.68 72.72 19.71
  Q 67.94 19.86 66.75 19.75
  Q 64.59 19.55 62.94 20.16
  Q 61.23 20.80 60.47 22.72
  Z"
/>
<path fill="#212121" fill-opacity="0.988" d="
  M 81.28 26.06
  L 81.26 28.74
  C 81.25 29.03 81.49 29.26 81.79 29.26
  Q 88.44 29.21 94.47 29.30
  Q 95.36 29.31 95.78 29.74
  Q 96.44 30.40 95.63 31.19
  C 95.42 31.39 95.10 31.51 94.75 31.50
  L 80.06 31.44
  C 79.47 31.44 79.00 30.96 79.00 30.37
  L 79.00 18.24
  C 79.00 17.69 79.44 17.25 79.99 17.25
  Q 86.99 17.25 93.99 17.25
  Q 94.99 17.25 95.47 17.48
  Q 96.50 17.97 95.75 19.04
  C 95.57 19.30 95.27 19.46 94.94 19.47
  L 82.22 19.74
  C 81.91 19.75 81.65 19.95 81.57 20.23
  Q 80.92 22.80 81.92 23.24
  Q 81.93 23.25 84.12 23.25
  Q 89.19 23.25 94.25 23.25
  Q 95.17 23.25 95.65 23.63
  Q 96.51 24.29 95.63 25.17
  C 95.43 25.37 95.11 25.49 94.75 25.50
  L 81.80 25.56
  C 81.51 25.56 81.28 25.78 81.28 26.06
  Z"
/>
<path fill="#212121" fill-opacity="0.988" d="
  M 116.95 29.77
  Q 117.60 30.47 116.91 31.10
  Q 116.54 31.43 115.86 31.45
  Q 112.94 31.53 110.02 31.51
  Q 109.93 31.51 108.00 31.58
  Q 104.74 31.71 102.55 29.79
  Q 100.50 28.00 100.17 25.05
  Q 99.76 21.48 102.36 19.22
  Q 104.29 17.55 108.24 17.32
  Q 111.71 17.13 115.19 17.22
  Q 116.13 17.25 116.71 17.66
  Q 118.01 18.59 116.39 19.39
  Q 115.80 19.69 114.92 19.70
  Q 111.54 19.77 108.16 19.76
  Q 105.36 19.76 104.11 20.75
  Q 102.82 21.77 102.42 23.46
  Q 102.07 24.98 102.82 26.43
  Q 104.62 29.92 109.25 29.25
  Q 111.17 28.97 116.07 29.40
  C 116.44 29.43 116.75 29.56 116.95 29.77
  Z"
/>
<path fill="#212121" fill-opacity="0.988" d="
  M 133.93 19.45
  Q 128.34 20.07 124.08 19.54
  C 123.63 19.49 123.24 19.84 123.24 20.29
  L 123.20 30.19
  C 123.20 30.54 123.08 30.86 122.87 31.08
  Q 122.03 31.97 121.33 31.05
  Q 121.00 30.62 121.00 29.85
  Q 120.96 23.97 121.06 18.41
  C 121.07 17.77 121.59 17.25 122.23 17.25
  L 136.49 17.25
  C 137.47 17.25 138.26 18.03 138.25 18.99
  L 138.20 29.93
  C 138.20 30.27 138.09 30.58 137.88 30.83
  Q 136.22 32.78 136.19 29.50
  Q 136.14 24.71 135.89 21.10
  C 135.82 20.09 134.93 19.34 133.93 19.45
  Z"
/>
<path fill="#212121" fill-opacity="0.988" d="
  M 145.17 26.04
  L 144.96 28.47
  C 144.93 28.90 145.34 29.26 145.86 29.25
  Q 152.45 29.21 158.47 29.30
  Q 159.36 29.31 159.78 29.74
  Q 160.44 30.40 159.63 31.19
  C 159.42 31.39 159.10 31.50 158.75 31.50
  L 143.88 31.50
  C 143.29 31.50 142.82 31.03 142.81 30.45
  L 142.75 19.06
  C 142.74 18.06 143.56 17.25 144.57 17.25
  Q 151.69 17.25 157.98 17.25
  Q 158.97 17.25 159.46 17.53
  Q 160.39 18.05 159.75 19.03
  C 159.57 19.31 159.27 19.47 158.94 19.48
  L 146.06 19.60
  C 145.72 19.60 145.43 19.76 145.31 20.00
  Q 144.65 21.30 145.13 22.72
  C 145.22 23.00 145.50 23.19 145.82 23.20
  Q 152.03 23.29 158.25 23.25
  Q 159.17 23.25 159.65 23.63
  Q 160.51 24.29 159.63 25.17
  C 159.43 25.37 159.11 25.49 158.75 25.50
  L 145.80 25.56
  C 145.47 25.56 145.19 25.77 145.17 26.04
  Z"
/>
<path fill="#212121" fill-opacity="0.988" d="
  M 164.66 30.90
  Q 164.07 29.92 164.11 28.73
  Q 164.19 26.84 164.18 26.75
  Q 163.78 17.10 174.25 17.25
  Q 179.01 17.32 180.95 17.70
  C 181.24 17.76 181.44 18.01 181.45 18.31
  Q 181.54 23.90 181.51 29.48
  Q 181.50 30.49 181.23 30.97
  Q 180.73 31.85 179.73 31.24
  C 179.47 31.08 179.31 30.77 179.30 30.43
  L 179.25 20.56
  C 179.25 20.02 178.79 19.59 178.22 19.60
  L 170.50 19.75
  Q 167.59 19.81 167.00 22.48
  Q 166.22 26.08 166.58 29.74
  Q 166.75 31.46 165.44 31.39
  C 165.12 31.37 164.83 31.19 164.66 30.90
  Z"
/>
<path fill="#212121" fill-opacity="0.988" d="
  M 200.59 21.65
  Q 203.13 23.70 202.35 26.96
  Q 201.14 31.97 195.74 31.71
  Q 191.50 31.50 186.48 31.50
  C 185.94 31.50 185.50 31.06 185.50 30.52
  Q 185.50 24.42 185.50 19.43
  Q 185.50 18.59 185.68 18.08
  Q 186.21 16.54 187.38 17.91
  C 187.48 18.04 187.59 18.37 187.67 18.80
  L 187.87 19.97
  C 187.92 20.24 188.22 20.43 188.56 20.40
  Q 192.02 20.14 195.50 20.25
  Q 198.99 20.36 200.59 21.65
  Z
  M 198.32 23.11
  Q 193.52 22.36 188.69 22.88
  C 188.37 22.91 188.12 23.16 188.12 23.44
  L 188.08 28.51
  C 188.07 29.04 188.54 29.48 189.12 29.49
  Q 192.78 29.53 195.83 29.48
  Q 198.43 29.44 199.72 28.33
  Q 202.07 26.29 199.18 23.52
  C 198.95 23.31 198.65 23.16 198.32 23.11
  Z"
/>
<path fill="#d81112" d="
  M 18.75 19.46
  Q 20.93 21.57 21.25 24.46
  L 16.29 31.00
  L 13.04 26.00
  Q 14.53 23.22 16.54 20.79
  Q 17.42 19.72 18.75 19.46
  Z"
/>
<path fill="#d10000" d="
  M 21.25 24.46
  L 27.31 33.25
  C 27.48 33.49 27.48 33.84 27.32 34.13
  Q 25.37 37.68 22.46 40.50
  L 16.29 31.00
  L 21.25 24.46
  Z"
/>
</svg>
