<svg xmlns="http://www.w3.org/2000/svg" version="1.1" viewBox="0 0 239 120">
<path fill="#008f86" d="
  M 205.69 120.00
  Q 202.69 120.00 199.69 120.00
  Q 199.36 117.26 199.52 114.20
  Q 199.60 112.55 198.52 113.81
  Q 193.96 119.14 186.19 120.00
  Q 184.31 120.00 182.44 120.00
  Q 170.66 118.31 165.67 107.67
  Q 162.53 100.95 164.25 94.25
  Q 166.59 85.15 174.09 81.02
  Q 180.25 77.63 186.70 78.34
  Q 193.50 79.08 198.88 84.78
  Q 199.44 85.37 199.44 84.56
  L 199.50 59.87
  C 199.50 59.53 199.77 59.25 200.11 59.25
  L 204.65 59.25
  C 205.26 59.25 205.75 59.75 205.75 60.36
  L 205.81 113.18
  C 205.81 113.46 206.04 113.68 206.32 113.66
  Q 214.35 113.07 220.45 108.76
  Q 226.28 104.65 229.69 97.21
  Q 236.41 82.55 227.80 66.94
  Q 222.31 56.99 211.47 52.64
  C 211.17 52.52 210.93 52.27 210.82 51.96
  Q 206.82 40.66 199.62 31.11
  Q 184.51 11.05 159.49 7.31
  Q 149.05 5.75 141.75 6.75
  Q 112.41 10.76 93.23 33.72
  C 92.89 34.12 92.30 34.21 91.86 33.92
  Q 75.52 23.34 58.54 28.27
  Q 48.52 31.17 41.50 38.26
  Q 33.48 46.34 30.65 58.42
  C 30.56 58.80 30.84 59.17 31.23 59.19
  Q 43.66 59.91 51.83 67.72
  C 52.03 67.91 52.03 68.23 51.84 68.43
  L 48.34 72.14
  C 48.15 72.34 47.84 72.35 47.64 72.16
  Q 38.51 63.80 27.25 65.50
  Q 15.01 67.35 8.96 79.39
  Q 5.49 86.28 6.56 92.94
  Q 7.69 99.92 12.23 105.22
  Q 16.50 110.20 23.02 112.48
  Q 35.92 117.00 47.36 107.33
  C 47.63 107.11 47.98 107.09 48.18 107.28
  L 51.51 110.57
  C 51.93 110.98 51.86 111.71 51.36 112.13
  Q 42.87 119.19 32.69 120.00
  Q 30.44 120.00 28.19 120.00
  Q 16.28 118.58 8.85 110.78
  Q 2.01 103.60 0.50 93.76
  Q -1.07 83.59 4.56 74.06
  Q 10.85 63.43 23.46 59.82
  C 23.75 59.73 23.97 59.49 24.03 59.19
  Q 28.51 36.37 47.32 26.19
  Q 56.57 21.18 66.33 20.60
  Q 78.57 19.88 90.66 25.79
  C 91.04 25.98 91.50 25.89 91.80 25.59
  Q 103.51 13.58 118.14 6.99
  Q 139.36 -2.56 162.42 1.43
  Q 182.84 4.96 196.69 18.31
  Q 209.23 30.41 215.63 46.86
  C 215.84 47.41 216.25 47.86 216.77 48.13
  Q 227.95 53.86 233.63 64.15
  Q 238.87 73.66 238.81 83.95
  Q 238.74 94.17 233.84 103.05
  Q 225.44 118.29 205.69 120.00
  Z
  M 199.43 99.09
  C 199.43 90.92 192.80 84.29 184.63 84.29
  C 176.46 84.29 169.83 90.92 169.83 99.09
  C 169.83 107.26 176.46 113.89 184.63 113.89
  C 192.80 113.89 199.43 107.26 199.43 99.09
  Z"
/>
<path fill="#008f86" d="
  M 109.19 25.69
  Q 118.88 18.17 129.07 15.02
  Q 129.13 15.00 131.23 14.17
  Q 133.80 13.15 133.83 16.18
  Q 133.83 16.58 134.09 17.10
  Q 134.39 17.66 134.07 18.15
  Q 133.87 18.47 133.29 18.63
  Q 113.90 24.06 100.88 40.06
  C 100.56 40.46 99.99 40.54 99.62 40.23
  L 97.10 38.10
  C 96.89 37.92 96.87 37.59 97.05 37.36
  Q 101.53 31.62 109.19 25.69
  Z"
/>
<path fill="#008f86" d="
  M 132.05 59.96
  C 132.05 64.30 128.53 67.82 124.19 67.82
  C 119.85 67.82 116.33 64.30 116.33 59.96
  C 116.33 55.62 119.85 52.10 124.19 52.10
  C 128.53 52.10 132.05 55.62 132.05 59.96
  Z
  M 129.68 59.96
  C 129.68 56.93 127.23 54.48 124.20 54.48
  C 121.17 54.48 118.72 56.93 118.72 59.96
  C 118.72 62.99 121.17 65.44 124.20 65.44
  C 127.23 65.44 129.68 62.99 129.68 59.96
  Z"
/>
<path fill="#008f86" d="
  M 150.61 62.96
  Q 151.22 65.10 151.99 63.02
  Q 153.80 58.17 155.48 53.28
  Q 155.82 52.30 156.46 52.06
  Q 157.09 51.81 157.79 52.05
  C 158.05 52.14 158.18 52.44 158.09 52.72
  Q 154.28 63.69 153.00 66.75
  Q 152.04 69.04 150.52 67.72
  Q 149.89 67.17 149.46 65.93
  Q 147.73 61.08 146.10 56.30
  Q 145.72 55.18 145.32 56.30
  Q 143.46 61.46 141.52 66.57
  Q 141.12 67.61 140.44 67.97
  Q 139.12 68.67 138.44 67.06
  Q 137.40 64.63 133.23 53.03
  C 133.12 52.73 133.20 52.40 133.44 52.23
  Q 134.25 51.66 135.04 52.20
  Q 135.50 52.52 135.81 53.37
  Q 137.53 58.21 139.37 63.34
  Q 139.89 64.78 140.40 63.34
  Q 142.00 58.89 143.69 53.92
  Q 144.15 52.56 144.98 52.10
  Q 146.59 51.21 147.47 53.55
  Q 149.34 58.56 150.61 62.96
  Z"
/>
<path fill="#008f86" d="
  M 161.98 61.78
  Q 163.79 66.40 168.77 65.13
  C 169.04 65.06 169.32 64.89 169.58 64.63
  Q 171.05 63.21 172.20 65.16
  C 172.41 65.53 172.30 65.99 171.95 66.23
  Q 169.30 67.96 166.47 67.77
  Q 163.72 67.59 161.57 65.63
  Q 158.69 63.02 159.26 59.01
  Q 159.70 55.90 161.82 54.04
  Q 163.38 52.67 165.50 52.22
  Q 167.43 51.81 169.46 52.49
  Q 174.80 54.28 174.75 60.27
  C 174.75 60.82 174.29 61.27 173.73 61.27
  L 162.32 61.30
  C 162.07 61.30 161.89 61.55 161.98 61.78
  Z
  M 170.60 55.97
  Q 165.72 52.38 161.88 57.77
  Q 161.18 58.75 162.38 58.75
  Q 166.50 58.75 169.88 58.75
  Q 170.18 58.75 171.09 58.89
  Q 172.60 59.11 171.81 57.44
  Q 171.39 56.55 170.60 55.97
  Z"
/>
<path fill="#008f86" d="
  M 180.31 54.16
  Q 181.02 54.04 181.52 53.47
  Q 181.92 53.02 182.27 52.88
  Q 187.62 50.83 190.87 54.23
  Q 192.85 56.31 193.32 60.32
  Q 193.71 63.67 193.37 67.06
  C 193.33 67.42 193.16 67.71 192.91 67.85
  Q 192.18 68.24 191.45 67.76
  C 191.21 67.60 191.06 67.29 191.05 66.94
  Q 190.99 64.46 190.99 61.97
  Q 190.98 58.63 190.24 57.14
  Q 188.62 53.91 184.50 54.50
  Q 182.37 54.80 181.10 56.76
  Q 180.22 58.10 180.07 60.44
  Q 179.89 63.24 180.06 66.69
  C 180.08 67.26 179.72 67.77 179.18 67.93
  Q 177.33 68.47 177.57 66.78
  Q 177.74 65.52 177.74 65.21
  Q 177.68 59.07 177.69 52.94
  C 177.69 52.62 177.86 52.35 178.13 52.23
  Q 180.27 51.33 179.91 53.69
  C 179.87 53.96 180.07 54.20 180.31 54.16
  Z"
/>
<path fill="#008f86" d="
  M 63.44 120.00
  Q 60.56 120.00 57.69 120.00
  Q 57.36 90.50 57.51 59.93
  C 57.51 59.45 57.96 59.07 58.51 59.09
  L 62.75 59.21
  C 63.30 59.23 63.73 59.64 63.74 60.15
  Q 63.86 75.16 63.64 89.33
  Q 63.58 93.61 63.73 104.66
  Q 63.83 112.33 63.44 120.00
  Z"
/>
<path fill="#008f86" d="
  M 157.94 120.00
  Q 155.19 120.00 152.44 120.00
  Q 152.06 116.92 152.32 113.73
  Q 152.42 112.47 151.60 113.43
  Q 146.80 119.02 139.19 120.00
  Q 137.31 120.00 135.44 120.00
  Q 122.96 118.09 118.37 107.84
  Q 116.53 103.74 116.31 96.24
  Q 116.05 87.49 116.48 78.74
  C 116.49 78.41 116.72 78.16 116.99 78.15
  L 121.65 78.11
  C 122.12 78.10 122.50 78.52 122.50 79.04
  Q 122.50 88.13 122.50 96.58
  Q 122.50 101.71 123.51 104.27
  Q 125.02 108.08 128.31 110.69
  Q 132.65 114.13 137.79 113.87
  Q 142.57 113.63 146.53 110.52
  Q 152.22 106.05 152.23 97.75
  Q 152.25 88.50 152.25 78.67
  C 152.25 78.30 152.55 78.00 152.92 78.00
  L 157.73 78.00
  C 158.02 78.00 158.25 78.23 158.25 78.52
  Q 158.25 98.75 158.25 118.75
  Q 158.73 119.48 157.94 120.00
  Z"
/>
<path fill="#008f86" d="
  M 91.44 120.00
  Q 89.81 120.00 88.19 120.00
  Q 75.68 118.06 71.21 108.33
  Q 67.42 100.08 70.41 91.50
  Q 73.63 82.23 84.19 78.94
  Q 90.69 76.91 96.93 79.25
  Q 102.43 81.31 106.26 85.93
  Q 110.28 90.78 110.81 96.98
  Q 111.54 105.42 106.48 112.00
  Q 101.25 118.80 91.44 120.00
  Z
  M 104.81 99.04
  C 104.81 90.86 98.18 84.23 90.00 84.23
  C 81.82 84.23 75.19 90.86 75.19 99.04
  C 75.19 107.22 81.82 113.85 90.00 113.85
  C 98.18 113.85 104.81 107.22 104.81 99.04
  Z"
/>
</svg>
