<svg xmlns="http://www.w3.org/2000/svg" version="1.1" viewBox="0 0 512 512">
<g stroke-width="2.0" fill="none" stroke-linecap="butt">
<path stroke="#fedb4b" vector-effect="non-scaling-stroke" d="
  M 401.00 2.29
  Q 401.01 3.22 402.19 4.06
  Q 428.64 22.86 442.50 53.75
  Q 443.87 56.81 444.00 58.21"
/>
<path stroke="#dadfb1" vector-effect="non-scaling-stroke" d="
  M 444.00 58.21
  Q 423.49 38.37 395.50 32.46"
/>
<path stroke="#f8e9ac" vector-effect="non-scaling-stroke" d="
  M 395.50 32.46
  Q 352.43 25.15 319.40 50.06
  Q 311.41 56.08 304.81 63.70
  Q 278.89 93.62 281.85 133.82
  Q 282.61 144.05 285.47 153.44
  Q 295.05 184.80 322.50 204.29"
/>
<path stroke="#dadfb1" vector-effect="non-scaling-stroke" d="
  M 322.50 204.29
  Q 347.18 221.46 377.50 221.54"
/>
<path stroke="#fedb4b" vector-effect="non-scaling-stroke" d="
  M 377.50 221.54
  Q 374.71 222.25 372.05 223.30
  Q 367.80 224.99 366.73 225.33
  Q 338.11 234.40 308.25 229.87
  Q 308.14 229.85 306.85 229.36
  Q 305.99 229.04 305.21 229.75"
/>
<path stroke="#fac56b" vector-effect="non-scaling-stroke" d="
  M 305.21 229.75
  Q 277.55 210.76 263.06 180.47
  Q 262.81 179.95 262.25 179.96"
/>
<path stroke="#dadfb1" vector-effect="non-scaling-stroke" d="
  M 262.25 179.96
  Q 262.30 178.86 261.56 177.19
  Q 246.29 142.23 252.46 103.75"
/>
<path stroke="#f9be51" vector-effect="non-scaling-stroke" d="
  M 417.21 245.75
  Q 415.64 245.91 414.17 246.42
  Q 411.56 247.32 411.26 247.40
  Q 353.99 262.43 305.21 229.75"
/>
<path stroke="#d9d797" vector-effect="non-scaling-stroke" d="
  M 377.50 221.54
  Q 408.91 220.90 432.94 203.19
  Q 461.47 182.16 469.62 147.83
  Q 471.93 138.12 472.06 128.02
  Q 472.57 87.73 444.00 58.21"
/>
<path stroke="#d4e5f8" vector-effect="non-scaling-stroke" d="
  M 395.50 32.46
  Q 394.97 32.88 395.48 33.26
  Q 413.32 46.26 423.81 65.69
  Q 424.74 67.39 424.75 68.21"
/>
<path stroke="#c2b9c2" vector-effect="non-scaling-stroke" d="
  M 424.75 68.21
  Q 420.70 70.47 417.93 74.07
  Q 416.26 76.25 416.04 78.44
  Q 415.77 81.18 417.21 83.32
  Q 419.11 86.16 422.78 86.60
  Q 427.36 87.15 430.75 82.96"
/>
<path stroke="#d4e5f8" vector-effect="non-scaling-stroke" d="
  M 430.75 82.96
  Q 437.33 104.23 434.00 124.50
  Q 426.51 170.05 386.20 193.70
  Q 385.42 194.16 384.54 194.25"
/>
<path stroke="#c2b9c2" vector-effect="non-scaling-stroke" d="
  M 384.54 194.25
  Q 384.57 185.75 377.74 184.97
  Q 374.11 184.56 371.70 186.60
  Q 369.02 188.86 368.93 193.00
  Q 368.84 196.76 369.50 200.46"
/>
<path stroke="#d4e5f8" vector-effect="non-scaling-stroke" d="
  M 369.50 200.46
  Q 369.31 200.59 369.24 200.79
  C 369.13 201.06 368.97 201.25 368.81 201.30
  Q 348.22 207.60 326.84 204.89
  Q 326.63 204.87 324.73 204.33
  Q 323.64 204.03 322.50 204.29"
/>
<path stroke="#c2b9c2" vector-effect="non-scaling-stroke" d="
  M 384.2105 54.1363
  C 384.22 50.27 381.10 47.13 377.2350 47.1119
  L 376.1550 47.1082
  C 372.29 47.09 369.14 50.22 369.1306 54.0837
  L 369.1095 60.1437
  C 369.10 64.01 372.22 67.15 376.0850 67.1681
  L 377.1650 67.1718
  C 381.03 67.19 384.18 64.06 384.1894 60.1963
  L 384.2105 54.1363"
/>
<path stroke="#c2b9c2" vector-effect="non-scaling-stroke" d="
  M 331.3534 69.8541
  C 328.56 67.05 324.02 67.04 321.2135 69.8364
  L 320.5902 70.4576
  C 317.79 73.25 317.78 77.79 320.5725 80.5975
  L 324.6666 84.7059
  C 327.46 87.51 332.00 87.52 334.8065 84.7236
  L 335.4298 84.1024
  C 338.23 81.31 338.24 76.77 335.4475 73.9625
  L 331.3534 69.8541"
/>
<path stroke="#f79da6" vector-effect="non-scaling-stroke" d="
  M 384.27 121.75
  Q 384.85 103.15 384.29 84.55
  Q 384.17 80.47 382.77 78.41
  Q 380.25 74.70 375.62 75.49
  Q 372.36 76.06 370.70 78.34
  Q 369.00 80.68 369.00 84.25
  Q 369.00 104.75 369.06 125.25
  Q 369.07 129.54 372.02 132.32
  Q 373.91 134.10 373.99 134.18
  Q 383.32 144.21 385.75 145.75
  Q 389.90 148.37 393.69 146.19
  Q 398.51 143.41 397.68 138.59
  Q 397.26 136.17 394.51 133.21
  Q 389.58 127.88 384.59 122.61
  C 384.37 122.38 384.26 122.07 384.27 121.75"
/>
<path stroke="#c2b9c2" vector-effect="non-scaling-stroke" d="
  M 317.86 125.44
  C 317.86 121.55 314.70 118.39 310.81 118.39
  L 304.91 118.39
  C 301.02 118.39 297.86 121.55 297.86 125.44
  L 297.86 126.56
  C 297.86 130.45 301.02 133.61 304.91 133.61
  L 310.81 133.61
  C 314.70 133.61 317.86 130.45 317.86 126.56
  L 317.86 125.44"
/>
<path stroke="#c2b9c2" vector-effect="non-scaling-stroke" d="
  M 335.4475 178.0234
  C 338.24 175.22 338.23 170.69 335.4298 167.8976
  L 334.8065 167.2764
  C 332.01 164.49 327.47 164.49 324.6807 167.2941
  L 320.5725 171.4166
  C 317.78 174.22 317.79 178.75 320.5902 181.5424
  L 321.2135 182.1636
  C 324.01 184.95 328.55 184.95 331.3393 182.1459
  L 335.4475 178.0234"
/>
<path stroke="#a3afc7" vector-effect="non-scaling-stroke" d="
  M 369.50 200.46
  Q 372.22 205.06 376.67 204.93
  Q 380.52 204.81 382.82 201.73
  Q 385.08 198.70 384.54 194.25"
/>
<path stroke="#a3afc7" vector-effect="non-scaling-stroke" d="
  M 430.75 82.96
  Q 434.62 79.96 434.68 75.70
  Q 434.73 71.93 432.05 69.64
  Q 429.19 67.21 424.75 68.21"
/>
<path stroke="#a3afc7" vector-effect="non-scaling-stroke" d="
  M 455.59 125.44
  C 455.59 121.55 452.43 118.39 448.54 118.39
  L 442.64 118.39
  C 438.75 118.39 435.59 121.55 435.59 125.44
  L 435.59 126.56
  C 435.59 130.45 438.75 133.61 442.64 133.61
  L 448.54 133.61
  C 452.43 133.61 455.59 130.45 455.59 126.56
  L 455.59 125.44"
/>
<path stroke="#a3afc7" vector-effect="non-scaling-stroke" d="
  M 428.8010 167.2596
  C 426.04 164.43 421.50 164.37 418.6619 167.1357
  L 418.0321 167.7503
  C 415.20 170.52 415.14 175.06 417.9082 177.8894
  L 421.9590 182.0404
  C 424.72 184.87 429.26 184.93 432.0981 182.1643
  L 432.7279 181.5497
  C 435.56 178.78 435.62 174.24 432.8518 171.4106
  L 428.8010 167.2596"
/>
<path stroke="#d5c2b7" vector-effect="non-scaling-stroke" d="
  M 262.25 179.96
  Q 261.73 193.96 262.00 203.50
  Q 262.09 206.82 261.54 209.00"
/>
<path stroke="#d9cac0" vector-effect="non-scaling-stroke" d="
  M 261.54 209.00
  Q 260.09 213.17 256.71 215.27
  Q 254.36 216.73 249.47 216.88
  Q 235.61 217.28 221.75 216.79"
/>
<path stroke="#c7e4fd" vector-effect="non-scaling-stroke" d="
  M 221.75 216.79
  Q 229.75 213.12 229.75 205.00
  Q 229.75 156.13 229.75 107.25
  Q 229.75 106.86 229.50 106.32
  Q 229.03 105.29 229.75 104.29"
/>
<path stroke="#ebd3c0" vector-effect="non-scaling-stroke" d="
  M 164.75 104.29
  Q 164.25 107.08 164.25 111.50
  Q 164.19 170.77 164.47 204.62
  Q 164.51 208.55 165.59 210.68
  Q 167.13 213.69 170.02 215.32
  Q 172.44 216.69 177.38 216.70
  Q 199.56 216.77 221.75 216.79"
/>
<path stroke="#f9b17a" vector-effect="non-scaling-stroke" d="
  M 261.54 209.00
  L 262.52 209.29
  C 262.73 209.35 262.90 209.66 262.94 210.06
  Q 263.04 211.00 263.81 212.44
  Q 270.49 224.92 276.09 232.19
  Q 306.39 271.57 354.71 280.73
  Q 364.85 282.65 367.41 283.88
  Q 376.01 287.99 379.17 297.96
  Q 379.20 298.07 379.65 298.82
  Q 379.97 299.35 379.50 299.96"
/>
<path stroke="#7e5d41" vector-effect="non-scaling-stroke" d="
  M 379.50 299.96
  Q 377.38 300.08 375.28 300.41
  Q 366.56 301.79 367.75 310.75
  Q 368.47 316.18 374.19 317.23
  Q 374.68 317.32 374.34 317.68
  Q 369.68 322.77 366.25 328.79"
/>
<path stroke="#efcbb2" vector-effect="non-scaling-stroke" d="
  M 366.25 328.79
  Q 364.89 329.04 364.31 328.19
  Q 362.77 325.93 360.79 325.00"
/>
<path stroke="#7e5d41" vector-effect="non-scaling-stroke" d="
  M 360.79 325.00
  L 360.79 318.00"
/>
<path stroke="#97b0bf" vector-effect="non-scaling-stroke" d="
  M 360.79 318.00
  Q 361.95 316.24 362.87 314.34
  Q 366.10 307.72 360.79 303.00"
/>
<path stroke="#7e5d41" vector-effect="non-scaling-stroke" d="
  M 360.79 303.00
  L 360.66 300.69
  C 360.64 300.40 360.39 300.16 360.07 300.13
  Q 358.08 299.92 356.08 299.97
  Q 355.98 299.97 354.44 299.88
  Q 352.68 299.77 351.71 301.25"
/>
<path stroke="#97b0bf" vector-effect="non-scaling-stroke" d="
  M 351.71 301.25
  L 340.04 301.25"
/>
<path stroke="#7e5d41" vector-effect="non-scaling-stroke" d="
  M 340.04 301.25
  Q 340.26 300.11 339.25 300.08
  Q 336.25 300.00 333.25 299.94
  Q 332.35 299.93 331.96 300.75"
/>
<path stroke="#97b0bf" vector-effect="non-scaling-stroke" d="
  M 331.96 300.75
  L 328.25 301.04"
/>
<path stroke="#b0b9bf" vector-effect="non-scaling-stroke" d="
  M 328.25 301.04
  L 324.29 301.25"
/>
<path stroke="#7e5d41" vector-effect="non-scaling-stroke" d="
  M 324.29 301.25
  Q 324.51 300.11 323.50 300.08
  Q 320.50 300.00 317.50 300.00
  Q 315.83 300.00 315.96 301.25"
/>
<path stroke="#b0b9bf" vector-effect="non-scaling-stroke" d="
  M 315.96 301.25
  L 304.29 301.25"
/>
<path stroke="#7e5d41" vector-effect="non-scaling-stroke" d="
  M 304.29 301.25
  Q 304.52 300.06 303.50 300.00
  Q 301.84 299.90 296.57 300.05
  C 296.28 300.06 296.04 300.28 296.03 300.56
  L 295.96 302.25"
/>
<path stroke="#b0b9bf" vector-effect="non-scaling-stroke" d="
  M 295.96 302.25
  Q 290.88 305.11 291.50 310.25
  Q 292.04 314.79 295.96 319.75"
/>
<path stroke="#7e5d41" vector-effect="non-scaling-stroke" d="
  M 295.96 319.75
  L 295.96 323.50"
/>
<path stroke="#f7d4ba" vector-effect="non-scaling-stroke" d="
  M 295.96 323.50
  Q 295.25 323.44 294.91 323.95
  Q 294.57 324.44 294.51 324.50
  Q 278.69 341.50 281.91 364.86
  Q 281.92 364.94 282.25 366.10
  Q 282.52 367.03 282.00 367.96"
/>
<path stroke="#7e5d41" vector-effect="non-scaling-stroke" d="
  M 282.00 367.96
  L 279.06 368.04
  C 278.78 368.05 278.55 368.28 278.55 368.56
  L 278.67 398.31
  C 278.68 398.61 278.91 398.85 279.19 398.86
  L 284.94 398.97
  C 285.21 398.98 285.44 398.73 285.44 398.43
  L 285.50 380.48
  Q 285.51 378.41 286.20 380.36
  L 292.53 398.08
  C 292.72 398.60 293.19 398.95 293.69 398.94
  L 299.31 398.87
  C 299.62 398.87 299.90 398.67 300.03 398.36
  L 301.21 395.50"
/>
<path stroke="#f7d4ba" vector-effect="non-scaling-stroke" d="
  M 301.21 395.50
  L 307.21 398.50"
/>
<path stroke="#7e5d41" vector-effect="non-scaling-stroke" d="
  M 307.21 398.50
  Q 307.51 399.12 308.25 399.04"
/>
<path stroke="#efcbb2" vector-effect="non-scaling-stroke" d="
  M 308.25 399.04
  Q 308.09 399.55 308.51 399.71
  Q 334.69 410.05 356.96 393.50"
/>
<path stroke="#7e5d41" vector-effect="non-scaling-stroke" d="
  M 356.96 393.50
  L 357.05 398.44
  C 357.06 398.72 357.28 398.95 357.56 398.95
  L 364.70 399.00
  C 365.00 399.00 365.25 398.75 365.25 398.44
  L 365.29 383.25"
/>
<path stroke="#efcbb2" vector-effect="non-scaling-stroke" d="
  M 365.29 383.25
  Q 366.71 382.98 367.69 381.19
  Q 380.30 358.00 368.85 334.89
  Q 368.84 334.86 367.83 333.36
  Q 367.15 332.35 367.25 331.04"
/>
<path stroke="#7e5d41" vector-effect="non-scaling-stroke" d="
  M 367.25 331.04
  L 374.06 330.85
  C 374.35 330.84 374.63 330.67 374.81 330.39
  L 379.25 323.46"
/>
<path stroke="#f9b17a" vector-effect="non-scaling-stroke" d="
  M 379.25 323.46
  Q 380.00 323.76 380.00 325.25
  Q 380.00 378.00 380.00 430.75
  Q 380.00 431.12 379.50 431.04"
/>
<path stroke="#97b0bf" vector-effect="non-scaling-stroke" d="
  M 379.50 431.04
  Q 376.03 428.73 371.88 428.91
  Q 369.71 429.00 369.61 429.00
  Q 347.68 429.00 325.75 429.00
  Q 320.90 429.00 318.86 429.85
  Q 314.79 431.57 314.54 436.15
  Q 314.35 439.59 316.37 441.90
  Q 318.62 444.50 322.50 444.50
  Q 347.87 444.50 373.25 444.53
  Q 377.11 444.53 379.96 442.00"
/>
<path stroke="#f9b17a" vector-effect="non-scaling-stroke" d="
  M 379.96 442.00
  Q 380.08 451.59 379.94 461.19
  Q 379.94 461.47 379.82 461.66
  Q 379.69 461.87 379.50 462.04"
/>
<path stroke="#97b0bf" vector-effect="non-scaling-stroke" d="
  M 379.50 462.04
  Q 377.10 460.00 373.50 460.00
  Q 284.57 460.00 195.64 460.00
  Q 191.84 460.00 190.01 460.89
  Q 187.00 462.35 186.11 465.54
  Q 185.21 468.83 186.87 471.78
  Q 188.79 475.19 193.00 475.25
  Q 245.28 476.03 343.75 475.31
  Q 348.58 475.27 359.75 475.55
  Q 369.47 475.79 375.75 475.25
  Q 377.74 475.08 379.96 472.75"
/>
<path stroke="#f9b17a" vector-effect="non-scaling-stroke" d="
  M 379.96 472.75
  Q 380.03 485.87 380.22 499.00
  Q 380.29 503.96 377.43 507.93
  Q 376.45 509.29 374.92 509.80
  C 374.64 509.89 374.43 510.13 374.34 510.43
  Q 374.03 511.54 372.94 512.00"
/>
<path stroke="#e9a26e" vector-effect="non-scaling-stroke" d="
  M 93.91 152.95
  Q 90.11 141.47 79.94 136.06
  Q 67.22 129.30 53.82 135.89
  Q 43.57 140.92 39.75 151.71
  Q 36.31 161.41 39.50 170.25
  Q 43.65 181.77 53.71 186.61
  Q 62.96 191.06 73.18 188.70
  Q 87.10 185.47 93.64 170.08
  C 93.99 169.27 94.78 168.75 95.65 168.75
  Q 107.71 168.75 118.76 168.75
  Q 118.85 168.75 120.73 168.83
  Q 124.13 168.97 126.19 167.19
  Q 131.03 163.00 128.15 157.64
  Q 127.10 155.68 125.51 154.66
  Q 123.68 153.49 121.50 153.50
  Q 108.04 153.55 94.57 153.44
  C 94.27 153.44 94.01 153.24 93.91 152.95"
/>
<path stroke="#e9a26e" vector-effect="non-scaling-stroke" d="
  M 128.9092 183.9880
  C 128.90 180.03 125.69 176.82 121.7267 176.8305
  L 110.8467 176.8495
  C 106.89 176.86 103.68 180.07 103.6892 184.0320
  L 103.6908 184.9520
  C 103.70 188.91 106.91 192.12 110.8733 192.1095
  L 121.7533 192.0905
  C 125.71 192.08 128.92 188.87 128.9108 184.9080
  L 128.9092 183.9880"
/>
<path stroke="#7e5d41" vector-effect="non-scaling-stroke" d="
  M 57.88 239.64
  Q 61.82 237.50 62.88 233.46
  Q 63.83 229.79 61.96 226.24
  Q 58.81 220.27 50.56 220.19
  Q 34.38 220.02 29.94 220.17
  C 29.66 220.18 29.44 220.41 29.44 220.69
  L 29.50 262.46
  C 29.50 262.75 29.73 262.98 30.01 262.99
  Q 40.73 263.14 50.76 262.87
  Q 56.05 262.73 58.56 261.57
  Q 62.65 259.67 64.28 255.49
  Q 66.03 251.02 64.72 246.94
  Q 63.26 242.41 57.93 240.38
  Q 57.10 240.06 57.88 239.64"
/>
<path stroke="#7e5d41" vector-effect="non-scaling-stroke" d="
  M 80.69 259.65
  Q 87.39 265.65 94.32 262.29
  Q 98.54 260.25 100.48 256.05
  Q 102.29 252.16 102.25 247.00
  Q 102.20 240.76 99.16 236.62
  Q 95.88 232.16 90.50 231.62
  Q 84.74 231.04 80.19 236.20
  Q 79.72 236.73 79.71 235.99
  L 79.65 232.69
  C 79.64 232.38 79.39 232.14 79.07 232.13
  L 73.03 232.06
  C 72.46 232.05 72.00 232.54 72.00 233.15
  L 72.00 274.57
  C 72.00 274.95 72.30 275.25 72.68 275.25
  L 79.75 275.25
  C 80.03 275.25 80.25 275.03 80.25 274.75
  L 80.30 259.81
  Q 80.31 259.32 80.69 259.65"
/>
<path stroke="#7e5d41" vector-effect="non-scaling-stroke" d="
  M 116.05 249.06
  L 135.25 249.00
  C 135.53 249.00 135.76 248.78 135.78 248.50
  Q 136.51 235.85 126.58 232.56
  Q 120.59 230.57 115.46 232.69
  Q 109.65 235.10 107.69 242.19
  Q 105.58 249.77 108.80 255.95
  Q 111.29 260.71 116.06 262.50
  Q 120.95 264.35 126.54 262.75
  Q 132.90 260.93 135.30 254.62
  C 135.40 254.36 135.24 254.08 134.97 254.03
  L 128.00 252.81
  C 127.71 252.76 127.42 252.92 127.28 253.19
  Q 123.30 260.87 116.81 254.44
  Q 115.31 252.95 115.52 249.56
  C 115.54 249.28 115.77 249.06 116.05 249.06"
/>
<path stroke="#7e5d41" vector-effect="non-scaling-stroke" d="
  M 148.66 243.76
  L 148.76 243.75
  C 148.85 243.74 148.95 243.84 149.00 243.99
  L 155.66 262.43
  C 155.78 262.77 156.10 263.00 156.46 263.00
  L 162.37 263.00
  C 162.68 263.00 162.95 262.80 163.06 262.51
  L 170.01 243.73
  Q 170.44 242.57 170.44 243.81
  L 170.50 262.40
  C 170.50 262.70 170.73 262.95 171.01 262.95
  L 176.81 262.87
  C 177.09 262.86 177.32 262.62 177.32 262.31
  L 177.49 232.63
  C 177.50 232.28 177.21 232.00 176.86 232.00
  L 167.78 232.00
  C 167.47 232.00 167.20 232.19 167.10 232.48
  L 159.80 252.58
  Q 159.41 253.66 159.02 252.57
  L 151.86 232.52
  C 151.76 232.24 151.49 232.05 151.18 232.05
  L 142.17 232.00
  C 141.80 232.00 141.50 232.30 141.51 232.66
  L 141.68 262.31
  C 141.68 262.62 141.91 262.86 142.19 262.87
  L 147.94 262.95
  C 148.25 262.96 148.50 262.69 148.50 262.36
  L 148.56 243.92
  C 148.56 243.84 148.60 243.77 148.66 243.76"
/>
<path stroke="#7e5d41" vector-effect="non-scaling-stroke" d="
  M 190.35 249.68
  Q 185.20 255.44 181.24 262.55
  C 181.12 262.75 181.27 263.00 181.50 263.00
  L 189.97 263.00
  C 190.38 263.00 190.76 262.77 190.96 262.40
  Q 193.71 257.22 197.29 252.53
  Q 199.58 249.52 203.20 250.20
  C 203.49 250.26 203.69 250.52 203.70 250.82
  L 203.74 262.32
  C 203.74 262.70 204.04 263.00 204.41 263.00
  L 211.48 263.00
  C 211.77 263.00 212.00 262.77 212.00 262.48
  L 212.00 232.74
  C 212.00 232.46 211.79 232.24 211.51 232.22
  Q 202.39 231.61 193.29 232.22
  Q 188.61 232.53 186.57 234.06
  Q 183.39 236.44 183.56 241.19
  Q 183.81 247.87 190.19 249.22
  C 190.41 249.26 190.50 249.52 190.35 249.68"
/>
<path stroke="#7e5d41" vector-effect="non-scaling-stroke" d="
  M 182.7978 310.5331
  C 180.06 302.06 170.96 297.41 162.4623 300.1508
  C 153.97 302.89 149.30 311.99 152.0422 320.4669
  C 154.78 328.94 163.88 333.59 172.3777 330.8492
  C 180.87 328.11 185.54 319.01 182.7978 310.5331"
/>
<path stroke="#7e5d41" vector-effect="non-scaling-stroke" d="
  M 269.33 317.95
  C 269.30 317.43 269.72 317.00 270.24 317.00
  L 289.44 316.94
  C 289.72 316.94 289.94 316.72 289.94 316.44
  Q 289.94 312.33 289.19 309.56
  Q 287.05 301.74 278.79 300.03
  Q 270.20 298.25 265.14 303.80
  Q 262.55 306.64 261.51 310.85
  Q 260.51 314.92 261.21 318.98
  Q 262.27 325.09 266.31 328.34
  Q 270.64 331.81 277.56 331.31
  Q 285.78 330.72 289.27 322.62
  C 289.39 322.35 289.22 322.05 288.93 321.99
  L 282.21 320.72
  C 281.69 320.62 281.18 320.92 281.03 321.42
  Q 280.39 323.48 278.69 324.53
  Q 277.22 325.44 275.17 325.04
  Q 269.69 323.97 269.33 317.95"
/>
<path stroke="#7e5d41" vector-effect="non-scaling-stroke" d="
  M 54.13 314.91
  Q 58.85 312.69 58.34 306.99
  Q 58.04 303.62 55.69 302.06
  Q 52.50 299.95 47.75 299.97
  Q 38.75 300.00 30.01 300.00
  C 29.73 300.00 29.50 300.23 29.50 300.52
  L 29.44 330.32
  C 29.44 330.59 29.66 330.82 29.93 330.83
  Q 45.38 331.51 52.25 330.75
  Q 57.07 330.22 58.74 326.23
  Q 60.04 323.14 58.98 320.23
  Q 57.83 317.07 54.16 315.72
  Q 53.18 315.36 54.13 314.91"
/>
<path stroke="#7e5d41" vector-effect="non-scaling-stroke" d="
  M 92.75 315.03
  Q 89.61 312.91 85.75 313.01
  Q 80.46 313.14 75.18 312.84
  C 74.89 312.82 74.66 312.59 74.66 312.31
  L 74.52 300.68
  C 74.51 300.30 74.22 300.00 73.86 300.00
  L 66.99 300.00
  C 66.70 300.00 66.46 300.23 66.46 300.52
  L 66.31 330.45
  C 66.30 330.72 66.53 330.94 66.80 330.94
  Q 75.53 331.04 84.25 330.97
  Q 86.94 330.95 89.56 330.33
  Q 96.67 328.65 96.25 321.25
  Q 96.02 317.24 92.75 315.03"
/>
<path stroke="#7e5d41" vector-effect="non-scaling-stroke" d="
  M 109.26 300.26
  C 109.26 300.12 109.14 300.00 109.00 300.00
  L 101.26 300.00
  C 101.12 300.00 101.00 300.12 101.00 300.26
  L 101.00 330.74
  C 101.00 330.88 101.12 331.00 101.26 331.00
  L 109.00 331.00
  C 109.14 331.00 109.26 330.88 109.26 330.74
  L 109.26 300.26"
/>
<path stroke="#7e5d41" vector-effect="non-scaling-stroke" d="
  M 125.81 306.80
  L 135.94 306.80
  C 136.21 306.80 136.43 307.02 136.43 307.30
  L 136.43 330.31
  C 136.43 330.61 136.65 330.85 136.93 330.86
  L 143.80 330.97
  C 144.29 330.98 144.69 330.55 144.68 330.02
  L 144.51 300.60
  C 144.50 300.27 144.24 300.00 143.91 300.00
  L 117.52 300.00
  C 117.23 300.00 117.00 300.23 117.00 300.51
  L 117.06 330.44
  C 117.06 330.73 117.28 330.97 117.56 330.97
  L 124.56 330.86
  C 124.84 330.85 125.07 330.61 125.07 330.32
  L 125.31 307.32
  C 125.32 307.03 125.54 306.80 125.81 306.80"
/>
<path stroke="#7e5d41" vector-effect="non-scaling-stroke" d="
  M 200.32 306.80
  L 210.30 306.76
  C 210.68 306.75 211.00 307.07 211.00 307.46
  L 210.94 330.49
  C 210.93 330.77 211.16 331.00 211.44 331.00
  L 218.45 331.00
  C 218.75 331.00 219.00 330.75 219.00 330.44
  L 219.06 300.51
  C 219.06 300.23 218.83 300.00 218.55 300.00
  L 192.00 300.00
  C 191.72 300.00 191.50 300.22 191.50 300.50
  Q 191.50 309.77 191.50 319.05
  Q 191.50 319.13 191.59 320.94
  Q 191.83 325.96 186.48 325.09
  C 186.20 325.04 185.94 325.23 185.93 325.49
  L 185.77 330.45
  C 185.76 330.73 185.98 330.98 186.30 331.04
  Q 191.58 332.13 194.69 331.19
  Q 199.24 329.81 199.49 324.00
  Q 199.84 315.66 199.81 307.32
  C 199.81 307.04 200.04 306.81 200.32 306.80"
/>
<path stroke="#7e5d41" vector-effect="non-scaling-stroke" d="
  M 235.80 318.05
  L 246.45 318.00
  C 246.75 318.00 247.00 318.25 247.00 318.56
  L 247.00 330.48
  C 247.00 330.77 247.23 331.00 247.52 331.00
  L 254.73 331.00
  C 255.02 331.00 255.25 330.77 255.25 330.49
  L 255.19 300.56
  C 255.19 300.27 254.96 300.04 254.68 300.04
  L 247.57 300.05
  C 247.28 300.05 247.05 300.28 247.05 300.56
  L 247.00 310.74
  C 247.00 311.02 246.77 311.25 246.49 311.25
  L 235.79 311.25
  C 235.49 311.25 235.25 311.01 235.24 310.70
  L 235.20 300.57
  C 235.19 300.28 234.96 300.04 234.68 300.04
  L 227.57 300.05
  C 227.29 300.05 227.06 300.28 227.06 300.56
  L 227.06 330.43
  C 227.06 330.72 227.28 330.95 227.56 330.95
  L 234.74 331.00
  C 235.02 331.00 235.25 330.77 235.25 330.48
  L 235.30 318.56
  C 235.31 318.28 235.53 318.06 235.80 318.05"
/>
<path stroke="#7e5d41" vector-effect="non-scaling-stroke" d="
  M 72.96 371.80
  Q 72.40 371.49 72.75 370.50
  Q 73.62 368.00 71.50 368.00
  L 65.50 368.00
  C 65.22 368.00 65.00 368.22 65.00 368.50
  L 65.00 410.59
  C 65.00 410.95 65.30 411.25 65.66 411.25
  L 72.73 411.25
  C 73.02 411.25 73.25 411.02 73.25 410.73
  L 73.25 396.23
  Q 73.25 394.85 74.22 395.84
  Q 77.53 399.25 81.81 399.45
  Q 85.69 399.62 89.27 397.16
  Q 93.27 394.41 94.61 389.68
  Q 95.65 385.96 95.37 381.27
  Q 95.08 376.46 92.69 373.06
  Q 88.91 367.70 82.75 367.50
  Q 77.38 367.32 73.76 371.55
  C 73.52 371.82 73.19 371.93 72.96 371.80"
/>
<path stroke="#7e5d41" vector-effect="non-scaling-stroke" d="
  M 131.7715 378.4527
  C 128.99 369.99 119.86 365.39 111.3820 368.1770
  C 102.90 370.96 98.29 380.08 101.0685 388.5473
  C 103.85 397.01 112.98 401.61 121.4580 398.8230
  C 129.94 396.04 134.55 386.92 131.7715 378.4527"
/>
<path stroke="#7e5d41" vector-effect="non-scaling-stroke" d="
  M 171.80 372.13
  Q 171.49 371.72 171.69 370.98
  Q 172.54 367.71 169.99 367.85
  Q 168.23 367.94 167.98 367.94
  Q 166.25 367.88 164.56 368.21
  C 164.27 368.27 164.06 368.52 164.06 368.80
  L 164.00 410.58
  C 164.00 410.95 164.30 411.25 164.68 411.25
  L 171.69 411.25
  C 172.00 411.25 172.25 411.00 172.25 410.69
  L 172.25 395.48
  Q 172.25 394.84 172.69 395.31
  Q 177.33 400.29 183.30 399.29
  Q 187.10 398.66 189.97 395.89
  Q 192.94 393.03 193.75 389.00
  Q 194.98 382.84 193.69 377.56
  Q 192.63 373.26 189.41 370.55
  Q 186.27 367.92 182.21 367.58
  Q 176.47 367.10 172.49 372.05
  C 172.29 372.29 171.95 372.33 171.80 372.13"
/>
<path stroke="#7e5d41" vector-effect="non-scaling-stroke" d="
  M 218.37 396.48
  Q 219.85 395.27 219.75 397.18
  Q 219.65 399.23 221.43 399.09
  Q 222.48 399.01 222.58 399.01
  Q 225.13 399.03 227.68 398.95
  C 227.94 398.94 228.12 398.70 228.04 398.46
  Q 227.65 397.21 227.24 395.97
  Q 226.75 394.47 226.71 392.94
  Q 226.52 385.16 226.32 377.38
  Q 226.23 373.55 225.18 371.84
  Q 223.57 369.22 220.18 368.35
  Q 215.39 367.14 210.49 367.59
  Q 202.78 368.31 200.17 375.72
  C 200.08 376.00 200.25 376.30 200.53 376.35
  L 206.85 377.56
  C 207.16 377.62 207.48 377.47 207.63 377.18
  Q 208.98 374.54 211.33 374.04
  Q 213.42 373.60 215.67 374.09
  Q 218.49 374.71 218.50 378.24
  C 218.50 378.63 218.24 378.97 217.86 379.08
  Q 212.43 380.60 207.55 381.71
  Q 203.49 382.62 202.06 384.06
  Q 196.97 389.19 200.94 395.38
  Q 202.87 398.38 205.75 399.00
  Q 213.30 400.63 218.37 396.48"
/>
<path stroke="#7e5d41" vector-effect="non-scaling-stroke" d="
  M 37.82 374.80
  L 47.84 374.76
  C 48.20 374.75 48.50 375.05 48.49 375.41
  L 48.33 398.18
  C 48.32 398.50 48.53 398.76 48.80 398.77
  L 55.69 398.91
  C 56.23 398.92 56.68 398.43 56.68 397.82
  L 56.57 368.52
  C 56.56 368.23 56.34 368.00 56.06 368.00
  L 29.50 368.00
  C 29.22 368.00 29.00 368.22 29.00 368.50
  L 29.00 398.50
  C 29.00 398.78 29.22 399.00 29.50 399.00
  L 36.70 399.00
  C 37.00 399.00 37.25 398.75 37.25 398.44
  L 37.31 375.31
  C 37.31 375.03 37.54 374.81 37.82 374.80"
/>
<path stroke="#7e5d41" vector-effect="non-scaling-stroke" d="
  M 147.81 374.80
  L 159.07 374.75
  C 159.58 374.74 159.99 374.35 159.98 373.86
  L 159.96 368.55
  C 159.95 368.28 159.72 368.06 159.44 368.06
  L 139.50 368.00
  C 139.22 368.00 139.00 368.22 139.00 368.50
  L 139.00 398.49
  C 139.00 398.76 139.21 398.99 139.47 398.98
  L 146.56 398.86
  C 146.84 398.85 147.07 398.61 147.07 398.32
  L 147.31 375.32
  C 147.32 375.04 147.54 374.81 147.81 374.80"
/>
<path stroke="#7e5d41" vector-effect="non-scaling-stroke" d="
  M 241.66 379.76
  L 241.76 379.75
  C 241.84 379.74 241.94 379.83 242.00 379.98
  L 248.75 398.34
  C 248.86 398.65 249.13 398.85 249.43 398.86
  L 255.45 398.97
  C 255.73 398.98 255.99 398.77 256.10 398.47
  L 263.01 379.73
  Q 263.44 378.57 263.44 379.81
  L 263.50 398.40
  C 263.50 398.70 263.73 398.95 264.01 398.95
  L 269.81 398.87
  C 270.09 398.86 270.32 398.62 270.32 398.31
  L 270.49 368.63
  C 270.50 368.28 270.21 368.00 269.86 368.00
  L 260.78 368.00
  C 260.47 368.00 260.20 368.19 260.10 368.48
  L 252.85 388.46
  Q 252.46 389.53 252.07 388.46
  L 244.86 368.54
  C 244.76 368.25 244.49 368.05 244.18 368.05
  L 235.17 368.00
  C 234.80 368.00 234.50 368.30 234.51 368.66
  L 234.68 398.31
  C 234.68 398.62 234.91 398.86 235.19 398.87
  L 240.94 398.95
  C 241.25 398.96 241.50 398.69 241.50 398.36
  L 241.56 379.92
  C 241.56 379.84 241.60 379.77 241.66 379.76"
/>
<path stroke="#fc826e" vector-effect="non-scaling-stroke" d="
  M 63.62 431.83
  Q 66.25 434.21 67.44 435.56
  Q 70.77 439.34 74.95 438.68
  Q 78.84 438.06 80.72 434.51
  Q 83.11 430.00 78.68 425.32
  Q 74.12 420.50 69.37 415.88
  Q 64.55 411.20 59.97 413.56
  Q 58.47 414.33 53.64 419.13
  Q 50.45 422.30 47.46 425.65
  Q 45.15 428.24 44.88 430.59
  Q 44.38 434.90 48.06 437.44
  Q 53.28 441.03 58.23 436.23
  Q 60.53 434.00 62.88 431.84
  C 63.09 431.65 63.41 431.64 63.62 431.83"
/>
<path stroke="#fc826e" vector-effect="non-scaling-stroke" d="
  M 63.61 468.61
  Q 65.56 470.50 67.55 472.35
  Q 69.93 474.55 72.12 475.13
  Q 77.78 476.60 80.55 471.46
  Q 81.70 469.33 81.54 467.22
  Q 81.35 464.79 79.75 463.00
  Q 76.04 458.86 69.99 453.18
  Q 66.66 450.05 64.17 449.67
  Q 60.33 449.08 57.12 452.37
  Q 53.04 456.55 48.92 460.69
  Q 45.62 464.02 45.00 466.39
  Q 43.93 470.55 47.56 473.69
  Q 52.37 477.85 57.69 473.44
  Q 59.27 472.12 62.89 468.60
  C 63.09 468.41 63.41 468.41 63.61 468.61"
/>
<path stroke="#e9a26e" vector-effect="non-scaling-stroke" d="
  M 62.52 167.50
  Q 56.32 163.29 60.29 157.10
  Q 61.87 154.64 64.47 153.91
  Q 67.00 153.19 70.00 153.50
  Q 72.54 153.76 76.25 153.31
  Q 76.76 153.25 76.42 152.87
  Q 71.70 147.54 65.49 148.22
  Q 59.77 148.85 56.14 153.35
  Q 52.54 157.81 53.90 163.87
  Q 54.79 167.86 57.31 170.45
  Q 60.14 173.36 64.25 174.00
  Q 71.12 175.07 76.16 169.96
  Q 77.38 168.73 75.64 168.74
  Q 71.09 168.78 66.92 168.73
  Q 64.29 168.69 62.52 167.50"
/>
<path stroke="#93a8b6" vector-effect="non-scaling-stroke" d="
  M 379.96 472.75
  Q 383.94 467.15 379.50 462.04"
/>
<path stroke="#93a8b6" vector-effect="non-scaling-stroke" d="
  M 379.96 442.00
  Q 383.88 436.30 379.50 431.04"
/>
<path stroke="#7b5439" vector-effect="non-scaling-stroke" d="
  M 379.25 323.46
  Q 381.15 318.85 386.53 317.91
  C 387.17 317.80 387.75 318.28 387.75 318.93
  L 387.75 330.48
  C 387.75 330.77 387.98 331.00 388.27 331.00
  L 395.34 331.00
  C 395.70 331.00 396.00 330.71 396.00 330.35
  L 395.94 300.56
  C 395.94 300.28 395.72 300.06 395.44 300.06
  L 379.50 299.96"
/>
<path stroke="#7e5d41" vector-effect="non-scaling-stroke" d="
  M 54.29 233.99
  Q 55.99 229.75 52.68 228.09
  Q 51.14 227.32 47.57 227.27
  Q 43.14 227.21 38.66 227.25
  C 38.29 227.26 38.00 227.55 38.00 227.92
  L 38.00 236.49
  C 38.00 236.76 38.22 236.99 38.48 236.98
  L 50.51 236.75
  Q 53.21 236.70 54.29 233.99"
/>
<path stroke="#7e5d41" vector-effect="non-scaling-stroke" d="
  M 55.72 252.68
  Q 57.43 248.66 54.89 246.27
  Q 53.28 244.75 49.67 244.45
  Q 44.62 244.02 38.81 244.31
  C 38.37 244.33 38.02 244.68 38.03 245.10
  L 38.15 255.06
  C 38.16 255.36 38.40 255.60 38.69 255.60
  L 51.84 255.49
  Q 54.54 255.47 55.72 252.68"
/>
<path stroke="#7e5d41" vector-effect="non-scaling-stroke" d="
  M 87.4133 257.0171
  C 91.30 256.92 94.35 252.57 94.2179 247.2980
  C 94.09 242.03 90.83 237.83 86.9467 237.9229
  C 83.06 238.02 80.01 242.37 80.1421 247.6420
  C 80.27 252.91 83.53 257.11 87.4133 257.0171"
/>
<path stroke="#7e5d41" vector-effect="non-scaling-stroke" d="
  M 125.06 238.94
  Q 117.89 235.65 115.48 243.07
  C 115.33 243.52 115.66 243.98 116.12 243.98
  L 127.07 243.84
  C 127.35 243.84 127.58 243.61 127.59 243.32
  Q 127.64 240.12 125.06 238.94"
/>
<path stroke="#7e5d41" vector-effect="non-scaling-stroke" d="
  M 195.63 244.69
  Q 198.98 245.30 203.15 244.89
  C 203.49 244.86 203.74 244.58 203.74 244.25
  L 203.70 237.81
  C 203.70 237.51 203.47 237.27 203.19 237.28
  L 194.99 237.64
  Q 193.38 237.71 192.49 239.30
  Q 191.25 241.50 192.63 243.18
  Q 193.56 244.32 195.63 244.69"
/>
<path stroke="#7e5d41" vector-effect="non-scaling-stroke" d="
  M 167.4013 324.8199
  C 171.64 324.84 175.09 320.69 175.1199 315.5502
  C 175.15 310.41 171.73 306.22 167.4987 306.2001
  C 163.26 306.18 159.81 310.33 159.7801 315.4698
  C 159.75 320.61 163.17 324.80 167.4013 324.8199"
/>
<path stroke="#7e5d41" vector-effect="non-scaling-stroke" d="
  M 278.81 306.69
  Q 272.62 304.08 269.64 310.16
  C 269.23 311.00 269.82 311.98 270.73 311.97
  L 281.06 311.85
  C 281.35 311.84 281.58 311.60 281.58 311.31
  Q 281.58 307.85 278.81 306.69"
/>
<path stroke="#7e5d41" vector-effect="non-scaling-stroke" d="
  M 48.83 306.44
  Q 43.65 304.65 38.24 305.42
  C 37.96 305.46 37.75 305.70 37.75 305.99
  L 37.75 312.34
  C 37.75 312.67 38.01 312.94 38.34 312.96
  Q 42.93 313.18 46.57 312.64
  Q 50.18 312.10 50.25 308.48
  C 50.27 307.57 49.70 306.74 48.83 306.44"
/>
<path stroke="#7e5d41" vector-effect="non-scaling-stroke" d="
  M 47.19 318.48
  Q 42.77 317.58 38.25 318.18
  C 37.96 318.22 37.75 318.47 37.75 318.76
  L 37.75 325.07
  C 37.75 325.39 37.99 325.65 38.31 325.67
  Q 44.30 326.16 49.21 324.82
  C 49.53 324.74 49.81 324.55 49.99 324.29
  Q 51.56 322.10 50.41 320.30
  Q 49.56 318.97 47.19 318.48"
/>
<path stroke="#7e5d41" vector-effect="non-scaling-stroke" d="
  M 86.08 319.02
  Q 80.69 317.24 75.04 318.22
  C 74.76 318.27 74.55 318.52 74.55 318.81
  L 74.51 324.90
  C 74.50 325.33 74.85 325.69 75.29 325.71
  Q 79.52 325.89 83.16 325.63
  Q 85.69 325.44 86.90 324.35
  Q 89.01 322.45 86.87 319.58
  C 86.68 319.33 86.41 319.13 86.08 319.02"
/>
<path stroke="#325d7e" vector-effect="non-scaling-stroke" d="
  M 304.29 301.25
  L 304.30 310.68
  C 304.30 310.97 304.53 311.20 304.81 311.20
  L 315.48 311.25
  C 315.77 311.25 316.00 311.02 315.99 310.73
  L 315.96 301.25"
/>
<path stroke="#325d7e" vector-effect="non-scaling-stroke" d="
  M 324.29 301.25
  L 324.29 327.25"
/>
<path stroke="#19547e" vector-effect="non-scaling-stroke" d="
  M 324.29 327.25
  Q 324.22 328.75 324.26 330.25
  Q 324.30 331.37 323.00 331.04"
/>
<path stroke="#325d7e" vector-effect="non-scaling-stroke" d="
  M 323.00 331.04
  L 316.52 331.01
  C 316.23 331.00 316.00 330.77 316.00 330.49
  L 316.00 318.77
  C 316.00 318.34 315.66 318.00 315.23 318.00
  L 304.81 318.00
  C 304.50 318.00 304.25 318.25 304.25 318.56
  Q 304.25 323.25 304.25 327.38
  Q 304.25 327.51 304.39 329.10
  Q 304.63 331.72 301.50 331.04"
/>
<path stroke="#797879" vector-effect="non-scaling-stroke" d="
  M 301.50 331.04
  L 296.57 330.95
  C 296.29 330.94 296.06 330.72 296.05 330.44
  L 295.96 323.50"
/>
<path stroke="#325d7e" vector-effect="non-scaling-stroke" d="
  M 295.96 319.75
  L 295.96 302.25"
/>
<path stroke="#19547e" vector-effect="non-scaling-stroke" d="
  M 340.04 301.25
  L 340.00 317.84
  Q 340.00 319.45 340.87 318.10
  L 351.71 301.25"
/>
<path stroke="#19547e" vector-effect="non-scaling-stroke" d="
  M 360.79 303.00
  L 360.79 318.00"
/>
<path stroke="#716f71" vector-effect="non-scaling-stroke" d="
  M 360.79 325.00
  L 360.77 329.80
  C 360.76 330.49 360.15 331.05 359.38 331.08
  L 354.00 331.29"
/>
<path stroke="#19547e" vector-effect="non-scaling-stroke" d="
  M 354.00 331.29
  L 353.21 331.00
  C 352.96 330.90 352.80 330.58 352.80 330.19
  L 352.93 312.46
  Q 352.94 311.20 352.26 312.24
  L 340.34 330.40
  C 340.15 330.69 339.85 330.86 339.56 330.87
  L 333.09 330.93
  C 332.52 330.94 332.05 330.44 332.05 329.82
  L 331.96 315.25"
/>
<path stroke="#325d7e" vector-effect="non-scaling-stroke" d="
  M 331.96 315.25
  L 331.96 304.50"
/>
<path stroke="#19547e" vector-effect="non-scaling-stroke" d="
  M 331.96 304.50
  L 331.96 300.75"
/>
<path stroke="#716f71" vector-effect="non-scaling-stroke" d="
  M 367.25 331.04
  Q 363.79 331.12 366.25 328.79"
/>
<path stroke="#7b5439" vector-effect="non-scaling-stroke" d="
  M 379.98 312.74
  Q 383.35 313.28 387.27 312.93
  C 387.54 312.91 387.75 312.68 387.75 312.41
  L 387.75 306.05
  C 387.75 305.63 387.42 305.29 387.00 305.28
  Q 382.85 305.16 379.43 305.74
  Q 377.55 306.06 376.67 307.25
  Q 375.33 309.07 376.50 310.83
  Q 377.50 312.33 379.98 312.74"
/>
<path stroke="#4bb0fc" vector-effect="non-scaling-stroke" d="
  M 331.96 304.50
  Q 331.06 304.67 330.62 303.90
  Q 329.95 302.71 328.69 302.29
  Q 328.20 302.13 328.07 301.89
  Q 327.84 301.47 328.25 301.04"
/>
<path stroke="#4bb0fc" vector-effect="non-scaling-stroke" d="
  M 331.96 315.25
  Q 331.24 315.67 330.19 317.69
  Q 326.81 324.17 326.25 325.50
  Q 325.57 327.11 324.29 327.25"
/>
<path stroke="#89c2ee" vector-effect="non-scaling-stroke" d="
  M 354.00 331.29
  L 347.25 345.71"
/>
<path stroke="#92cbf7" vector-effect="non-scaling-stroke" d="
  M 347.25 345.71
  Q 341.76 356.36 336.38 367.07
  Q 336.33 367.15 335.59 368.85
  Q 334.19 372.08 330.79 373.25"
/>
<path stroke="#19547e" vector-effect="non-scaling-stroke" d="
  M 330.79 373.25
  L 330.47 368.74
  C 330.45 368.45 330.25 368.21 330.00 368.17
  Q 326.40 367.66 322.81 368.23
  C 322.56 368.27 322.37 368.51 322.36 368.81
  L 322.25 371.79"
/>
<path stroke="#92cbf7" vector-effect="non-scaling-stroke" d="
  M 322.25 371.79
  Q 321.51 371.40 321.10 370.67
  Q 316.24 362.04 312.21 353.00"
/>
<path stroke="#4bb0fc" vector-effect="non-scaling-stroke" d="
  M 312.21 353.00
  Q 318.33 342.38 323.00 331.04"
/>
<path stroke="#abd4f7" vector-effect="non-scaling-stroke" d="
  M 312.21 353.00
  Q 307.22 343.14 302.19 333.31
  Q 301.44 331.86 301.50 331.04"
/>
<path stroke="#797879" vector-effect="non-scaling-stroke" d="
  M 322.25 371.79
  L 322.21 390.00"
/>
<path stroke="#eae6ea" vector-effect="non-scaling-stroke" d="
  M 322.21 390.00
  L 317.14 391.70
  Q 316.65 391.86 316.19 391.84
  L 314.54 391.75"
/>
<path stroke="#797879" vector-effect="non-scaling-stroke" d="
  M 314.54 391.75
  L 314.33 368.69
  C 314.32 368.39 314.09 368.16 313.81 368.15
  L 305.15 368.04
  C 304.63 368.03 304.16 368.38 303.97 368.90
  L 296.85 388.46
  Q 296.46 389.53 296.07 388.46
  L 288.86 368.54
  C 288.76 368.25 288.49 368.06 288.19 368.05
  L 282.00 367.96"
/>
<path stroke="#716f71" vector-effect="non-scaling-stroke" d="
  M 365.29 383.25
  L 365.25 368.55
  C 365.25 368.25 365.00 368.00 364.70 368.00
  L 357.50 368.00
  C 357.22 368.00 357.00 368.22 357.00 368.50
  L 356.96 393.50"
/>
<path stroke="#716f71" vector-effect="non-scaling-stroke" d="
  M 308.25 399.04
  L 313.93 398.95
  C 314.21 398.94 314.44 398.71 314.45 398.43
  L 314.54 391.75"
/>
<path stroke="#716f71" vector-effect="non-scaling-stroke" d="
  M 322.21 390.00
  L 322.25 398.48
  C 322.25 398.77 322.48 399.00 322.76 399.00
  Q 332.00 399.00 340.75 399.00
  Q 345.92 399.00 348.94 396.94
  Q 351.72 395.04 352.19 391.94
  Q 352.95 386.84 349.94 383.87
  Q 347.74 381.71 342.94 381.18
  Q 339.00 380.75 335.00 380.96"
/>
<path stroke="#eae6ea" vector-effect="non-scaling-stroke" d="
  M 335.00 380.96
  L 335.69 380.71
  C 335.96 380.61 336.15 380.40 336.16 380.19
  Q 336.20 379.09 337.19 377.94
  Q 346.89 366.59 348.13 350.69
  Q 348.14 350.58 348.34 349.21
  Q 348.65 347.16 347.25 345.71"
/>
<path stroke="#797879" vector-effect="non-scaling-stroke" d="
  M 335.00 380.96
  L 331.19 380.89
  C 330.90 380.88 330.66 380.64 330.62 380.31
  Q 330.19 376.77 330.79 373.25"
/>
<path stroke="#7e5d41" vector-effect="non-scaling-stroke" d="
  M 80.4136 393.0271
  C 84.30 392.93 87.35 388.58 87.2179 383.2980
  C 87.09 378.02 83.83 373.82 79.9464 373.9129
  C 76.06 374.01 73.01 378.36 73.1421 383.6420
  C 73.27 388.92 76.53 393.12 80.4136 393.0271"
/>
<path stroke="#7e5d41" vector-effect="non-scaling-stroke" d="
  M 116.4762 392.8100
  C 120.71 392.80 124.14 388.63 124.1300 383.4966
  C 124.12 378.36 120.68 374.20 116.4438 374.2100
  C 112.21 374.22 108.78 378.39 108.7900 383.5234
  C 108.80 388.66 112.24 392.82 116.4762 392.8100"
/>
<path stroke="#7e5d41" vector-effect="non-scaling-stroke" d="
  M 179.3864 393.0075
  C 183.28 392.92 186.34 388.58 186.2182 383.3101
  C 186.10 378.04 182.85 373.84 178.9536 373.9325
  C 175.06 374.02 172.00 378.36 172.1218 383.6299
  C 172.24 388.90 175.49 393.10 179.3864 393.0075"
/>
<path stroke="#7e5d41" vector-effect="non-scaling-stroke" d="
  M 210.18 393.14
  Q 219.37 394.37 218.49 384.82
  C 218.46 384.55 218.21 384.35 217.95 384.40
  Q 215.39 384.90 212.84 385.50
  Q 209.85 386.21 208.57 387.29
  Q 205.79 389.63 209.31 392.74
  C 209.55 392.96 209.85 393.09 210.18 393.14"
/>
<path stroke="#797879" vector-effect="non-scaling-stroke" d="
  M 307.21 398.50
  L 307.50 380.44
  Q 307.53 378.28 306.78 380.32
  L 301.21 395.50"
/>
<path stroke="#716f71" vector-effect="non-scaling-stroke" d="
  M 342.09 387.03
  Q 336.77 385.36 331.19 386.11
  C 330.87 386.16 330.64 386.40 330.63 386.68
  L 330.56 392.72
  C 330.55 393.24 331.00 393.68 331.56 393.70
  Q 335.72 393.87 339.17 393.62
  Q 341.72 393.44 342.90 392.36
  Q 344.92 390.50 342.86 387.59
  C 342.68 387.33 342.41 387.13 342.09 387.03"
/>
</g>
<path fill="#fee265" d="
  M 368.81 0.00
  Q 376.81 0.00 384.81 0.00
  Q 392.97 0.72 401.00 2.29
  Q 401.01 3.22 402.19 4.06
  Q 428.64 22.86 442.50 53.75
  Q 443.87 56.81 444.00 58.21
  Q 423.49 38.37 395.50 32.46
  Q 352.43 25.15 319.40 50.06
  Q 311.41 56.08 304.81 63.70
  Q 278.89 93.62 281.85 133.82
  Q 282.61 144.05 285.47 153.44
  Q 295.05 184.80 322.50 204.29
  Q 347.18 221.46 377.50 221.54
  Q 374.71 222.25 372.05 223.30
  Q 367.80 224.99 366.73 225.33
  Q 338.11 234.40 308.25 229.87
  Q 308.14 229.85 306.85 229.36
  Q 305.99 229.04 305.21 229.75
  Q 277.55 210.76 263.06 180.47
  Q 262.81 179.95 262.25 179.96
  Q 262.30 178.86 261.56 177.19
  Q 246.29 142.23 252.46 103.75
  Q 260.78 60.43 292.69 31.94
  Q 324.65 3.39 368.81 0.00
  Z"
/>
<path fill="#fdd330" d="
  M 401.00 2.29
  Q 424.59 6.71 444.31 19.44
  Q 478.16 41.28 493.42 77.95
  Q 497.25 87.13 499.52 96.96
  Q 508.97 137.84 492.46 176.15
  Q 488.50 185.35 483.08 193.78
  Q 459.42 230.55 417.21 245.75
  Q 415.64 245.91 414.17 246.42
  Q 411.56 247.32 411.26 247.40
  Q 353.99 262.43 305.21 229.75
  Q 305.99 229.04 306.85 229.36
  Q 308.14 229.85 308.25 229.87
  Q 338.11 234.40 366.73 225.33
  Q 367.80 224.99 372.05 223.30
  Q 374.71 222.25 377.50 221.54
  Q 408.91 220.90 432.94 203.19
  Q 461.47 182.16 469.62 147.83
  Q 471.93 138.12 472.06 128.02
  Q 472.57 87.73 444.00 58.21
  Q 443.87 56.81 442.50 53.75
  Q 428.64 22.86 402.19 4.06
  Q 401.01 3.22 401.00 2.29
  Z"
/>
<path fill="#f2eff2" d="
  M 395.50 32.46
  Q 394.97 32.88 395.48 33.26
  Q 413.32 46.26 423.81 65.69
  Q 424.74 67.39 424.75 68.21
  Q 420.70 70.47 417.93 74.07
  Q 416.26 76.25 416.04 78.44
  Q 415.77 81.18 417.21 83.32
  Q 419.11 86.16 422.78 86.60
  Q 427.36 87.15 430.75 82.96
  Q 437.33 104.23 434.00 124.50
  Q 426.51 170.05 386.20 193.70
  Q 385.42 194.16 384.54 194.25
  Q 384.57 185.75 377.74 184.97
  Q 374.11 184.56 371.70 186.60
  Q 369.02 188.86 368.93 193.00
  Q 368.84 196.76 369.50 200.46
  Q 369.31 200.59 369.24 200.79
  C 369.13 201.06 368.97 201.25 368.81 201.30
  Q 348.22 207.60 326.84 204.89
  Q 326.63 204.87 324.73 204.33
  Q 323.64 204.03 322.50 204.29
  Q 295.05 184.80 285.47 153.44
  Q 282.61 144.05 281.85 133.82
  Q 278.89 93.62 304.81 63.70
  Q 311.41 56.08 319.40 50.06
  Q 352.43 25.15 395.50 32.46
  Z
  M 384.2105 54.1363
  C 384.22 50.27 381.10 47.13 377.2350 47.1119
  L 376.1550 47.1082
  C 372.29 47.09 369.14 50.22 369.1306 54.0837
  L 369.1095 60.1437
  C 369.10 64.01 372.22 67.15 376.0850 67.1681
  L 377.1650 67.1718
  C 381.03 67.19 384.18 64.06 384.1894 60.1963
  L 384.2105 54.1363
  Z
  M 331.3534 69.8541
  C 328.56 67.05 324.02 67.04 321.2135 69.8364
  L 320.5902 70.4576
  C 317.79 73.25 317.78 77.79 320.5725 80.5975
  L 324.6666 84.7059
  C 327.46 87.51 332.00 87.52 334.8065 84.7236
  L 335.4298 84.1024
  C 338.23 81.31 338.24 76.77 335.4475 73.9625
  L 331.3534 69.8541
  Z
  M 384.27 121.75
  Q 384.85 103.15 384.29 84.55
  Q 384.17 80.47 382.77 78.41
  Q 380.25 74.70 375.62 75.49
  Q 372.36 76.06 370.70 78.34
  Q 369.00 80.68 369.00 84.25
  Q 369.00 104.75 369.06 125.25
  Q 369.07 129.54 372.02 132.32
  Q 373.91 134.10 373.99 134.18
  Q 383.32 144.21 385.75 145.75
  Q 389.90 148.37 393.69 146.19
  Q 398.51 143.41 397.68 138.59
  Q 397.26 136.17 394.51 133.21
  Q 389.58 127.88 384.59 122.61
  C 384.37 122.38 384.26 122.07 384.27 121.75
  Z
  M 317.86 125.44
  C 317.86 121.55 314.70 118.39 310.81 118.39
  L 304.91 118.39
  C 301.02 118.39 297.86 121.55 297.86 125.44
  L 297.86 126.56
  C 297.86 130.45 301.02 133.61 304.91 133.61
  L 310.81 133.61
  C 314.70 133.61 317.86 130.45 317.86 126.56
  L 317.86 125.44
  Z
  M 335.4475 178.0234
  C 338.24 175.22 338.23 170.69 335.4298 167.8976
  L 334.8065 167.2764
  C 332.01 164.49 327.47 164.49 324.6807 167.2941
  L 320.5725 171.4166
  C 317.78 174.22 317.79 178.75 320.5902 181.5424
  L 321.2135 182.1636
  C 324.01 184.95 328.55 184.95 331.3393 182.1459
  L 335.4475 178.0234
  Z"
/>
<path fill="#b5dbfd" d="
  M 395.50 32.46
  Q 423.49 38.37 444.00 58.21
  Q 472.57 87.73 472.06 128.02
  Q 471.93 138.12 469.62 147.83
  Q 461.47 182.16 432.94 203.19
  Q 408.91 220.90 377.50 221.54
  Q 347.18 221.46 322.50 204.29
  Q 323.64 204.03 324.73 204.33
  Q 326.63 204.87 326.84 204.89
  Q 348.22 207.60 368.81 201.30
  C 368.97 201.25 369.13 201.06 369.24 200.79
  Q 369.31 200.59 369.50 200.46
  Q 372.22 205.06 376.67 204.93
  Q 380.52 204.81 382.82 201.73
  Q 385.08 198.70 384.54 194.25
  Q 385.42 194.16 386.20 193.70
  Q 426.51 170.05 434.00 124.50
  Q 437.33 104.23 430.75 82.96
  Q 434.62 79.96 434.68 75.70
  Q 434.73 71.93 432.05 69.64
  Q 429.19 67.21 424.75 68.21
  Q 424.74 67.39 423.81 65.69
  Q 413.32 46.26 395.48 33.26
  Q 394.97 32.88 395.50 32.46
  Z
  M 455.59 125.44
  C 455.59 121.55 452.43 118.39 448.54 118.39
  L 442.64 118.39
  C 438.75 118.39 435.59 121.55 435.59 125.44
  L 435.59 126.56
  C 435.59 130.45 438.75 133.61 442.64 133.61
  L 448.54 133.61
  C 452.43 133.61 455.59 130.45 455.59 126.56
  L 455.59 125.44
  Z
  M 428.8010 167.2596
  C 426.04 164.43 421.50 164.37 418.6619 167.1357
  L 418.0321 167.7503
  C 415.20 170.52 415.14 175.06 417.9082 177.8894
  L 421.9590 182.0404
  C 424.72 184.87 429.26 184.93 432.0981 182.1643
  L 432.7279 181.5497
  C 435.56 178.78 435.62 174.24 432.8518 171.4106
  L 428.8010 167.2596
  Z"
/>
<rect fill="#918291" x="-7.54" y="-10.03" transform="translate(376.66,57.14) rotate(0.2)" width="15.08" height="20.06" rx="7.00"/>
<path fill="#918291" d="
  M 430.75 82.96
  Q 427.36 87.15 422.78 86.60
  Q 419.11 86.16 417.21 83.32
  Q 415.77 81.18 416.04 78.44
  Q 416.26 76.25 417.93 74.07
  Q 420.70 70.47 424.75 68.21
  Q 429.19 67.21 432.05 69.64
  Q 434.73 71.93 434.68 75.70
  Q 434.62 79.96 430.75 82.96
  Z"
/>
<rect fill="#918291" x="-7.61" y="-10.07" transform="translate(328.01,77.28) rotate(-44.9)" width="15.22" height="20.14" rx="7.17"/>
<path fill="#fb4a59" d="
  M 384.59 122.61
  Q 389.58 127.88 394.51 133.21
  Q 397.26 136.17 397.68 138.59
  Q 398.51 143.41 393.69 146.19
  Q 389.90 148.37 385.75 145.75
  Q 383.32 144.21 373.99 134.18
  Q 373.91 134.10 372.02 132.32
  Q 369.07 129.54 369.06 125.25
  Q 369.00 104.75 369.00 84.25
  Q 369.00 80.68 370.70 78.34
  Q 372.36 76.06 375.62 75.49
  Q 380.25 74.70 382.77 78.41
  Q 384.17 80.47 384.29 84.55
  Q 384.85 103.15 384.27 121.75
  C 384.26 122.07 384.37 122.38 384.59 122.61
  Z"
/>
<path fill="#b5dbfd" d="
  M 252.46 103.75
  Q 246.29 142.23 261.56 177.19
  Q 262.30 178.86 262.25 179.96
  Q 261.73 193.96 262.00 203.50
  Q 262.09 206.82 261.54 209.00
  Q 260.09 213.17 256.71 215.27
  Q 254.36 216.73 249.47 216.88
  Q 235.61 217.28 221.75 216.79
  Q 229.75 213.12 229.75 205.00
  Q 229.75 156.13 229.75 107.25
  Q 229.75 106.86 229.50 106.32
  Q 229.03 105.29 229.75 104.29
  L 252.46 103.75
  Z"
/>
<path fill="#fcb982" d="
  M 164.75 104.29
  Q 164.25 107.08 164.25 111.50
  Q 164.19 170.77 164.47 204.62
  Q 164.51 208.55 165.59 210.68
  Q 167.13 213.69 170.02 215.32
  Q 172.44 216.69 177.38 216.70
  Q 199.56 216.77 221.75 216.79
  Q 235.61 217.28 249.47 216.88
  Q 254.36 216.73 256.71 215.27
  Q 260.09 213.17 261.54 209.00
  L 262.52 209.29
  C 262.73 209.35 262.90 209.66 262.94 210.06
  Q 263.04 211.00 263.81 212.44
  Q 270.49 224.92 276.09 232.19
  Q 306.39 271.57 354.71 280.73
  Q 364.85 282.65 367.41 283.88
  Q 376.01 287.99 379.17 297.96
  Q 379.20 298.07 379.65 298.82
  Q 379.97 299.35 379.50 299.96
  Q 377.38 300.08 375.28 300.41
  Q 366.56 301.79 367.75 310.75
  Q 368.47 316.18 374.19 317.23
  Q 374.68 317.32 374.34 317.68
  Q 369.68 322.77 366.25 328.79
  Q 364.89 329.04 364.31 328.19
  Q 362.77 325.93 360.79 325.00
  L 360.79 318.00
  Q 361.95 316.24 362.87 314.34
  Q 366.10 307.72 360.79 303.00
  L 360.66 300.69
  C 360.64 300.40 360.39 300.16 360.07 300.13
  Q 358.08 299.92 356.08 299.97
  Q 355.98 299.97 354.44 299.88
  Q 352.68 299.77 351.71 301.25
  L 340.04 301.25
  Q 340.26 300.11 339.25 300.08
  Q 336.25 300.00 333.25 299.94
  Q 332.35 299.93 331.96 300.75
  L 328.25 301.04
  L 324.29 301.25
  Q 324.51 300.11 323.50 300.08
  Q 320.50 300.00 317.50 300.00
  Q 315.83 300.00 315.96 301.25
  L 304.29 301.25
  Q 304.52 300.06 303.50 300.00
  Q 301.84 299.90 296.57 300.05
  C 296.28 300.06 296.04 300.28 296.03 300.56
  L 295.96 302.25
  Q 290.88 305.11 291.50 310.25
  Q 292.04 314.79 295.96 319.75
  L 295.96 323.50
  Q 295.25 323.44 294.91 323.95
  Q 294.57 324.44 294.51 324.50
  Q 278.69 341.50 281.91 364.86
  Q 281.92 364.94 282.25 366.10
  Q 282.52 367.03 282.00 367.96
  L 279.06 368.04
  C 278.78 368.05 278.55 368.28 278.55 368.56
  L 278.67 398.31
  C 278.68 398.61 278.91 398.85 279.19 398.86
  L 284.94 398.97
  C 285.21 398.98 285.44 398.73 285.44 398.43
  L 285.50 380.48
  Q 285.51 378.41 286.20 380.36
  L 292.53 398.08
  C 292.72 398.60 293.19 398.95 293.69 398.94
  L 299.31 398.87
  C 299.62 398.87 299.90 398.67 300.03 398.36
  L 301.21 395.50
  L 307.21 398.50
  Q 307.51 399.12 308.25 399.04
  Q 308.09 399.55 308.51 399.71
  Q 334.69 410.05 356.96 393.50
  L 357.05 398.44
  C 357.06 398.72 357.28 398.95 357.56 398.95
  L 364.70 399.00
  C 365.00 399.00 365.25 398.75 365.25 398.44
  L 365.29 383.25
  Q 366.71 382.98 367.69 381.19
  Q 380.30 358.00 368.85 334.89
  Q 368.84 334.86 367.83 333.36
  Q 367.15 332.35 367.25 331.04
  L 374.06 330.85
  C 374.35 330.84 374.63 330.67 374.81 330.39
  L 379.25 323.46
  Q 380.00 323.76 380.00 325.25
  Q 380.00 378.00 380.00 430.75
  Q 380.00 431.12 379.50 431.04
  Q 376.03 428.73 371.88 428.91
  Q 369.71 429.00 369.61 429.00
  Q 347.68 429.00 325.75 429.00
  Q 320.90 429.00 318.86 429.85
  Q 314.79 431.57 314.54 436.15
  Q 314.35 439.59 316.37 441.90
  Q 318.62 444.50 322.50 444.50
  Q 347.87 444.50 373.25 444.53
  Q 377.11 444.53 379.96 442.00
  Q 380.08 451.59 379.94 461.19
  Q 379.94 461.47 379.82 461.66
  Q 379.69 461.87 379.50 462.04
  Q 377.10 460.00 373.50 460.00
  Q 284.57 460.00 195.64 460.00
  Q 191.84 460.00 190.01 460.89
  Q 187.00 462.35 186.11 465.54
  Q 185.21 468.83 186.87 471.78
  Q 188.79 475.19 193.00 475.25
  Q 245.28 476.03 343.75 475.31
  Q 348.58 475.27 359.75 475.55
  Q 369.47 475.79 375.75 475.25
  Q 377.74 475.08 379.96 472.75
  Q 380.03 485.87 380.22 499.00
  Q 380.29 503.96 377.43 507.93
  Q 376.45 509.29 374.92 509.80
  C 374.64 509.89 374.43 510.13 374.34 510.43
  Q 374.03 511.54 372.94 512.00
  Q 196.19 512.00 19.44 512.00
  Q 9.25 509.97 9.25 499.00
  Q 9.25 307.63 9.25 116.25
  Q 9.25 109.27 14.40 106.16
  Q 17.20 104.47 22.94 104.35
  Q 27.30 104.25 34.00 104.25
  Q 99.37 104.22 164.75 104.29
  Z
  M 93.91 152.95
  Q 90.11 141.47 79.94 136.06
  Q 67.22 129.30 53.82 135.89
  Q 43.57 140.92 39.75 151.71
  Q 36.31 161.41 39.50 170.25
  Q 43.65 181.77 53.71 186.61
  Q 62.96 191.06 73.18 188.70
  Q 87.10 185.47 93.64 170.08
  C 93.99 169.27 94.78 168.75 95.65 168.75
  Q 107.71 168.75 118.76 168.75
  Q 118.85 168.75 120.73 168.83
  Q 124.13 168.97 126.19 167.19
  Q 131.03 163.00 128.15 157.64
  Q 127.10 155.68 125.51 154.66
  Q 123.68 153.49 121.50 153.50
  Q 108.04 153.55 94.57 153.44
  C 94.27 153.44 94.01 153.24 93.91 152.95
  Z
  M 128.9092 183.9880
  C 128.90 180.03 125.69 176.82 121.7267 176.8305
  L 110.8467 176.8495
  C 106.89 176.86 103.68 180.07 103.6892 184.0320
  L 103.6908 184.9520
  C 103.70 188.91 106.91 192.12 110.8733 192.1095
  L 121.7533 192.0905
  C 125.71 192.08 128.92 188.87 128.9108 184.9080
  L 128.9092 183.9880
  Z
  M 57.88 239.64
  Q 61.82 237.50 62.88 233.46
  Q 63.83 229.79 61.96 226.24
  Q 58.81 220.27 50.56 220.19
  Q 34.38 220.02 29.94 220.17
  C 29.66 220.18 29.44 220.41 29.44 220.69
  L 29.50 262.46
  C 29.50 262.75 29.73 262.98 30.01 262.99
  Q 40.73 263.14 50.76 262.87
  Q 56.05 262.73 58.56 261.57
  Q 62.65 259.67 64.28 255.49
  Q 66.03 251.02 64.72 246.94
  Q 63.26 242.41 57.93 240.38
  Q 57.10 240.06 57.88 239.64
  Z
  M 80.69 259.65
  Q 87.39 265.65 94.32 262.29
  Q 98.54 260.25 100.48 256.05
  Q 102.29 252.16 102.25 247.00
  Q 102.20 240.76 99.16 236.62
  Q 95.88 232.16 90.50 231.62
  Q 84.74 231.04 80.19 236.20
  Q 79.72 236.73 79.71 235.99
  L 79.65 232.69
  C 79.64 232.38 79.39 232.14 79.07 232.13
  L 73.03 232.06
  C 72.46 232.05 72.00 232.54 72.00 233.15
  L 72.00 274.57
  C 72.00 274.95 72.30 275.25 72.68 275.25
  L 79.75 275.25
  C 80.03 275.25 80.25 275.03 80.25 274.75
  L 80.30 259.81
  Q 80.31 259.32 80.69 259.65
  Z
  M 116.05 249.06
  L 135.25 249.00
  C 135.53 249.00 135.76 248.78 135.78 248.50
  Q 136.51 235.85 126.58 232.56
  Q 120.59 230.57 115.46 232.69
  Q 109.65 235.10 107.69 242.19
  Q 105.58 249.77 108.80 255.95
  Q 111.29 260.71 116.06 262.50
  Q 120.95 264.35 126.54 262.75
  Q 132.90 260.93 135.30 254.62
  C 135.40 254.36 135.24 254.08 134.97 254.03
  L 128.00 252.81
  C 127.71 252.76 127.42 252.92 127.28 253.19
  Q 123.30 260.87 116.81 254.44
  Q 115.31 252.95 115.52 249.56
  C 115.54 249.28 115.77 249.06 116.05 249.06
  Z
  M 148.66 243.76
  L 148.76 243.75
  C 148.85 243.74 148.95 243.84 149.00 243.99
  L 155.66 262.43
  C 155.78 262.77 156.10 263.00 156.46 263.00
  L 162.37 263.00
  C 162.68 263.00 162.95 262.80 163.06 262.51
  L 170.01 243.73
  Q 170.44 242.57 170.44 243.81
  L 170.50 262.40
  C 170.50 262.70 170.73 262.95 171.01 262.95
  L 176.81 262.87
  C 177.09 262.86 177.32 262.62 177.32 262.31
  L 177.49 232.63
  C 177.50 232.28 177.21 232.00 176.86 232.00
  L 167.78 232.00
  C 167.47 232.00 167.20 232.19 167.10 232.48
  L 159.80 252.58
  Q 159.41 253.66 159.02 252.57
  L 151.86 232.52
  C 151.76 232.24 151.49 232.05 151.18 232.05
  L 142.17 232.00
  C 141.80 232.00 141.50 232.30 141.51 232.66
  L 141.68 262.31
  C 141.68 262.62 141.91 262.86 142.19 262.87
  L 147.94 262.95
  C 148.25 262.96 148.50 262.69 148.50 262.36
  L 148.56 243.92
  C 148.56 243.84 148.60 243.77 148.66 243.76
  Z
  M 190.35 249.68
  Q 185.20 255.44 181.24 262.55
  C 181.12 262.75 181.27 263.00 181.50 263.00
  L 189.97 263.00
  C 190.38 263.00 190.76 262.77 190.96 262.40
  Q 193.71 257.22 197.29 252.53
  Q 199.58 249.52 203.20 250.20
  C 203.49 250.26 203.69 250.52 203.70 250.82
  L 203.74 262.32
  C 203.74 262.70 204.04 263.00 204.41 263.00
  L 211.48 263.00
  C 211.77 263.00 212.00 262.77 212.00 262.48
  L 212.00 232.74
  C 212.00 232.46 211.79 232.24 211.51 232.22
  Q 202.39 231.61 193.29 232.22
  Q 188.61 232.53 186.57 234.06
  Q 183.39 236.44 183.56 241.19
  Q 183.81 247.87 190.19 249.22
  C 190.41 249.26 190.50 249.52 190.35 249.68
  Z
  M 182.7978 310.5331
  C 180.06 302.06 170.96 297.41 162.4623 300.1508
  C 153.97 302.89 149.30 311.99 152.0422 320.4669
  C 154.78 328.94 163.88 333.59 172.3777 330.8492
  C 180.87 328.11 185.54 319.01 182.7978 310.5331
  Z
  M 269.33 317.95
  C 269.30 317.43 269.72 317.00 270.24 317.00
  L 289.44 316.94
  C 289.72 316.94 289.94 316.72 289.94 316.44
  Q 289.94 312.33 289.19 309.56
  Q 287.05 301.74 278.79 300.03
  Q 270.20 298.25 265.14 303.80
  Q 262.55 306.64 261.51 310.85
  Q 260.51 314.92 261.21 318.98
  Q 262.27 325.09 266.31 328.34
  Q 270.64 331.81 277.56 331.31
  Q 285.78 330.72 289.27 322.62
  C 289.39 322.35 289.22 322.05 288.93 321.99
  L 282.21 320.72
  C 281.69 320.62 281.18 320.92 281.03 321.42
  Q 280.39 323.48 278.69 324.53
  Q 277.22 325.44 275.17 325.04
  Q 269.69 323.97 269.33 317.95
  Z
  M 54.13 314.91
  Q 58.85 312.69 58.34 306.99
  Q 58.04 303.62 55.69 302.06
  Q 52.50 299.95 47.75 299.97
  Q 38.75 300.00 30.01 300.00
  C 29.73 300.00 29.50 300.23 29.50 300.52
  L 29.44 330.32
  C 29.44 330.59 29.66 330.82 29.93 330.83
  Q 45.38 331.51 52.25 330.75
  Q 57.07 330.22 58.74 326.23
  Q 60.04 323.14 58.98 320.23
  Q 57.83 317.07 54.16 315.72
  Q 53.18 315.36 54.13 314.91
  Z
  M 92.75 315.03
  Q 89.61 312.91 85.75 313.01
  Q 80.46 313.14 75.18 312.84
  C 74.89 312.82 74.66 312.59 74.66 312.31
  L 74.52 300.68
  C 74.51 300.30 74.22 300.00 73.86 300.00
  L 66.99 300.00
  C 66.70 300.00 66.46 300.23 66.46 300.52
  L 66.31 330.45
  C 66.30 330.72 66.53 330.94 66.80 330.94
  Q 75.53 331.04 84.25 330.97
  Q 86.94 330.95 89.56 330.33
  Q 96.67 328.65 96.25 321.25
  Q 96.02 317.24 92.75 315.03
  Z
  M 109.26 300.26
  C 109.26 300.12 109.14 300.00 109.00 300.00
  L 101.26 300.00
  C 101.12 300.00 101.00 300.12 101.00 300.26
  L 101.00 330.74
  C 101.00 330.88 101.12 331.00 101.26 331.00
  L 109.00 331.00
  C 109.14 331.00 109.26 330.88 109.26 330.74
  L 109.26 300.26
  Z
  M 125.81 306.80
  L 135.94 306.80
  C 136.21 306.80 136.43 307.02 136.43 307.30
  L 136.43 330.31
  C 136.43 330.61 136.65 330.85 136.93 330.86
  L 143.80 330.97
  C 144.29 330.98 144.69 330.55 144.68 330.02
  L 144.51 300.60
  C 144.50 300.27 144.24 300.00 143.91 300.00
  L 117.52 300.00
  C 117.23 300.00 117.00 300.23 117.00 300.51
  L 117.06 330.44
  C 117.06 330.73 117.28 330.97 117.56 330.97
  L 124.56 330.86
  C 124.84 330.85 125.07 330.61 125.07 330.32
  L 125.31 307.32
  C 125.32 307.03 125.54 306.80 125.81 306.80
  Z
  M 200.32 306.80
  L 210.30 306.76
  C 210.68 306.75 211.00 307.07 211.00 307.46
  L 210.94 330.49
  C 210.93 330.77 211.16 331.00 211.44 331.00
  L 218.45 331.00
  C 218.75 331.00 219.00 330.75 219.00 330.44
  L 219.06 300.51
  C 219.06 300.23 218.83 300.00 218.55 300.00
  L 192.00 300.00
  C 191.72 300.00 191.50 300.22 191.50 300.50
  Q 191.50 309.77 191.50 319.05
  Q 191.50 319.13 191.59 320.94
  Q 191.83 325.96 186.48 325.09
  C 186.20 325.04 185.94 325.23 185.93 325.49
  L 185.77 330.45
  C 185.76 330.73 185.98 330.98 186.30 331.04
  Q 191.58 332.13 194.69 331.19
  Q 199.24 329.81 199.49 324.00
  Q 199.84 315.66 199.81 307.32
  C 199.81 307.04 200.04 306.81 200.32 306.80
  Z
  M 235.80 318.05
  L 246.45 318.00
  C 246.75 318.00 247.00 318.25 247.00 318.56
  L 247.00 330.48
  C 247.00 330.77 247.23 331.00 247.52 331.00
  L 254.73 331.00
  C 255.02 331.00 255.25 330.77 255.25 330.49
  L 255.19 300.56
  C 255.19 300.27 254.96 300.04 254.68 300.04
  L 247.57 300.05
  C 247.28 300.05 247.05 300.28 247.05 300.56
  L 247.00 310.74
  C 247.00 311.02 246.77 311.25 246.49 311.25
  L 235.79 311.25
  C 235.49 311.25 235.25 311.01 235.24 310.70
  L 235.20 300.57
  C 235.19 300.28 234.96 300.04 234.68 300.04
  L 227.57 300.05
  C 227.29 300.05 227.06 300.28 227.06 300.56
  L 227.06 330.43
  C 227.06 330.72 227.28 330.95 227.56 330.95
  L 234.74 331.00
  C 235.02 331.00 235.25 330.77 235.25 330.48
  L 235.30 318.56
  C 235.31 318.28 235.53 318.06 235.80 318.05
  Z
  M 72.96 371.80
  Q 72.40 371.49 72.75 370.50
  Q 73.62 368.00 71.50 368.00
  L 65.50 368.00
  C 65.22 368.00 65.00 368.22 65.00 368.50
  L 65.00 410.59
  C 65.00 410.95 65.30 411.25 65.66 411.25
  L 72.73 411.25
  C 73.02 411.25 73.25 411.02 73.25 410.73
  L 73.25 396.23
  Q 73.25 394.85 74.22 395.84
  Q 77.53 399.25 81.81 399.45
  Q 85.69 399.62 89.27 397.16
  Q 93.27 394.41 94.61 389.68
  Q 95.65 385.96 95.37 381.27
  Q 95.08 376.46 92.69 373.06
  Q 88.91 367.70 82.75 367.50
  Q 77.38 367.32 73.76 371.55
  C 73.52 371.82 73.19 371.93 72.96 371.80
  Z
  M 131.7715 378.4527
  C 128.99 369.99 119.86 365.39 111.3820 368.1770
  C 102.90 370.96 98.29 380.08 101.0685 388.5473
  C 103.85 397.01 112.98 401.61 121.4580 398.8230
  C 129.94 396.04 134.55 386.92 131.7715 378.4527
  Z
  M 171.80 372.13
  Q 171.49 371.72 171.69 370.98
  Q 172.54 367.71 169.99 367.85
  Q 168.23 367.94 167.98 367.94
  Q 166.25 367.88 164.56 368.21
  C 164.27 368.27 164.06 368.52 164.06 368.80
  L 164.00 410.58
  C 164.00 410.95 164.30 411.25 164.68 411.25
  L 171.69 411.25
  C 172.00 411.25 172.25 411.00 172.25 410.69
  L 172.25 395.48
  Q 172.25 394.84 172.69 395.31
  Q 177.33 400.29 183.30 399.29
  Q 187.10 398.66 189.97 395.89
  Q 192.94 393.03 193.75 389.00
  Q 194.98 382.84 193.69 377.56
  Q 192.63 373.26 189.41 370.55
  Q 186.27 367.92 182.21 367.58
  Q 176.47 367.10 172.49 372.05
  C 172.29 372.29 171.95 372.33 171.80 372.13
  Z
  M 218.37 396.48
  Q 219.85 395.27 219.75 397.18
  Q 219.65 399.23 221.43 399.09
  Q 222.48 399.01 222.58 399.01
  Q 225.13 399.03 227.68 398.95
  C 227.94 398.94 228.12 398.70 228.04 398.46
  Q 227.65 397.21 227.24 395.97
  Q 226.75 394.47 226.71 392.94
  Q 226.52 385.16 226.32 377.38
  Q 226.23 373.55 225.18 371.84
  Q 223.57 369.22 220.18 368.35
  Q 215.39 367.14 210.49 367.59
  Q 202.78 368.31 200.17 375.72
  C 200.08 376.00 200.25 376.30 200.53 376.35
  L 206.85 377.56
  C 207.16 377.62 207.48 377.47 207.63 377.18
  Q 208.98 374.54 211.33 374.04
  Q 213.42 373.60 215.67 374.09
  Q 218.49 374.71 218.50 378.24
  C 218.50 378.63 218.24 378.97 217.86 379.08
  Q 212.43 380.60 207.55 381.71
  Q 203.49 382.62 202.06 384.06
  Q 196.97 389.19 200.94 395.38
  Q 202.87 398.38 205.75 399.00
  Q 213.30 400.63 218.37 396.48
  Z
  M 37.82 374.80
  L 47.84 374.76
  C 48.20 374.75 48.50 375.05 48.49 375.41
  L 48.33 398.18
  C 48.32 398.50 48.53 398.76 48.80 398.77
  L 55.69 398.91
  C 56.23 398.92 56.68 398.43 56.68 397.82
  L 56.57 368.52
  C 56.56 368.23 56.34 368.00 56.06 368.00
  L 29.50 368.00
  C 29.22 368.00 29.00 368.22 29.00 368.50
  L 29.00 398.50
  C 29.00 398.78 29.22 399.00 29.50 399.00
  L 36.70 399.00
  C 37.00 399.00 37.25 398.75 37.25 398.44
  L 37.31 375.31
  C 37.31 375.03 37.54 374.81 37.82 374.80
  Z
  M 147.81 374.80
  L 159.07 374.75
  C 159.58 374.74 159.99 374.35 159.98 373.86
  L 159.96 368.55
  C 159.95 368.28 159.72 368.06 159.44 368.06
  L 139.50 368.00
  C 139.22 368.00 139.00 368.22 139.00 368.50
  L 139.00 398.49
  C 139.00 398.76 139.21 398.99 139.47 398.98
  L 146.56 398.86
  C 146.84 398.85 147.07 398.61 147.07 398.32
  L 147.31 375.32
  C 147.32 375.04 147.54 374.81 147.81 374.80
  Z
  M 241.66 379.76
  L 241.76 379.75
  C 241.84 379.74 241.94 379.83 242.00 379.98
  L 248.75 398.34
  C 248.86 398.65 249.13 398.85 249.43 398.86
  L 255.45 398.97
  C 255.73 398.98 255.99 398.77 256.10 398.47
  L 263.01 379.73
  Q 263.44 378.57 263.44 379.81
  L 263.50 398.40
  C 263.50 398.70 263.73 398.95 264.01 398.95
  L 269.81 398.87
  C 270.09 398.86 270.32 398.62 270.32 398.31
  L 270.49 368.63
  C 270.50 368.28 270.21 368.00 269.86 368.00
  L 260.78 368.00
  C 260.47 368.00 260.20 368.19 260.10 368.48
  L 252.85 388.46
  Q 252.46 389.53 252.07 388.46
  L 244.86 368.54
  C 244.76 368.25 244.49 368.05 244.18 368.05
  L 235.17 368.00
  C 234.80 368.00 234.50 368.30 234.51 368.66
  L 234.68 398.31
  C 234.68 398.62 234.91 398.86 235.19 398.87
  L 240.94 398.95
  C 241.25 398.96 241.50 398.69 241.50 398.36
  L 241.56 379.92
  C 241.56 379.84 241.60 379.77 241.66 379.76
  Z
  M 63.62 431.83
  Q 66.25 434.21 67.44 435.56
  Q 70.77 439.34 74.95 438.68
  Q 78.84 438.06 80.72 434.51
  Q 83.11 430.00 78.68 425.32
  Q 74.12 420.50 69.37 415.88
  Q 64.55 411.20 59.97 413.56
  Q 58.47 414.33 53.64 419.13
  Q 50.45 422.30 47.46 425.65
  Q 45.15 428.24 44.88 430.59
  Q 44.38 434.90 48.06 437.44
  Q 53.28 441.03 58.23 436.23
  Q 60.53 434.00 62.88 431.84
  C 63.09 431.65 63.41 431.64 63.62 431.83
  Z
  M 63.61 468.61
  Q 65.56 470.50 67.55 472.35
  Q 69.93 474.55 72.12 475.13
  Q 77.78 476.60 80.55 471.46
  Q 81.70 469.33 81.54 467.22
  Q 81.35 464.79 79.75 463.00
  Q 76.04 458.86 69.99 453.18
  Q 66.66 450.05 64.17 449.67
  Q 60.33 449.08 57.12 452.37
  Q 53.04 456.55 48.92 460.69
  Q 45.62 464.02 45.00 466.39
  Q 43.93 470.55 47.56 473.69
  Q 52.37 477.85 57.69 473.44
  Q 59.27 472.12 62.89 468.60
  C 63.09 468.41 63.41 468.41 63.61 468.61
  Z"
/>
<path fill="#d9ecfd" d="
  M 164.75 104.29
  L 229.75 104.29
  Q 229.03 105.29 229.50 106.32
  Q 229.75 106.86 229.75 107.25
  Q 229.75 156.13 229.75 205.00
  Q 229.75 213.12 221.75 216.79
  Q 199.56 216.77 177.38 216.70
  Q 172.44 216.69 170.02 215.32
  Q 167.13 213.69 165.59 210.68
  Q 164.51 208.55 164.47 204.62
  Q 164.19 170.77 164.25 111.50
  Q 164.25 107.08 164.75 104.29
  Z"
/>
<rect fill="#918291" x="297.86" y="118.39" width="20.00" height="15.22" rx="7.05"/>
<rect fill="#918291" x="435.59" y="118.39" width="20.00" height="15.22" rx="7.05"/>
<path fill="#d68a5a" d="
  M 94.57 153.44
  Q 108.04 153.55 121.50 153.50
  Q 123.68 153.49 125.51 154.66
  Q 127.10 155.68 128.15 157.64
  Q 131.03 163.00 126.19 167.19
  Q 124.13 168.97 120.73 168.83
  Q 118.85 168.75 118.76 168.75
  Q 107.71 168.75 95.65 168.75
  C 94.78 168.75 93.99 169.27 93.64 170.08
  Q 87.10 185.47 73.18 188.70
  Q 62.96 191.06 53.71 186.61
  Q 43.65 181.77 39.50 170.25
  Q 36.31 161.41 39.75 151.71
  Q 43.57 140.92 53.82 135.89
  Q 67.22 129.30 79.94 136.06
  Q 90.11 141.47 93.91 152.95
  C 94.01 153.24 94.27 153.44 94.57 153.44
  Z
  M 62.52 167.50
  Q 56.32 163.29 60.29 157.10
  Q 61.87 154.64 64.47 153.91
  Q 67.00 153.19 70.00 153.50
  Q 72.54 153.76 76.25 153.31
  Q 76.76 153.25 76.42 152.87
  Q 71.70 147.54 65.49 148.22
  Q 59.77 148.85 56.14 153.35
  Q 52.54 157.81 53.90 163.87
  Q 54.79 167.86 57.31 170.45
  Q 60.14 173.36 64.25 174.00
  Q 71.12 175.07 76.16 169.96
  Q 77.38 168.73 75.64 168.74
  Q 71.09 168.78 66.92 168.73
  Q 64.29 168.69 62.52 167.50
  Z"
/>
<path fill="#fcb982" d="
  M 66.92 168.73
  Q 71.09 168.78 75.64 168.74
  Q 77.38 168.73 76.16 169.96
  Q 71.12 175.07 64.25 174.00
  Q 60.14 173.36 57.31 170.45
  Q 54.79 167.86 53.90 163.87
  Q 52.54 157.81 56.14 153.35
  Q 59.77 148.85 65.49 148.22
  Q 71.70 147.54 76.42 152.87
  Q 76.76 153.25 76.25 153.31
  Q 72.54 153.76 70.00 153.50
  Q 67.00 153.19 64.47 153.91
  Q 61.87 154.64 60.29 157.10
  Q 56.32 163.29 62.52 167.50
  Q 64.29 168.69 66.92 168.73
  Z"
/>
<rect fill="#918291" x="-7.60" y="-10.07" transform="translate(328.01,174.72) rotate(44.9)" width="15.20" height="20.14" rx="7.16"/>
<rect fill="#918291" x="-7.61" y="-10.07" transform="translate(425.38,174.65) rotate(-44.3)" width="15.22" height="20.14" rx="7.17"/>
<rect fill="#d68a5a" x="-12.61" y="-7.63" transform="translate(116.30,184.47) rotate(-0.1)" width="25.22" height="15.26" rx="7.17"/>
<path fill="#f5a871" d="
  M 262.25 179.96
  Q 262.81 179.95 263.06 180.47
  Q 277.55 210.76 305.21 229.75
  Q 353.99 262.43 411.26 247.40
  Q 411.56 247.32 414.17 246.42
  Q 415.64 245.91 417.21 245.75
  Q 417.00 246.41 417.00 248.00
  Q 417.00 370.38 417.00 492.75
  Q 417.00 502.43 416.68 503.71
  Q 415.15 509.84 407.94 512.00
  Q 390.44 512.00 372.94 512.00
  Q 374.03 511.54 374.34 510.43
  C 374.43 510.13 374.64 509.89 374.92 509.80
  Q 376.45 509.29 377.43 507.93
  Q 380.29 503.96 380.22 499.00
  Q 380.03 485.87 379.96 472.75
  Q 383.94 467.15 379.50 462.04
  Q 379.69 461.87 379.82 461.66
  Q 379.94 461.47 379.94 461.19
  Q 380.08 451.59 379.96 442.00
  Q 383.88 436.30 379.50 431.04
  Q 380.00 431.12 380.00 430.75
  Q 380.00 378.00 380.00 325.25
  Q 380.00 323.76 379.25 323.46
  Q 381.15 318.85 386.53 317.91
  C 387.17 317.80 387.75 318.28 387.75 318.93
  L 387.75 330.48
  C 387.75 330.77 387.98 331.00 388.27 331.00
  L 395.34 331.00
  C 395.70 331.00 396.00 330.71 396.00 330.35
  L 395.94 300.56
  C 395.94 300.28 395.72 300.06 395.44 300.06
  L 379.50 299.96
  Q 379.97 299.35 379.65 298.82
  Q 379.20 298.07 379.17 297.96
  Q 376.01 287.99 367.41 283.88
  Q 364.85 282.65 354.71 280.73
  Q 306.39 271.57 276.09 232.19
  Q 270.49 224.92 263.81 212.44
  Q 263.04 211.00 262.94 210.06
  C 262.90 209.66 262.73 209.35 262.52 209.29
  L 261.54 209.00
  Q 262.09 206.82 262.00 203.50
  Q 261.73 193.96 262.25 179.96
  Z"
/>
<path fill="#918291" d="
  M 384.54 194.25
  Q 385.08 198.70 382.82 201.73
  Q 380.52 204.81 376.67 204.93
  Q 372.22 205.06 369.50 200.46
  Q 368.84 196.76 368.93 193.00
  Q 369.02 188.86 371.70 186.60
  Q 374.11 184.56 377.74 184.97
  Q 384.57 185.75 384.54 194.25
  Z"
/>
<path fill="#000000" d="
  M 57.88 239.64
  Q 57.10 240.06 57.93 240.38
  Q 63.26 242.41 64.72 246.94
  Q 66.03 251.02 64.28 255.49
  Q 62.65 259.67 58.56 261.57
  Q 56.05 262.73 50.76 262.87
  Q 40.73 263.14 30.01 262.99
  C 29.73 262.98 29.50 262.75 29.50 262.46
  L 29.44 220.69
  C 29.44 220.41 29.66 220.18 29.94 220.17
  Q 34.38 220.02 50.56 220.19
  Q 58.81 220.27 61.96 226.24
  Q 63.83 229.79 62.88 233.46
  Q 61.82 237.50 57.88 239.64
  Z
  M 54.29 233.99
  Q 55.99 229.75 52.68 228.09
  Q 51.14 227.32 47.57 227.27
  Q 43.14 227.21 38.66 227.25
  C 38.29 227.26 38.00 227.55 38.00 227.92
  L 38.00 236.49
  C 38.00 236.76 38.22 236.99 38.48 236.98
  L 50.51 236.75
  Q 53.21 236.70 54.29 233.99
  Z
  M 55.72 252.68
  Q 57.43 248.66 54.89 246.27
  Q 53.28 244.75 49.67 244.45
  Q 44.62 244.02 38.81 244.31
  C 38.37 244.33 38.02 244.68 38.03 245.10
  L 38.15 255.06
  C 38.16 255.36 38.40 255.60 38.69 255.60
  L 51.84 255.49
  Q 54.54 255.47 55.72 252.68
  Z"
/>
<path fill="#fcb982" d="
  M 54.29 233.99
  Q 53.21 236.70 50.51 236.75
  L 38.48 236.98
  C 38.22 236.99 38.00 236.76 38.00 236.49
  L 38.00 227.92
  C 38.00 227.55 38.29 227.26 38.66 227.25
  Q 43.14 227.21 47.57 227.27
  Q 51.14 227.32 52.68 228.09
  Q 55.99 229.75 54.29 233.99
  Z"
/>
<path fill="#000000" d="
  M 80.30 259.81
  L 80.25 274.75
  C 80.25 275.03 80.03 275.25 79.75 275.25
  L 72.68 275.25
  C 72.30 275.25 72.00 274.95 72.00 274.57
  L 72.00 233.15
  C 72.00 232.54 72.46 232.05 73.03 232.06
  L 79.07 232.13
  C 79.39 232.14 79.64 232.38 79.65 232.69
  L 79.71 235.99
  Q 79.72 236.73 80.19 236.20
  Q 84.74 231.04 90.50 231.62
  Q 95.88 232.16 99.16 236.62
  Q 102.20 240.76 102.25 247.00
  Q 102.29 252.16 100.48 256.05
  Q 98.54 260.25 94.32 262.29
  Q 87.39 265.65 80.69 259.65
  Q 80.31 259.32 80.30 259.81
  Z
  M 87.4133 257.0171
  C 91.30 256.92 94.35 252.57 94.2179 247.2980
  C 94.09 242.03 90.83 237.83 86.9467 237.9229
  C 83.06 238.02 80.01 242.37 80.1421 247.6420
  C 80.27 252.91 83.53 257.11 87.4133 257.0171
  Z"
/>
<path fill="#000000" d="
  M 115.52 249.56
  Q 115.31 252.95 116.81 254.44
  Q 123.30 260.87 127.28 253.19
  C 127.42 252.92 127.71 252.76 128.00 252.81
  L 134.97 254.03
  C 135.24 254.08 135.40 254.36 135.30 254.62
  Q 132.90 260.93 126.54 262.75
  Q 120.95 264.35 116.06 262.50
  Q 111.29 260.71 108.80 255.95
  Q 105.58 249.77 107.69 242.19
  Q 109.65 235.10 115.46 232.69
  Q 120.59 230.57 126.58 232.56
  Q 136.51 235.85 135.78 248.50
  C 135.76 248.78 135.53 249.00 135.25 249.00
  L 116.05 249.06
  C 115.77 249.06 115.54 249.28 115.52 249.56
  Z
  M 125.06 238.94
  Q 117.89 235.65 115.48 243.07
  C 115.33 243.52 115.66 243.98 116.12 243.98
  L 127.07 243.84
  C 127.35 243.84 127.58 243.61 127.59 243.32
  Q 127.64 240.12 125.06 238.94
  Z"
/>
<path fill="#000000" d="
  M 148.56 243.92
  L 148.50 262.36
  C 148.50 262.69 148.25 262.96 147.94 262.95
  L 142.19 262.87
  C 141.91 262.86 141.68 262.62 141.68 262.31
  L 141.51 232.66
  C 141.50 232.30 141.80 232.00 142.17 232.00
  L 151.18 232.05
  C 151.49 232.05 151.76 232.24 151.86 232.52
  L 159.02 252.57
  Q 159.41 253.66 159.80 252.58
  L 167.10 232.48
  C 167.20 232.19 167.47 232.00 167.78 232.00
  L 176.86 232.00
  C 177.21 232.00 177.50 232.28 177.49 232.63
  L 177.32 262.31
  C 177.32 262.62 177.09 262.86 176.81 262.87
  L 171.01 262.95
  C 170.73 262.95 170.50 262.70 170.50 262.40
  L 170.44 243.81
  Q 170.44 242.57 170.01 243.73
  L 163.06 262.51
  C 162.95 262.80 162.68 263.00 162.37 263.00
  L 156.46 263.00
  C 156.10 263.00 155.78 262.77 155.66 262.43
  L 149.00 243.99
  C 148.95 243.84 148.85 243.74 148.76 243.75
  L 148.66 243.76
  C 148.60 243.77 148.56 243.84 148.56 243.92
  Z"
/>
<path fill="#000000" d="
  M 190.19 249.22
  Q 183.81 247.87 183.56 241.19
  Q 183.39 236.44 186.57 234.06
  Q 188.61 232.53 193.29 232.22
  Q 202.39 231.61 211.51 232.22
  C 211.79 232.24 212.00 232.46 212.00 232.74
  L 212.00 262.48
  C 212.00 262.77 211.77 263.00 211.48 263.00
  L 204.41 263.00
  C 204.04 263.00 203.74 262.70 203.74 262.32
  L 203.70 250.82
  C 203.69 250.52 203.49 250.26 203.20 250.20
  Q 199.58 249.52 197.29 252.53
  Q 193.71 257.22 190.96 262.40
  C 190.76 262.77 190.38 263.00 189.97 263.00
  L 181.50 263.00
  C 181.27 263.00 181.12 262.75 181.24 262.55
  Q 185.20 255.44 190.35 249.68
  C 190.50 249.52 190.41 249.26 190.19 249.22
  Z
  M 195.63 244.69
  Q 198.98 245.30 203.15 244.89
  C 203.49 244.86 203.74 244.58 203.74 244.25
  L 203.70 237.81
  C 203.70 237.51 203.47 237.27 203.19 237.28
  L 194.99 237.64
  Q 193.38 237.71 192.49 239.30
  Q 191.25 241.50 192.63 243.18
  Q 193.56 244.32 195.63 244.69
  Z"
/>
<path fill="#fcb982" d="
  M 192.63 243.18
  Q 191.25 241.50 192.49 239.30
  Q 193.38 237.71 194.99 237.64
  L 203.19 237.28
  C 203.47 237.27 203.70 237.51 203.70 237.81
  L 203.74 244.25
  C 203.74 244.58 203.49 244.86 203.15 244.89
  Q 198.98 245.30 195.63 244.69
  Q 193.56 244.32 192.63 243.18
  Z"
/>
<ellipse fill="#fcb982" cx="0.00" cy="0.00" transform="translate(87.18,247.47) rotate(88.6)" rx="9.55" ry="7.04"/>
<path fill="#fcb982" d="
  M 125.06 238.94
  Q 127.64 240.12 127.59 243.32
  C 127.58 243.61 127.35 243.84 127.07 243.84
  L 116.12 243.98
  C 115.66 243.98 115.33 243.52 115.48 243.07
  Q 117.89 235.65 125.06 238.94
  Z"
/>
<path fill="#fcb982" d="
  M 55.72 252.68
  Q 54.54 255.47 51.84 255.49
  L 38.69 255.60
  C 38.40 255.60 38.16 255.36 38.15 255.06
  L 38.03 245.10
  C 38.02 244.68 38.37 244.33 38.81 244.31
  Q 44.62 244.02 49.67 244.45
  Q 53.28 244.75 54.89 246.27
  Q 57.43 248.66 55.72 252.68
  Z"
/>
<path fill="#000000" d="
  M 182.7978 310.5331
  C 185.54 319.01 180.87 328.11 172.3777 330.8492
  C 163.88 333.59 154.78 328.94 152.0422 320.4669
  C 149.30 311.99 153.97 302.89 162.4623 300.1508
  C 170.96 297.41 180.06 302.06 182.7978 310.5331
  Z
  M 167.4013 324.8199
  C 171.64 324.84 175.09 320.69 175.1199 315.5502
  C 175.15 310.41 171.73 306.22 167.4987 306.2001
  C 163.26 306.18 159.81 310.33 159.7801 315.4698
  C 159.75 320.61 163.17 324.80 167.4013 324.8199
  Z"
/>
<path fill="#000000" d="
  M 269.33 317.95
  Q 269.69 323.97 275.17 325.04
  Q 277.22 325.44 278.69 324.53
  Q 280.39 323.48 281.03 321.42
  C 281.18 320.92 281.69 320.62 282.21 320.72
  L 288.93 321.99
  C 289.22 322.05 289.39 322.35 289.27 322.62
  Q 285.78 330.72 277.56 331.31
  Q 270.64 331.81 266.31 328.34
  Q 262.27 325.09 261.21 318.98
  Q 260.51 314.92 261.51 310.85
  Q 262.55 306.64 265.14 303.80
  Q 270.20 298.25 278.79 300.03
  Q 287.05 301.74 289.19 309.56
  Q 289.94 312.33 289.94 316.44
  C 289.94 316.72 289.72 316.94 289.44 316.94
  L 270.24 317.00
  C 269.72 317.00 269.30 317.43 269.33 317.95
  Z
  M 278.81 306.69
  Q 272.62 304.08 269.64 310.16
  C 269.23 311.00 269.82 311.98 270.73 311.97
  L 281.06 311.85
  C 281.35 311.84 281.58 311.60 281.58 311.31
  Q 281.58 307.85 278.81 306.69
  Z"
/>
<path fill="#000000" d="
  M 54.13 314.91
  Q 53.18 315.36 54.16 315.72
  Q 57.83 317.07 58.98 320.23
  Q 60.04 323.14 58.74 326.23
  Q 57.07 330.22 52.25 330.75
  Q 45.38 331.51 29.93 330.83
  C 29.66 330.82 29.44 330.59 29.44 330.32
  L 29.50 300.52
  C 29.50 300.23 29.73 300.00 30.01 300.00
  Q 38.75 300.00 47.75 299.97
  Q 52.50 299.95 55.69 302.06
  Q 58.04 303.62 58.34 306.99
  Q 58.85 312.69 54.13 314.91
  Z
  M 48.83 306.44
  Q 43.65 304.65 38.24 305.42
  C 37.96 305.46 37.75 305.70 37.75 305.99
  L 37.75 312.34
  C 37.75 312.67 38.01 312.94 38.34 312.96
  Q 42.93 313.18 46.57 312.64
  Q 50.18 312.10 50.25 308.48
  C 50.27 307.57 49.70 306.74 48.83 306.44
  Z
  M 47.19 318.48
  Q 42.77 317.58 38.25 318.18
  C 37.96 318.22 37.75 318.47 37.75 318.76
  L 37.75 325.07
  C 37.75 325.39 37.99 325.65 38.31 325.67
  Q 44.30 326.16 49.21 324.82
  C 49.53 324.74 49.81 324.55 49.99 324.29
  Q 51.56 322.10 50.41 320.30
  Q 49.56 318.97 47.19 318.48
  Z"
/>
<path fill="#000000" d="
  M 92.75 315.03
  Q 96.02 317.24 96.25 321.25
  Q 96.67 328.65 89.56 330.33
  Q 86.94 330.95 84.25 330.97
  Q 75.53 331.04 66.80 330.94
  C 66.53 330.94 66.30 330.72 66.31 330.45
  L 66.46 300.52
  C 66.46 300.23 66.70 300.00 66.99 300.00
  L 73.86 300.00
  C 74.22 300.00 74.51 300.30 74.52 300.68
  L 74.66 312.31
  C 74.66 312.59 74.89 312.82 75.18 312.84
  Q 80.46 313.14 85.75 313.01
  Q 89.61 312.91 92.75 315.03
  Z
  M 86.08 319.02
  Q 80.69 317.24 75.04 318.22
  C 74.76 318.27 74.55 318.52 74.55 318.81
  L 74.51 324.90
  C 74.50 325.33 74.85 325.69 75.29 325.71
  Q 79.52 325.89 83.16 325.63
  Q 85.69 325.44 86.90 324.35
  Q 89.01 322.45 86.87 319.58
  C 86.68 319.33 86.41 319.13 86.08 319.02
  Z"
/>
<rect fill="#000000" x="101.00" y="300.00" width="8.26" height="31.00" rx="0.26"/>
<path fill="#000000" d="
  M 125.31 307.32
  L 125.07 330.32
  C 125.07 330.61 124.84 330.85 124.56 330.86
  L 117.56 330.97
  C 117.28 330.97 117.06 330.73 117.06 330.44
  L 117.00 300.51
  C 117.00 300.23 117.23 300.00 117.52 300.00
  L 143.91 300.00
  C 144.24 300.00 144.50 300.27 144.51 300.60
  L 144.68 330.02
  C 144.69 330.55 144.29 330.98 143.80 330.97
  L 136.93 330.86
  C 136.65 330.85 136.43 330.61 136.43 330.31
  L 136.43 307.30
  C 136.43 307.02 136.21 306.80 135.94 306.80
  L 125.81 306.80
  C 125.54 306.80 125.32 307.03 125.31 307.32
  Z"
/>
<path fill="#000000" d="
  M 199.81 307.32
  Q 199.84 315.66 199.49 324.00
  Q 199.24 329.81 194.69 331.19
  Q 191.58 332.13 186.30 331.04
  C 185.98 330.98 185.76 330.73 185.77 330.45
  L 185.93 325.49
  C 185.94 325.23 186.20 325.04 186.48 325.09
  Q 191.83 325.96 191.59 320.94
  Q 191.50 319.13 191.50 319.05
  Q 191.50 309.77 191.50 300.50
  C 191.50 300.22 191.72 300.00 192.00 300.00
  L 218.55 300.00
  C 218.83 300.00 219.06 300.23 219.06 300.51
  L 219.00 330.44
  C 219.00 330.75 218.75 331.00 218.45 331.00
  L 211.44 331.00
  C 211.16 331.00 210.93 330.77 210.94 330.49
  L 211.00 307.46
  C 211.00 307.07 210.68 306.75 210.30 306.76
  L 200.32 306.80
  C 200.04 306.81 199.81 307.04 199.81 307.32
  Z"
/>
<path fill="#000000" d="
  M 235.30 318.56
  L 235.25 330.48
  C 235.25 330.77 235.02 331.00 234.74 331.00
  L 227.56 330.95
  C 227.28 330.95 227.06 330.72 227.06 330.43
  L 227.06 300.56
  C 227.06 300.28 227.29 300.05 227.57 300.05
  L 234.68 300.04
  C 234.96 300.04 235.19 300.28 235.20 300.57
  L 235.24 310.70
  C 235.25 311.01 235.49 311.25 235.79 311.25
  L 246.49 311.25
  C 246.77 311.25 247.00 311.02 247.00 310.74
  L 247.05 300.56
  C 247.05 300.28 247.28 300.05 247.57 300.05
  L 254.68 300.04
  C 254.96 300.04 255.19 300.27 255.19 300.56
  L 255.25 330.49
  C 255.25 330.77 255.02 331.00 254.73 331.00
  L 247.52 331.00
  C 247.23 331.00 247.00 330.77 247.00 330.48
  L 247.00 318.56
  C 247.00 318.25 246.75 318.00 246.45 318.00
  L 235.80 318.05
  C 235.53 318.06 235.31 318.28 235.30 318.56
  Z"
/>
<path fill="#000000" d="
  M 304.29 301.25
  L 304.30 310.68
  C 304.30 310.97 304.53 311.20 304.81 311.20
  L 315.48 311.25
  C 315.77 311.25 316.00 311.02 315.99 310.73
  L 315.96 301.25
  Q 315.83 300.00 317.50 300.00
  Q 320.50 300.00 323.50 300.08
  Q 324.51 300.11 324.29 301.25
  L 324.29 327.25
  Q 324.22 328.75 324.26 330.25
  Q 324.30 331.37 323.00 331.04
  L 316.52 331.01
  C 316.23 331.00 316.00 330.77 316.00 330.49
  L 316.00 318.77
  C 316.00 318.34 315.66 318.00 315.23 318.00
  L 304.81 318.00
  C 304.50 318.00 304.25 318.25 304.25 318.56
  Q 304.25 323.25 304.25 327.38
  Q 304.25 327.51 304.39 329.10
  Q 304.63 331.72 301.50 331.04
  L 296.57 330.95
  C 296.29 330.94 296.06 330.72 296.05 330.44
  L 295.96 323.50
  L 295.96 319.75
  L 295.96 302.25
  L 296.03 300.56
  C 296.04 300.28 296.28 300.06 296.57 300.05
  Q 301.84 299.90 303.50 300.00
  Q 304.52 300.06 304.29 301.25
  Z"
/>
<path fill="#000000" d="
  M 340.04 301.25
  L 340.00 317.84
  Q 340.00 319.45 340.87 318.10
  L 351.71 301.25
  Q 352.68 299.77 354.44 299.88
  Q 355.98 299.97 356.08 299.97
  Q 358.08 299.92 360.07 300.13
  C 360.39 300.16 360.64 300.40 360.66 300.69
  L 360.79 303.00
  L 360.79 318.00
  L 360.79 325.00
  L 360.77 329.80
  C 360.76 330.49 360.15 331.05 359.38 331.08
  L 354.00 331.29
  L 353.21 331.00
  C 352.96 330.90 352.80 330.58 352.80 330.19
  L 352.93 312.46
  Q 352.94 311.20 352.26 312.24
  L 340.34 330.40
  C 340.15 330.69 339.85 330.86 339.56 330.87
  L 333.09 330.93
  C 332.52 330.94 332.05 330.44 332.05 329.82
  L 331.96 315.25
  L 331.96 304.50
  L 331.96 300.75
  Q 332.35 299.93 333.25 299.94
  Q 336.25 300.00 339.25 300.08
  Q 340.26 300.11 340.04 301.25
  Z"
/>
<path fill="#000000" d="
  M 379.50 299.96
  L 395.44 300.06
  C 395.72 300.06 395.94 300.28 395.94 300.56
  L 396.00 330.35
  C 396.00 330.71 395.70 331.00 395.34 331.00
  L 388.27 331.00
  C 387.98 331.00 387.75 330.77 387.75 330.48
  L 387.75 318.93
  C 387.75 318.28 387.17 317.80 386.53 317.91
  Q 381.15 318.85 379.25 323.46
  L 374.81 330.39
  C 374.63 330.67 374.35 330.84 374.06 330.85
  L 367.25 331.04
  Q 363.79 331.12 366.25 328.79
  Q 369.68 322.77 374.34 317.68
  Q 374.68 317.32 374.19 317.23
  Q 368.47 316.18 367.75 310.75
  Q 366.56 301.79 375.28 300.41
  Q 377.38 300.08 379.50 299.96
  Z
  M 379.98 312.74
  Q 383.35 313.28 387.27 312.93
  C 387.54 312.91 387.75 312.68 387.75 312.41
  L 387.75 306.05
  C 387.75 305.63 387.42 305.29 387.00 305.28
  Q 382.85 305.16 379.43 305.74
  Q 377.55 306.06 376.67 307.25
  Q 375.33 309.07 376.50 310.83
  Q 377.50 312.33 379.98 312.74
  Z"
/>
<path fill="#31a7fb" d="
  M 331.96 300.75
  L 331.96 304.50
  Q 331.06 304.67 330.62 303.90
  Q 329.95 302.71 328.69 302.29
  Q 328.20 302.13 328.07 301.89
  Q 327.84 301.47 328.25 301.04
  L 331.96 300.75
  Z"
/>
<path fill="#64b9fc" d="
  M 328.25 301.04
  Q 327.84 301.47 328.07 301.89
  Q 328.20 302.13 328.69 302.29
  Q 329.95 302.71 330.62 303.90
  Q 331.06 304.67 331.96 304.50
  L 331.96 315.25
  Q 331.24 315.67 330.19 317.69
  Q 326.81 324.17 326.25 325.50
  Q 325.57 327.11 324.29 327.25
  L 324.29 301.25
  L 328.25 301.04
  Z"
/>
<path fill="#64b9fc" d="
  M 304.29 301.25
  L 315.96 301.25
  L 315.99 310.73
  C 316.00 311.02 315.77 311.25 315.48 311.25
  L 304.81 311.20
  C 304.53 311.20 304.30 310.97 304.30 310.68
  L 304.29 301.25
  Z"
/>
<path fill="#31a7fb" d="
  M 340.04 301.25
  L 351.71 301.25
  L 340.87 318.10
  Q 340.00 319.45 340.00 317.84
  L 340.04 301.25
  Z"
/>
<path fill="#64b9fc" d="
  M 295.96 302.25
  L 295.96 319.75
  Q 292.04 314.79 291.50 310.25
  Q 290.88 305.11 295.96 302.25
  Z"
/>
<path fill="#31a7fb" d="
  M 360.79 303.00
  Q 366.10 307.72 362.87 314.34
  Q 361.95 316.24 360.79 318.00
  L 360.79 303.00
  Z"
/>
<path fill="#fcb982" d="
  M 48.83 306.44
  C 49.70 306.74 50.27 307.57 50.25 308.48
  Q 50.18 312.10 46.57 312.64
  Q 42.93 313.18 38.34 312.96
  C 38.01 312.94 37.75 312.67 37.75 312.34
  L 37.75 305.99
  C 37.75 305.70 37.96 305.46 38.24 305.42
  Q 43.65 304.65 48.83 306.44
  Z"
/>
<path fill="#f5a871" d="
  M 376.50 310.83
  Q 375.33 309.07 376.67 307.25
  Q 377.55 306.06 379.43 305.74
  Q 382.85 305.16 387.00 305.28
  C 387.42 305.29 387.75 305.63 387.75 306.05
  L 387.75 312.41
  C 387.75 312.68 387.54 312.91 387.27 312.93
  Q 383.35 313.28 379.98 312.74
  Q 377.50 312.33 376.50 310.83
  Z"
/>
<path fill="#fcb982" d="
  M 278.81 306.69
  Q 281.58 307.85 281.58 311.31
  C 281.58 311.60 281.35 311.84 281.06 311.85
  L 270.73 311.97
  C 269.82 311.98 269.23 311.00 269.64 310.16
  Q 272.62 304.08 278.81 306.69
  Z"
/>
<ellipse fill="#fcb982" cx="0.00" cy="0.00" transform="translate(167.45,315.51) rotate(90.3)" rx="9.31" ry="7.67"/>
<path fill="#31a7fb" d="
  M 354.00 331.29
  L 347.25 345.71
  Q 341.76 356.36 336.38 367.07
  Q 336.33 367.15 335.59 368.85
  Q 334.19 372.08 330.79 373.25
  L 330.47 368.74
  C 330.45 368.45 330.25 368.21 330.00 368.17
  Q 326.40 367.66 322.81 368.23
  C 322.56 368.27 322.37 368.51 322.36 368.81
  L 322.25 371.79
  Q 321.51 371.40 321.10 370.67
  Q 316.24 362.04 312.21 353.00
  Q 318.33 342.38 323.00 331.04
  Q 324.30 331.37 324.26 330.25
  Q 324.22 328.75 324.29 327.25
  Q 325.57 327.11 326.25 325.50
  Q 326.81 324.17 330.19 317.69
  Q 331.24 315.67 331.96 315.25
  L 332.05 329.82
  C 332.05 330.44 332.52 330.94 333.09 330.93
  L 339.56 330.87
  C 339.85 330.86 340.15 330.69 340.34 330.40
  L 352.26 312.24
  Q 352.94 311.20 352.93 312.46
  L 352.80 330.19
  C 352.80 330.58 352.96 330.90 353.21 331.00
  L 354.00 331.29
  Z"
/>
<path fill="#fcb982" d="
  M 50.41 320.30
  Q 51.56 322.10 49.99 324.29
  C 49.81 324.55 49.53 324.74 49.21 324.82
  Q 44.30 326.16 38.31 325.67
  C 37.99 325.65 37.75 325.39 37.75 325.07
  L 37.75 318.76
  C 37.75 318.47 37.96 318.22 38.25 318.18
  Q 42.77 317.58 47.19 318.48
  Q 49.56 318.97 50.41 320.30
  Z"
/>
<path fill="#fcb982" d="
  M 86.87 319.58
  Q 89.01 322.45 86.90 324.35
  Q 85.69 325.44 83.16 325.63
  Q 79.52 325.89 75.29 325.71
  C 74.85 325.69 74.50 325.33 74.51 324.90
  L 74.55 318.81
  C 74.55 318.52 74.76 318.27 75.04 318.22
  Q 80.69 317.24 86.08 319.02
  C 86.41 319.13 86.68 319.33 86.87 319.58
  Z"
/>
<path fill="#64b9fc" d="
  M 323.00 331.04
  Q 318.33 342.38 312.21 353.00
  Q 307.22 343.14 302.19 333.31
  Q 301.44 331.86 301.50 331.04
  Q 304.63 331.72 304.39 329.10
  Q 304.25 327.51 304.25 327.38
  Q 304.25 323.25 304.25 318.56
  C 304.25 318.25 304.50 318.00 304.81 318.00
  L 315.23 318.00
  C 315.66 318.00 316.00 318.34 316.00 318.77
  L 316.00 330.49
  C 316.00 330.77 316.23 331.00 316.52 331.01
  L 323.00 331.04
  Z"
/>
<path fill="#f2eff2" d="
  M 295.96 323.50
  L 296.05 330.44
  C 296.06 330.72 296.29 330.94 296.57 330.95
  L 301.50 331.04
  Q 301.44 331.86 302.19 333.31
  Q 307.22 343.14 312.21 353.00
  Q 316.24 362.04 321.10 370.67
  Q 321.51 371.40 322.25 371.79
  L 322.21 390.00
  L 317.14 391.70
  Q 316.65 391.86 316.19 391.84
  L 314.54 391.75
  L 314.33 368.69
  C 314.32 368.39 314.09 368.16 313.81 368.15
  L 305.15 368.04
  C 304.63 368.03 304.16 368.38 303.97 368.90
  L 296.85 388.46
  Q 296.46 389.53 296.07 388.46
  L 288.86 368.54
  C 288.76 368.25 288.49 368.06 288.19 368.05
  L 282.00 367.96
  Q 282.52 367.03 282.25 366.10
  Q 281.92 364.94 281.91 364.86
  Q 278.69 341.50 294.51 324.50
  Q 294.57 324.44 294.91 323.95
  Q 295.25 323.44 295.96 323.50
  Z"
/>
<path fill="#e1dde1" d="
  M 360.79 325.00
  Q 362.77 325.93 364.31 328.19
  Q 364.89 329.04 366.25 328.79
  Q 363.79 331.12 367.25 331.04
  Q 367.15 332.35 367.83 333.36
  Q 368.84 334.86 368.85 334.89
  Q 380.30 358.00 367.69 381.19
  Q 366.71 382.98 365.29 383.25
  L 365.25 368.55
  C 365.25 368.25 365.00 368.00 364.70 368.00
  L 357.50 368.00
  C 357.22 368.00 357.00 368.22 357.00 368.50
  L 356.96 393.50
  Q 334.69 410.05 308.51 399.71
  Q 308.09 399.55 308.25 399.04
  L 313.93 398.95
  C 314.21 398.94 314.44 398.71 314.45 398.43
  L 314.54 391.75
  L 316.19 391.84
  Q 316.65 391.86 317.14 391.70
  L 322.21 390.00
  L 322.25 398.48
  C 322.25 398.77 322.48 399.00 322.76 399.00
  Q 332.00 399.00 340.75 399.00
  Q 345.92 399.00 348.94 396.94
  Q 351.72 395.04 352.19 391.94
  Q 352.95 386.84 349.94 383.87
  Q 347.74 381.71 342.94 381.18
  Q 339.00 380.75 335.00 380.96
  L 335.69 380.71
  C 335.96 380.61 336.15 380.40 336.16 380.19
  Q 336.20 379.09 337.19 377.94
  Q 346.89 366.59 348.13 350.69
  Q 348.14 350.58 348.34 349.21
  Q 348.65 347.16 347.25 345.71
  L 354.00 331.29
  L 359.38 331.08
  C 360.15 331.05 360.76 330.49 360.77 329.80
  L 360.79 325.00
  Z"
/>
<path fill="#f2eff2" d="
  M 347.25 345.71
  Q 348.65 347.16 348.34 349.21
  Q 348.14 350.58 348.13 350.69
  Q 346.89 366.59 337.19 377.94
  Q 336.20 379.09 336.16 380.19
  C 336.15 380.40 335.96 380.61 335.69 380.71
  L 335.00 380.96
  L 331.19 380.89
  C 330.90 380.88 330.66 380.64 330.62 380.31
  Q 330.19 376.77 330.79 373.25
  Q 334.19 372.08 335.59 368.85
  Q 336.33 367.15 336.38 367.07
  Q 341.76 356.36 347.25 345.71
  Z"
/>
<path fill="#000000" d="
  M 73.76 371.55
  Q 77.38 367.32 82.75 367.50
  Q 88.91 367.70 92.69 373.06
  Q 95.08 376.46 95.37 381.27
  Q 95.65 385.96 94.61 389.68
  Q 93.27 394.41 89.27 397.16
  Q 85.69 399.62 81.81 399.45
  Q 77.53 399.25 74.22 395.84
  Q 73.25 394.85 73.25 396.23
  L 73.25 410.73
  C 73.25 411.02 73.02 411.25 72.73 411.25
  L 65.66 411.25
  C 65.30 411.25 65.00 410.95 65.00 410.59
  L 65.00 368.50
  C 65.00 368.22 65.22 368.00 65.50 368.00
  L 71.50 368.00
  Q 73.62 368.00 72.75 370.50
  Q 72.40 371.49 72.96 371.80
  C 73.19 371.93 73.52 371.82 73.76 371.55
  Z
  M 80.4136 393.0271
  C 84.30 392.93 87.35 388.58 87.2179 383.2980
  C 87.09 378.02 83.83 373.82 79.9464 373.9129
  C 76.06 374.01 73.01 378.36 73.1421 383.6420
  C 73.27 388.92 76.53 393.12 80.4136 393.0271
  Z"
/>
<path fill="#000000" d="
  M 131.7715 378.4527
  C 134.55 386.92 129.94 396.04 121.4580 398.8230
  C 112.98 401.61 103.85 397.01 101.0685 388.5473
  C 98.29 380.08 102.90 370.96 111.3820 368.1770
  C 119.86 365.39 128.99 369.99 131.7715 378.4527
  Z
  M 116.4762 392.8100
  C 120.71 392.80 124.14 388.63 124.1300 383.4966
  C 124.12 378.36 120.68 374.20 116.4438 374.2100
  C 112.21 374.22 108.78 378.39 108.7900 383.5234
  C 108.80 388.66 112.24 392.82 116.4762 392.8100
  Z"
/>
<path fill="#000000" d="
  M 172.49 372.05
  Q 176.47 367.10 182.21 367.58
  Q 186.27 367.92 189.41 370.55
  Q 192.63 373.26 193.69 377.56
  Q 194.98 382.84 193.75 389.00
  Q 192.94 393.03 189.97 395.89
  Q 187.10 398.66 183.30 399.29
  Q 177.33 400.29 172.69 395.31
  Q 172.25 394.84 172.25 395.48
  L 172.25 410.69
  C 172.25 411.00 172.00 411.25 171.69 411.25
  L 164.68 411.25
  C 164.30 411.25 164.00 410.95 164.00 410.58
  L 164.06 368.80
  C 164.06 368.52 164.27 368.27 164.56 368.21
  Q 166.25 367.88 167.98 367.94
  Q 168.23 367.94 169.99 367.85
  Q 172.54 367.71 171.69 370.98
  Q 171.49 371.72 171.80 372.13
  C 171.95 372.33 172.29 372.29 172.49 372.05
  Z
  M 179.3864 393.0075
  C 183.28 392.92 186.34 388.58 186.2182 383.3101
  C 186.10 378.04 182.85 373.84 178.9536 373.9325
  C 175.06 374.02 172.00 378.36 172.1218 383.6299
  C 172.24 388.90 175.49 393.10 179.3864 393.0075
  Z"
/>
<path fill="#000000" d="
  M 218.37 396.48
  Q 213.30 400.63 205.75 399.00
  Q 202.87 398.38 200.94 395.38
  Q 196.97 389.19 202.06 384.06
  Q 203.49 382.62 207.55 381.71
  Q 212.43 380.60 217.86 379.08
  C 218.24 378.97 218.50 378.63 218.50 378.24
  Q 218.49 374.71 215.67 374.09
  Q 213.42 373.60 211.33 374.04
  Q 208.98 374.54 207.63 377.18
  C 207.48 377.47 207.16 377.62 206.85 377.56
  L 200.53 376.35
  C 200.25 376.30 200.08 376.00 200.17 375.72
  Q 202.78 368.31 210.49 367.59
  Q 215.39 367.14 220.18 368.35
  Q 223.57 369.22 225.18 371.84
  Q 226.23 373.55 226.32 377.38
  Q 226.52 385.16 226.71 392.94
  Q 226.75 394.47 227.24 395.97
  Q 227.65 397.21 228.04 398.46
  C 228.12 398.70 227.94 398.94 227.68 398.95
  Q 225.13 399.03 222.58 399.01
  Q 222.48 399.01 221.43 399.09
  Q 219.65 399.23 219.75 397.18
  Q 219.85 395.27 218.37 396.48
  Z
  M 210.18 393.14
  Q 219.37 394.37 218.49 384.82
  C 218.46 384.55 218.21 384.35 217.95 384.40
  Q 215.39 384.90 212.84 385.50
  Q 209.85 386.21 208.57 387.29
  Q 205.79 389.63 209.31 392.74
  C 209.55 392.96 209.85 393.09 210.18 393.14
  Z"
/>
<path fill="#000000" d="
  M 37.31 375.31
  L 37.25 398.44
  C 37.25 398.75 37.00 399.00 36.70 399.00
  L 29.50 399.00
  C 29.22 399.00 29.00 398.78 29.00 398.50
  L 29.00 368.50
  C 29.00 368.22 29.22 368.00 29.50 368.00
  L 56.06 368.00
  C 56.34 368.00 56.56 368.23 56.57 368.52
  L 56.68 397.82
  C 56.68 398.43 56.23 398.92 55.69 398.91
  L 48.80 398.77
  C 48.53 398.76 48.32 398.50 48.33 398.18
  L 48.49 375.41
  C 48.50 375.05 48.20 374.75 47.84 374.76
  L 37.82 374.80
  C 37.54 374.81 37.31 375.03 37.31 375.31
  Z"
/>
<path fill="#000000" d="
  M 147.31 375.32
  L 147.07 398.32
  C 147.07 398.61 146.84 398.85 146.56 398.86
  L 139.47 398.98
  C 139.21 398.99 139.00 398.76 139.00 398.49
  L 139.00 368.50
  C 139.00 368.22 139.22 368.00 139.50 368.00
  L 159.44 368.06
  C 159.72 368.06 159.95 368.28 159.96 368.55
  L 159.98 373.86
  C 159.99 374.35 159.58 374.74 159.07 374.75
  L 147.81 374.80
  C 147.54 374.81 147.32 375.04 147.31 375.32
  Z"
/>
<path fill="#000000" d="
  M 241.56 379.92
  L 241.50 398.36
  C 241.50 398.69 241.25 398.96 240.94 398.95
  L 235.19 398.87
  C 234.91 398.86 234.68 398.62 234.68 398.31
  L 234.51 368.66
  C 234.50 368.30 234.80 368.00 235.17 368.00
  L 244.18 368.05
  C 244.49 368.05 244.76 368.25 244.86 368.54
  L 252.07 388.46
  Q 252.46 389.53 252.85 388.46
  L 260.10 368.48
  C 260.20 368.19 260.47 368.00 260.78 368.00
  L 269.86 368.00
  C 270.21 368.00 270.50 368.28 270.49 368.63
  L 270.32 398.31
  C 270.32 398.62 270.09 398.86 269.81 398.87
  L 264.01 398.95
  C 263.73 398.95 263.50 398.70 263.50 398.40
  L 263.44 379.81
  Q 263.44 378.57 263.01 379.73
  L 256.10 398.47
  C 255.99 398.77 255.73 398.98 255.45 398.97
  L 249.43 398.86
  C 249.13 398.85 248.86 398.65 248.75 398.34
  L 242.00 379.98
  C 241.94 379.83 241.84 379.74 241.76 379.75
  L 241.66 379.76
  C 241.60 379.77 241.56 379.84 241.56 379.92
  Z"
/>
<path fill="#000000" d="
  M 282.00 367.96
  L 288.19 368.05
  C 288.49 368.06 288.76 368.25 288.86 368.54
  L 296.07 388.46
  Q 296.46 389.53 296.85 388.46
  L 303.97 368.90
  C 304.16 368.38 304.63 368.03 305.15 368.04
  L 313.81 368.15
  C 314.09 368.16 314.32 368.39 314.33 368.69
  L 314.54 391.75
  L 314.45 398.43
  C 314.44 398.71 314.21 398.94 313.93 398.95
  L 308.25 399.04
  Q 307.51 399.12 307.21 398.50
  L 307.50 380.44
  Q 307.53 378.28 306.78 380.32
  L 301.21 395.50
  L 300.03 398.36
  C 299.90 398.67 299.62 398.87 299.31 398.87
  L 293.69 398.94
  C 293.19 398.95 292.72 398.60 292.53 398.08
  L 286.20 380.36
  Q 285.51 378.41 285.50 380.48
  L 285.44 398.43
  C 285.44 398.73 285.21 398.98 284.94 398.97
  L 279.19 398.86
  C 278.91 398.85 278.68 398.61 278.67 398.31
  L 278.55 368.56
  C 278.55 368.28 278.78 368.05 279.06 368.04
  L 282.00 367.96
  Z"
/>
<path fill="#000000" d="
  M 330.79 373.25
  Q 330.19 376.77 330.62 380.31
  C 330.66 380.64 330.90 380.88 331.19 380.89
  L 335.00 380.96
  Q 339.00 380.75 342.94 381.18
  Q 347.74 381.71 349.94 383.87
  Q 352.95 386.84 352.19 391.94
  Q 351.72 395.04 348.94 396.94
  Q 345.92 399.00 340.75 399.00
  Q 332.00 399.00 322.76 399.00
  C 322.48 399.00 322.25 398.77 322.25 398.48
  L 322.21 390.00
  L 322.25 371.79
  L 322.36 368.81
  C 322.37 368.51 322.56 368.27 322.81 368.23
  Q 326.40 367.66 330.00 368.17
  C 330.25 368.21 330.45 368.45 330.47 368.74
  L 330.79 373.25
  Z
  M 342.09 387.03
  Q 336.77 385.36 331.19 386.11
  C 330.87 386.16 330.64 386.40 330.63 386.68
  L 330.56 392.72
  C 330.55 393.24 331.00 393.68 331.56 393.70
  Q 335.72 393.87 339.17 393.62
  Q 341.72 393.44 342.90 392.36
  Q 344.92 390.50 342.86 387.59
  C 342.68 387.33 342.41 387.13 342.09 387.03
  Z"
/>
<path fill="#000000" d="
  M 365.29 383.25
  L 365.25 398.44
  C 365.25 398.75 365.00 399.00 364.70 399.00
  L 357.56 398.95
  C 357.28 398.95 357.06 398.72 357.05 398.44
  L 356.96 393.50
  L 357.00 368.50
  C 357.00 368.22 357.22 368.00 357.50 368.00
  L 364.70 368.00
  C 365.00 368.00 365.25 368.25 365.25 368.55
  L 365.29 383.25
  Z"
/>
<ellipse fill="#fcb982" cx="0.00" cy="0.00" transform="translate(80.18,383.47) rotate(88.6)" rx="9.56" ry="7.04"/>
<ellipse fill="#fcb982" cx="0.00" cy="0.00" transform="translate(179.17,383.47) rotate(88.7)" rx="9.54" ry="7.05"/>
<ellipse fill="#fcb982" cx="0.00" cy="0.00" transform="translate(116.46,383.51) rotate(89.9)" rx="9.30" ry="7.67"/>
<path fill="#f2eff2" d="
  M 307.21 398.50
  L 301.21 395.50
  L 306.78 380.32
  Q 307.53 378.28 307.50 380.44
  L 307.21 398.50
  Z"
/>
<path fill="#fcb982" d="
  M 209.31 392.74
  Q 205.79 389.63 208.57 387.29
  Q 209.85 386.21 212.84 385.50
  Q 215.39 384.90 217.95 384.40
  C 218.21 384.35 218.46 384.55 218.49 384.82
  Q 219.37 394.37 210.18 393.14
  C 209.85 393.09 209.55 392.96 209.31 392.74
  Z"
/>
<path fill="#e1dde1" d="
  M 342.86 387.59
  Q 344.92 390.50 342.90 392.36
  Q 341.72 393.44 339.17 393.62
  Q 335.72 393.87 331.56 393.70
  C 331.00 393.68 330.55 393.24 330.56 392.72
  L 330.63 386.68
  C 330.64 386.40 330.87 386.16 331.19 386.11
  Q 336.77 385.36 342.09 387.03
  C 342.41 387.13 342.68 387.33 342.86 387.59
  Z"
/>
<path fill="#fb4a59" d="
  M 62.88 431.84
  Q 60.53 434.00 58.23 436.23
  Q 53.28 441.03 48.06 437.44
  Q 44.38 434.90 44.88 430.59
  Q 45.15 428.24 47.46 425.65
  Q 50.45 422.30 53.64 419.13
  Q 58.47 414.33 59.97 413.56
  Q 64.55 411.20 69.37 415.88
  Q 74.12 420.50 78.68 425.32
  Q 83.11 430.00 80.72 434.51
  Q 78.84 438.06 74.95 438.68
  Q 70.77 439.34 67.44 435.56
  Q 66.25 434.21 63.62 431.83
  C 63.41 431.64 63.09 431.65 62.88 431.84
  Z"
/>
<path fill="#31a7fb" d="
  M 379.50 431.04
  Q 383.88 436.30 379.96 442.00
  Q 377.11 444.53 373.25 444.53
  Q 347.87 444.50 322.50 444.50
  Q 318.62 444.50 316.37 441.90
  Q 314.35 439.59 314.54 436.15
  Q 314.79 431.57 318.86 429.85
  Q 320.90 429.00 325.75 429.00
  Q 347.68 429.00 369.61 429.00
  Q 369.71 429.00 371.88 428.91
  Q 376.03 428.73 379.50 431.04
  Z"
/>
<path fill="#fb4a59" d="
  M 62.89 468.60
  Q 59.27 472.12 57.69 473.44
  Q 52.37 477.85 47.56 473.69
  Q 43.93 470.55 45.00 466.39
  Q 45.62 464.02 48.92 460.69
  Q 53.04 456.55 57.12 452.37
  Q 60.33 449.08 64.17 449.67
  Q 66.66 450.05 69.99 453.18
  Q 76.04 458.86 79.75 463.00
  Q 81.35 464.79 81.54 467.22
  Q 81.70 469.33 80.55 471.46
  Q 77.78 476.60 72.12 475.13
  Q 69.93 474.55 67.55 472.35
  Q 65.56 470.50 63.61 468.61
  C 63.41 468.41 63.09 468.41 62.89 468.60
  Z"
/>
<path fill="#31a7fb" d="
  M 379.50 462.04
  Q 383.94 467.15 379.96 472.75
  Q 377.74 475.08 375.75 475.25
  Q 369.47 475.79 359.75 475.55
  Q 348.58 475.27 343.75 475.31
  Q 245.28 476.03 193.00 475.25
  Q 188.79 475.19 186.87 471.78
  Q 185.21 468.83 186.11 465.54
  Q 187.00 462.35 190.01 460.89
  Q 191.84 460.00 195.64 460.00
  Q 284.57 460.00 373.50 460.00
  Q 377.10 460.00 379.50 462.04
  Z"
/>
</svg>
