<svg xmlns="http://www.w3.org/2000/svg" version="1.1" viewBox="0 0 72 72">
<g stroke-width="2.0" fill="none" stroke-linecap="butt">
<path stroke="#81a5d1" vector-effect="non-scaling-stroke" d="
  M 64.29 18.25
  L 63.94 53.43
  C 63.93 53.76 63.77 54.05 63.51 54.20
  Q 61.61 55.28 59.25 54.79"
/>
<path stroke="#e9bf7f" vector-effect="non-scaling-stroke" d="
  M 59.25 54.79
  L 18.59 54.55
  C 18.12 54.54 17.74 54.16 17.74 53.68
  L 17.50 5.21"
/>
<path stroke="#e99d7f" vector-effect="non-scaling-stroke" d="
  M 59.3899 6.0798
  C 59.39 5.62 59.01 5.24 58.5485 5.2413
  L 48.5685 5.2587
  C 48.10 5.26 47.73 5.64 47.7300 6.1002
  L 47.7301 6.1602
  C 47.73 6.62 48.11 7.00 48.5715 6.9987
  L 58.5515 6.9813
  C 59.02 6.98 59.39 6.60 59.3900 6.1398
  L 59.3899 6.0798"
/>
<path stroke="#6ad3f7" vector-effect="non-scaling-stroke" d="
  M 23.00 15.71
  Q 20.36 16.39 22.09 17.72
  C 22.33 17.90 22.65 18.00 23.00 18.00
  Q 32.96 18.04 42.92 17.94
  Q 43.78 17.94 44.34 17.52
  Q 46.09 16.22 43.00 15.71"
/>
<path stroke="#8fe8f2" vector-effect="non-scaling-stroke" d="
  M 43.00 15.71
  Q 42.79 12.09 43.18 8.49
  Q 43.49 5.63 40.29 6.35
  C 39.99 6.42 39.78 6.68 39.78 6.98
  L 39.75 15.46"
/>
<path stroke="#6ad3f7" vector-effect="non-scaling-stroke" d="
  M 39.75 15.46
  Q 38.72 16.28 37.75 15.46"
/>
<path stroke="#6ad9b3" vector-effect="non-scaling-stroke" d="
  M 37.75 15.46
  Q 38.92 11.53 35.75 11.75
  Q 32.90 11.94 34.00 15.46"
/>
<path stroke="#6ad3f7" vector-effect="non-scaling-stroke" d="
  M 34.00 15.46
  Q 33.06 15.97 32.00 15.71"
/>
<path stroke="#e98091" vector-effect="non-scaling-stroke" d="
  M 32.00 15.71
  L 31.86 9.68
  C 31.85 9.38 31.66 9.10 31.37 8.97
  Q 28.24 7.57 28.56 11.27
  Q 28.75 13.48 28.75 15.71"
/>
<path stroke="#6ad3f7" vector-effect="non-scaling-stroke" d="
  M 28.75 15.71
  L 26.50 15.71"
/>
<path stroke="#e9d07f" vector-effect="non-scaling-stroke" d="
  M 26.50 15.71
  L 26.45 6.81
  C 26.45 6.51 26.25 6.24 25.96 6.15
  Q 22.76 5.17 22.93 8.29
  Q 23.00 9.66 23.00 9.71
  Q 23.00 12.71 23.00 15.71"
/>
<path stroke="#80b579" vector-effect="non-scaling-stroke" d="
  M 26.50 15.71
  Q 24.75 16.37 23.00 15.71"
/>
<path stroke="#7f658b" vector-effect="non-scaling-stroke" d="
  M 32.00 15.71
  L 28.75 15.71"
/>
<path stroke="#26cdec" vector-effect="non-scaling-stroke" d="
  M 43.00 15.71
  L 39.75 15.46"
/>
<path stroke="#00bead" vector-effect="non-scaling-stroke" d="
  M 37.75 15.46
  Q 35.86 16.29 34.00 15.46"
/>
<path stroke="#e99d7f" vector-effect="non-scaling-stroke" d="
  M 59.3821 9.5106
  C 59.39 9.17 59.11 8.89 58.7686 8.8842
  L 48.4292 8.7759
  C 48.09 8.77 47.81 9.05 47.8027 9.3894
  L 47.7979 9.8494
  C 47.79 10.19 48.07 10.47 48.4114 10.4758
  L 58.7508 10.5841
  C 59.09 10.59 59.37 10.31 59.3773 9.9706
  L 59.3821 9.5106"
/>
<path stroke="#e99d7f" vector-effect="non-scaling-stroke" d="
  M 59.25 13.28
  C 59.25 12.85 58.90 12.50 58.47 12.50
  L 48.51 12.50
  C 48.08 12.50 47.73 12.85 47.73 13.28
  L 47.73 13.46
  C 47.73 13.89 48.08 14.24 48.51 14.24
  L 58.47 14.24
  C 58.90 14.24 59.25 13.89 59.25 13.46
  L 59.25 13.28"
/>
<path stroke="#e99d7f" vector-effect="non-scaling-stroke" d="
  M 59.2799 16.8498
  C 59.28 16.39 58.90 16.01 58.4385 16.0113
  L 48.4185 16.0287
  C 47.95 16.03 47.58 16.41 47.5800 16.8702
  L 47.5801 16.9302
  C 47.58 17.39 47.96 17.77 48.4215 17.7687
  L 58.4415 17.7513
  C 58.91 17.75 59.28 17.37 59.2800 16.9098
  L 59.2799 16.8498"
/>
<path stroke="#8fe8f2" vector-effect="non-scaling-stroke" d="
  M 34.54 24.87
  C 35.36 25.17 36.00 25.96 36.25 26.98
  Q 36.65 28.68 39.67 27.97
  C 39.95 27.91 40.13 27.63 40.07 27.35
  Q 38.89 21.70 33.53 20.27
  C 33.08 20.15 32.62 20.41 32.55 20.84
  L 32.13 23.56
  C 32.10 23.80 32.32 24.06 32.66 24.19
  L 34.54 24.87"
/>
<path stroke="#e9d07f" vector-effect="non-scaling-stroke" d="
  M 22.04 30.50
  Q 21.71 32.11 22.44 33.53
  Q 25.22 38.88 30.57 38.50
  Q 33.43 38.30 35.52 36.50
  Q 37.86 34.48 38.25 31.50
  Q 38.44 30.02 36.74 30.37
  Q 36.26 30.47 35.77 30.38
  Q 34.30 30.11 33.86 31.28
  Q 33.30 32.82 33.19 32.95
  Q 31.62 35.08 29.25 34.50
  Q 26.46 33.82 25.71 30.25"
/>
<path stroke="#e98091" vector-effect="non-scaling-stroke" d="
  M 25.71 30.25
  Q 26.44 27.15 29.33 26.20
  C 29.64 26.10 29.88 25.86 29.94 25.57
  Q 30.24 24.16 29.84 22.79
  C 29.76 22.51 29.48 22.33 29.18 22.38
  Q 22.42 23.48 22.04 30.50"
/>
<path stroke="#ff6212" vector-effect="non-scaling-stroke" d="
  M 25.71 30.25
  L 22.04 30.50"
/>
<path stroke="#e97782" vector-effect="non-scaling-stroke" d="
  M 59.4100 23.1148
  C 59.41 22.64 59.03 22.25 58.5515 22.2533
  L 43.3515 22.2267
  C 42.88 22.23 42.49 22.61 42.4900 23.0852
  L 42.4900 23.1252
  C 42.49 23.60 42.87 23.99 43.3485 23.9867
  L 58.5485 24.0133
  C 59.02 24.01 59.41 23.63 59.4100 23.1548
  L 59.4100 23.1148"
/>
<path stroke="#e97782" vector-effect="non-scaling-stroke" d="
  M 59.37 26.59
  C 59.37 26.13 59.00 25.76 58.54 25.76
  L 43.38 25.76
  C 42.92 25.76 42.55 26.13 42.55 26.59
  L 42.55 26.73
  C 42.55 27.19 42.92 27.56 43.38 27.56
  L 58.54 27.56
  C 59.00 27.56 59.37 27.19 59.37 26.73
  L 59.37 26.59"
/>
<path stroke="#e97782" vector-effect="non-scaling-stroke" d="
  M 59.38 30.35
  C 59.38 29.88 59.00 29.50 58.53 29.50
  L 43.35 29.50
  C 42.88 29.50 42.50 29.88 42.50 30.35
  L 42.50 30.39
  C 42.50 30.86 42.88 31.24 43.35 31.24
  L 58.53 31.24
  C 59.00 31.24 59.38 30.86 59.38 30.39
  L 59.38 30.35"
/>
<path stroke="#e98091" vector-effect="non-scaling-stroke" d="
  M 59.2403 33.8046
  C 59.24 33.36 58.88 33.00 58.4417 33.0032
  L 43.3018 32.9768
  C 42.86 32.98 42.50 33.33 42.5004 33.7754
  L 42.4997 34.1754
  C 42.50 34.62 42.86 34.98 43.2983 34.9768
  L 58.4382 35.0032
  C 58.88 35.00 59.24 34.65 59.2396 34.2046
  L 59.2403 33.8046"
/>
<path stroke="#6ad9b3" vector-effect="non-scaling-stroke" d="
  M 52.75 46.71
  Q 52.67 50.64 57.69 49.48
  C 57.99 49.41 58.23 49.16 58.28 48.86
  Q 59.41 43.09 55.25 44.29"
/>
<path stroke="#e98091" vector-effect="non-scaling-stroke" d="
  M 55.25 44.29
  Q 55.89 43.50 55.66 42.48
  Q 55.53 41.94 55.64 41.52
  Q 56.41 38.58 53.59 39.13
  Q 52.03 39.44 50.44 39.31
  Q 47.37 39.05 48.14 40.97
  Q 48.83 42.70 48.25 44.49
  Q 47.44 46.99 49.75 46.85
  Q 50.43 46.81 51.24 46.87
  Q 52.02 46.94 52.75 46.71"
/>
<path stroke="#7f6b47" vector-effect="non-scaling-stroke" d="
  M 55.25 44.29
  Q 52.82 44.14 52.75 46.71"
/>
<path stroke="#6ad3f7" vector-effect="non-scaling-stroke" d="
  M 41.1898 41.8139
  C 41.19 41.31 40.78 40.90 40.2782 40.9055
  L 23.6582 40.9345
  C 23.16 40.94 22.75 41.34 22.7498 41.8461
  L 22.7502 42.1061
  C 22.75 42.61 23.16 43.02 23.6618 43.0145
  L 40.2818 42.9855
  C 40.78 42.98 41.19 42.58 41.1902 42.0739
  L 41.1898 41.8139"
/>
<path stroke="#6ad3f7" vector-effect="non-scaling-stroke" d="
  M 41.23 45.44
  C 41.23 44.93 40.81 44.51 40.30 44.51
  L 23.64 44.51
  C 23.13 44.51 22.71 44.93 22.71 45.44
  L 22.71 45.58
  C 22.71 46.09 23.13 46.51 23.64 46.51
  L 40.30 46.51
  C 40.81 46.51 41.23 46.09 41.23 45.58
  L 41.23 45.44"
/>
<path stroke="#6ad3f7" vector-effect="non-scaling-stroke" d="
  M 41.1999 49.0739
  C 41.20 48.47 40.71 47.98 40.1080 47.9858
  L 23.8081 48.0142
  C 23.21 48.02 22.72 48.50 22.7200 49.1061
  L 22.7201 49.1661
  C 22.72 49.77 23.21 50.26 23.8120 50.2542
  L 40.1119 50.2258
  C 40.71 50.22 41.20 49.74 41.2000 49.1339
  L 41.1999 49.0739"
/>
<path stroke="#977653" vector-effect="non-scaling-stroke" d="
  M 59.25 54.79
  Q 60.01 57.20 59.14 59.47
  C 59.03 59.74 58.76 59.91 58.44 59.92
  L 54.54 60.00"
/>
<path stroke="#ffa101" vector-effect="non-scaling-stroke" d="
  M 54.54 60.00
  Q 53.87 59.38 53.10 59.53
  Q 51.92 59.75 51.86 59.75
  Q 33.32 59.88 14.05 59.55
  C 13.60 59.54 13.24 59.18 13.25 58.73
  Q 13.39 34.66 13.06 11.31
  Q 13.55 10.55 12.75 10.21"
/>
<path stroke="#978752" vector-effect="non-scaling-stroke" d="
  M 54.54 60.00
  L 54.46 63.56
  C 54.44 64.23 53.88 64.76 53.19 64.77
  L 15.50 65.04"
/>
<path stroke="#978752" vector-effect="non-scaling-stroke" d="
  M 7.96 57.50
  L 7.96 17.75"
/>
<path stroke="#4be2e7" vector-effect="non-scaling-stroke" d="
  M 35.19 23.56
  Q 36.82 24.33 37.33 26.33
  C 37.42 26.67 37.63 26.92 37.89 27.01
  Q 38.87 27.33 38.56 26.19
  Q 37.98 23.98 35.44 22.50
  C 35.15 22.32 34.80 22.36 34.64 22.58
  Q 34.25 23.12 35.19 23.56"
/>
<path stroke="#fe1224" vector-effect="non-scaling-stroke" d="
  M 24.69 26.69
  Q 24.12 27.50 24.16 28.26
  Q 24.19 28.84 24.48 28.31
  Q 25.69 26.06 27.56 25.06
  Q 27.91 24.88 28.02 24.68
  Q 28.35 24.10 27.56 24.38
  Q 25.87 24.98 24.69 26.69"
/>
</g>
<path fill="#d3eefd" d="
  M 18.06 0.00
  Q 40.81 0.00 63.56 0.00
  Q 64.16 1.89 64.00 4.75
  Q 63.70 10.32 64.29 18.25
  L 63.94 53.43
  C 63.93 53.76 63.77 54.05 63.51 54.20
  Q 61.61 55.28 59.25 54.79
  L 18.59 54.55
  C 18.12 54.54 17.74 54.16 17.74 53.68
  L 17.50 5.21
  Q 17.70 2.59 18.06 0.00
  Z
  M 59.3899 6.0798
  C 59.39 5.62 59.01 5.24 58.5485 5.2413
  L 48.5685 5.2587
  C 48.10 5.26 47.73 5.64 47.7300 6.1002
  L 47.7301 6.1602
  C 47.73 6.62 48.11 7.00 48.5715 6.9987
  L 58.5515 6.9813
  C 59.02 6.98 59.39 6.60 59.3900 6.1398
  L 59.3899 6.0798
  Z
  M 23.00 15.71
  Q 20.36 16.39 22.09 17.72
  C 22.33 17.90 22.65 18.00 23.00 18.00
  Q 32.96 18.04 42.92 17.94
  Q 43.78 17.94 44.34 17.52
  Q 46.09 16.22 43.00 15.71
  Q 42.79 12.09 43.18 8.49
  Q 43.49 5.63 40.29 6.35
  C 39.99 6.42 39.78 6.68 39.78 6.98
  L 39.75 15.46
  Q 38.72 16.28 37.75 15.46
  Q 38.92 11.53 35.75 11.75
  Q 32.90 11.94 34.00 15.46
  Q 33.06 15.97 32.00 15.71
  L 31.86 9.68
  C 31.85 9.38 31.66 9.10 31.37 8.97
  Q 28.24 7.57 28.56 11.27
  Q 28.75 13.48 28.75 15.71
  L 26.50 15.71
  L 26.45 6.81
  C 26.45 6.51 26.25 6.24 25.96 6.15
  Q 22.76 5.17 22.93 8.29
  Q 23.00 9.66 23.00 9.71
  Q 23.00 12.71 23.00 15.71
  Z
  M 59.3821 9.5106
  C 59.39 9.17 59.11 8.89 58.7686 8.8842
  L 48.4292 8.7759
  C 48.09 8.77 47.81 9.05 47.8027 9.3894
  L 47.7979 9.8494
  C 47.79 10.19 48.07 10.47 48.4114 10.4758
  L 58.7508 10.5841
  C 59.09 10.59 59.37 10.31 59.3773 9.9706
  L 59.3821 9.5106
  Z
  M 59.25 13.28
  C 59.25 12.85 58.90 12.50 58.47 12.50
  L 48.51 12.50
  C 48.08 12.50 47.73 12.85 47.73 13.28
  L 47.73 13.46
  C 47.73 13.89 48.08 14.24 48.51 14.24
  L 58.47 14.24
  C 58.90 14.24 59.25 13.89 59.25 13.46
  L 59.25 13.28
  Z
  M 59.2799 16.8498
  C 59.28 16.39 58.90 16.01 58.4385 16.0113
  L 48.4185 16.0287
  C 47.95 16.03 47.58 16.41 47.5800 16.8702
  L 47.5801 16.9302
  C 47.58 17.39 47.96 17.77 48.4215 17.7687
  L 58.4415 17.7513
  C 58.91 17.75 59.28 17.37 59.2800 16.9098
  L 59.2799 16.8498
  Z
  M 34.54 24.87
  C 35.36 25.17 36.00 25.96 36.25 26.98
  Q 36.65 28.68 39.67 27.97
  C 39.95 27.91 40.13 27.63 40.07 27.35
  Q 38.89 21.70 33.53 20.27
  C 33.08 20.15 32.62 20.41 32.55 20.84
  L 32.13 23.56
  C 32.10 23.80 32.32 24.06 32.66 24.19
  L 34.54 24.87
  Z
  M 22.04 30.50
  Q 21.71 32.11 22.44 33.53
  Q 25.22 38.88 30.57 38.50
  Q 33.43 38.30 35.52 36.50
  Q 37.86 34.48 38.25 31.50
  Q 38.44 30.02 36.74 30.37
  Q 36.26 30.47 35.77 30.38
  Q 34.30 30.11 33.86 31.28
  Q 33.30 32.82 33.19 32.95
  Q 31.62 35.08 29.25 34.50
  Q 26.46 33.82 25.71 30.25
  Q 26.44 27.15 29.33 26.20
  C 29.64 26.10 29.88 25.86 29.94 25.57
  Q 30.24 24.16 29.84 22.79
  C 29.76 22.51 29.48 22.33 29.18 22.38
  Q 22.42 23.48 22.04 30.50
  Z
  M 59.4100 23.1148
  C 59.41 22.64 59.03 22.25 58.5515 22.2533
  L 43.3515 22.2267
  C 42.88 22.23 42.49 22.61 42.4900 23.0852
  L 42.4900 23.1252
  C 42.49 23.60 42.87 23.99 43.3485 23.9867
  L 58.5485 24.0133
  C 59.02 24.01 59.41 23.63 59.4100 23.1548
  L 59.4100 23.1148
  Z
  M 59.37 26.59
  C 59.37 26.13 59.00 25.76 58.54 25.76
  L 43.38 25.76
  C 42.92 25.76 42.55 26.13 42.55 26.59
  L 42.55 26.73
  C 42.55 27.19 42.92 27.56 43.38 27.56
  L 58.54 27.56
  C 59.00 27.56 59.37 27.19 59.37 26.73
  L 59.37 26.59
  Z
  M 59.38 30.35
  C 59.38 29.88 59.00 29.50 58.53 29.50
  L 43.35 29.50
  C 42.88 29.50 42.50 29.88 42.50 30.35
  L 42.50 30.39
  C 42.50 30.86 42.88 31.24 43.35 31.24
  L 58.53 31.24
  C 59.00 31.24 59.38 30.86 59.38 30.39
  L 59.38 30.35
  Z
  M 59.2403 33.8046
  C 59.24 33.36 58.88 33.00 58.4417 33.0032
  L 43.3018 32.9768
  C 42.86 32.98 42.50 33.33 42.5004 33.7754
  L 42.4997 34.1754
  C 42.50 34.62 42.86 34.98 43.2983 34.9768
  L 58.4382 35.0032
  C 58.88 35.00 59.24 34.65 59.2396 34.2046
  L 59.2403 33.8046
  Z
  M 52.75 46.71
  Q 52.67 50.64 57.69 49.48
  C 57.99 49.41 58.23 49.16 58.28 48.86
  Q 59.41 43.09 55.25 44.29
  Q 55.89 43.50 55.66 42.48
  Q 55.53 41.94 55.64 41.52
  Q 56.41 38.58 53.59 39.13
  Q 52.03 39.44 50.44 39.31
  Q 47.37 39.05 48.14 40.97
  Q 48.83 42.70 48.25 44.49
  Q 47.44 46.99 49.75 46.85
  Q 50.43 46.81 51.24 46.87
  Q 52.02 46.94 52.75 46.71
  Z
  M 41.1898 41.8139
  C 41.19 41.31 40.78 40.90 40.2782 40.9055
  L 23.6582 40.9345
  C 23.16 40.94 22.75 41.34 22.7498 41.8461
  L 22.7502 42.1061
  C 22.75 42.61 23.16 43.02 23.6618 43.0145
  L 40.2818 42.9855
  C 40.78 42.98 41.19 42.58 41.1902 42.0739
  L 41.1898 41.8139
  Z
  M 41.23 45.44
  C 41.23 44.93 40.81 44.51 40.30 44.51
  L 23.64 44.51
  C 23.13 44.51 22.71 44.93 22.71 45.44
  L 22.71 45.58
  C 22.71 46.09 23.13 46.51 23.64 46.51
  L 40.30 46.51
  C 40.81 46.51 41.23 46.09 41.23 45.58
  L 41.23 45.44
  Z
  M 41.1999 49.0739
  C 41.20 48.47 40.71 47.98 40.1080 47.9858
  L 23.8081 48.0142
  C 23.21 48.02 22.72 48.50 22.7200 49.1061
  L 22.7201 49.1661
  C 22.72 49.77 23.21 50.26 23.8120 50.2542
  L 40.1119 50.2258
  C 40.71 50.22 41.20 49.74 41.2000 49.1339
  L 41.1999 49.0739
  Z"
/>
<path fill="#ff8f01" d="
  M 17.50 5.21
  L 17.74 53.68
  C 17.74 54.16 18.12 54.54 18.59 54.55
  L 59.25 54.79
  Q 60.01 57.20 59.14 59.47
  C 59.03 59.74 58.76 59.91 58.44 59.92
  L 54.54 60.00
  Q 53.87 59.38 53.10 59.53
  Q 51.92 59.75 51.86 59.75
  Q 33.32 59.88 14.05 59.55
  C 13.60 59.54 13.24 59.18 13.25 58.73
  Q 13.39 34.66 13.06 11.31
  Q 13.55 10.55 12.75 10.21
  Q 13.30 9.73 13.05 6.27
  C 13.01 5.69 13.42 5.20 13.94 5.20
  L 17.50 5.21
  Z"
/>
<rect fill="#ff4c00" x="-5.83" y="-0.87" transform="translate(53.56,6.12) rotate(-0.1)" width="11.66" height="1.74" rx="0.84"/>
<path fill="#ffb200" d="
  M 26.50 15.71
  Q 24.75 16.37 23.00 15.71
  Q 23.00 12.71 23.00 9.71
  Q 23.00 9.66 22.93 8.29
  Q 22.76 5.17 25.96 6.15
  C 26.25 6.24 26.45 6.51 26.45 6.81
  L 26.50 15.71
  Z"
/>
<path fill="#4be2e7" d="
  M 43.00 15.71
  L 39.75 15.46
  L 39.78 6.98
  C 39.78 6.68 39.99 6.42 40.29 6.35
  Q 43.49 5.63 43.18 8.49
  Q 42.79 12.09 43.00 15.71
  Z"
/>
<path fill="#fe1224" d="
  M 32.00 15.71
  L 28.75 15.71
  Q 28.75 13.48 28.56 11.27
  Q 28.24 7.57 31.37 8.97
  C 31.66 9.10 31.85 9.38 31.86 9.68
  L 32.00 15.71
  Z"
/>
<rect fill="#ff4c00" x="-5.79" y="-0.85" transform="translate(53.59,9.68) rotate(0.6)" width="11.58" height="1.70" rx="0.62"/>
<path fill="#ffb200" d="
  M 12.75 10.21
  Q 13.55 10.55 13.06 11.31
  Q 13.39 34.66 13.25 58.73
  C 13.24 59.18 13.60 59.54 14.05 59.55
  Q 33.32 59.88 51.86 59.75
  Q 51.92 59.75 53.10 59.53
  Q 53.87 59.38 54.54 60.00
  L 54.46 63.56
  C 54.44 64.23 53.88 64.76 53.19 64.77
  L 15.50 65.04
  Q 11.09 61.92 7.96 57.50
  L 7.96 17.75
  L 8.27 10.70
  C 8.29 10.29 8.61 9.98 8.98 10.00
  L 12.75 10.21
  Z"
/>
<path fill="#00c469" d="
  M 37.75 15.46
  Q 35.86 16.29 34.00 15.46
  Q 32.90 11.94 35.75 11.75
  Q 38.92 11.53 37.75 15.46
  Z"
/>
<rect fill="#ff4c00" x="47.73" y="12.50" width="11.52" height="1.74" rx="0.78"/>
<path fill="#00b8f1" d="
  M 34.00 15.46
  Q 35.86 16.29 37.75 15.46
  Q 38.72 16.28 39.75 15.46
  L 43.00 15.71
  Q 46.09 16.22 44.34 17.52
  Q 43.78 17.94 42.92 17.94
  Q 32.96 18.04 23.00 18.00
  C 22.65 18.00 22.33 17.90 22.09 17.72
  Q 20.36 16.39 23.00 15.71
  Q 24.75 16.37 26.50 15.71
  L 28.75 15.71
  L 32.00 15.71
  Q 33.06 15.97 34.00 15.46
  Z"
/>
<rect fill="#ff4c00" x="-5.85" y="-0.87" transform="translate(53.43,16.89) rotate(-0.1)" width="11.70" height="1.74" rx="0.84"/>
<path fill="#2f5ca4" d="
  M 7.96 17.75
  L 7.96 57.50
  Q -5.00 37.65 7.96 17.75
  Z"
/>
<path fill="#2f5ca4" d="
  M 64.29 18.25
  Q 73.25 30.85 69.69 44.94
  Q 63.45 69.58 37.19 72.00
  Q 35.81 72.00 34.44 72.00
  Q 23.84 71.45 15.50 65.04
  L 53.19 64.77
  C 53.88 64.76 54.44 64.23 54.46 63.56
  L 54.54 60.00
  L 58.44 59.92
  C 58.76 59.91 59.03 59.74 59.14 59.47
  Q 60.01 57.20 59.25 54.79
  Q 61.61 55.28 63.51 54.20
  C 63.77 54.05 63.93 53.76 63.94 53.43
  L 64.29 18.25
  Z"
/>
<path fill="#4be2e7" d="
  M 34.54 24.87
  L 32.66 24.19
  C 32.32 24.06 32.10 23.80 32.13 23.56
  L 32.55 20.84
  C 32.62 20.41 33.08 20.15 33.53 20.27
  Q 38.89 21.70 40.07 27.35
  C 40.13 27.63 39.95 27.91 39.67 27.97
  Q 36.65 28.68 36.25 26.98
  C 36.00 25.96 35.36 25.17 34.54 24.87
  Z
  M 35.19 23.56
  Q 36.82 24.33 37.33 26.33
  C 37.42 26.67 37.63 26.92 37.89 27.01
  Q 38.87 27.33 38.56 26.19
  Q 37.98 23.98 35.44 22.50
  C 35.15 22.32 34.80 22.36 34.64 22.58
  Q 34.25 23.12 35.19 23.56
  Z"
/>
<path fill="#fe1224" d="
  M 25.71 30.25
  L 22.04 30.50
  Q 22.42 23.48 29.18 22.38
  C 29.48 22.33 29.76 22.51 29.84 22.79
  Q 30.24 24.16 29.94 25.57
  C 29.88 25.86 29.64 26.10 29.33 26.20
  Q 26.44 27.15 25.71 30.25
  Z
  M 24.69 26.69
  Q 24.12 27.50 24.16 28.26
  Q 24.19 28.84 24.48 28.31
  Q 25.69 26.06 27.56 25.06
  Q 27.91 24.88 28.02 24.68
  Q 28.35 24.10 27.56 24.38
  Q 25.87 24.98 24.69 26.69
  Z"
/>
<path fill="#4be2e7" d="
  M 35.19 23.56
  Q 34.25 23.12 34.64 22.58
  C 34.80 22.36 35.15 22.32 35.44 22.50
  Q 37.98 23.98 38.56 26.19
  Q 38.87 27.33 37.89 27.01
  C 37.63 26.92 37.42 26.67 37.33 26.33
  Q 36.82 24.33 35.19 23.56
  Z"
/>
<rect fill="#ff0006" x="-8.46" y="-0.88" transform="translate(50.95,23.12) rotate(0.1)" width="16.92" height="1.76" rx="0.86"/>
<path fill="#fe1224" d="
  M 24.69 26.69
  Q 25.87 24.98 27.56 24.38
  Q 28.35 24.10 28.02 24.68
  Q 27.91 24.88 27.56 25.06
  Q 25.69 26.06 24.48 28.31
  Q 24.19 28.84 24.16 28.26
  Q 24.12 27.50 24.69 26.69
  Z"
/>
<rect fill="#ff0006" x="42.55" y="25.76" width="16.82" height="1.80" rx="0.83"/>
<rect fill="#ff0006" x="42.50" y="29.50" width="16.88" height="1.74" rx="0.85"/>
<path fill="#ffb200" d="
  M 25.71 30.25
  Q 26.46 33.82 29.25 34.50
  Q 31.62 35.08 33.19 32.95
  Q 33.30 32.82 33.86 31.28
  Q 34.30 30.11 35.77 30.38
  Q 36.26 30.47 36.74 30.37
  Q 38.44 30.02 38.25 31.50
  Q 37.86 34.48 35.52 36.50
  Q 33.43 38.30 30.57 38.50
  Q 25.22 38.88 22.44 33.53
  Q 21.71 32.11 22.04 30.50
  L 25.71 30.25
  Z"
/>
<rect fill="#fe1224" x="-8.37" y="-1.00" transform="translate(50.87,33.99) rotate(0.1)" width="16.74" height="2.00" rx="0.80"/>
<path fill="#fe1224" d="
  M 55.25 44.29
  Q 52.82 44.14 52.75 46.71
  Q 52.02 46.94 51.24 46.87
  Q 50.43 46.81 49.75 46.85
  Q 47.44 46.99 48.25 44.49
  Q 48.83 42.70 48.14 40.97
  Q 47.37 39.05 50.44 39.31
  Q 52.03 39.44 53.59 39.13
  Q 56.41 38.58 55.64 41.52
  Q 55.53 41.94 55.66 42.48
  Q 55.89 43.50 55.25 44.29
  Z"
/>
<rect fill="#00b8f1" x="-9.22" y="-1.04" transform="translate(31.97,41.96) rotate(-0.1)" width="18.44" height="2.08" rx="0.91"/>
<path fill="#00c469" d="
  M 52.75 46.71
  Q 52.82 44.14 55.25 44.29
  Q 59.41 43.09 58.28 48.86
  C 58.23 49.16 57.99 49.41 57.69 49.48
  Q 52.67 50.64 52.75 46.71
  Z"
/>
<rect fill="#00b8f1" x="22.71" y="44.51" width="18.52" height="2.00" rx="0.93"/>
<rect fill="#00b8f1" x="-9.24" y="-1.12" transform="translate(31.96,49.12) rotate(-0.1)" width="18.48" height="2.24" rx="1.09"/>
</svg>
