<svg xmlns="http://www.w3.org/2000/svg" version="1.1" viewBox="0 0 1024 1024">
<path fill="#ffffff" d="
  M 689.06 232.44
  Q 699.68 243.38 708.07 254.16
  Q 757.92 318.22 770.75 397.75
  Q 775.29 425.87 774.04 456.50
  Q 770.03 555.34 709.29 632.88
  C 708.94 633.33 708.95 633.97 709.33 634.41
  Q 774.55 708.61 839.35 782.54
  Q 850.10 794.81 852.14 797.89
  Q 859.24 808.62 860.70 821.51
  Q 861.85 831.67 859.43 841.37
  Q 855.17 858.48 840.56 870.81
  Q 822.33 886.20 798.26 883.20
  Q 778.07 880.68 764.73 865.51
  Q 695.05 786.32 625.49 707.13
  C 625.35 706.97 625.11 706.93 624.93 707.04
  Q 553.92 749.56 471.00 750.00
  Q 383.19 750.47 307.51 703.73
  Q 226.68 653.82 188.85 566.56
  Q 158.91 497.49 164.25 422.50
  Q 168.70 359.98 197.95 304.14
  Q 257.01 191.38 378.44 152.94
  Q 422.73 138.91 470.00 139.24
  Q 552.36 139.80 623.26 180.94
  Q 659.50 201.97 689.06 232.44
  Z
  M 340.41 590.21
  Q 384.81 630.54 446.50 637.50
  Q 513.21 645.02 568.51 611.56
  Q 576.89 606.50 585.03 600.31
  Q 608.69 582.31 626.06 559.31
  Q 649.81 527.86 658.42 488.23
  Q 664.35 460.93 663.02 433.00
  Q 660.75 385.14 635.61 344.61
  Q 612.66 307.61 579.44 284.31
  Q 554.00 266.47 525.94 258.31
  Q 487.75 247.21 446.50 251.25
  Q 403.94 255.42 366.72 279.24
  Q 335.99 298.92 314.06 326.81
  Q 285.94 362.58 277.81 408.16
  Q 272.47 438.05 275.77 468.25
  Q 279.02 497.88 291.25 524.25
  Q 304.54 552.89 326.20 576.16
  Q 333.09 583.56 340.41 590.21
  Z"
/>
</svg>
