<svg xmlns="http://www.w3.org/2000/svg" version="1.1" viewBox="0 0 190 25">
<path fill="#009999" d="
  M 7.56 0.00
  Q 9.94 0.00 12.31 0.00
  Q 14.24 0.42 16.19 0.73
  C 16.54 0.79 16.79 1.04 16.77 1.31
  L 16.55 4.92
  C 16.53 5.18 16.25 5.35 15.98 5.25
  Q 12.26 3.96 8.98 4.36
  Q 7.63 4.53 6.92 5.35
  Q 5.57 6.91 8.16 8.11
  Q 11.20 9.53 14.22 11.00
  Q 19.88 13.76 18.54 19.12
  Q 17.92 21.59 15.84 23.07
  Q 13.79 24.52 11.19 25.00
  Q 7.56 25.00 3.94 25.00
  Q -0.40 25.37 0.76 20.05
  C 0.83 19.73 1.16 19.55 1.46 19.65
  Q 5.81 21.10 9.86 20.43
  Q 10.98 20.24 11.49 19.74
  Q 12.30 18.96 11.88 17.77
  C 11.78 17.49 11.57 17.23 11.27 17.04
  Q 8.35 15.19 6.25 14.50
  Q 1.51 12.95 0.00 8.69
  Q 0.00 7.31 0.00 5.94
  Q 1.84 0.66 7.56 0.00
  Z"
/>
<path fill="#009999" d="
  M 149.31 0.00
  Q 151.69 0.00 154.06 0.00
  Q 155.87 0.40 157.70 0.73
  C 158.07 0.79 158.35 1.03 158.34 1.29
  L 158.29 4.78
  C 158.29 5.10 157.94 5.31 157.60 5.20
  Q 154.51 4.18 151.58 4.24
  Q 150.18 4.26 149.16 4.86
  Q 146.50 6.40 150.05 8.15
  Q 153.15 9.69 156.21 11.32
  Q 161.14 13.95 160.23 18.73
  Q 159.72 21.37 157.60 22.99
  Q 155.50 24.59 152.69 25.00
  Q 148.94 25.00 145.19 25.00
  Q 141.10 25.16 142.19 20.11
  C 142.27 19.75 142.64 19.54 142.98 19.66
  Q 146.59 20.93 150.58 20.59
  Q 152.20 20.46 153.07 19.66
  Q 154.49 18.37 152.89 16.99
  Q 152.28 16.46 150.86 15.86
  Q 146.07 13.87 145.06 13.19
  Q 140.25 9.91 141.98 5.10
  Q 142.79 2.84 144.84 1.57
  Q 146.83 0.33 149.31 0.00
  Z"
/>
<rect fill="#009999" x="22.50" y="0.42" width="7.00" height="24.32" rx="0.64"/>
<path fill="#009999" d="
  M 42.29 5.56
  L 42.26 9.62
  C 42.26 9.97 42.55 10.25 42.91 10.25
  L 51.05 10.25
  C 51.36 10.25 51.62 10.47 51.64 10.76
  L 51.85 13.56
  C 51.87 13.85 51.62 14.09 51.31 14.10
  L 43.28 14.24
  C 42.71 14.25 42.25 14.70 42.25 15.24
  L 42.25 19.25
  C 42.25 19.66 42.59 20.00 43.00 20.00
  L 52.98 20.00
  C 53.27 20.00 53.50 20.23 53.50 20.52
  L 53.50 23.70
  C 53.50 24.27 53.04 24.74 52.48 24.73
  L 36.44 24.58
  C 36.15 24.58 35.92 24.34 35.92 24.05
  L 35.92 0.93
  C 35.92 0.66 36.15 0.44 36.43 0.44
  L 52.42 0.50
  C 52.75 0.50 53.02 0.72 53.03 1.00
  L 53.11 4.21
  C 53.12 4.45 52.82 4.66 52.44 4.68
  L 42.81 5.02
  C 42.52 5.03 42.29 5.27 42.29 5.56
  Z"
/>
<path fill="#009999" d="
  M 73.44 25.00
  Q 71.69 25.00 69.94 25.00
  Q 66.22 17.09 63.35 8.84
  Q 63.21 8.46 63.00 8.61
  C 62.88 8.69 62.81 8.87 62.81 9.08
  L 62.76 23.38
  C 62.75 23.97 62.35 24.44 61.85 24.46
  L 58.28 24.60
  C 58.02 24.61 57.81 24.31 57.81 23.93
  L 57.75 1.16
  C 57.75 0.80 58.05 0.50 58.41 0.50
  L 66.27 0.50
  C 66.61 0.50 66.91 0.71 67.04 1.02
  L 72.57 14.90
  Q 72.89 15.72 73.22 14.90
  L 78.88 1.02
  C 78.99 0.75 79.25 0.57 79.55 0.56
  L 87.20 0.33
  C 87.47 0.32 87.69 0.53 87.69 0.79
  L 87.69 23.96
  C 87.69 24.40 87.35 24.75 86.92 24.75
  L 81.96 24.75
  C 81.57 24.75 81.26 24.44 81.26 24.06
  L 81.25 9.32
  Q 81.25 7.09 80.45 9.17
  Q 77.64 16.43 74.56 23.56
  Q 74.06 24.73 73.44 25.00
  Z"
/>
<path fill="#009999" d="
  M 101.07 10.20
  L 109.44 10.31
  C 109.73 10.31 109.97 10.53 109.97 10.81
  L 109.97 13.69
  C 109.97 13.97 109.73 14.20 109.44 14.20
  L 101.38 14.24
  C 100.89 14.25 100.50 14.63 100.50 15.11
  L 100.50 19.29
  C 100.50 19.70 100.85 20.03 101.28 20.04
  L 110.99 20.20
  C 111.34 20.21 111.61 20.44 111.62 20.74
  L 111.66 24.08
  C 111.67 24.36 111.39 24.59 111.06 24.59
  L 94.44 24.59
  C 94.15 24.59 93.92 24.35 93.92 24.06
  L 93.92 1.19
  C 93.92 0.91 94.15 0.68 94.44 0.67
  L 110.56 0.44
  C 110.90 0.43 111.17 0.65 111.18 0.93
  L 111.28 4.20
  C 111.29 4.46 111.02 4.67 110.68 4.68
  L 101.18 4.91
  C 100.88 4.92 100.63 5.14 100.62 5.43
  L 100.52 9.68
  C 100.51 9.96 100.76 10.19 101.07 10.20
  Z"
/>
<path fill="#009999" d="
  M 132.30 15.61
  Q 132.54 15.45 132.54 15.00
  Q 132.50 8.50 132.50 0.92
  C 132.50 0.54 132.85 0.26 133.22 0.35
  Q 134.87 0.75 136.19 0.43
  C 136.73 0.30 137.25 0.71 137.25 1.27
  L 137.25 23.83
  C 137.25 24.34 136.84 24.75 136.33 24.75
  L 130.41 24.75
  C 129.88 24.75 129.39 24.46 129.16 24.00
  L 121.99 9.98
  Q 121.06 8.16 121.05 10.19
  L 121.00 23.66
  C 121.00 24.17 120.64 24.58 120.20 24.59
  L 116.73 24.63
  C 116.46 24.63 116.25 24.35 116.25 24.00
  L 116.25 0.92
  C 116.25 0.65 116.48 0.42 116.76 0.43
  L 123.50 0.49
  C 123.94 0.50 124.33 0.73 124.51 1.09
  L 131.59 15.23
  C 131.76 15.57 132.09 15.75 132.30 15.61
  Z"
/>
</svg>
