<svg xmlns="http://www.w3.org/2000/svg" version="1.1" viewBox="0 0 100 101">
<path fill="#008cc5" d="
  M 68.76 52.48
  Q 65.05 49.09 66.46 44.36
  Q 66.96 42.68 66.97 42.62
  Q 73.36 16.33 51.94 1.31
  Q 51.47 0.98 51.44 0.72
  Q 51.38 0.17 52.14 0.52
  Q 80.07 13.14 78.90 43.91
  Q 78.77 47.24 78.02 48.98
  Q 76.93 51.54 74.56 53.06
  Q 71.55 55.01 68.76 52.48
  Z"
/>
<path fill="#ff0065" d="
  M 21.12 32.25
  Q 27.70 12.54 46.50 5.00
  Q 48.69 4.12 51.24 4.47
  Q 53.91 4.84 55.38 6.38
  Q 57.44 8.55 56.25 12.00
  Q 55.37 14.55 52.69 15.94
  Q 51.32 16.64 48.63 17.33
  Q 45.88 18.03 44.56 18.55
  Q 22.99 26.96 20.25 50.77
  Q 19.88 53.95 19.39 50.78
  Q 17.97 41.67 21.12 32.25
  Z"
/>
<path fill="#ff0065" d="
  M 58.56 56.94
  Q 69.74 58.22 79.89 52.94
  C 80.17 52.80 80.47 52.83 80.56 53.01
  Q 80.69 53.26 80.31 53.56
  Q 70.18 61.79 56.73 62.80
  Q 38.70 64.15 25.50 53.00
  Q 22.59 50.54 22.84 46.93
  Q 23.03 44.24 24.91 42.75
  Q 27.00 41.09 30.00 41.75
  Q 32.98 42.40 35.30 44.95
  Q 44.75 55.35 58.56 56.94
  Z"
/>
<path fill="#000000" d="
  M 58.19 101.00
  Q 57.69 101.00 57.19 101.00
  Q 56.50 100.42 56.50 98.50
  Q 56.50 86.01 56.50 73.52
  Q 56.50 72.52 56.74 72.02
  Q 57.27 70.93 58.39 71.90
  C 58.62 72.10 58.76 72.41 58.77 72.76
  Q 59.18 84.87 59.00 97.00
  Q 58.96 99.94 58.19 101.00
  Z"
/>
<circle fill="#000000" cx="32.38" cy="76.49" r="1.41"/>
<path fill="#000000" d="
  M 21.19 101.00
  Q 18.44 101.00 15.69 101.00
  Q 14.25 99.65 12.94 101.00
  Q 9.94 101.00 6.94 101.00
  Q 1.25 99.29 0.00 93.44
  Q 0.00 88.56 0.00 83.69
  Q 1.19 81.89 2.40 83.41
  C 2.59 83.64 2.70 83.95 2.71 84.30
  Q 2.85 88.16 2.75 89.25
  Q 1.73 99.84 12.32 98.06
  C 12.71 98.00 13.00 97.66 13.00 97.26
  Q 13.00 91.45 13.00 85.65
  Q 13.00 85.56 12.90 84.37
  Q 12.77 82.93 13.96 82.81
  C 14.92 82.71 15.75 83.46 15.75 84.42
  L 15.75 96.99
  C 15.75 97.62 16.23 98.15 16.86 98.21
  Q 26.87 99.20 25.78 89.50
  Q 25.44 86.47 26.18 83.56
  C 26.27 83.22 26.49 82.96 26.77 82.87
  Q 27.81 82.53 28.40 83.33
  Q 28.75 83.80 28.75 84.76
  Q 28.77 87.50 28.92 90.24
  Q 29.39 98.89 21.19 101.00
  Z"
/>
<path fill="#000000" d="
  M 32.94 101.00
  Q 32.31 101.00 31.69 101.00
  Q 31.00 100.26 31.00 98.25
  Q 31.00 91.94 31.00 85.62
  Q 31.00 85.56 30.91 84.39
  Q 30.79 82.72 32.25 82.79
  C 33.09 82.83 33.75 83.52 33.75 84.37
  Q 33.75 91.75 33.75 97.75
  Q 33.75 100.08 32.94 101.00
  Z"
/>
<path fill="#000000" d="
  M 51.44 101.00
  Q 46.19 101.00 40.94 101.00
  Q 36.66 99.65 36.00 95.50
  Q 35.62 93.09 37.19 91.70
  Q 38.25 90.76 40.58 90.62
  Q 45.16 90.35 50.35 90.53
  C 50.98 90.55 51.51 90.04 51.50 89.40
  Q 51.46 85.37 45.59 85.55
  C 44.76 85.57 44.02 85.04 43.78 84.24
  Q 43.22 82.36 45.91 82.63
  Q 47.42 82.78 47.59 82.79
  Q 54.74 83.34 54.10 89.98
  Q 53.88 92.19 54.18 94.01
  Q 54.61 96.59 54.19 98.44
  Q 53.79 100.19 51.44 101.00
  Z
  M 42.18 98.05
  Q 45.66 98.50 50.11 98.14
  C 50.71 98.09 51.20 97.64 51.29 97.05
  Q 51.94 92.98 49.42 93.15
  Q 48.20 93.23 48.07 93.22
  Q 43.80 93.06 39.55 93.51
  C 39.25 93.54 39.00 93.76 38.93 94.05
  Q 38.55 95.72 39.51 96.87
  Q 40.30 97.81 42.18 98.05
  Z"
/>
<path fill="#000000" d="
  M 71.94 101.00
  Q 70.19 101.00 68.44 101.00
  Q 62.97 99.85 61.50 94.75
  Q 60.24 90.38 62.37 87.01
  Q 64.30 83.97 68.21 83.02
  Q 73.03 81.85 76.38 85.18
  Q 79.22 88.00 79.30 92.17
  Q 79.43 98.80 71.94 101.00
  Z
  M 76.68 91.94
  C 76.68 88.38 73.80 85.50 70.24 85.50
  C 66.68 85.50 63.80 88.38 63.80 91.94
  C 63.80 95.50 66.68 98.38 70.24 98.38
  C 73.80 98.38 76.68 95.50 76.68 91.94
  Z"
/>
<path fill="#000000" d="
  M 100.00 90.31
  Q 100.00 95.66 100.00 101.00
  Q 98.97 101.00 97.94 101.00
  Q 97.25 100.17 97.25 99.75
  Q 97.25 95.75 97.22 91.75
  Q 97.18 87.67 94.50 86.50
  Q 88.57 83.90 85.73 88.19
  Q 84.56 89.93 84.50 93.22
  Q 84.42 97.24 84.50 98.50
  Q 84.62 100.24 83.69 101.00
  Q 83.06 101.00 82.44 101.00
  Q 81.36 100.10 81.69 98.75
  Q 82.11 97.02 81.91 95.24
  Q 81.29 89.56 83.77 86.23
  Q 86.29 82.85 91.20 82.81
  Q 97.71 82.77 100.00 90.31
  Z"
/>
</svg>
